<?xml version="1.0" encoding="UTF-8"?>
<svg version="1.1" xmlns="http://www.w3.org/2000/svg" width="512" height="512">
<path d="M0 0 C0.78632813 0.64195312 1.57265625 1.28390625 2.3828125 1.9453125 C21.75803491 18.40514095 33.61950028 41.91557762 37 67 C37.27807023 71.53835384 37.30421856 76.06338603 37.30078125 80.609375 C37.30506638 81.89322083 37.3093515 83.17706665 37.31376648 84.49981689 C37.3211792 87.20939278 37.32097786 89.91883836 37.31567383 92.62841797 C37.31107727 95.35482434 37.31783431 98.08078099 37.33618164 100.80712891 C37.48352826 122.9382661 36.31209593 144.18193934 30.5625 165.625 C30.27568359 166.74777344 29.98886719 167.87054688 29.69335938 169.02734375 C27.69168903 176.75762522 25.40499318 184.38640714 23 192 C24.010625 192.78375 25.02125 193.5675 26.0625 194.375 C35.86391556 202.80739193 41.24130079 214.37836784 43 227 C43.29231885 231.64300817 43.32762337 236.27447673 43.3359375 240.92578125 C43.3459227 242.88441353 43.3459227 242.88441353 43.35610962 244.88261414 C43.36799417 247.62661051 43.37179887 250.37048171 43.37060547 253.11450195 C43.37040099 256.62279047 43.3978728 260.13028062 43.43214989 263.6383791 C43.45974637 267.00502557 43.45856586 270.37152314 43.4609375 273.73828125 C43.47530853 274.99353104 43.48967957 276.24878082 43.50448608 277.54206848 C43.49833282 278.71065903 43.49217957 279.87924957 43.48583984 281.08325195 C43.48868988 282.1078804 43.49153992 283.13250885 43.49447632 284.18818665 C42.86967115 287.74110809 41.46663979 289.41787517 39 292 C35.81896147 293.59051926 32.38330819 293.14046865 28.8899231 293.13371277 C28.04165762 293.13597833 27.19339214 293.13824388 26.31942165 293.14057809 C23.46049274 293.14693759 20.601611 293.14608748 17.74267578 293.14526367 C15.6996352 293.14825396 13.65659518 293.15165618 11.61355591 293.15544128 C6.05159666 293.164299 0.48965278 293.16662015 -5.07231283 293.16725707 C-9.70966033 293.16820479 -14.34700421 293.17188151 -18.98435032 293.17542917 C-29.92234868 293.18358053 -40.8603388 293.18601279 -51.79833984 293.18530273 C-63.09431032 293.18470182 -74.39023305 293.19525477 -85.68619144 293.2110464 C-95.37284059 293.22410738 -105.05947412 293.22948724 -114.74613202 293.22884732 C-120.53659117 293.2285919 -126.32700793 293.23146733 -132.11745834 293.24202538 C-137.56255091 293.25168207 -143.00756035 293.25180226 -148.45265579 293.24450874 C-150.45377473 293.24345986 -152.45489877 293.24584371 -154.45600891 293.2518692 C-157.18275671 293.25954926 -159.90921457 293.25497083 -162.63595581 293.24723816 C-163.43225745 293.25238172 -164.22855909 293.25752529 -165.04899108 293.26282471 C-171.96607243 293.21932514 -171.96607243 293.21932514 -175 291 C-177.31073296 287.53390057 -177.2614704 286.17340677 -177.29052734 282.08251953 C-177.30328705 280.86339874 -177.31604675 279.64427795 -177.32919312 278.38821411 C-177.33225353 277.05308186 -177.33447981 275.71794747 -177.3359375 274.3828125 C-177.34237073 273.00576643 -177.34909947 271.62872172 -177.35610962 270.25167847 C-177.36809522 267.35818323 -177.37178988 264.46480738 -177.37060547 261.57128906 C-177.37040389 257.89880541 -177.39753036 254.22710976 -177.43214989 250.55481148 C-177.45463 247.70452515 -177.45843641 244.85442083 -177.45738602 242.00405502 C-177.46083788 240.00306181 -177.48239331 238.00212545 -177.50448608 236.00125122 C-177.41237224 217.27922572 -169.93429647 203.90117407 -157 191 C-157.21615967 190.34854004 -157.43231934 189.69708008 -157.6550293 189.02587891 C-172.70620126 143.18876397 -183.615829 79.40037217 -161.3125 33.8125 C-148.25467292 8.43573383 -126.94896986 -10.04373725 -99.84204102 -19.23071289 C-65.52660801 -30.12430458 -27.53149222 -23.49757394 0 0 Z M-127 15 C-127.74894531 15.65355469 -128.49789062 16.30710937 -129.26953125 16.98046875 C-145.01257053 31.67581014 -155.08173553 53.60726443 -156.10099792 75.13296509 C-156.14790972 77.52790867 -156.16447145 79.92100467 -156.16796875 82.31640625 C-156.17224884 83.20159439 -156.17652893 84.08678253 -156.18093872 84.99879456 C-156.19090358 87.85341486 -156.19099693 90.70786564 -156.1875 93.5625 C-156.18656342 94.53596375 -156.18562683 95.50942749 -156.18466187 96.51239014 C-156.12102284 126.89673509 -151.90819245 154.88765973 -143 184 C-139.60014467 185.13328511 -137.46494371 184.73125305 -134 184 C-131.27944185 183.85224479 -128.57772146 183.74509296 -125.85546875 183.68359375 C-125.08568192 183.66281265 -124.31589508 183.64203156 -123.52278137 183.62062073 C-121.07777333 183.55553951 -118.63266317 183.49643409 -116.1875 183.4375 C-114.52407823 183.39427532 -112.86066656 183.35065979 -111.19726562 183.30664062 C-107.13161352 183.19990093 -103.06585929 183.09851829 -99 183 C-98.18634787 174.91118766 -98.18634787 174.91118766 -101.34375 167.7734375 C-102.3853125 166.98195313 -103.426875 166.19046875 -104.5 165.375 C-105.61527841 164.46655742 -106.7259415 163.55242073 -107.83203125 162.6328125 C-108.64921631 161.97007324 -108.64921631 161.97007324 -109.48291016 161.29394531 C-127.97022011 145.52588243 -140.01830872 113.66865073 -142 90 C-142.15280443 86.70795297 -142.22084052 83.42033502 -142.25 80.125 C-142.25942627 79.31562988 -142.26885254 78.50625977 -142.27856445 77.67236328 C-142.25339872 73.0978978 -141.94162251 69.23273706 -140 65 C-136.60175911 62.73450607 -135.32711162 62.92667237 -131.421875 63.50390625 C-128.66908567 64.06778406 -126.01315737 64.84981131 -123.3125 65.625 C-107.18899864 69.73689796 -91.03746703 63.08444191 -77.07470703 55.24511719 C-62.02622883 46.21390528 -46.76806435 34.20272638 -41.578125 16.8828125 C-41 15 -41 15 -40 13 C-30.31354879 11.88844003 -25.08538042 16.10676614 -17.6171875 21.82421875 C-3.86541676 33.25208398 5.55608869 50.26193407 8 68 C10.83194517 99.03789206 0.22951212 131.02195831 -19.51171875 155.12109375 C-28.40634006 165.41204493 -28.40634006 165.41204493 -34.0625 168.875 C-36.58572675 171.64240998 -36.2040419 172.95633643 -36.12109375 176.6328125 C-36.09486938 178.13545654 -36.09486938 178.13545654 -36.06811523 179.66845703 C-36.04563721 180.43786621 -36.02315918 181.20727539 -36 182 C-35.05793701 182.02505615 -34.11587402 182.0501123 -33.14526367 182.07592773 C-29.59846424 182.17194017 -26.05178063 182.27111048 -22.50512695 182.37231445 C-20.97977058 182.41521661 -19.45437981 182.45691568 -17.92895508 182.49731445 C-9.25149598 182.7279919 -0.63544272 183.04648614 8 184 C18.24022731 155.81298256 22.18870788 127.04266925 22.18530273 97.14550781 C22.18749954 95.00045182 22.20579816 92.85590426 22.22460938 90.7109375 C22.34123301 62.54522638 15.1753436 37.72004592 -4.78125 17.0546875 C-21.52209896 0.51868917 -43.56943117 -8.20047062 -67 -8.375 C-89.78924967 -8.20524767 -109.86306045 -0.04085107 -127 15 Z M-32 34 C-33.3706996 35.72617773 -34.67024534 37.509011 -35.9375 39.3125 C-43.97850539 50.34836964 -53.45360014 58.72162048 -65 66 C-66.10214844 66.70125 -67.20429688 67.4025 -68.33984375 68.125 C-83.35465519 77.20612307 -99.5056735 82.44670119 -117.125 82.125 C-118.08148438 82.11597656 -119.03796875 82.10695313 -120.0234375 82.09765625 C-122.34923525 82.07439827 -124.67447294 82.04172213 -127 82 C-127.63477006 105.56583861 -116.1772438 131.32883494 -100.375 148.5625 C-98.61314114 150.40941619 -96.81666797 152.2055883 -95 154 C-94.39542969 154.61488281 -93.79085937 155.22976563 -93.16796875 155.86328125 C-85.72729578 162.86946236 -75.56728883 167.45135235 -65.30078125 167.27734375 C-50.52938293 165.49675074 -37.86719089 154.28413012 -29 143.0625 C-20.05727845 131.30023586 -14.0027217 118.16997261 -10 104 C-9.76667969 103.21753906 -9.53335938 102.43507813 -9.29296875 101.62890625 C-4.98348886 85.22807991 -6.46697495 67.16140485 -14 52 C-18.20595088 45.0561282 -23.25262604 38.64079946 -30 34 C-30.66 34 -31.32 34 -32 34 Z M-82 180 C-82.70648461 185.26474535 -82.70648461 185.26474535 -80.6875 189.97265625 C-78.86774515 191.91833163 -76.98045801 193.71835244 -75 195.5 C-74.33226562 196.13164062 -73.66453125 196.76328125 -72.9765625 197.4140625 C-71.3343527 198.96243174 -69.67657165 200.48904713 -68 202 C-61.95331473 196.86920615 -61.95331473 196.86920615 -56.0625 191.5625 C-55.29035156 190.86253906 -54.51820313 190.16257812 -53.72265625 189.44140625 C-51.43004689 186.19224332 -51.69316596 183.88499096 -52 180 C-52.99257813 180.16757812 -53.98515625 180.33515625 -55.0078125 180.5078125 C-64.51937389 181.9792793 -72.49066924 181.93158281 -82 180 Z M-153.72265625 211.10546875 C-159.89915101 219.92252883 -161.44570975 227.34030469 -161.29296875 237.9375 C-161.28872391 239.05817871 -161.28447906 240.17885742 -161.28010559 241.33349609 C-161.26340311 244.88924874 -161.22576568 248.44442059 -161.1875 252 C-161.17244231 254.42056469 -161.1587558 256.84113833 -161.14648438 259.26171875 C-161.11608773 265.17487929 -161.0573479 271.08679468 -161 277 C-151.76 277 -142.52 277 -133 277 C-132.96261719 274.80859375 -132.92523438 272.6171875 -132.88671875 270.359375 C-132.84047395 268.23118247 -132.78925134 266.10316377 -132.73754883 263.97509766 C-132.70434645 262.49896862 -132.67629983 261.02271406 -132.65356445 259.54638672 C-132.61993049 257.42100668 -132.56761481 255.29677196 -132.51171875 253.171875 C-132.48553467 251.8940918 -132.45935059 250.61630859 -132.43237305 249.29980469 C-131.98141092 245.85813097 -131.44058609 244.41679363 -129 242 C-126.84375 241.43359375 -126.84375 241.43359375 -124.5 241.4375 C-123.7265625 241.41558594 -122.953125 241.39367187 -122.15625 241.37109375 C-120 242 -120 242 -117 247 C-116.67 256.9 -116.34 266.8 -116 277 C-83.66 277 -51.32 277 -18 277 C-17.67 266.77 -17.34 256.54 -17 246 C-14 242 -14 242 -12.0625 241.50390625 C-6.49901158 241.6619599 -6.49901158 241.6619599 -4.0625 243.3125 C-1.7580606 246.97249199 -1.81238941 250.42326089 -1.68359375 254.63671875 C-1.62075195 256.58481445 -1.62075195 256.58481445 -1.55664062 258.57226562 C-1.51683013 259.94400761 -1.47711784 261.31575244 -1.4375 262.6875 C-1.39429165 264.07097645 -1.35067661 265.45444027 -1.30664062 266.83789062 C-1.20042035 270.22513714 -1.09969312 273.61255509 -1 277 C7.58 277 16.16 277 25 277 C25.09214496 269.77685896 25.17169317 262.55578138 25.21972656 255.33251953 C25.23976324 252.87867294 25.26700032 250.42487363 25.30175781 247.97119141 C25.35062498 244.43119597 25.3730492 240.89183532 25.390625 237.3515625 C25.41127014 236.26573883 25.43191528 235.17991516 25.45318604 234.06118774 C25.45622116 223.61013133 22.55728786 215.66756164 15.35546875 208.046875 C1.86828903 196.32667239 -17.54134647 196.66341357 -34.49980164 197.66299438 C-44.45631938 198.7197885 -50.24633442 204.04888343 -56.35272217 211.5942688 C-58.25004765 214.01428674 -60.08398456 216.44163365 -61.82055664 218.98046875 C-64 221 -64 221 -67.63647461 221.36352539 C-71.07360463 220.99204491 -72.10273735 220.78188186 -74.5 218.4375 C-75.551875 217.50550781 -75.551875 217.50550781 -76.625 216.5546875 C-78.58709166 214.44414811 -79.92025662 212.60152897 -81.4375 210.1953125 C-85.27641687 204.72857031 -89.2549536 199.98259838 -96.10211182 198.56469727 C-102.15670689 197.7648578 -108.21482583 197.73224232 -114.3125 197.8125 C-115.64474609 197.82580856 -115.64474609 197.82580856 -117.00390625 197.83938599 C-130.95092008 198.07929285 -144.30121827 199.59037789 -153.72265625 211.10546875 Z " fill="#000000" transform="translate(462,212)"/>
<path d="M0 0 C17.44438223 18.52830501 22.50870766 40.39328584 22.1328125 65.10546875 C20.98713074 99.40936736 2.1095131 130.63728739 -21.44921875 154.29296875 C-23.17578125 155.88671875 -23.17578125 155.88671875 -26.17578125 157.88671875 C-26.76265909 161.23285387 -26.76265909 161.23285387 -26.86328125 165.01171875 C-26.92902344 166.29304687 -26.99476563 167.574375 -27.0625 168.89453125 C-27.09988281 169.88195312 -27.13726562 170.869375 -27.17578125 171.88671875 C-25.60449463 171.86315308 -25.60449463 171.86315308 -24.00146484 171.83911133 C-20.04663037 171.78405662 -16.09182834 171.75009948 -12.13671875 171.72192383 C-10.43776723 171.70700667 -8.73885304 171.6866656 -7.04003906 171.66040039 C12.16658552 171.3712806 29.08631031 173.61228755 43.57421875 187.54296875 C57.2005855 201.73710078 60.14005505 216.98030364 60.16015625 236.125 C60.1665972 237.57846706 60.17332649 239.03193287 60.18032837 240.48539734 C60.19222398 243.51186128 60.19601652 246.53821164 60.19482422 249.56469727 C60.19461984 253.43616014 60.2220775 257.30689876 60.25636864 261.17818928 C60.27861658 264.17139527 60.28266266 267.1644251 60.28160477 270.15770531 C60.2839579 271.58542599 60.29276533 273.01315174 60.3082695 274.44079018 C60.32791136 276.43349322 60.31957356 278.42641232 60.31005859 280.41918945 C60.31290863 281.55040726 60.31575867 282.68162506 60.31869507 283.84712219 C59.71492677 287.55854773 58.41716985 289.21498216 55.82421875 291.88671875 C52.44205223 293.57780201 48.59925611 293.02693144 44.87893677 293.02043152 C43.47178132 293.02382985 43.47178132 293.02382985 42.0361985 293.02729684 C38.87324113 293.03365835 35.71032637 293.0328061 32.54736328 293.03198242 C30.28757674 293.03497258 28.02779072 293.03837477 25.76800537 293.04216003 C19.61515616 293.05101897 13.46232085 293.05333895 7.30946589 293.05397582 C2.18002356 293.05492341 -2.94941551 293.05859998 -8.07885659 293.06214792 C-19.48534035 293.06983363 -30.89181548 293.07281589 -42.29830097 293.07214256 C-43.32554189 293.07208263 -43.32554189 293.07208263 -44.37353516 293.07202148 C-45.40202689 293.07196016 -45.40202689 293.07196016 -46.45129623 293.0718976 C-57.56444035 293.07149112 -68.6775506 293.08106045 -79.79068492 293.09515985 C-91.19485621 293.1095146 -102.59900583 293.11624727 -114.00318825 293.11556607 C-120.40845067 293.11531061 -126.81367477 293.11818864 -133.21892929 293.12874413 C-139.24184548 293.13839796 -145.26468651 293.13852299 -151.28760529 293.13122749 C-153.50158167 293.13017825 -155.71556266 293.13256453 -157.9295311 293.13858795 C-160.94528755 293.14626301 -163.96078151 293.14169288 -166.97653198 293.13395691 C-167.85843449 293.13910047 -168.74033699 293.14424404 -169.64896381 293.14954346 C-170.45687559 293.14494467 -171.26478737 293.14034587 -172.09718132 293.13560772 C-173.14130489 293.13593377 -173.14130489 293.13593377 -174.20652187 293.13626641 C-176.55746211 292.83835155 -178.15043651 292.10143869 -180.17578125 290.88671875 C-182.50182599 287.61279566 -182.4394141 284.56262664 -182.46630859 280.62792969 C-182.4790683 279.35850525 -182.491828 278.08908081 -182.50497437 276.78118896 C-182.5080354 275.39449212 -182.51026135 274.00779321 -182.51171875 272.62109375 C-182.51815523 271.18540314 -182.5248842 269.74971382 -182.53189087 268.31402588 C-182.5438695 265.29786147 -182.54757195 262.28181152 -182.54638672 259.265625 C-182.54618543 255.44662588 -182.57328412 251.62838703 -182.60793114 247.8095665 C-182.63046911 244.83734961 -182.6342159 241.86530648 -182.63316727 238.893013 C-182.63549091 237.48833897 -182.64412604 236.08365766 -182.659832 234.67906952 C-182.84234264 216.64298494 -179.0958393 201.56845259 -166.5546875 188.2421875 C-153.40995402 175.22695878 -138.56054518 171.6650676 -120.54803467 171.6955719 C-118.02802043 171.71111401 -115.50821162 171.7361406 -112.98828125 171.76171875 C-111.25586456 171.77177114 -109.52344221 171.78089299 -107.79101562 171.7890625 C-103.58579539 171.81089126 -99.38085225 171.84529576 -95.17578125 171.88671875 C-95.22083775 169.65425383 -95.29884654 167.42243884 -95.390625 165.19140625 C-95.43050537 163.94858887 -95.47038574 162.70577148 -95.51147461 161.42529297 C-96.68408733 155.17911553 -101.30291058 152.49887579 -106.17578125 148.88671875 C-129.12246206 128.72401024 -142.3854529 94.32367126 -144.89794922 64.49951172 C-146.26350025 42.42241163 -139.69898793 20.73757255 -125.17578125 3.88671875 C-124.65628906 3.22414062 -124.13679688 2.5615625 -123.6015625 1.87890625 C-110.13040057 -14.75618475 -89.19900997 -23.39162766 -68.42578125 -25.98828125 C-42.0712003 -27.42254416 -18.86478973 -18.32289272 0 0 Z M-113.30078125 15.01171875 C-118.64263375 21.23481372 -123.57549429 29.08585788 -126.17578125 36.88671875 C-122.84869077 35.49304647 -120.38360027 33.43287561 -117.65966797 31.10009766 C-109.25326078 24.05423665 -109.25326078 24.05423665 -104.55078125 24.01171875 C-98.80273914 25.38996677 -94.97705529 30.94234901 -91.36328125 35.296875 C-90.64140625 36.15152344 -89.91953125 37.00617188 -89.17578125 37.88671875 C-88.84578125 37.88671875 -88.51578125 37.88671875 -88.17578125 37.88671875 C-88.05517334 36.74456909 -88.05517334 36.74456909 -87.93212891 35.5793457 C-87.56244074 32.11846324 -87.18172851 28.65887923 -86.80078125 25.19921875 C-86.61128906 23.40194336 -86.61128906 23.40194336 -86.41796875 21.56835938 C-86.2890625 20.41142578 -86.16015625 19.25449219 -86.02734375 18.0625 C-85.91213379 16.99942627 -85.79692383 15.93635254 -85.67822266 14.84106445 C-85.18107458 11.9178434 -84.48439013 9.54417847 -83.17578125 6.88671875 C-80.07366485 5.33566055 -77.50969452 5.18356613 -74.17578125 5.88671875 C-70.88473065 7.53789878 -67.90458912 9.5960529 -64.88525391 11.69726562 C-47.45718795 23.82373483 -29.38676815 35.09308603 -10.67578125 45.13671875 C-10.03697021 45.48307373 -9.39815918 45.82942871 -8.73999023 46.1862793 C-4.05109792 48.64082975 0.7709092 50.33252217 5.82421875 51.88671875 C3.60725717 33.22453469 -4.89500065 18.09298907 -19.17578125 5.88671875 C-49.23330524 -16.30669833 -87.6863604 -11.84612059 -113.30078125 15.01171875 Z M-70.17578125 26.88671875 C-70.28647949 27.76932373 -70.39717773 28.65192871 -70.51123047 29.5612793 C-70.92711955 32.85139037 -71.34900058 36.14061936 -71.77490234 39.42944336 C-71.95763088 40.85003642 -72.13800128 42.27093495 -72.31591797 43.69213867 C-72.57282434 45.74093111 -72.83833458 47.7884566 -73.10546875 49.8359375 C-73.26257324 51.06658936 -73.41967773 52.29724121 -73.58154297 53.56518555 C-74.1319441 56.64168819 -74.75185687 59.11115199 -76.17578125 61.88671875 C-79.17578125 63.88671875 -79.17578125 63.88671875 -82.55078125 63.82421875 C-86.99989782 62.67358515 -88.1606142 61.33262395 -91.17578125 57.88671875 C-92.69032164 56.38036506 -94.21172846 54.88089766 -95.73828125 53.38671875 C-98.76958321 50.36046896 -101.61798147 47.33418802 -104.17578125 43.88671875 C-108.48385558 44.35855546 -110.9511302 47.14014732 -113.92578125 50.01171875 C-117.47786588 53.41859752 -120.96801725 56.46678243 -124.98828125 59.32421875 C-127.34089708 61.39315117 -128.08890244 62.33255005 -128.578125 65.453125 C-128.40889258 68.71193398 -127.87938676 71.70001868 -127.17578125 74.88671875 C-126.94246094 76.01078125 -126.70914063 77.13484375 -126.46875 78.29296875 C-121.37124445 99.70714731 -111.75093422 119.34361263 -97.17578125 135.88671875 C-96.35207031 136.83417969 -96.35207031 136.83417969 -95.51171875 137.80078125 C-87.24632914 146.69293026 -75.6029461 153.8059943 -63.33154297 154.35766602 C-47.99639027 154.5705052 -37.55391314 148.08706027 -26.61328125 137.76171875 C-10.83427373 121.30646805 -0.76774967 100.13690891 4.26171875 78.07421875 C4.43799805 77.30295654 4.61427734 76.53169434 4.79589844 75.73706055 C5.52004042 72.31575761 5.94911318 70.26140204 4.82421875 66.88671875 C2.74361561 65.9818157 2.74361561 65.9818157 0.07421875 65.32421875 C-22.2586377 58.34022202 -42.21094077 45.0603681 -61.41918945 32.06787109 C-62.41136475 31.3970752 -63.40354004 30.7262793 -64.42578125 30.03515625 C-65.3178125 29.42849121 -66.20984375 28.82182617 -67.12890625 28.19677734 C-68.91112196 26.79687362 -68.91112196 26.79687362 -70.17578125 26.88671875 Z M-78.17578125 167.88671875 C-78.82005469 172.69919528 -79.32172477 177.04731527 -76.67578125 181.29443359 C-74.60916437 183.53310036 -72.46366455 185.56265919 -70.17578125 187.57421875 C-69.41265625 188.28771484 -68.64953125 189.00121094 -67.86328125 189.73632812 C-65.98997109 191.48084821 -64.0962491 193.19449799 -62.17578125 194.88671875 C-55.09834416 191.63175624 -48.63251021 185.22617475 -44.17578125 178.88671875 C-43.09964778 174.91790173 -43.1555882 171.85413618 -44.17578125 167.88671875 C-44.830625 168.03109375 -45.48546875 168.17546875 -46.16015625 168.32421875 C-57.23202305 170.57612386 -67.15889282 170.23587198 -78.17578125 167.88671875 Z M-160.56109619 206.2089386 C-165.94880992 215.14387784 -166.75159131 224.99803063 -166.56640625 235.1875 C-166.56074646 236.38988815 -166.55508667 237.59227631 -166.54925537 238.83110046 C-166.52710515 242.62090163 -166.47694843 246.40970987 -166.42578125 250.19921875 C-166.4056887 252.78969976 -166.3874428 255.38019579 -166.37109375 257.97070312 C-166.33073525 264.27671942 -166.25239933 270.58062549 -166.17578125 276.88671875 C-155.28578125 276.88671875 -144.39578125 276.88671875 -133.17578125 276.88671875 C-133.13839844 274.4065625 -133.10101563 271.92640625 -133.0625 269.37109375 C-133.01626769 266.96491759 -132.96504038 264.55889596 -132.91333008 262.15283203 C-132.88010855 260.48268042 -132.85206791 258.81241729 -132.8293457 257.14208984 C-132.79574791 254.73877512 -132.74343179 252.33647976 -132.6875 249.93359375 C-132.67791512 248.81618805 -132.67791512 248.81618805 -132.6681366 247.6762085 C-132.55054414 243.51515254 -132.24342313 240.83653754 -129.17578125 237.88671875 C-126.46953521 237.19378882 -123.91679912 237.40031683 -121.17578125 237.88671875 C-119.00101724 239.43009966 -118.35745488 240.52337148 -117.17578125 242.88671875 C-116.84578125 254.10671875 -116.51578125 265.32671875 -116.17578125 276.88671875 C-79.87578125 276.88671875 -43.57578125 276.88671875 -6.17578125 276.88671875 C-5.84578125 265.00671875 -5.51578125 253.12671875 -5.17578125 240.88671875 C-1.74504121 237.45597871 -1.74504121 237.45597871 1.82421875 237.44921875 C2.50484375 237.42988281 3.18546875 237.41054688 3.88671875 237.390625 C5.82421875 237.88671875 5.82421875 237.88671875 7.41333008 239.41479492 C9.37207443 242.8465801 9.30290906 246.08313874 9.3359375 249.93359375 C9.3538887 250.70479553 9.3718399 251.47599731 9.39033508 252.27056885 C9.44437644 254.72589707 9.47831295 257.18103161 9.51171875 259.63671875 C9.54489739 261.30471441 9.57938757 262.97268454 9.61523438 264.640625 C9.70256199 268.72268313 9.76267885 272.80386486 9.82421875 276.88671875 C20.71421875 276.88671875 31.60421875 276.88671875 42.82421875 276.88671875 C42.90843866 269.65082455 42.98853324 262.41673747 43.03121948 255.1807785 C43.05221668 251.81016253 43.08020523 248.43995839 43.12597656 245.06958008 C43.17484579 241.18950719 43.1972688 237.31001349 43.21484375 233.4296875 C43.23548889 232.23965622 43.25613403 231.04962494 43.27740479 229.8235321 C43.28071346 217.33511008 39.6482115 207.92711719 30.9765625 198.98046875 C17.01229527 185.87682237 -3.76388768 186.78696371 -21.77734375 187.328125 C-32.26394197 187.90529276 -38.85679494 190.96522929 -45.94393921 198.68261719 C-48.99991716 202.21714096 -51.88030797 205.82210792 -54.55151367 209.66186523 C-56.79390929 212.73340458 -57.92597797 212.82905051 -61.6953125 213.69921875 C-63.87744141 213.671875 -63.87744141 213.671875 -66.17578125 212.88671875 C-68.26922068 210.71956997 -70.03159223 208.42052327 -71.84764099 206.02178955 C-78.1907417 197.73383208 -84.73175946 189.57825883 -95.51660156 187.68554688 C-101.51240744 186.99450033 -107.46182278 186.96420713 -113.48828125 187.13671875 C-114.4758139 187.16217773 -115.46334656 187.18763672 -116.48080444 187.21386719 C-134.28094101 187.83430619 -149.58617317 190.87698945 -160.56109619 206.2089386 Z " fill="#000000" transform="translate(189.17578125,212.11328125)"/>
<path d="M0 0 C1.16586803 -0.00384115 2.33173605 -0.00768229 3.53293341 -0.01163983 C5.45561285 -0.01034011 5.45561285 -0.01034011 7.41713428 -0.00901413 C8.79185644 -0.01159801 10.16657785 -0.01461123 11.54129821 -0.01801753 C15.32301472 -0.02608819 19.10471224 -0.02787714 22.88643634 -0.028615 C26.96360939 -0.03046545 31.04077259 -0.03801278 35.11793995 -0.04475021 C44.035377 -0.05833481 52.95280956 -0.06435853 61.87025523 -0.06876087 C67.43837088 -0.07152323 73.00648479 -0.07576059 78.57459927 -0.08026505 C93.99091165 -0.09245817 109.40722264 -0.10275721 124.82353973 -0.10614014 C126.30370616 -0.10646949 126.30370616 -0.10646949 127.81377493 -0.10680549 C129.29748657 -0.10713291 129.29748657 -0.10713291 130.81117219 -0.10746694 C132.81555315 -0.1079104 134.81993411 -0.10835697 136.82431507 -0.10880661 C137.8185576 -0.10902804 138.81280014 -0.10924947 139.83717123 -0.10947761 C155.94544168 -0.11342514 172.05366688 -0.13087762 188.16191985 -0.15416613 C204.69982323 -0.17788281 221.23770391 -0.19034214 237.77562457 -0.19150805 C247.06110778 -0.19242467 256.34653205 -0.1981735 265.63199902 -0.21632767 C273.53935347 -0.23173295 281.44663076 -0.23684661 289.35399737 -0.22858956 C293.38750404 -0.2246845 297.42085532 -0.22560559 301.45434284 -0.23964691 C305.15003952 -0.25239449 308.84546421 -0.25118093 312.54116056 -0.2390562 C314.50473224 -0.23617737 316.46830866 -0.24802853 318.43184298 -0.26047826 C326.83784401 -0.21349046 333.53871706 0.63650252 340.62924671 5.31892776 C347.05659548 12.04522299 348.46450273 19.09574723 348.47787952 28.15364456 C348.48284443 28.95907196 348.48780933 29.76449936 348.49292469 30.59433365 C348.50751707 33.25644668 348.51434443 35.91850007 348.51987171 38.58064651 C348.52562679 40.43666968 348.53138448 42.29269283 348.53714466 44.14871597 C348.54764719 48.04163769 348.55349435 51.9345388 348.55698109 55.82747269 C348.56245573 60.79936025 348.58646488 65.77097256 348.61495304 70.74277401 C348.6336425 74.57852327 348.63878843 78.41420716 348.64031696 82.24999809 C348.6433312 84.08190091 348.65131792 85.91380292 348.66450214 87.74566078 C348.68169045 90.3180616 348.67965123 92.88980227 348.67319202 95.46223831 C348.68240681 96.20905869 348.69162159 96.95587906 348.70111561 97.72533035 C348.64885485 104.41966946 347.1997042 111.03843172 343.06674671 116.44392776 C337.29516519 122.08433698 331.63210368 124.26265643 323.63022327 124.24495316 C322.48934254 124.24487762 321.3484618 124.24480209 320.17300892 124.24472427 C318.94684864 124.23956299 317.72068836 124.2344017 316.45737171 124.22908401 C314.56809956 124.22696159 314.56809956 124.22696159 312.64066029 124.2247963 C309.30009553 124.22014849 305.9595995 124.21117058 302.61905384 124.20009232 C299.20709291 124.18984375 295.79512487 124.1852913 292.38315296 124.18025589 C285.69433192 124.1692274 279.00554328 124.15248965 272.31674671 124.13142776 C272.32562916 124.68408813 272.3345116 125.2367485 272.34366322 125.80615616 C272.43224577 131.56494669 272.49252592 137.32354327 272.53647327 143.08284378 C272.55657257 145.23136127 272.58385664 147.37982416 272.61850452 149.52815628 C272.66709584 152.61870682 272.6897325 155.70853331 272.70737171 158.79939651 C272.72801685 159.75791016 272.74866199 160.7164238 272.76993275 161.70398331 C272.77137609 166.00624162 272.71936062 168.45850412 270.47202015 172.21467972 C267.66955477 174.70699459 266.05929397 175.13142776 262.31674671 175.13142776 C257.48525321 173.48666402 254.57924597 170.59335881 251.13705921 166.99470901 C249.4297087 165.24705623 247.67287389 163.65587633 245.81674671 162.06892776 C241.71164431 158.53308761 237.76674761 154.838121 233.81674671 151.13142776 C227.28031567 144.96948433 227.28031567 144.96948433 220.48125172 139.10203934 C218.31674671 137.13142776 218.31674671 137.13142776 215.81129932 134.23039627 C210.68996981 128.50012732 206.1939507 124.58463632 198.3545475 123.74230766 C193.87209273 123.50818464 189.41649459 123.52733226 184.93002796 123.60799026 C182.97715283 123.60497858 181.02428024 123.59810175 179.07143116 123.58757401 C174.99986516 123.57895667 170.93149284 123.6122265 166.86044788 123.67683792 C161.66403836 123.75657561 156.47358162 123.73771657 151.27697945 123.68836784 C147.25200221 123.65989471 143.22839748 123.68025249 139.20351696 123.71539307 C137.28875672 123.72701789 135.37385379 123.72459884 133.45913601 123.70734406 C122.70203193 123.43453879 122.70203193 123.43453879 112.99188709 127.33229446 C110.50599861 129.80843924 108.42276575 132.33271193 106.31674671 135.13142776 C105.0775193 136.29115091 103.81193679 137.42449014 102.50424671 138.50642776 C98.94947719 141.55337307 95.50080078 144.70012892 92.06674671 147.88142776 C91.51099964 148.3960054 90.95525257 148.91058304 90.38266468 149.44075394 C89.25105373 150.48874109 88.11954361 151.53683713 86.98813343 152.58504105 C79.76977242 159.26355385 72.50294246 165.88797958 65.18002796 172.45174026 C64.20909767 173.32700238 63.24108145 174.20709303 62.31674671 175.13142776 C58.46370703 175.56927318 56.77552549 175.43728028 53.50424671 173.25642776 C51.30956121 171.12444756 50.38347141 170.21278947 50.1964922 167.18254471 C50.19871281 166.38756577 50.20093342 165.59258682 50.20322132 164.77351761 C50.20333462 163.42234344 50.20333462 163.42234344 50.2034502 162.04387283 C50.20861149 161.06987534 50.21377277 160.09587784 50.21909046 159.09236526 C50.22050541 158.09637314 50.22192036 157.10038101 50.22337818 156.07420731 C50.22898735 152.88491724 50.24154142 149.69569671 50.25424671 146.50642776 C50.25926053 144.34757461 50.26382364 142.18872036 50.26791859 140.02986526 C50.27895976 134.73036227 50.29570684 129.43089998 50.31674671 124.13142776 C49.62041126 124.1380896 48.92407581 124.14475143 48.20663929 124.15161514 C41.61634263 124.21194383 35.02612402 124.25751204 28.43561268 124.28686428 C25.04805099 124.30246237 21.66071914 124.32359183 18.27328968 124.35774612 C14.37104768 124.39426252 10.4691288 124.41118526 6.56674671 124.42439651 C4.75847401 124.4476223 4.75847401 124.4476223 2.91367054 124.47131729 C-5.29996489 124.47294905 -10.99925057 123.61104498 -17.93325329 118.94392776 C-24.44790915 112.28121154 -25.83101124 105.16579705 -25.8443861 96.10921097 C-25.84935101 95.30378357 -25.85431591 94.49835617 -25.85943127 93.66852188 C-25.87402365 91.00640885 -25.88085101 88.34435546 -25.88637829 85.68220901 C-25.89213337 83.82618585 -25.89789106 81.9701627 -25.90365124 80.11413956 C-25.91415376 76.22121784 -25.92000092 72.32831673 -25.92348766 68.43538284 C-25.92896231 63.46349528 -25.95297145 58.49188297 -25.98145962 53.52008152 C-26.00014907 49.68433226 -26.00529501 45.84864837 -26.00682354 42.01285744 C-26.00983778 40.18095462 -26.0178245 38.34905261 -26.03100872 36.51719475 C-26.04819703 33.94479392 -26.04615781 31.37305326 -26.0396986 28.80061722 C-26.04891338 28.05379684 -26.05812817 27.30697647 -26.06762218 26.53752518 C-26.01350441 19.60531287 -24.32533233 13.6180046 -20.49575329 7.81892776 C-14.57817966 2.16435741 -8.08492859 0.00999573 0 0 Z M-9.68325329 20.13142776 C-11.19733105 23.15958329 -10.83931949 26.30055809 -10.8443861 29.62288284 C-10.84935101 30.39542908 -10.85431591 31.16797531 -10.85943127 31.96393204 C-10.87406674 34.52628335 -10.8808576 37.08857273 -10.88637829 39.65095901 C-10.89212914 41.4297422 -10.89788688 43.20852536 -10.90365124 44.9873085 C-10.91416554 48.72065393 -10.92000521 52.45397781 -10.92348766 56.18733597 C-10.9289696 60.96910913 -10.95298933 65.75059714 -10.98145962 70.53228092 C-11.00009324 74.20831506 -11.00529201 77.88428067 -11.00682354 81.56035805 C-11.00984958 83.32299926 -11.01787648 85.08563928 -11.03100872 86.84823418 C-11.04808255 89.31630558 -11.04618576 91.78368243 -11.0396986 94.25178909 C-11.04891338 94.97872971 -11.05812817 95.70567032 -11.06762218 96.45463943 C-11.0314896 100.84775414 -10.38791082 103.63818216 -7.68325329 107.13142776 C-4.8682336 108.53893761 -2.51777592 108.26394003 0.63071156 108.27327347 C1.27806767 108.27674789 1.92542377 108.28022232 2.59239674 108.28380203 C3.99961327 108.29115876 5.40684142 108.29650459 6.81407261 108.3000927 C9.04175466 108.30725425 11.26921593 108.32291807 13.49683094 108.34143448 C19.83097786 108.39392006 26.16500418 108.44188658 32.4993639 108.4573555 C36.37280733 108.46743553 40.24569603 108.4967594 44.11892033 108.53867531 C45.5948476 108.5509901 47.07085321 108.55610567 48.54683018 108.55387688 C50.61315341 108.55152441 52.67788473 108.57368135 54.74399281 108.60139847 C56.50699223 108.61019783 56.50699223 108.61019783 58.3056078 108.61917496 C61.95140155 109.23939479 63.13847056 110.18461445 65.31674671 113.13142776 C65.73461373 115.93838779 65.92148984 118.36994718 65.92612171 121.17830276 C65.94265797 121.94950455 65.95919422 122.72070633 65.97623158 123.51527786 C66.02469264 125.97074231 66.04607708 128.4255876 66.06674671 130.88142776 C66.09490817 132.54942763 66.12483585 134.21739868 66.15659046 135.88533401 C66.23045043 139.96731427 66.28003607 144.04895122 66.31674671 148.13142776 C70.77397282 144.8931026 75.00164182 141.69245116 78.81674671 137.69392776 C82.09437374 134.338262 85.45303546 131.20257175 89.01205921 128.15095901 C92.60284724 125.00445493 96.08519259 121.74104483 99.57358265 118.48176956 C107.14640276 111.43876862 111.65722443 108.00045444 122.40292835 107.89094925 C123.33339985 107.87795288 124.26387135 107.86495651 125.22253895 107.85156631 C134.96006469 107.72475827 144.69845394 107.66808899 154.43661976 107.61653519 C159.05299323 107.58981104 163.66833137 107.54110739 168.28427601 107.4729805 C173.86403333 107.3908442 179.44280613 107.34832165 185.02313519 107.3334713 C187.14459525 107.32125428 189.26602442 107.295293 191.38713741 107.25502205 C210.05885563 106.9183439 210.05885563 106.9183439 216.42148304 111.93025589 C217.76120209 113.29119102 219.0626574 114.69120154 220.31674671 116.13142776 C221.77703163 117.48848935 223.24713371 118.83513548 224.73080921 120.16658401 C226.13817105 121.50513573 227.54184943 122.84757133 228.94174671 124.19392776 C233.70425381 128.74994239 238.50490675 133.22369519 243.48666859 137.53987503 C246.81640758 140.43562856 250.05662996 143.43095458 253.31284046 146.40877151 C255.00270423 148.24007548 255.00270423 148.24007548 256.31674671 148.13142776 C256.33132923 147.09212112 256.34591175 146.05281448 256.36093616 144.9820137 C256.41897852 141.12017562 256.49621051 137.25891701 256.57919788 133.39754105 C256.61241941 131.72738944 256.64046005 130.0571263 256.66318226 128.38679886 C256.69678006 125.98348413 256.74909618 123.58118878 256.80502796 121.17830276 C256.81141788 120.43336563 256.81780781 119.6884285 256.82439137 118.92091751 C256.94452651 114.66988766 257.21687764 112.11846291 260.31674671 109.13142776 C263.14947987 108.64609146 263.14947987 108.64609146 266.63657093 108.66487503 C267.94157551 108.66129486 269.24658009 108.65771469 270.59113026 108.65402603 C271.28839096 108.66132296 271.98565166 108.66861988 272.70404148 108.67613792 C274.89041462 108.69802401 277.07540403 108.69430905 279.26184559 108.6836586 C284.69241056 108.66198517 290.12266922 108.679332 295.55319691 108.70515823 C300.14081982 108.72657904 304.72755543 108.72847732 309.31516361 108.7022419 C311.46550676 108.69789651 313.61430177 108.72251288 315.7644701 108.74777603 C317.075779 108.7410437 318.3870879 108.73431137 319.73813343 108.72737503 C320.89046467 108.73277802 322.04279591 108.738181 323.23004627 108.74374771 C327.4213371 107.91230617 328.83785623 106.58962423 331.31674671 103.13142776 C331.8118842 100.22622849 332.00275002 97.90753139 331.96371937 95.00813675 C331.97248096 94.20428543 331.98124256 93.40043411 331.99026966 92.57222366 C332.01222064 89.9234355 331.99772858 87.27632568 331.98080921 84.62752151 C331.98417828 82.78336645 331.98903165 80.93921355 331.99530506 79.09506607 C332.00267025 75.23400565 331.99198122 71.3735243 331.96860218 67.51253128 C331.94009438 62.56337319 331.95653296 57.61556956 331.9864645 52.66646099 C332.0045301 48.859987 331.99878324 45.05383435 331.98582554 41.24735069 C331.98249051 39.42249326 331.98658203 37.59760663 331.9982233 35.77278328 C332.01092251 33.22284366 331.99157143 30.6751002 331.96371937 28.12532425 C331.9789011 26.9945118 331.9789011 26.9945118 331.99438953 25.84085464 C331.92152675 22.24065265 331.71796277 20.53551223 329.13887888 17.93798971 C325.92380486 15.87988965 324.30626792 15.63050611 320.52771378 15.6280632 C319.363738 15.61763221 318.19976222 15.60720122 317.00051445 15.59645414 C315.08876123 15.60983847 315.08876123 15.60983847 313.13838673 15.62349319 C311.76748176 15.61888393 310.39658173 15.61253084 309.02569205 15.60458422 C305.25925431 15.58787111 301.49322148 15.59614599 297.7267822 15.60852909 C293.66469622 15.61756916 289.60268049 15.60361512 285.54060841 15.59260941 C277.58358488 15.57480888 269.62671215 15.57867083 261.66968267 15.59025997 C255.20433862 15.59928736 248.73903687 15.6005213 242.27368832 15.5961647 C241.35410073 15.59555177 240.43451314 15.59493884 239.48705925 15.59430733 C237.61904584 15.59302846 235.75103243 15.5917316 233.88301904 15.59041697 C216.36084053 15.57900684 198.83874569 15.59213198 181.3165809 15.61361843 C166.27419519 15.63149279 151.23193293 15.62838337 136.18954945 15.60994339 C118.72924232 15.58854944 101.26900853 15.58010238 83.80869013 15.59239244 C81.94778988 15.59366667 80.08688962 15.59492415 78.22598934 15.5961647 C77.31034252 15.59678181 76.3946957 15.59739891 75.451302 15.59803471 C68.99147913 15.60149182 62.5317027 15.59565157 56.07188702 15.58624649 C48.20280386 15.57504163 40.33388035 15.5780347 32.46481555 15.59936947 C28.44809233 15.60989992 24.43163553 15.61396798 20.41491413 15.60077286 C16.74039421 15.5888842 13.06638854 15.59535237 9.39191551 15.61668307 C7.42768841 15.62329276 5.46342582 15.61018156 3.49923557 15.59645414 C1.75718352 15.61210063 1.75718352 15.61210063 -0.02006149 15.6280632 C-1.52652342 15.62903732 -1.52652342 15.62903732 -3.06341892 15.63003111 C-6.39929859 16.268468 -7.56541172 17.53637107 -9.68325329 20.13142776 Z " fill="#000000" transform="translate(94.68325328826904,6.868572235107422)"/>
<path d="M0 0 C1.01568212 -0.01043099 2.03136423 -0.02086198 3.07782459 -0.03160906 C4.19181975 -0.02268617 5.30581491 -0.01376328 6.4535675 -0.00457001 C7.63839313 -0.01080997 8.82321875 -0.01704993 10.04394817 -0.02347898 C13.33396676 -0.03668978 16.62307422 -0.03191393 19.91303778 -0.01953411 C23.46048489 -0.01049737 27.0078514 -0.02444646 30.55528259 -0.0354538 C37.50512666 -0.05325842 44.45479813 -0.04939045 51.40464902 -0.03780323 C57.05194089 -0.02877679 62.69918432 -0.02754148 68.34648132 -0.0318985 C69.55121819 -0.0328179 69.55121819 -0.0328179 70.78029317 -0.03375587 C72.41179412 -0.03503475 74.04329506 -0.0363316 75.67479599 -0.03764623 C90.98037609 -0.04905772 106.28586043 -0.03592943 121.59142482 -0.01444477 C134.72984652 0.00342675 147.86812687 0.0003228 161.00654602 -0.01811981 C176.25662597 -0.03951651 191.50662195 -0.04795903 206.75671482 -0.03567076 C208.38227907 -0.03439653 210.00784332 -0.03313905 211.63340759 -0.0318985 C212.43325677 -0.0312814 213.23310595 -0.03066429 214.05719298 -0.03002849 C219.69897168 -0.02657198 225.34069719 -0.0324104 230.98246765 -0.04181671 C237.85612341 -0.05302477 244.72959642 -0.05002195 251.60323119 -0.02869374 C255.1116185 -0.01816704 258.6197009 -0.01408862 262.12808609 -0.02729034 C265.92767103 -0.0413718 269.72675455 -0.02458068 273.52632141 -0.00457001 C275.19731415 -0.01795434 275.19731415 -0.01795434 276.90206432 -0.03160906 C277.91774644 -0.02117807 278.93342855 -0.01074708 279.97988892 0 C280.85715291 0.00064941 281.7344169 0.00129882 282.63826466 0.00196791 C285.77076919 0.66984255 286.98444541 2.06554283 288.98994446 4.50336456 C289.55635071 6.50336456 289.55635071 6.50336456 289.55244446 8.50336456 C289.57435852 9.16336456 289.59627258 9.82336456 289.61885071 10.50336456 C288.56974703 13.83964458 286.98891738 14.70647047 283.98994446 16.50336456 C280.14541785 17.10809451 276.329008 17.04260828 272.44403076 17.01129913 C270.67163602 17.02065908 270.67163602 17.02065908 268.86343533 17.03020811 C265.58719725 17.04340363 262.31155181 17.03865332 259.03532851 17.02626324 C255.50085074 17.01721711 251.9664534 17.03118019 248.43199158 17.04218292 C241.50968993 17.05997694 234.58756168 17.05612445 227.66525321 17.04453236 C222.04039177 17.03550249 216.41557896 17.03427209 210.79071236 17.03862762 C209.9904653 17.03924056 209.19021824 17.03985349 208.36572127 17.04048499 C206.74009885 17.04176388 205.11447645 17.04306073 203.48885406 17.04437536 C188.242881 17.05578355 172.99700413 17.04266334 157.75104684 17.02117389 C144.66437146 17.00329926 131.57783799 17.00640954 118.49116516 17.02484894 C103.2985766 17.04624555 88.10607233 17.0546885 72.9134708 17.04239988 C71.29410081 17.04112567 69.67473081 17.03986818 68.05536079 17.03862762 C66.86017567 17.03770197 66.86017567 17.03770197 65.6408454 17.03675762 C60.02109641 17.03330134 54.4014008 17.03913896 48.78166008 17.04854584 C41.93547664 17.05975364 35.08947669 17.05675146 28.24331432 17.03542286 C24.74909651 17.02489636 21.25518484 17.02081747 17.76096916 17.03401947 C13.97662872 17.04489206 10.19315893 17.0313102 6.40887451 17.01129913 C5.29945242 17.02022202 4.19003033 17.02914491 3.04698938 17.03833818 C2.03540736 17.0279072 1.02382534 17.01747621 -0.01841068 17.00672913 C-0.89209484 17.00607972 -1.765779 17.00543031 -2.66593844 17.00476122 C-5.79281253 16.33593618 -7.00865447 14.93768421 -9.01005554 12.50336456 C-9.54130554 10.50336456 -9.54130554 10.50336456 -9.51005554 8.50336456 C-9.52552429 7.51336456 -9.52552429 7.51336456 -9.54130554 6.50336456 C-8.2361489 1.58983366 -4.74720907 0.0035142 0 0 Z " fill="#000000" transform="translate(116.01005554199219,44.49663543701172)"/>
<path d="M0 0 C0.16435547 -0.92232422 0.16435547 -0.92232422 0.33203125 -1.86328125 C0.56986328 -3.07564453 0.56986328 -3.07564453 0.8125 -4.3125 C1.03873047 -5.51326172 1.03873047 -5.51326172 1.26953125 -6.73828125 C2.09642762 -9.29856467 2.88446196 -10.36411855 5 -12 C8.375 -12.9375 8.375 -12.9375 12 -13 C15.36842735 -11.09610628 16.70977742 -9.98229179 17.8125 -6.25 C17.874375 -5.5075 17.93625 -4.765 18 -4 C17.34 -4 16.68 -4 16 -4 C16.0314209 -3.11739502 16.0628418 -2.23479004 16.09521484 -1.32543945 C16.19776558 1.96418915 16.27282248 5.25210953 16.32958984 8.54272461 C16.35967954 9.9638964 16.40056404 11.38488372 16.45263672 12.80541992 C16.52581934 14.85381575 16.5595271 16.8997499 16.5859375 18.94921875 C16.6173584 20.17987061 16.6487793 21.41052246 16.68115234 22.6784668 C15.92960379 26.34327616 14.81448136 27.90108587 11.77362061 30.09257507 C8.72698917 31.6513015 5.97272649 31.63082652 2.58984375 31.62890625 C1.55495567 31.63252419 1.55495567 31.63252419 0.49916077 31.63621521 C-0.9505695 31.6352411 -2.40033898 31.62195165 -3.84985352 31.59692383 C-6.06069864 31.56252803 -8.26755815 31.5763023 -10.47851562 31.59570312 C-11.89324606 31.58880561 -13.30796626 31.57913407 -14.72265625 31.56640625 C-15.99890869 31.55552979 -17.27516113 31.54465332 -18.59008789 31.53344727 C-22.5414546 30.91529474 -24.20644572 29.81106059 -27 27 C-28.15396814 23.99968284 -28.12583833 22.48047363 -27.3125 19.375 C-25.80378746 16.64494873 -24.6505735 15.62307846 -22 14 C-19.203125 13.48828125 -19.203125 13.48828125 -16.25 13.3125 C-15.26515625 13.24675781 -14.2803125 13.18101562 -13.265625 13.11328125 C-12.51796875 13.07589844 -11.7703125 13.03851563 -11 13 C-22.73289027 4.37810336 -34.67287208 -0.41579705 -49.375 1.5 C-57.0403194 3.12022057 -66.85283573 6.98884744 -72 13 C-70.98679688 13.07347656 -70.98679688 13.07347656 -69.953125 13.1484375 C-69.06109375 13.22320312 -68.1690625 13.29796875 -67.25 13.375 C-66.36828125 13.44460937 -65.4865625 13.51421875 -64.578125 13.5859375 C-61.9487686 14.00822807 -60.23662062 14.57050769 -58 16 C-55.67463937 19.48804095 -55.66542102 20.90140754 -56 25 C-56.83025197 27.49075591 -57.43711492 28.61902914 -59.61132812 30.09057617 C-62.88331841 31.33630019 -66.01603943 31.30535087 -69.46875 31.30078125 C-70.186073 31.30506638 -70.903396 31.3093515 -71.64245605 31.31376648 C-73.1553441 31.31949587 -74.66825969 31.3200203 -76.18115234 31.31567383 C-78.49234017 31.31251048 -80.80225123 31.33599975 -83.11328125 31.36132812 C-84.58593589 31.36360099 -86.05859396 31.36430467 -87.53125 31.36328125 C-88.56421204 31.37709587 -88.56421204 31.37709587 -89.61804199 31.39118958 C-92.65229614 31.36199953 -94.73009435 31.14988972 -97.40429688 29.66479492 C-101.75507772 25.12563112 -100.22469011 17.28976298 -100.24023438 11.37646484 C-100.24993528 9.13992047 -100.28096772 6.90429739 -100.3125 4.66796875 C-100.31903116 3.23958877 -100.32428119 1.81120224 -100.328125 0.3828125 C-100.3374707 -0.91253418 -100.34681641 -2.20788086 -100.35644531 -3.54248047 C-99.97778604 -7.21547544 -99.22345279 -9.08840007 -97 -12 C-94.2201184 -13.3899408 -92.0813674 -13.18488204 -89 -13 C-86.45352631 -12.15117544 -85.35560182 -11.5053289 -83.8125 -9.3125 C-82.73614733 -6.2490347 -82.37120895 -3.21714425 -82 0 C-81.42894531 -0.43570313 -80.85789063 -0.87140625 -80.26953125 -1.3203125 C-54.84577004 -19.9940449 -24.96245267 -19.61335567 0 0 Z " fill="#000000" transform="translate(297,180)"/>
<path d="M0 0 C1.78858177 -0.01292336 1.78858177 -0.01292336 3.61329651 -0.02610779 C6.87583438 -0.04489935 10.13773113 -0.04566992 13.40029335 -0.03678632 C16.1265114 -0.03166943 18.85263871 -0.03897451 21.57884741 -0.04625839 C28.0108165 -0.06324722 34.44254828 -0.05970148 40.87451172 -0.04296875 C47.50545845 -0.02604126 54.13574718 -0.04189205 60.76662207 -0.07419163 C66.46531714 -0.10089664 72.16380749 -0.10816138 77.86255884 -0.09967655 C81.26378138 -0.09475069 84.66460791 -0.09694386 88.06578064 -0.11746407 C91.85814627 -0.13485125 95.64909796 -0.12041321 99.44140625 -0.09765625 C100.56571548 -0.10934845 101.69002472 -0.12104065 102.84840393 -0.13308716 C110.4278549 -0.04038356 110.4278549 -0.04038356 114.42175293 2.85023499 C116.78647493 6.37732046 116.90231796 8.36802328 116.22070312 12.53344727 C114.00207283 15.440618 112.70125384 16.37326369 109.22070312 17.53344727 C107.60786958 17.62716873 105.99143631 17.66404193 104.37588501 17.66716003 C103.37770248 17.67142502 102.37951996 17.67569 101.35108948 17.68008423 C100.25699265 17.67963104 99.16289581 17.67917786 98.03564453 17.67871094 C96.30602226 17.68374886 96.30602226 17.68374886 94.54145813 17.68888855 C90.71838309 17.69841057 86.89535179 17.7003423 83.07226562 17.70141602 C81.09046619 17.70381632 79.10866675 17.70621824 77.12686765 17.70887643 C70.89349446 17.71701971 64.66013571 17.7194608 58.42675781 17.71875 C51.99941835 17.71814937 45.57216286 17.72869843 39.14484465 17.74449366 C33.62457784 17.75757576 28.10433845 17.76293361 22.58405626 17.76229459 C19.2879939 17.76203978 15.99202295 17.76580186 12.69597244 17.77547264 C9.01876068 17.78525128 5.34176591 17.78240273 1.66455078 17.77636719 C0.57450241 17.78198669 -0.51554596 17.7876062 -1.6386261 17.793396 C-3.14435936 17.78710426 -3.14435936 17.78710426 -4.68051147 17.78068542 C-5.54955297 17.78123019 -6.41859447 17.78177496 -7.31397057 17.78233624 C-10.15437013 17.49558145 -12.23550043 16.8261746 -14.77929688 15.53344727 C-16.90657447 12.34253087 -17.113111 10.33184952 -17.33789062 6.56860352 C-15.19826256 -1.22682462 -6.38801155 -0.03707822 0 0 Z " fill="#000000" transform="translate(123.779296875,76.466552734375)"/>
</svg>
