<?xml version="1.0" encoding="UTF-8"?>
<svg version="1.1" xmlns="http://www.w3.org/2000/svg" width="512" height="512">
<path d="M0 0 C3.54947964 3.13325044 6.99290565 6.36704632 10.421875 9.63134766 C11.19015625 10.33517578 11.9584375 11.03900391 12.75 11.76416016 C40.86918467 38.36612263 57.22763543 79.28607135 58.48828125 117.65234375 C59.57254428 159.11636931 47.18031889 201.49422527 18.484375 232.31884766 C17.60910156 233.23021484 16.73382813 234.14158203 15.83203125 235.08056641 C13.40115582 237.58232811 13.40115582 237.58232811 11.3203125 240.26416016 C3.6847806 249.78500857 -7.87760633 257.31130915 -18.078125 263.88134766 C-23.76911362 267.60526633 -27.86884152 271.25913055 -30.578125 277.63134766 C-30.8813421 279.8597543 -30.8813421 279.8597543 -30.84936523 282.24121094 C-30.85955185 283.14960724 -30.86973846 284.05800354 -30.88023376 284.993927 C-30.88237381 285.96997894 -30.88451385 286.94603088 -30.88671875 287.95166016 C-30.91189361 290.03499611 -30.9372914 292.11832938 -30.96289062 294.20166016 C-30.99153195 297.47313649 -31.01555706 300.74456587 -31.03442383 304.01611328 C-31.05623868 307.18238315 -31.09570471 310.34808891 -31.13671875 313.51416016 C-31.13683456 314.47806671 -31.13695038 315.44197327 -31.1370697 316.43508911 C-31.2890103 326.99797162 -33.77713807 335.32499368 -40.953125 343.25634766 C-47.99917763 349.63134766 -47.99917763 349.63134766 -52.578125 349.63134766 C-52.70767578 350.97326172 -52.70767578 350.97326172 -52.83984375 352.34228516 C-54.30062757 364.91306701 -58.11404149 374.00814961 -67.578125 382.63134766 C-75.88728011 388.71344082 -83.4787468 390.9392091 -93.625 390.96728516 C-94.47684875 390.97394196 -95.32869751 390.98059875 -96.20635986 390.98745728 C-98.00148374 390.99753671 -99.79664473 391.00227576 -101.59179688 391.00195312 C-104.30663416 391.00631314 -107.01982601 391.04264546 -109.734375 391.08056641 C-123.51432527 391.17108851 -134.23755744 389.52232533 -144.578125 379.63134766 C-152.89124508 370.77499399 -156.12067681 361.66223513 -156.578125 349.63134766 C-157.32191406 349.51662109 -158.06570312 349.40189453 -158.83203125 349.28369141 C-165.26775813 347.75486297 -169.51492719 343.21206986 -172.953125 337.75634766 C-177.46585208 330.11748561 -177.85352372 322.48449936 -177.81640625 313.85009766 C-177.83181903 311.770664 -177.84812215 309.69123678 -177.86523438 307.61181641 C-177.8816949 304.36639062 -177.89060345 301.12144078 -177.88354492 297.87597656 C-177.88091775 294.72098053 -177.90908345 291.56740345 -177.94140625 288.41259766 C-177.93119949 287.45091675 -177.92099274 286.48923584 -177.91047668 285.49841309 C-178.01956124 277.93355116 -180.22072529 272.98218995 -185.578125 267.63525391 C-186.238125 267.15958984 -186.898125 266.68392578 -187.578125 266.19384766 C-188.35285156 265.62537109 -189.12757813 265.05689453 -189.92578125 264.47119141 C-192.3879505 262.76326546 -194.86414334 261.07722224 -197.34326172 259.39404297 C-198.17108154 258.83088379 -198.17108154 258.83088379 -199.015625 258.25634766 C-199.57008301 257.87961914 -200.12454102 257.50289063 -200.69580078 257.11474609 C-205.25530195 253.96648731 -209.32689911 250.46235907 -213.37109375 246.68603516 C-215.28660598 244.90274413 -217.24338267 243.22789347 -219.265625 241.56884766 C-223.12794791 238.26341782 -226.36250318 234.56011142 -229.578125 230.63134766 C-230.7228125 229.24302734 -230.7228125 229.24302734 -231.890625 227.82666016 C-259.43790992 193.66650039 -271.46121465 149.48023741 -266.80908203 106.01855469 C-262.34030859 69.77183676 -246.54295505 38.01659045 -221.578125 11.63134766 C-220.80984375 10.81021484 -220.0415625 9.98908203 -219.25 9.14306641 C-162.34903934 -49.86873635 -61.63661748 -53.4552719 0 0 Z M-136.578125 -15.36865234 C-137.36558105 -15.17529297 -138.15303711 -14.98193359 -138.96435547 -14.78271484 C-164.37186346 -8.31226282 -185.30113424 4.12152226 -204.578125 21.63134766 C-205.30257812 22.27201172 -206.02703125 22.91267578 -206.7734375 23.57275391 C-222.35392746 38.14279368 -233.63169142 57.62033416 -240.578125 77.63134766 C-240.80483887 78.27620117 -241.03155273 78.92105469 -241.26513672 79.58544922 C-253.44704119 115.04426893 -250.46308906 153.96355214 -234.546875 187.76416016 C-221.42389058 214.23870557 -201.65567587 233.66338784 -177.30078125 249.80322266 C-166.89137505 256.94273308 -163.23872729 263.42934001 -159.578125 275.63134766 C-159.083125 286.02634766 -159.083125 286.02634766 -158.578125 296.63134766 C-122.938125 296.63134766 -87.298125 296.63134766 -50.578125 296.63134766 C-50.248125 289.37134766 -49.918125 282.11134766 -49.578125 274.63134766 C-46.2563956 261.72770653 -39.51797722 254.75046022 -28.578125 247.63134766 C-19.1990605 241.29871614 -10.69908526 234.52703856 -2.578125 226.63134766 C-2.01834961 226.09421143 -1.45857422 225.5570752 -0.88183594 225.00366211 C25.45102338 199.33020527 39.26097679 161.84386629 39.734375 125.44384766 C39.49295008 84.06361686 21.90411456 48.20127675 -6.9375 19.26416016 C-36.78177553 -8.87758959 -75.02400601 -19.36242119 -115.19433594 -18.50048828 C-122.50572405 -18.215629 -129.48381399 -17.12355249 -136.578125 -15.36865234 Z M-158.578125 315.63134766 C-158.578125 322.34360919 -158.24912844 325.40388517 -154.078125 330.44384766 C-150.29091219 333.4420578 -145.62414272 332.786274 -141.05517578 332.79248047 C-140.18494781 332.79744537 -139.31471985 332.80241028 -138.41812134 332.80752563 C-135.53655204 332.82214211 -132.65503779 332.82894813 -129.7734375 332.83447266 C-127.77188109 332.84022419 -125.77032469 332.84598192 -123.76876831 332.85174561 C-119.57061506 332.86225389 -115.37248096 332.8680978 -111.17431641 332.87158203 C-105.79509152 332.87706876 -100.4161195 332.90110138 -95.03697395 332.92955399 C-90.90200053 332.94817707 -86.76708808 332.95338578 -82.63207626 332.95491791 C-80.64894095 332.95794531 -78.66580674 332.96597679 -76.68271255 332.97910309 C-73.90823359 332.99615785 -71.1343734 332.99428481 -68.35986328 332.98779297 C-67.13154785 333.00161514 -67.13154785 333.00161514 -65.87841797 333.01571655 C-61.27008992 332.98193913 -58.34959347 332.56489201 -54.578125 329.63134766 C-50.47280087 324.93954865 -50.578125 322.14065792 -50.578125 315.63134766 C-86.218125 315.63134766 -121.858125 315.63134766 -158.578125 315.63134766 Z M-137.578125 351.63134766 C-134.869458 361.99742885 -134.869458 361.99742885 -127.6875 368.84619141 C-120.297564 372.8091151 -112.98587857 372.81331958 -104.765625 372.81884766 C-103.81880859 372.83109375 -102.87199219 372.84333984 -101.89648438 372.85595703 C-92.99747716 372.87433076 -85.36647148 372.17051175 -78.30859375 366.40869141 C-73.91616714 361.89728259 -72.578125 357.86703813 -72.578125 351.63134766 C-94.028125 351.63134766 -115.478125 351.63134766 -137.578125 351.63134766 Z " fill="#000000" transform="translate(360.578125,119.36865234375)"/>
<path d="M0 0 C4.81287123 1.89210131 4.81287123 1.89210131 9.796875 1.23046875 C10.53808594 0.85664062 11.27929688 0.4828125 12.04296875 0.09765625 C21.31897956 -4.50015847 34.00313528 -4.61184325 43.98046875 -1.90234375 C49.21136972 0.00390859 53.86864814 2.88984426 58.48046875 5.97265625 C59.81078125 6.83890625 59.81078125 6.83890625 61.16796875 7.72265625 C65.64196862 12.0757372 69.40777214 17.37711356 71.79296875 23.1484375 C74.01827158 26.87272904 75.72669742 27.1578625 79.85546875 28.28515625 C94.0606826 32.88829056 105.31236852 42.39616928 112.79296875 55.34765625 C113.7191876 57.20783393 114.61583099 59.08306796 115.48046875 60.97265625 C116.10115234 62.25462891 116.10115234 62.25462891 116.734375 63.5625 C121.85861679 76.00708721 121.30641889 92.60752616 116.77734375 105.14453125 C115.38466896 108.18156905 113.78758084 111.02433092 112.10546875 113.91015625 C109.79159878 117.74126561 109.79159878 117.74126561 109.91796875 122.09765625 C110.43359375 123.04640625 110.94921875 123.99515625 111.48046875 124.97265625 C114.1154095 131.29002804 115.00082136 137.03204268 114.91796875 143.84765625 C114.90660889 145.16310425 114.90660889 145.16310425 114.89501953 146.50512695 C114.6254375 157.12606869 111.25973796 165.74837275 104.48046875 173.97265625 C103.04930563 175.1884884 101.6116627 176.39673016 100.16796875 177.59765625 C96.29250081 181.26799545 95.94887638 184.01673804 95.73046875 189.28515625 C95.71113281 190.579375 95.69179688 191.87359375 95.671875 193.20703125 C95.14426288 203.58699218 89.9721821 212.02911705 82.48046875 218.97265625 C76.87516187 223.97198401 71.51884774 226.84484046 64.04296875 227.59765625 C57.85470151 228.53269663 55.66106149 231.70077183 51.8828125 236.421875 C46.60266218 242.02827851 38.2383272 245.77763765 30.56640625 246.17578125 C28.99621877 246.20101521 27.42584552 246.21615267 25.85546875 246.22265625 C25.04239258 246.226604 24.22931641 246.23055176 23.39160156 246.23461914 C18.22063812 246.18431996 14.03480251 245.56680753 9.22265625 243.58203125 C5.42610841 242.25409075 1.99481871 243.80483596 -1.65625 244.99609375 C-11.82566564 247.5667246 -23.32802325 247.28771376 -32.82421875 242.671875 C-38.57495745 239.0464093 -43.73846257 234.64425927 -47.51953125 228.97265625 C-49.83391582 228.35220439 -49.83391582 228.35220439 -52.51953125 228.09765625 C-61.74519988 226.63460788 -70.13862618 222.41026204 -76.07421875 215.04296875 C-81.86466243 206.94787087 -84.61443143 199.37319693 -84.64453125 189.41015625 C-84.81856182 185.09419817 -84.92679605 182.75689051 -87.55078125 179.28515625 C-89.29515811 177.68789551 -91.06831297 176.1215621 -92.8671875 174.5859375 C-101.0719005 166.50205974 -103.74296684 155.54832628 -103.83203125 144.41015625 C-103.87709703 136.45568853 -102.897065 130.24317066 -99.51953125 122.97265625 C-98.30415582 119.46237133 -98.4801106 119.06259373 -100.1015625 115.36328125 C-100.83331019 113.97681195 -101.57730118 112.59675025 -102.33203125 111.22265625 C-109.43485506 98.18221881 -110.93284262 83.26330947 -107.71484375 68.66015625 C-103.08491815 53.33350598 -93.00464083 40.6215916 -79.08203125 32.66015625 C-75.34596623 30.70216183 -71.75467689 29.43692533 -67.70703125 28.28515625 C-63.05871418 26.71370815 -61.4736996 24.99279835 -59.20703125 20.66015625 C-58.75070313 19.68949219 -58.294375 18.71882813 -57.82421875 17.71875 C-53.40964805 8.42700389 -44.48656549 2.7188414 -35.08203125 -0.90234375 C-23.63799738 -4.51624918 -11.18455912 -4.50287445 0 0 Z M-39.14453125 24.78515625 C-39.92828125 25.83703125 -40.71203125 26.88890625 -41.51953125 27.97265625 C-40.359375 28.57400391 -40.359375 28.57400391 -39.17578125 29.1875 C-30.79251715 33.76301914 -23.83272723 38.885333 -19.45703125 47.59765625 C-18.35493289 51.56521036 -18.37926176 54.01972202 -19.51953125 57.97265625 C-21.32532495 60.21184044 -22.60306953 60.82210812 -25.421875 61.28515625 C-28.79580355 61.48620972 -30.84105259 61.45158237 -33.64453125 59.47265625 C-34.72536599 58.03154326 -35.78347644 56.57139378 -36.7734375 55.06640625 C-40.54075747 49.56427136 -44.04274467 46.78570038 -50.51953125 44.97265625 C-60.3466989 43.72192582 -68.45669989 47.94701273 -76.0390625 53.796875 C-83.60915375 60.43709677 -89.04306534 69.54717316 -89.79296875 79.66015625 C-90.10247594 89.17639691 -89.14282163 96.4030573 -84.51953125 104.97265625 C-80.45065159 103.63375141 -76.44210424 102.20369357 -72.44921875 100.65625 C-62.30131691 97.0613455 -49.12477103 97.73433559 -39.1953125 101.6484375 C-25.92284106 108.21685767 -18.57040043 117.74903402 -13.20703125 131.28515625 C-12.18190612 136.78355466 -11.66372948 142.42444984 -12.51953125 147.97265625 C-14.56843285 150.53485261 -15.87040243 151.73963565 -18.95703125 152.84765625 C-22.1207154 153.00198231 -23.77536909 152.56138171 -26.51953125 150.97265625 C-29.27984515 147.80340696 -29.80875832 144.69509637 -30.45703125 140.66015625 C-31.86925172 132.24332228 -34.685586 126.84413427 -41.3984375 121.44921875 C-48.49120061 116.51171515 -56.01740955 115.90989104 -64.51953125 116.97265625 C-73.40177409 119.6373291 -78.69398165 125.41531818 -83.45703125 133.09765625 C-85.81619997 139.58166084 -85.64718308 147.50915421 -83.53515625 153.99609375 C-81.44571758 158.39423317 -79.60050208 161.22584896 -75.51953125 163.97265625 C-74.72289062 163.24949219 -74.72289062 163.24949219 -73.91015625 162.51171875 C-73.20375 161.88007813 -72.49734375 161.2484375 -71.76953125 160.59765625 C-71.0734375 159.97117187 -70.37734375 159.3446875 -69.66015625 158.69921875 C-65.60799704 155.43087136 -62.75291997 154.53654052 -57.51953125 154.97265625 C-55.26953125 155.47265625 -55.26953125 155.47265625 -53.51953125 156.97265625 C-51.95207621 160.56810725 -51.32559246 163.78131797 -51.95703125 167.66015625 C-53.85053309 170.46253897 -55.97630111 171.80374176 -58.76953125 173.6484375 C-62.30148738 176.32105609 -64.14558099 179.85080547 -65.51953125 183.97265625 C-66.26329589 190.83723812 -65.58913471 196.29296045 -61.51953125 201.97265625 C-57.25194445 206.43873546 -52.61276631 209.03373078 -46.51953125 209.97265625 C-39.21404274 209.62005349 -33.51253932 207.24625882 -28.51953125 201.78515625 C-25.86672764 199.38105297 -24.06636122 199.11742482 -20.51953125 198.97265625 C-17.54603533 199.71603023 -16.0542515 200.25969592 -14.20703125 202.72265625 C-12.88412164 207.05217861 -12.98070584 209.89500544 -15.01953125 213.97265625 C-18.10118949 217.67064614 -21.56588178 220.26651753 -25.51953125 222.97265625 C-21.93579536 227.03946625 -18.86628504 227.29585197 -13.51953125 227.97265625 C-10.21953125 226.98265625 -6.91953125 225.99265625 -3.51953125 224.97265625 C-3.51953125 157.32265625 -3.51953125 89.67265625 -3.51953125 19.97265625 C-16.62294319 14.14891761 -29.03400522 13.18986766 -39.14453125 24.78515625 Z M14.48046875 19.97265625 C14.48046875 87.62265625 14.48046875 155.27265625 14.48046875 224.97265625 C22.05354474 227.98460452 22.05354474 227.98460452 28.85546875 227.34765625 C29.66757812 227.16976562 30.4796875 226.991875 31.31640625 226.80859375 C33.67081904 225.89912744 34.8527015 224.87346832 36.48046875 222.97265625 C35.86558594 222.52535156 35.25070312 222.07804688 34.6171875 221.6171875 C26.07647873 215.22868285 26.07647873 215.22868285 24.48046875 210.97265625 C23.99567116 207.02501871 23.83436248 204.91696542 26.10546875 201.59765625 C29.06417512 199.57327821 30.89107741 199.04444408 34.48046875 198.97265625 C38.09872852 200.3018129 40.17132646 201.63844837 42.79296875 204.47265625 C46.37191071 207.80190458 49.65442642 209.23958653 54.48046875 209.97265625 C62.00428167 209.61006286 67.58783612 207.1063416 72.73046875 201.53515625 C76.6289563 195.82665662 77.18099486 190.78089443 76.48046875 183.97265625 C74.36110565 178.06074865 70.34297832 174.623517 65.73046875 170.53515625 C63.09184931 167.53006188 62.5631593 165.94180285 62.48046875 161.97265625 C63.22384273 158.99916033 63.76750842 157.5073765 66.23046875 155.66015625 C69.36615932 154.70202858 71.18376695 154.47504088 74.48046875 154.97265625 C79.11667699 157.52861801 83.2607502 160.79354702 87.48046875 163.97265625 C88.44595487 162.74909995 89.40252773 161.51850814 90.35546875 160.28515625 C90.88914062 159.60066406 91.4228125 158.91617188 91.97265625 158.2109375 C96.42578511 151.60046383 96.2827743 144.70857086 95.48046875 136.97265625 C92.89782452 128.08355516 86.99722211 122.71813378 79.29296875 118.03515625 C71.24585112 115.79251691 62.97059828 115.78219378 55.4765625 119.71484375 C47.80502508 124.54896322 43.71038604 129.56701979 41.6796875 138.4921875 C41.18511428 140.95490851 40.7197916 143.42375169 40.2890625 145.8984375 C39.479368 148.97684122 39.02443918 150.14926858 36.48046875 151.97265625 C32.64652098 153.16544 30.93564507 153.15300913 27.16796875 151.66015625 C24.48046875 149.97265625 24.48046875 149.97265625 23.48046875 147.97265625 C22.34848918 135.53943805 25.03856052 125.2010283 32.5703125 115.22265625 C39.90264133 106.58580266 50.03319504 99.90089874 61.56518555 98.76782227 C63.8120931 98.66914815 66.04398401 98.64418741 68.29296875 98.66015625 C69.08541992 98.66362061 69.87787109 98.66708496 70.69433594 98.6706543 C79.2673867 98.82957709 85.90794693 100.99708229 93.48046875 104.97265625 C94.14046875 104.97265625 94.80046875 104.97265625 95.48046875 104.97265625 C100.99500961 94.75106087 102.4241804 84.29043905 99.78125 72.98046875 C98.86125868 70.48834036 97.79406898 68.27966665 96.48046875 65.97265625 C96.06796875 65.20695312 95.65546875 64.44125 95.23046875 63.65234375 C89.73749573 54.44537193 81.26567858 48.11358895 70.98046875 45.28515625 C63.90985017 44.40132893 58.49037592 45.02454205 52.48046875 48.97265625 C50.18107103 51.45519184 48.33699408 54.15027506 46.48046875 56.97265625 C43.63703744 60.763898 43.63703744 60.763898 40.59765625 61.3125 C37.36851704 61.46144554 35.01971955 61.20771429 32.04296875 59.91015625 C29.62513706 56.91204495 29.48046875 54.80495576 29.48046875 50.97265625 C31.92489022 42.93179614 37.94397787 36.11737243 45.23046875 32.16015625 C45.9678125 31.80308594 46.70515625 31.44601563 47.46484375 31.078125 C49.53335168 29.94365263 50.90457801 28.71311786 52.48046875 26.97265625 C46.99143406 20.68938825 41.78840917 16.61145305 33.33203125 15.59375 C25.36604431 15.30593462 22.41081913 16.44805608 14.48046875 19.97265625 Z " fill="#000000" transform="translate(250.51953125,122.02734375)"/>
<path d="M0 0 C2.75329021 1.79562405 4.52627461 3.05254922 6 6 C6.42028607 10.72821825 5.78259094 13.17629606 3 17 C0.43139648 18.84936523 0.43139648 18.84936523 -2.62890625 20.55859375 C-3.74716797 21.19216797 -4.86542969 21.82574219 -6.01757812 22.47851562 C-7.19897695 23.13194779 -8.3806189 23.78494056 -9.5625 24.4375 C-11.85588491 25.72712479 -14.14885946 27.01747963 -16.44140625 28.30859375 C-17.54991943 28.92726318 -18.65843262 29.54593262 -19.80053711 30.18334961 C-23.56041541 32.31820306 -27.2456576 34.55941821 -30.91259766 36.84960938 C-33.98368654 38.54212058 -36.5092759 39.06844557 -40 39 C-43.20061707 37.69065665 -44.70398212 36.36508872 -46.875 33.6875 C-48.33245458 30.20580295 -48.19095575 28.57286725 -47 25 C-42.54051401 19.52526932 -36.43830093 16.50975004 -30.375 13.0625 C-29.34503906 12.46759766 -28.31507813 11.87269531 -27.25390625 11.25976562 C-24.17838184 9.48988837 -21.09174886 7.74135815 -18 6 C-16.47076904 5.13084961 -16.47076904 5.13084961 -14.91064453 4.24414062 C-13.93981934 3.70080078 -12.96899414 3.15746094 -11.96875 2.59765625 C-11.10443359 2.11176025 -10.24011719 1.62586426 -9.34960938 1.12524414 C-6.00359214 -0.4771866 -3.62743678 -0.72548736 0 0 Z " fill="#000000" transform="translate(461,118)"/>
<path d="M0 0 C3.83027882 3.414063 6.34526586 6.90857241 8.84765625 11.3671875 C9.18623154 11.96500031 9.52480682 12.56281311 9.87364197 13.17874146 C10.94434075 15.07325306 12.00360378 16.97387141 13.0625 18.875 C13.77593401 20.14235448 14.49012084 21.40928548 15.20507812 22.67578125 C16.52692229 25.01942082 17.84343571 27.36575389 19.15649414 29.71435547 C20.12116403 31.43366779 21.09040033 33.15096312 22.10324097 34.84234619 C24.6950302 39.20016067 25.75709639 41.88959939 25 47 C23.20437595 49.75329021 21.94745078 51.52627461 19 53 C15.1158545 53.36642882 12.82217882 53.53842726 9.5078125 51.36791992 C6.69646108 48.7133933 5.07331184 46.17266244 3.1875 42.80078125 C2.85129639 42.20629684 2.51509277 41.61181244 2.16870117 40.99931335 C1.10266791 39.10901944 0.05119315 37.21107861 -1 35.3125 C-1.70478227 34.05741052 -2.41050401 32.8028481 -3.1171875 31.54882812 C-4.47607595 29.13370199 -5.82690225 26.71437704 -7.17016602 24.29052734 C-8.30012199 22.25856649 -9.43935015 20.23169257 -10.59350586 18.21337891 C-11.04604736 17.4197998 -11.49858887 16.6262207 -11.96484375 15.80859375 C-12.35019287 15.14013428 -12.73554199 14.4716748 -13.13256836 13.78295898 C-14.49165056 10.98943877 -14.61813442 9.02199048 -14 6 C-10.42788442 0.64182663 -6.5322096 -1.5771461 0 0 Z " fill="#000000" transform="translate(144,33)"/>
<path d="M0 0 C2.9375 1.5 2.9375 1.5 5 4 C6.71572328 9.64758914 6.04856387 12.57267937 3.31640625 17.79296875 C2.08714312 19.93726484 0.83471895 22.06840762 -0.4375 24.1875 C-1.08187012 25.29432129 -1.72624023 26.40114258 -2.39013672 27.54150391 C-4.24037852 30.70650138 -6.1176622 33.85402422 -8 37 C-8.85968515 38.47171567 -9.71802649 39.9442183 -10.57421875 41.41796875 C-15.98902452 50.58403232 -15.98902452 50.58403232 -20 53 C-24.24649943 53.54046356 -26.25823192 53.48376179 -29.875 51.125 C-32.38212918 48.61787082 -32.8997799 47.61900651 -33.46484375 44.12890625 C-33.36350379 38.093722 -29.52217179 32.98448749 -26.5625 27.9375 C-25.92666992 26.83019531 -25.29083984 25.72289062 -24.63574219 24.58203125 C-9.68332103 -1.27997922 -9.68332103 -1.27997922 0 0 Z " fill="#000000" transform="translate(376,33)"/>
<path d="M0 0 C5.91300629 1.17562987 10.96855338 4.58164034 16.10839844 7.60595703 C17.27409457 8.27107235 18.44075779 8.93449572 19.60839844 9.59619141 C23.00626883 11.5424885 26.37411905 13.53138345 29.73339844 15.54345703 C30.79977539 16.17622559 31.86615234 16.80899414 32.96484375 17.4609375 C33.95323242 18.06437988 34.94162109 18.66782227 35.95996094 19.28955078 C36.83475098 19.8212085 37.70954102 20.35286621 38.61083984 20.90063477 C41.79417805 23.36448142 42.57489717 25.50187727 43.17089844 29.41845703 C42.69666762 32.80582 41.75979131 34.90281376 39.38623047 37.40380859 C36.88297916 39.1298318 34.40565958 39.17001836 31.43774414 39.078125 C25.64235552 37.93233633 20.7670664 34.47499554 15.79589844 31.41845703 C14.68021484 30.75330078 13.56453125 30.08814453 12.41503906 29.40283203 C10.21717833 28.08952333 8.02510133 26.76647958 5.83935547 25.43310547 C2.17055324 23.20102488 -1.53318289 21.03111186 -5.24536133 18.87207031 C-8.45790666 16.76038149 -10.0196967 15.41712039 -11.07910156 11.66845703 C-11.32330516 7.59839711 -10.54139052 5.07352958 -7.92919922 1.93823242 C-5.48435843 -0.11277719 -3.09907907 -0.10965201 0 0 Z " fill="#000000" transform="translate(424.2666015625,330.45654296875)"/>
<path d="M0 0 C3.2996391 1.32846469 6.310099 3.07851897 9.375 4.875 C10.24116943 5.3687915 11.10733887 5.86258301 11.99975586 6.37133789 C13.78977377 7.39544174 15.57582498 8.42650903 17.35791016 9.46435547 C19.88801667 10.93491267 22.4315689 12.37873506 24.98046875 13.81640625 C26.50854616 14.68882037 28.03592521 15.5624592 29.5625 16.4375 C30.27003418 16.83759277 30.97756836 17.23768555 31.70654297 17.64990234 C35.18702547 19.68168216 38.07664075 21.38663023 40 25 C40.82257484 29.20921181 40.72547114 32.83924618 38.4375 36.5 C35.01913278 38.6036106 33.05479498 39.06539992 29 39 C21.21195751 35.89404388 13.95846479 31.1753942 6.75 26.9375 C5.17605469 26.02000977 5.17605469 26.02000977 3.5703125 25.08398438 C-11.79803098 16.08669468 -11.79803098 16.08669468 -13 12 C-13.50046695 8.07967553 -13.34198493 6.51297739 -11.125 3.1875 C-7.54339154 -0.49944988 -5.08122801 -0.47104086 0 0 Z " fill="#000000" transform="translate(58,118)"/>
<path d="M0 0 C2.5625 1.375 2.5625 1.375 4 4 C4.66414728 7.48530386 4.98216575 10.57298081 4 14 C-0.87403572 19.03704695 -7.15714561 22.08525386 -13.25 25.4375 C-15.23510984 26.53904135 -17.21949099 27.64189696 -19.203125 28.74609375 C-20.17032471 29.28186035 -21.13752441 29.81762695 -22.1340332 30.36962891 C-25.74227446 32.42225989 -29.25644988 34.61214192 -32.75561523 36.8449707 C-36.47149045 38.75727416 -39.98485887 39.18557317 -44 38 C-46.60954908 36.20745928 -47.34895381 34.87601594 -49 32 C-49.56607136 28.53281293 -49.33987147 26.72275003 -47.85009766 23.5546875 C-45.55932713 20.3915016 -43.3057331 19.08404655 -39.8984375 17.1875 C-39.00458847 16.68319458 -39.00458847 16.68319458 -38.09268188 16.16870117 C-36.19315075 15.10059659 -34.28450241 14.05015387 -32.375 13 C-31.11524325 12.29541776 -29.85612194 11.58969814 -28.59765625 10.8828125 C-26.17070539 9.52176096 -23.73830381 8.17140978 -21.30053711 6.82983398 C-19.27740699 5.70820071 -17.26285907 4.57068628 -15.26391602 3.40649414 C-14.48459717 2.95395264 -13.70527832 2.50141113 -12.90234375 2.03515625 C-12.25257568 1.64980713 -11.60280762 1.26445801 -10.93334961 0.86743164 C-7.34959756 -0.74048237 -3.80630031 -0.78409786 0 0 Z " fill="#000000" transform="translate(94,331)"/>
<path d="M0 0 C0.90451401 -0.0127597 1.80902802 -0.02551941 2.74095154 -0.03866577 C4.19574669 -0.04200424 4.19574669 -0.04200424 5.67993164 -0.04541016 C7.1851815 -0.05539536 7.1851815 -0.05539536 8.72084045 -0.06558228 C10.84154428 -0.07569995 12.96227988 -0.08039957 15.08300781 -0.08007812 C18.32483395 -0.08445208 21.56529937 -0.12078388 24.80688477 -0.15869141 C26.86872907 -0.16455959 28.93057984 -0.16852897 30.99243164 -0.17041016 C32.44419044 -0.19196671 32.44419044 -0.19196671 33.92527771 -0.21395874 C38.27437267 -0.18447531 40.72163656 -0.12927331 44.49072266 2.19433594 C46.98251957 4.92637122 47.36227375 5.86319742 47.71508789 9.60302734 C47.35382847 13.86588845 46.38266735 15.31044789 43.40258789 18.29052734 C41.04482626 19.46940816 39.57069366 19.44191557 36.94042969 19.48339844 C36.01574387 19.49946136 35.09105804 19.51552429 34.13835144 19.53207397 C29.90750842 19.57650779 25.67682254 19.61758802 21.44580078 19.640625 C19.2139239 19.65718749 16.98210012 19.68448115 14.75048828 19.72265625 C11.53398092 19.77740329 8.31871709 19.79929605 5.10180664 19.81396484 C4.10581955 19.83663422 3.10983246 19.85930359 2.08366394 19.88265991 C-2.60184865 19.86836457 -4.85633822 19.8425904 -8.70361328 16.9765625 C-11.08232037 13.60276652 -11.59741211 11.40984015 -11.59741211 7.29052734 C-10.3735636 4.39193878 -9.46246781 2.82045484 -6.77146912 1.17196655 C-4.35571827 0.19253616 -2.59996858 0.02498811 0 0 Z " fill="#000000" transform="translate(450.597412109375,233.70947265625)"/>
<path d="M0 0 C1.3569976 -0.01441132 1.3569976 -0.01441132 2.7414093 -0.02911377 C3.72159531 -0.03336365 4.70178131 -0.03761353 5.71166992 -0.04199219 C7.22116463 -0.0505423 7.22116463 -0.0505423 8.76115417 -0.05926514 C10.89381862 -0.06872304 13.02649774 -0.07525225 15.15917969 -0.07910156 C18.41847343 -0.08879679 21.67713393 -0.11980878 24.9362793 -0.15136719 C27.00723909 -0.15789819 29.0782034 -0.16314828 31.14916992 -0.16699219 C32.12328323 -0.17933899 33.09739655 -0.19168579 34.10102844 -0.20440674 C39.08396685 -0.18804755 42.61096263 -0.14567508 46.62963867 3.16113281 C48.69883797 5.79465919 48.62894589 7.19923591 48.56713867 10.59863281 C47.39658018 15.04675507 46.31763353 16.40819203 42.62963867 19.16113281 C39.09696049 19.88949668 35.63241858 19.83837143 32.03588867 19.79003906 C31.01160767 19.79245102 29.98732666 19.79486298 28.93200684 19.79734802 C26.77014284 19.79637015 24.60825362 19.78299091 22.4465332 19.75805664 C19.14081608 19.72374882 15.83777275 19.73740169 12.53198242 19.75683594 C10.42910648 19.74993729 8.32623743 19.74026474 6.22338867 19.72753906 C5.23681274 19.73249893 4.25023682 19.7374588 3.23376465 19.74256897 C-1.14602521 19.66754152 -3.67757764 19.58812024 -7.4699707 17.25073242 C-9.95147068 14.52216635 -10.33083617 13.58009951 -10.68286133 9.84863281 C-10.32160191 5.58577171 -9.35044079 4.14121227 -6.37036133 1.16113281 C-4.02718335 -0.01045618 -2.61169515 0.02235614 0 0 Z " fill="#000000" transform="translate(24.370361328125,233.8388671875)"/>
<path d="M0 0 C0.639375 -0.01289063 1.27875 -0.02578125 1.9375 -0.0390625 C5.40615765 1.07774015 6.77734816 2.73748691 9 5.625 C9.74962391 9.22620178 9.70087556 12.76952769 9.6640625 16.4375 C9.66884613 17.48397705 9.67362976 18.5304541 9.67855835 19.60864258 C9.68195548 21.81756089 9.67276625 24.02652961 9.65185547 26.23535156 C9.62508896 29.6137721 9.65161143 32.98887014 9.68359375 36.3671875 C9.68028962 38.51563232 9.67388333 40.66407508 9.6640625 42.8125 C9.67418365 43.82094971 9.68430481 44.82939941 9.69473267 45.8684082 C9.61517791 50.6357969 9.56826857 52.88674541 6.58740234 56.75927734 C4.09321024 58.55778801 3.01682546 59.31082309 0 59.25 C-0.639375 59.26289062 -1.27875 59.27578125 -1.9375 59.2890625 C-5.40615765 58.17225985 -6.77734816 56.51251309 -9 53.625 C-9.74962391 50.02379822 -9.70087556 46.48047231 -9.6640625 42.8125 C-9.66884613 41.76602295 -9.67362976 40.7195459 -9.67855835 39.64135742 C-9.68195548 37.43243911 -9.67276625 35.22347039 -9.65185547 33.01464844 C-9.62508896 29.6362279 -9.65161143 26.26112986 -9.68359375 22.8828125 C-9.68028962 20.73436768 -9.67388333 18.58592492 -9.6640625 16.4375 C-9.67418365 15.42905029 -9.68430481 14.42060059 -9.69473267 13.3815918 C-9.61517791 8.6142031 -9.56826857 6.36325459 -6.58740234 2.49072266 C-4.09321024 0.69221199 -3.01682546 -0.06082309 0 0 Z " fill="#000000" transform="translate(256,1.375)"/>
</svg>
