<?xml version="1.0" encoding="UTF-8"?>
<svg version="1.1" xmlns="http://www.w3.org/2000/svg" width="512" height="512">
<path d="M0 0 C6.51460867 0.50342882 6.51460867 0.50342882 9.42724609 3.29101562 C10.68115234 5.88867187 10.68115234 5.88867187 11.77490234 8.64648438 C14.30202969 13.04207289 18.48859631 13.88237845 23.12646484 15.36523438 C30.18123799 17.27066062 30.18123799 17.27066062 37.05615234 15.70117188 C39.06005859 15.10351562 39.06005859 15.10351562 41.24365234 15.20117188 C45.09143823 17.71413008 48.16181497 20.81010252 51.24365234 24.20117188 C52.01837891 25.04808594 52.79310547 25.895 53.59130859 26.76757812 C54.13658203 27.57066406 54.68185547 28.37375 55.24365234 29.20117188 C54.43115234 33.07617188 54.43115234 33.07617188 53.78271484 35.18164062 C52.11630972 41.42462214 55.29186135 48.42730973 57.50146484 54.23242188 C59.54301753 57.71130089 60.87897681 58.30530197 64.55615234 59.76367188 C67.15380859 61.01757812 67.15380859 61.01757812 69.24365234 63.20117188 C71.09062724 69.51032039 71.09062724 76.89202336 69.24365234 83.20117188 C66.88441583 85.66624329 64.94656409 86.48383435 61.79833984 87.73242188 C57.40275133 90.25954922 56.56244577 94.44611584 55.07958984 99.08398438 C53.1741636 106.13875752 53.1741636 106.13875752 54.74365234 113.01367188 C55.33740234 115.01757812 55.33740234 115.01757812 55.24365234 117.20117188 C52.75559842 121.09169016 49.65123555 124.10930724 46.24365234 127.20117188 C45.68419922 127.72710937 45.12474609 128.25304687 44.54833984 128.79492188 C43.11865234 129.95117188 43.11865234 129.95117188 40.24365234 131.20117188 C36.80615234 130.38867188 36.80615234 130.38867188 33.24365234 129.20117188 C26.3973888 129.33809715 19.1270809 131.74852827 13.24365234 135.20117188 C11.70951469 137.72798808 11.70951469 137.72798808 10.68115234 140.51367188 C9.42724609 143.11132812 9.42724609 143.11132812 7.24365234 145.20117188 C0.93450383 147.04814677 -6.44719914 147.04814677 -12.75634766 145.20117188 C-15.22141907 142.84193537 -16.03901013 140.90408363 -17.28759766 137.75585938 C-19.814725 133.36027086 -24.00129162 132.5199653 -28.63916016 131.03710938 C-35.6939333 129.13168313 -35.6939333 129.13168313 -42.56884766 130.70117188 C-44.57275391 131.29492188 -44.57275391 131.29492188 -46.75634766 131.20117188 C-50.64686594 128.71311795 -53.66448302 125.60875508 -56.75634766 122.20117188 C-57.28228516 121.64171875 -57.80822266 121.08226562 -58.35009766 120.50585938 C-59.50634766 119.07617188 -59.50634766 119.07617188 -60.75634766 116.20117188 C-59.94384766 112.76367188 -59.94384766 112.76367188 -58.75634766 109.20117188 C-58.89327293 102.35490833 -61.30370405 95.08460044 -64.75634766 89.20117188 C-67.28316386 87.66703422 -67.28316386 87.66703422 -70.06884766 86.63867188 C-72.66650391 85.38476562 -72.66650391 85.38476562 -74.75634766 83.20117188 C-76.60332255 76.89202336 -76.60332255 69.51032039 -74.75634766 63.20117188 C-72.39711115 60.73610046 -70.45925941 59.9185094 -67.31103516 58.66992188 C-62.91544664 56.14279453 -62.07514108 51.95622791 -60.59228516 47.31835938 C-58.68685892 40.26358623 -58.68685892 40.26358623 -60.25634766 33.38867188 C-60.85009766 31.38476562 -60.85009766 31.38476562 -60.75634766 29.20117188 C-58.26829373 25.31065359 -55.16393086 22.29303651 -51.75634766 19.20117188 C-51.19689453 18.67523438 -50.63744141 18.14929688 -50.06103516 17.60742188 C-48.63134766 16.45117188 -48.63134766 16.45117188 -45.75634766 15.20117188 C-42.31884766 16.01367188 -42.31884766 16.01367188 -38.75634766 17.20117188 C-31.91008411 17.0642466 -24.63977622 14.65381548 -18.75634766 11.20117188 C-17.22221 8.67435567 -17.22221 8.67435567 -16.19384766 5.88867188 C-12.95067612 -0.83004798 -6.64830235 -0.11777329 0 0 Z M-23.75634766 57.20117188 C-28.02673277 63.90826089 -29.57190031 70.28686516 -28.75634766 78.20117188 C-26.80225855 85.09073174 -22.85577827 91.64194479 -16.69775391 95.48632812 C-9.76314887 99.03633694 -3.04606034 100.70149557 4.65380859 98.51757812 C12.50859881 95.27057222 17.98627849 90.81633946 21.51708984 83.03320312 C24.09751814 76.52663931 24.3163068 70.03953306 21.61865234 63.51367188 C17.99478206 56.31679265 13.48843963 51.68940279 6.24365234 48.20117188 C-5.41163129 44.63322791 -15.81952163 48.31403851 -23.75634766 57.20117188 Z " fill="#000000" transform="translate(82.75634765625,350.798828125)"/>
<path d="M0 0 C0.88742386 -0.01142029 1.77484772 -0.02284058 2.68916321 -0.03460693 C3.66529572 -0.03684265 4.64142822 -0.03907837 5.6471405 -0.04138184 C7.18634911 -0.05627655 7.18634911 -0.05627655 8.75665283 -0.07147217 C12.16312814 -0.10076548 15.56941717 -0.11432773 18.97599792 -0.12536621 C21.3377076 -0.1368654 23.69941719 -0.14838091 26.06112671 -0.15991211 C31.01851779 -0.18094659 35.97584386 -0.19262227 40.93327332 -0.19958496 C47.28918498 -0.21055516 53.64423983 -0.25860398 59.9998827 -0.31552887 C64.88033565 -0.35275781 69.76058181 -0.36319151 74.64116478 -0.36625671 C76.98438385 -0.37231677 79.32759899 -0.38839765 81.67067909 -0.41462708 C84.94865361 -0.44870102 88.22453 -0.44500207 91.50260925 -0.43200684 C92.47266907 -0.4504364 93.44272888 -0.46886597 94.44218445 -0.487854 C100.86387322 -0.40801467 100.86387322 -0.40801467 103.43384647 1.54808235 C104.77186584 3.11868286 104.77186584 3.11868286 106.76896667 6.28088379 C107.50155701 7.37255859 108.23414734 8.4642334 108.98893738 9.58898926 C109.73019726 10.77161671 110.46526308 11.9581445 111.19474792 13.14807129 C111.587202 13.78648956 111.97965607 14.42490784 112.38400269 15.08267212 C113.20443474 16.42382736 114.02193227 17.76678184 114.83659363 19.1114502 C116.08000822 21.15348859 117.3469786 23.1796349 118.6146698 25.20666504 C119.41369815 26.51955399 120.2112744 27.83332803 121.00724792 29.14807129 C121.38529068 29.74417206 121.76333344 30.34027283 122.15283203 30.95443726 C124.96136866 35.69184774 125.16498052 38.94244801 124.76896667 44.28088379 C122.89429391 51.19737834 118.03069843 55.79330909 111.99552917 59.31604004 C105.30911049 62.34890928 97.15622086 62.49521307 90.14396667 60.55432129 C82.34769817 57.31465566 77.59119403 52.77832975 73.76896667 45.28088379 C73.25334167 46.31213379 72.73771667 47.34338379 72.20646667 48.40588379 C68.75151455 54.39446747 63.67076994 58.67345894 57.06193542 60.80822754 C48.4994915 62.57322876 40.3387795 61.75217219 32.76896667 57.28088379 C28.32576943 53.80216535 25.67493833 50.62310243 23.76896667 45.28088379 C23.41705261 45.87256348 23.06513855 46.46424316 22.70256042 47.07385254 C17.9569428 54.66931887 13.47276247 58.82926111 4.76896667 61.28088379 C-5.05003393 62.34039954 -12.58985867 60.86753559 -20.54353333 55.03088379 C-24.80622533 50.66905941 -26.83242474 46.82058991 -27.77790833 40.79650879 C-27.63264019 34.34106247 -23.45204815 29.11617682 -20.10603333 23.84338379 C-19.44087708 22.76250488 -18.77572083 21.68162598 -18.09040833 20.56799316 C-5.3936041 0.04149299 -5.3936041 0.04149299 0 0 Z " fill="#000000" transform="translate(375.2310333251953,351.7191162109375)"/>
<path d="M0 0 C0.82628906 0.43441406 1.65257812 0.86882812 2.50390625 1.31640625 C4.19086752 2.00522711 5.87836655 2.69273246 7.56640625 3.37890625 C8.40300781 3.72050781 9.23960937 4.06210937 10.1015625 4.4140625 C19.78342537 8.05066465 30.66008715 7.33702429 40.13671875 3.484375 C42.5961777 2.33378924 42.5961777 2.33378924 45.05859375 0.6171875 C47.50390625 -0.68359375 47.50390625 -0.68359375 49.578125 -0.4921875 C52.2162791 0.61551615 54.69750118 1.91829381 57.2109375 3.28125 C66.87453852 7.64386375 72.92098272 6.31640625 84.50390625 6.31640625 C84.50390625 29.41640625 84.50390625 52.51640625 84.50390625 76.31640625 C44.24390625 76.31640625 3.98390625 76.31640625 -37.49609375 76.31640625 C-37.49609375 53.21640625 -37.49609375 30.11640625 -37.49609375 6.31640625 C-31.55609375 6.31640625 -25.61609375 6.31640625 -19.49609375 6.31640625 C-11.79234798 4.3211547 -11.79234798 4.3211547 -4.984375 0.5546875 C-2.49609375 -0.68359375 -2.49609375 -0.68359375 0 0 Z M1.50390625 31.31640625 C1.50390625 38.57640625 1.50390625 45.83640625 1.50390625 53.31640625 C16.02390625 53.31640625 30.54390625 53.31640625 45.50390625 53.31640625 C45.50390625 46.05640625 45.50390625 38.79640625 45.50390625 31.31640625 C30.98390625 31.31640625 16.46390625 31.31640625 1.50390625 31.31640625 Z " fill="#000000" transform="translate(400.49609375,419.68359375)"/>
<path d="M0 0 C1.03936203 -0.0066568 2.07872406 -0.0133136 3.14958191 -0.02017212 C5.34587844 -0.03028348 7.54220561 -0.03498961 9.73852539 -0.03466797 C13.08336567 -0.03903365 16.42687801 -0.07534993 19.77148438 -0.11328125 C21.91015176 -0.11915134 24.04882538 -0.12311945 26.1875 -0.125 C27.18046585 -0.13937103 28.1734317 -0.15374207 29.19648743 -0.16854858 C36.4005921 -0.12160279 41.83691006 1.29353835 47.31640625 6.1171875 C47.76242187 6.684375 48.2084375 7.2515625 48.66796875 7.8359375 C49.36019531 8.68671875 49.36019531 8.68671875 50.06640625 9.5546875 C53.08301159 13.93549016 53.54193587 17.00617494 53.53588867 22.38354492 C53.53778702 23.08477982 53.53968536 23.78601471 53.54164124 24.50849915 C53.54533745 26.81958293 53.53466403 29.13035054 53.5234375 31.44140625 C53.52224525 33.0475511 53.52179263 34.65369665 53.52204895 36.25984192 C53.52048625 39.62143331 53.51221074 42.98291789 53.4987793 46.34448242 C53.4817487 50.66240135 53.47796623 54.98020338 53.47872448 59.29815197 C53.47845322 62.61201604 53.47297975 65.92585433 53.46572304 69.23970985 C53.46253251 70.83259193 53.46056807 72.42547694 53.45982933 74.01836205 C53.45767213 76.23779711 53.44894272 78.4571056 53.43823242 80.67651367 C53.43442062 81.94130051 53.43060883 83.20608734 53.42668152 84.50920105 C53.29296875 87.3359375 53.29296875 87.3359375 52.29296875 88.3359375 C49.8643984 88.43623607 47.46425262 88.47212175 45.03515625 88.46533203 C44.27583801 88.46708435 43.51651978 88.46883667 42.73419189 88.47064209 C40.21209459 88.4750608 37.69006682 88.47212256 35.16796875 88.46875 C33.42301419 88.46942303 31.67805971 88.47039305 29.93310547 88.47164917 C26.2711498 88.47312617 22.60921847 88.47097153 18.94726562 88.46630859 C14.24252383 88.4606113 9.53783907 88.4638903 4.83309937 88.46988106 C1.22842984 88.47348662 -2.37622607 88.47234811 -5.980896 88.46975327 C-7.71612556 88.46908398 -9.45135634 88.46991246 -11.18658447 88.47223282 C-13.60749612 88.47475927 -16.02831411 88.47091888 -18.44921875 88.46533203 C-19.17341003 88.46735626 -19.89760132 88.46938049 -20.64373779 88.47146606 C-25.59276859 88.45020016 -25.59276859 88.45020016 -26.70703125 87.3359375 C-26.84133539 85.32381061 -26.90613464 83.30701836 -26.9440918 81.29077148 C-26.9704924 79.99529892 -26.99689301 78.69982635 -27.02409363 77.36509705 C-27.04773462 75.93741538 -27.07094243 74.50972648 -27.09375 73.08203125 C-27.11940703 71.62288699 -27.14519103 70.16374496 -27.1710968 68.7046051 C-27.22417123 65.6370205 -27.27306531 62.56939969 -27.31958008 59.50170898 C-27.3796427 55.58661703 -27.45391659 51.67194 -27.53195477 47.75717068 C-27.58984247 44.7382267 -27.63800548 41.71918258 -27.68354225 38.70002937 C-27.70682609 37.25800689 -27.73354229 35.81603533 -27.7638607 34.3741436 C-28.15301631 15.39341883 -28.15301631 15.39341883 -21.70703125 7.3359375 C-14.97240227 0.63841391 -9.10323552 0.02028009 0 0 Z " fill="#000000" transform="translate(410.70703125,119.6640625)"/>
<path d="M0 0 C1.03936203 -0.0066568 2.07872406 -0.0133136 3.14958191 -0.02017212 C5.34587844 -0.03028348 7.54220561 -0.03498961 9.73852539 -0.03466797 C13.08336567 -0.03903365 16.42687801 -0.07534993 19.77148438 -0.11328125 C21.91015176 -0.11915134 24.04882538 -0.12311945 26.1875 -0.125 C27.18046585 -0.13937103 28.1734317 -0.15374207 29.19648743 -0.16854858 C36.4005921 -0.12160279 41.83691006 1.29353835 47.31640625 6.1171875 C47.76242188 6.684375 48.2084375 7.2515625 48.66796875 7.8359375 C49.36019531 8.68671875 49.36019531 8.68671875 50.06640625 9.5546875 C53.08301159 13.93549016 53.54193587 17.00617494 53.53588867 22.38354492 C53.53778702 23.08477982 53.53968536 23.78601471 53.54164124 24.50849915 C53.54533745 26.81958293 53.53466403 29.13035054 53.5234375 31.44140625 C53.52224525 33.0475511 53.52179263 34.65369665 53.52204895 36.25984192 C53.52048625 39.62143331 53.51221074 42.98291789 53.4987793 46.34448242 C53.4817487 50.66240135 53.47796623 54.98020338 53.47872448 59.29815197 C53.47845322 62.61201604 53.47297975 65.92585433 53.46572304 69.23970985 C53.46253251 70.83259193 53.46056807 72.42547694 53.45982933 74.01836205 C53.45767213 76.23779711 53.44894272 78.4571056 53.43823242 80.67651367 C53.43442062 81.94130051 53.43060883 83.20608734 53.42668152 84.50920105 C53.29296875 87.3359375 53.29296875 87.3359375 52.29296875 88.3359375 C49.8643984 88.43623607 47.46425262 88.47212175 45.03515625 88.46533203 C44.27583801 88.46708435 43.51651978 88.46883667 42.73419189 88.47064209 C40.21209459 88.4750608 37.69006682 88.47212256 35.16796875 88.46875 C33.42301419 88.46942303 31.67805971 88.47039305 29.93310547 88.47164917 C26.2711498 88.47312617 22.60921847 88.47097153 18.94726562 88.46630859 C14.24252383 88.4606113 9.53783907 88.4638903 4.83309937 88.46988106 C1.22842984 88.47348662 -2.37622607 88.47234811 -5.980896 88.46975327 C-7.71612556 88.46908398 -9.45135634 88.46991246 -11.18658447 88.47223282 C-13.60749612 88.47475927 -16.02831411 88.47091888 -18.44921875 88.46533203 C-19.17341003 88.46735626 -19.89760132 88.46938049 -20.64373779 88.47146606 C-25.59276859 88.45020016 -25.59276859 88.45020016 -26.70703125 87.3359375 C-26.82775572 85.13966414 -26.87732261 82.93946318 -26.89990234 80.73999023 C-26.90807983 80.05043747 -26.91625732 79.3608847 -26.92468262 78.6504364 C-26.94959328 76.35681025 -26.96607324 74.06324654 -26.98046875 71.76953125 C-26.98579243 70.98608904 -26.9911161 70.20264683 -26.9966011 69.39546394 C-27.02336635 65.24306338 -27.04272418 61.09069313 -27.05712891 56.93823242 C-27.0737209 52.65982409 -27.11844188 48.3821945 -27.16950035 44.10407925 C-27.20326992 40.80708499 -27.2147173 37.51027257 -27.22035599 34.21312141 C-27.22704941 32.6371273 -27.24222172 31.06114434 -27.2662468 29.48531914 C-27.49628118 13.47425711 -27.49628118 13.47425711 -21.70703125 7.3359375 C-15.07056124 0.59597171 -9.04446933 0.02014917 0 0 Z " fill="#000000" transform="translate(66.70703125,119.6640625)"/>
<path d="M0 0 C1.43520996 0.00858032 1.43520996 0.00858032 2.89941406 0.01733398 C15.86220825 0.34042478 26.1766993 4.26235834 36.3125 12.5 C37.13492188 13.11875 37.95734375 13.7375 38.8046875 14.375 C48.08339541 22.23733194 54.30946497 33.80576168 56.125 45.8125 C56.186875 46.699375 56.24875 47.58625 56.3125 48.5 C57.3025 48.4175 58.2925 48.335 59.3125 48.25 C64.95507544 48.29550464 69.23111323 50.5451289 73.3046875 54.37109375 C79.63418411 61.31778194 80.79318378 66.68777415 80.6171875 76.0546875 C79.92189797 83.91680755 76.26495981 88.04958704 70.41015625 93.0546875 C65.02665023 96.76399332 60.09767865 96.86533103 53.75 96.875 C52.47479492 96.91173828 52.47479492 96.91173828 51.17382812 96.94921875 C49.94116211 96.95501953 49.94116211 96.95501953 48.68359375 96.9609375 C47.94036865 96.96915527 47.19714355 96.97737305 46.43139648 96.98583984 C43.27847958 96.2629104 42.18949126 95.12429981 40.3125 92.5 C39.91704844 89.75549855 39.75445988 87.39887558 39.7734375 84.65625 C39.76164459 83.89131226 39.74985168 83.12637451 39.73770142 82.33825684 C39.70246921 79.89196595 39.6932883 77.44652339 39.6875 75 C39.66599681 49.75068544 39.66599681 49.75068544 27.33203125 28.3203125 C18.22742241 20.11383722 8.34972047 17.88585315 -3.671875 18.1875 C-13.6692355 18.75285498 -21.78767816 23.35920331 -28.59375 30.5 C-37.14759265 40.64862687 -38.79037036 52.1709654 -38.86328125 65.015625 C-38.8864486 66.6119928 -38.9105646 68.20834707 -38.93554688 69.8046875 C-38.97080223 72.28883425 -39.00012035 74.77246788 -39.01342773 77.25683594 C-39.02888087 79.67703513 -39.0690216 82.09580376 -39.11328125 84.515625 C-39.11137283 85.25733948 -39.10946442 85.99905396 -39.10749817 86.76324463 C-39.18829342 90.16646413 -39.45055582 92.1697756 -41.45678711 94.96582031 C-43.8885647 96.63828287 -45.0385616 97.01309073 -47.953125 97.03125 C-48.76136719 97.03640625 -49.56960938 97.0415625 -50.40234375 97.046875 C-51.23894531 97.03140625 -52.07554687 97.0159375 -52.9375 97 C-54.16919922 97.02320312 -54.16919922 97.02320312 -55.42578125 97.046875 C-62.43355936 97.00245168 -67.63764315 95.17260974 -72.9296875 90.53515625 C-73.46851563 89.88417969 -74.00734375 89.23320313 -74.5625 88.5625 C-75.11679687 87.91410156 -75.67109375 87.26570313 -76.2421875 86.59765625 C-80.72162097 80.09642443 -80.36213728 73.12859083 -79.6875 65.5 C-77.98188497 58.74231005 -73.1838013 54.4842666 -67.6875 50.5 C-63.6725759 48.24772551 -60.24891107 48.32112113 -55.6875 48.5 C-55.58953125 47.88253906 -55.4915625 47.26507813 -55.390625 46.62890625 C-52.65026661 31.1080833 -44.33242559 18.40981843 -31.48828125 9.359375 C-21.75231114 2.89588578 -11.69391725 -0.08210269 0 0 Z M-60.875 67.125 C-62.91316095 69.41179913 -62.91316095 69.41179913 -63.1875 72.5 C-62.58068486 76.14089084 -61.62210342 77.32000889 -58.6875 79.5 C-57.6975 79.5 -56.7075 79.5 -55.6875 79.5 C-55.6875 74.88 -55.6875 70.26 -55.6875 65.5 C-58.74029952 65.201838 -58.74029952 65.201838 -60.875 67.125 Z M56.3125 65.5 C56.3125 70.12 56.3125 74.74 56.3125 79.5 C57.9625 79.17 59.6125 78.84 61.3125 78.5 C63.63999345 75.00875983 63.81549316 73.60777749 63.3125 69.5 C61.62417984 67.0608859 61.62417984 67.0608859 59.3125 65.5 C58.3225 65.5 57.3325 65.5 56.3125 65.5 Z " fill="#000000" transform="translate(423.6875,15.5)"/>
<path d="M0 0 C2.95816856 1.38581243 5.50403656 2.9953288 8.125 4.94140625 C8.90891113 5.52116211 9.69282227 6.10091797 10.50048828 6.69824219 C11.32532715 7.31344727 12.15016602 7.92865234 13 8.5625 C14.26626221 9.50270996 14.26626221 9.50270996 15.55810547 10.46191406 C17.25163861 11.72018883 18.94419996 12.9797727 20.63574219 14.24072266 C22.71283469 15.78631627 24.79586373 17.32322941 26.8828125 18.85546875 C27.96368265 19.65345491 29.04442385 20.45161577 30.125 21.25 C31.05570313 21.93578125 31.98640625 22.6215625 32.9453125 23.328125 C35 25 35 25 36 27 C36.55910987 32.68428373 36.55910987 32.68428373 36 35 C31.7227545 40.15759333 26.01424211 43.93407973 20.6875 47.9375 C19.77548828 48.62779297 18.86347656 49.31808594 17.92382812 50.02929688 C16.13160648 51.38470465 14.3359543 52.73559026 12.53662109 54.08154297 C10.89287622 55.32471402 9.26431839 56.58833085 7.65478516 57.87548828 C6.95015137 58.43349121 6.24551758 58.99149414 5.51953125 59.56640625 C4.90827393 60.06213135 4.2970166 60.55785645 3.66723633 61.06860352 C3.11704834 61.37596436 2.56686035 61.6833252 2 62 C-1.93677426 60.68774191 -2.8271782 58.8038606 -5.1875 55.4375 C-5.90292969 54.42558594 -6.61835938 53.41367188 -7.35546875 52.37109375 C-7.89816406 51.58863281 -8.44085938 50.80617187 -9 50 C-7 46 -7 46 1 40 C-34.97 39.67 -70.94 39.34 -108 39 C-108 33.72 -108 28.44 -108 23 C-72.03 22.67 -36.06 22.34 1 22 C-3.95 18.04 -3.95 18.04 -9 14 C-7.33627751 9.84069377 -6.08914549 7.55505088 -3.375 4.1875 C-2.42753906 3.00220703 -2.42753906 3.00220703 -1.4609375 1.79296875 C-0.97882813 1.20128906 -0.49671875 0.60960938 0 0 Z " fill="#000000" transform="translate(284,121)"/>
<path d="M0 0 C3.93677426 1.31225809 4.8271782 3.1961394 7.1875 6.5625 C8.26064453 8.08037109 8.26064453 8.08037109 9.35546875 9.62890625 C9.89816406 10.41136719 10.44085938 11.19382812 11 12 C9 16 9 16 1 22 C31.69 22.33 62.38 22.66 94 23 C94 28.28 94 33.56 94 39 C47.965 39.495 47.965 39.495 1 40 C4.3 42.64 7.6 45.28 11 48 C9.33627751 52.15930623 8.08914549 54.44494912 5.375 57.8125 C4.42753906 58.99779297 4.42753906 58.99779297 3.4609375 60.20703125 C2.97882813 60.79871094 2.49671875 61.39039063 2 62 C-0.95816856 60.61418757 -3.50403656 59.0046712 -6.125 57.05859375 C-7.3008667 56.18895996 -7.3008667 56.18895996 -8.50048828 55.30175781 C-9.32532715 54.68655273 -10.15016602 54.07134766 -11 53.4375 C-11.8441748 52.81069336 -12.68834961 52.18388672 -13.55810547 51.53808594 C-15.25163861 50.27981117 -16.94419996 49.0202273 -18.63574219 47.75927734 C-20.71283469 46.21368373 -22.79586373 44.67677059 -24.8828125 43.14453125 C-25.96368265 42.34654509 -27.04442385 41.54838423 -28.125 40.75 C-29.05570313 40.06421875 -29.98640625 39.3784375 -30.9453125 38.671875 C-33 37 -33 37 -34 35 C-34.55910987 29.31571627 -34.55910987 29.31571627 -34 27 C-29.7227545 21.84240667 -24.01424211 18.06592027 -18.6875 14.0625 C-17.77548828 13.37220703 -16.86347656 12.68191406 -15.92382812 11.97070312 C-14.13160648 10.61529535 -12.3359543 9.26440974 -10.53662109 7.91845703 C-8.89287622 6.67528598 -7.26431839 5.41166915 -5.65478516 4.12451172 C-4.95015137 3.56650879 -4.24551758 3.00850586 -3.51953125 2.43359375 C-2.90827393 1.93786865 -2.2970166 1.44214355 -1.66723633 0.93139648 C-0.84195435 0.47035522 -0.84195435 0.47035522 0 0 Z " fill="#000000" transform="translate(218,385)"/>
<path d="M0 0 C5.28 0 10.56 0 16 0 C16.33 20.13 16.66 40.26 17 61 C19.64 57.7 22.28 54.4 25 51 C29.15930623 52.66372249 31.44494912 53.91085451 34.8125 56.625 C35.99779297 57.57246094 35.99779297 57.57246094 37.20703125 58.5390625 C37.79871094 59.02117187 38.39039063 59.50328125 39 60 C37.61418757 62.95816856 36.0046712 65.50403656 34.05859375 68.125 C33.47883789 68.90891113 32.89908203 69.69282227 32.30175781 70.50048828 C31.68655273 71.32532715 31.07134766 72.15016602 30.4375 73 C29.49729004 74.26626221 29.49729004 74.26626221 28.53808594 75.55810547 C27.27981117 77.25163861 26.0202273 78.94419996 24.75927734 80.63574219 C23.21368373 82.71283469 21.67677059 84.79586373 20.14453125 86.8828125 C19.34654509 87.96368265 18.54838423 89.04442385 17.75 90.125 C17.06421875 91.05570312 16.3784375 91.98640625 15.671875 92.9453125 C14 95 14 95 12 96 C6.31571627 96.55910987 6.31571627 96.55910987 4 96 C-1.15759333 91.7227545 -4.93407973 86.01424211 -8.9375 80.6875 C-9.62779297 79.77548828 -10.31808594 78.86347656 -11.02929688 77.92382812 C-12.38470465 76.13160648 -13.73559026 74.3359543 -15.08154297 72.53662109 C-16.32471402 70.89287622 -17.58833085 69.26431839 -18.87548828 67.65478516 C-19.43349121 66.95015137 -19.99149414 66.24551758 -20.56640625 65.51953125 C-21.06213135 64.90827393 -21.55785645 64.2970166 -22.06860352 63.66723633 C-22.52964478 62.84195435 -22.52964478 62.84195435 -23 62 C-21.68774191 58.06322574 -19.8038606 57.1728218 -16.4375 54.8125 C-15.42558594 54.09707031 -14.41367187 53.38164062 -13.37109375 52.64453125 C-12.58863281 52.10183594 -11.80617188 51.55914062 -11 51 C-7 53 -7 53 -1 61 C-0.67 40.87 -0.34 20.74 0 0 Z " fill="#000000" transform="translate(416,232)"/>
<path d="M0 0 C5.15759333 4.2772455 8.93407973 9.98575789 12.9375 15.3125 C13.62779297 16.22451172 14.31808594 17.13652344 15.02929688 18.07617188 C16.38470465 19.86839352 17.73559026 21.6640457 19.08154297 23.46337891 C20.32471402 25.10712378 21.58833085 26.73568161 22.87548828 28.34521484 C23.43349121 29.04984863 23.99149414 29.75448242 24.56640625 30.48046875 C25.06213135 31.09172607 25.55785645 31.7029834 26.06860352 32.33276367 C26.37596436 32.88295166 26.6833252 33.43313965 27 34 C25.68774191 37.93677426 23.8038606 38.8271782 20.4375 41.1875 C19.42558594 41.90292969 18.41367188 42.61835938 17.37109375 43.35546875 C16.58863281 43.89816406 15.80617187 44.44085938 15 45 C11 43 11 43 5 35 C4.67 55.13 4.34 75.26 4 96 C-1.28 96 -6.56 96 -12 96 C-12.33 75.87 -12.66 55.74 -13 35 C-15.64 38.3 -18.28 41.6 -21 45 C-25.15930623 43.33627751 -27.44494912 42.08914549 -30.8125 39.375 C-31.60269531 38.74335938 -32.39289062 38.11171875 -33.20703125 37.4609375 C-34.09455078 36.73777344 -34.09455078 36.73777344 -35 36 C-33.61418757 33.04183144 -32.0046712 30.49596344 -30.05859375 27.875 C-29.47883789 27.09108887 -28.89908203 26.30717773 -28.30175781 25.49951172 C-27.68655273 24.67467285 -27.07134766 23.84983398 -26.4375 23 C-25.81069336 22.1558252 -25.18388672 21.31165039 -24.53808594 20.44189453 C-23.27981117 18.74836139 -22.0202273 17.05580004 -20.75927734 15.36425781 C-19.21368373 13.28716531 -17.67677059 11.20413627 -16.14453125 9.1171875 C-15.34654509 8.03631735 -14.54838423 6.95557615 -13.75 5.875 C-13.06421875 4.94429687 -12.3784375 4.01359375 -11.671875 3.0546875 C-8.68027441 -0.62190575 -4.48843945 -1.08369529 0 0 Z " fill="#000000" transform="translate(84,232)"/>
<path d="M0 0 C5.82485779 3.51996782 10.54466582 8.98962934 12.5625 15.5 C13.36764105 23.33608208 13.68710392 31.11922577 8.5625 37.5 C3.75801361 42.54521222 -0.59927055 46.10562995 -7.70703125 46.8359375 C-16.22326573 46.92983204 -22.11345494 46.6177288 -28.40234375 40.62890625 C-34.7841668 33.72505269 -35.91792252 28.29832071 -35.7421875 18.9453125 C-35.04689797 11.08319245 -31.38995981 6.95041296 -25.53515625 1.9453125 C-18.47077988 -2.92213491 -7.84396301 -3.47595223 0 0 Z " fill="#000000" transform="translate(435.4375,61.5)"/>
<path d="M0 0 C5.82485779 3.51996782 10.54466582 8.98962934 12.5625 15.5 C13.36764105 23.33608208 13.68710392 31.11922577 8.5625 37.5 C3.75801361 42.54521222 -0.59927055 46.10562995 -7.70703125 46.8359375 C-16.22326573 46.92983204 -22.11345494 46.6177288 -28.40234375 40.62890625 C-34.7841668 33.72505269 -35.91792252 28.29832071 -35.7421875 18.9453125 C-35.04689797 11.08319245 -31.38995981 6.95041296 -25.53515625 1.9453125 C-18.47077988 -2.92213491 -7.84396301 -3.47595223 0 0 Z " fill="#000000" transform="translate(91.4375,61.5)"/>
</svg>
