<?xml version="1.0" encoding="UTF-8"?>
<svg version="1.1" xmlns="http://www.w3.org/2000/svg" width="512" height="512">
<path d="M0 0 C13.96382202 12.03567799 23.85558722 28.7127274 25.47314453 47.31640625 C26.62111219 67.55518405 22.63815858 86.51889824 8.85961914 101.96606445 C6.70606686 104.28181488 4.49948886 106.52702027 2.25 108.75 C-0.76512945 111.34866609 -0.76512945 111.34866609 -0.75 119.75 C5.52 119.75 11.79 119.75 18.25 119.75 C18.91 117.77 19.57 115.79 20.25 113.75 C26.83593177 103.3237228 36.232431 95.70468507 48.25 92.5 C55.76977913 91.05336372 63.61684096 91.06290188 71.25 90.75 C70.73050781 90.08355469 70.21101563 89.41710937 69.67578125 88.73046875 C58.61024939 74.10596731 54.17682449 59.75003458 56.71484375 41.38671875 C59.92202245 25.54059915 68.31960541 12.76123757 81.75 3.75 C95.50312338 -4.34007258 111.85511249 -6.93896702 127.51171875 -3.44921875 C141.45684038 0.79114739 153.8979458 9.41576261 161.21875 22.18359375 C169.47969991 37.8769066 171.41699244 53.70831949 166.25 70.75 C163.21581236 78.55088726 159.1430565 84.82207335 153.25 90.75 C154.99023438 90.80607422 154.99023438 90.80607422 156.765625 90.86328125 C170.45212417 91.39634983 181.71157194 92.77993766 193.25 100.75 C194.136875 101.3275 195.02375 101.905 195.9375 102.5 C205.12297919 111.437223 209.93998761 122.9853799 210.39044189 135.72055054 C210.40237824 137.24384499 210.40894788 138.7671877 210.41113281 140.29052734 C210.41609772 141.1271138 210.42106262 141.96370026 210.42617798 142.82563782 C210.44072183 145.57907956 210.44758785 148.33246374 210.453125 151.0859375 C210.45888194 153.00875855 210.4646396 154.93157959 210.47039795 156.85440063 C210.48088517 160.88080104 210.48674303 164.90718162 210.49023438 168.93359375 C210.49572061 174.08039414 210.51976112 179.2269302 210.54820633 184.37364769 C210.566872 188.34403236 210.57204036 192.31435376 210.57357025 196.28477859 C210.57658737 198.1817024 210.58458398 200.07862535 210.59775543 201.97550583 C210.6149017 204.63410084 210.61291512 207.292055 210.60644531 209.95068359 C210.62026749 211.11367226 210.62026749 211.11367226 210.6343689 212.30015564 C210.58845307 218.35469228 209.5278953 224.02170268 205.53125 228.80859375 C204.9434375 229.26363281 204.355625 229.71867188 203.75 230.1875 C203.1621875 230.66058594 202.574375 231.13367188 201.96875 231.62109375 C196.61082772 235.14027452 189.45875985 234.05755974 183.3125 234.125 C182.02408203 234.16238281 180.73566406 234.19976562 179.40820312 234.23828125 C178.17134766 234.24988281 176.93449219 234.26148438 175.66015625 234.2734375 C174.52715088 234.29325684 173.39414551 234.31307617 172.22680664 234.33349609 C169.25 233.75 169.25 233.75 166.88061523 231.40869141 C164.88907839 228.16152323 164.61249361 226.49535002 165.25 222.75 C167.1170991 220.44724444 168.60647741 219.07176129 171.25 217.75 C172.91565749 217.59777027 174.58656496 217.50082785 176.2578125 217.43359375 C177.73701172 217.37075195 177.73701172 217.37075195 179.24609375 217.30664062 C180.27863281 217.26732422 181.31117188 217.22800781 182.375 217.1875 C183.41527344 217.14431641 184.45554687 217.10113281 185.52734375 217.05664062 C188.10142528 216.9503712 190.67560508 216.84833417 193.25 216.75 C193.31970929 205.9705092 193.37291723 195.1910726 193.40543652 184.41140175 C193.42104924 179.40520859 193.44220679 174.3991704 193.47631836 169.39306641 C193.50906909 164.55604925 193.52688601 159.71918054 193.53463173 154.882061 C193.54014714 153.04260295 193.55091701 151.20315243 193.56719017 149.36375809 C194.04639057 132.34220212 194.04639057 132.34220212 186.25 117.75 C186.25 117.09 186.25 116.43 186.25 115.75 C185.6725 115.46253906 185.095 115.17507813 184.5 114.87890625 C183.07907497 114.16597685 181.66184749 113.44558512 180.25 112.71484375 C179.59 112.37582031 178.93 112.03679687 178.25 111.6875 C177.59 111.34589844 176.93 111.00429688 176.25 110.65234375 C172.57400044 108.99383613 169.21860652 108.61560668 165.20605469 108.54467773 C164.20531921 108.52473251 163.20458374 108.50478729 162.17352295 108.48423767 C161.10047913 108.46752518 160.0274353 108.45081268 158.921875 108.43359375 C157.81773254 108.41281265 156.71359009 108.39203156 155.57598877 108.37062073 C152.05072217 108.30526354 148.52538141 108.24630436 145 108.1875 C142.60936735 108.14430164 140.21874218 108.10068693 137.828125 108.05664062 C131.96882489 107.94881323 126.10946806 107.8496364 120.25 107.75 C120.25 118.64 120.25 129.53 120.25 140.75 C114.97 140.75 109.69 140.75 104.25 140.75 C104.25 129.86 104.25 118.97 104.25 107.75 C97.47207884 107.80125082 90.69637313 107.86447773 83.91918945 107.95751953 C81.61783119 107.98559865 79.31637883 108.00687755 77.01489258 108.02099609 C73.69043246 108.04260689 70.36708836 108.08935042 67.04296875 108.140625 C66.0279277 108.14185364 65.01288666 108.14308228 63.96708679 108.14434814 C55.53958699 108.3138861 47.35519404 110.04040331 40.5625 115.3125 C37.90586978 117.55274518 37.90586978 117.55274518 38.25 120.75 C38.91644531 120.95753906 39.58289063 121.16507813 40.26953125 121.37890625 C55.76066681 126.55706205 66.50569374 135.41438594 74.25 149.75 C77.28910898 156.74637778 79.38218054 163.42379973 79.36352539 171.09106445 C79.36344986 172.1317659 79.36337433 173.17246735 79.36329651 174.2447052 C79.35813522 175.3563353 79.35297394 176.46796539 79.34765625 177.61328125 C79.34553383 179.33396065 79.34553383 179.33396065 79.34336853 181.08940125 C79.33777861 184.74712754 79.32522789 188.40479225 79.3125 192.0625 C79.3074837 194.54492099 79.30292102 197.02734294 79.29882812 199.50976562 C79.28781247 205.5898647 79.2710843 211.66992795 79.25 217.75 C80.37966438 217.74000725 80.37966438 217.74000725 81.53215027 217.72981262 C88.63846069 217.66963704 95.74468246 217.62399294 102.85117626 217.59456348 C106.50449198 217.57892467 110.15759671 217.55771952 113.81079102 217.52368164 C117.33805216 217.49102375 120.86511068 217.47313356 124.39251137 217.46536827 C126.38944308 217.45714867 128.38629358 217.43373939 130.38310242 217.41011047 C131.60399063 217.40988388 132.82487885 217.40965729 134.08276367 217.40942383 C135.15531906 217.40276199 136.22787445 217.39610016 137.33293152 217.38923645 C140.67756487 217.80287837 142.55205328 218.76256774 145.25 220.75 C146.67662219 223.60324437 146.56033868 225.58454549 146.25 228.75 C144.62030029 231.41374207 144.62030029 231.41374207 142.25 233.75 C139.3772583 234.35127258 139.3772583 234.35127258 136.01269531 234.31762695 C134.12118744 234.31706047 134.12118744 234.31706047 132.19146729 234.31648254 C130.82034311 234.29095124 129.44922905 234.26487129 128.078125 234.23828125 C126.67137916 234.22895149 125.26461704 234.22183614 123.85784912 234.21684265 C120.16175189 234.1977849 116.46664282 234.14869701 112.77093506 234.09332275 C108.9971656 234.04210246 105.22323589 234.01932282 101.44921875 233.99414062 C94.04902949 233.94057506 86.64965339 233.85527962 79.25 233.75 C79.26110306 234.34611084 79.27220612 234.94222168 79.28364563 235.55639648 C79.39464992 241.7859797 79.46983695 248.01527994 79.5246582 254.24560547 C79.54973266 256.56766175 79.58380092 258.88963965 79.62719727 261.21142578 C79.68815805 264.55781441 79.71628149 267.90315553 79.73828125 271.25 C79.76408768 272.2805249 79.7898941 273.3110498 79.81648254 274.37280273 C79.81870064 280.13108889 79.12727699 284.13494289 76.01017761 289.01367188 C71.31763873 293.6426293 66.88560794 295.2009141 60.46394157 295.28497362 C59.60975199 295.27605073 58.7555624 295.26712785 57.87548828 295.25793457 C56.48960101 295.26729451 56.48960101 295.26729451 55.07571602 295.27684355 C51.9903193 295.29275498 48.90571461 295.28017631 45.8203125 295.26757812 C43.60406026 295.27300005 41.38781163 295.2801231 39.17156982 295.28881836 C33.15921941 295.30704608 27.1471437 295.29998627 21.13478851 295.28730202 C14.84131635 295.27717161 8.54786763 295.28656782 2.25439453 295.29284668 C-8.99102699 295.30058894 -20.23633533 295.28816202 -31.48173022 295.26780933 C-41.67082472 295.2499391 -51.85973691 295.25304346 -62.04882812 295.27148438 C-73.89078213 295.29290682 -85.73264788 295.3008498 -97.57462502 295.28903532 C-103.83965049 295.28280072 -110.10455047 295.28196398 -116.36956787 295.29518127 C-122.2596969 295.30673977 -128.1494818 295.29871358 -134.03957367 295.27560425 C-136.20068541 295.27031722 -138.36182614 295.27183079 -140.52292633 295.28065491 C-143.47417069 295.29159388 -146.42431398 295.27786608 -149.37548828 295.25793457 C-150.65677266 295.2713189 -150.65677266 295.2713189 -151.96394157 295.28497362 C-158.44272231 295.20016647 -162.77459895 293.68508592 -167.51017761 289.01367188 C-171.24299053 283.17125867 -171.40890155 278.0633597 -171.23828125 271.25 C-171.22766914 269.63557007 -171.22766914 269.63557007 -171.21684265 267.98852539 C-171.18901329 264.57495522 -171.12629342 261.16306842 -171.0625 257.75 C-171.03740245 255.42580506 -171.01459185 253.10158422 -170.99414062 250.77734375 C-170.93922439 245.10099507 -170.85571308 239.42561784 -170.75 233.75 C-171.35260965 233.75276538 -171.95521931 233.75553076 -172.57608986 233.75837994 C-187.24902317 233.82467607 -201.92194763 233.87429824 -216.5949955 233.90543652 C-223.69082651 233.92089559 -230.78655745 233.94196665 -237.88232422 233.97631836 C-244.72931238 234.00944985 -251.57619646 234.02685046 -258.42325974 234.03463173 C-261.03635673 234.04017749 -263.649448 234.05100688 -266.26250076 234.06719017 C-269.92073138 234.08894674 -273.57853157 234.09196758 -277.23681641 234.09057617 C-278.85953964 234.10675491 -278.85953964 234.10675491 -280.51504517 234.1232605 C-286.00767869 234.10063422 -290.04622631 233.9234975 -294.75 230.75 C-300.97468178 224.38384818 -302.06174428 218.55556168 -302.0859375 210.02734375 C-302.0925943 209.2042421 -302.0992511 208.38114044 -302.10610962 207.53309631 C-302.11619244 205.80097679 -302.120928 204.06881876 -302.12060547 202.33666992 C-302.12499271 199.69189726 -302.16139486 197.04877638 -302.19921875 194.40429688 C-302.20508513 192.71615151 -302.20905572 191.02799826 -302.2109375 189.33984375 C-302.23249405 188.15998146 -302.23249405 188.15998146 -302.25448608 186.95628357 C-302.22324249 183.19357788 -301.89803835 180.98496225 -299.87353516 177.77172852 C-297.38553401 175.40300726 -296.16930775 174.83339775 -292.75 174.75 C-288.93736653 175.81399073 -287.99988993 176.3751651 -285.75 179.75 C-285.42 191.96 -285.09 204.17 -284.75 216.75 C-247.13 217.08 -209.51 217.41 -170.75 217.75 C-170.75 200.59 -170.75 183.43 -170.75 165.75 C-165.80488979 148.44211427 -159.36655778 135.66563369 -143.6796875 126.2890625 C-138.84627414 123.74990935 -133.85240293 121.68232362 -128.75 119.75 C-131.41779225 116.06943477 -133.63563966 113.93174236 -137.75 112 C-138.595625 111.59265625 -139.44125 111.1853125 -140.3125 110.765625 C-144.17274697 109.15718876 -147.52579788 108.62002426 -151.70214844 108.54467773 C-152.68286316 108.52473251 -153.66357788 108.50478729 -154.67401123 108.48423767 C-155.72518127 108.46752518 -156.77635132 108.45081268 -157.859375 108.43359375 C-159.48229462 108.4024221 -159.48229462 108.4024221 -161.13800049 108.37062073 C-164.59193613 108.30527069 -168.04594737 108.24630771 -171.5 108.1875 C-173.84245571 108.14430096 -176.1849038 108.10068622 -178.52734375 108.05664062 C-184.26815283 107.94882245 -190.00901983 107.84964035 -195.75 107.75 C-195.75 118.64 -195.75 129.53 -195.75 140.75 C-201.03 140.75 -206.31 140.75 -211.75 140.75 C-211.75 129.86 -211.75 118.97 -211.75 107.75 C-218.67031759 107.80124263 -225.58846223 107.86445878 -232.50805664 107.95751953 C-234.85791898 107.98560361 -237.20787357 108.00688008 -239.55786133 108.02099609 C-242.95181082 108.04259985 -246.34466554 108.08934027 -249.73828125 108.140625 C-250.77519608 108.14185364 -251.8121109 108.14308228 -252.88044739 108.14434814 C-261.22664662 108.30888972 -269.74589063 109.52145421 -275.75 115.75 C-276.41 115.75 -277.07 115.75 -277.75 115.75 C-278.18119141 116.61818359 -278.18119141 116.61818359 -278.62109375 117.50390625 C-279.32980738 118.91397662 -280.04956419 120.31860674 -280.78515625 121.71484375 C-281.12417969 122.36582031 -281.46320313 123.01679688 -281.8125 123.6875 C-282.15410156 124.33589844 -282.49570312 124.98429688 -282.84765625 125.65234375 C-285.44831261 131.69802542 -285.01820504 138.41749643 -285.09179688 144.88867188 C-285.30153521 151.10765742 -285.30153521 151.10765742 -287.5390625 154.3125 C-291.20201704 156.69406762 -293.43762596 156.22915267 -297.75 155.75 C-300.42431489 153.93836733 -300.70920359 152.87238923 -301.75 149.75 C-302.56070955 134.68951106 -301.66878138 121.44671022 -292.75 108.75 C-291.88375 107.4196875 -291.88375 107.4196875 -291 106.0625 C-280.63198645 95.40648607 -268.30834223 91.84120722 -253.9375 91.1875 C-253.05384766 91.14431641 -252.17019531 91.10113281 -251.25976562 91.05664062 C-249.09000377 90.95108464 -246.9200209 90.85008929 -244.75 90.75 C-245.2258252 90.25975342 -245.70165039 89.76950684 -246.19189453 89.2644043 C-256.01788081 78.96379466 -260.76276036 65.86371486 -260.84375 51.66015625 C-260.46817232 36.02348162 -254.86937754 22.44717415 -244.19921875 10.984375 C-230.97141857 -1.08309183 -216.47386411 -5.23236578 -198.78515625 -4.62890625 C-184.48279383 -3.77881242 -171.52548124 2.87591139 -161.78125 13.30859375 C-150.599677 26.74798438 -146.76990904 41.47820839 -147.75 58.75 C-149.39232898 70.65311828 -154.86040232 81.77592154 -162.75 90.75 C-160.99236328 90.80607422 -160.99236328 90.80607422 -159.19921875 90.86328125 C-150.39743819 91.2055623 -142.08686532 91.63249199 -133.75 94.75 C-133.06035156 95.00394531 -132.37070313 95.25789063 -131.66015625 95.51953125 C-121.82165406 99.78612923 -114.22108966 108.13533971 -109.75 117.75 C-109.75 118.41 -109.75 119.07 -109.75 119.75 C-103.48 119.75 -97.21 119.75 -90.75 119.75 C-91.26924879 110.96174786 -91.26924879 110.96174786 -96.375 105.875 C-108.55950415 94.62910245 -116.32467749 78.1483798 -117.03515625 61.5546875 C-117.53910873 40.88195143 -113.04916217 23.00398015 -99.140625 7.203125 C-72.37557302 -20.2616669 -30.53232416 -23.70495723 0 0 Z M-84.27929688 15.33789062 C-94.68872768 25.33260307 -100.68802692 38.52815508 -101.04272461 52.92919922 C-101.18201551 69.27610455 -96.4392851 82.9735245 -85.0625 95.0625 C-72.83900129 106.61723586 -58.94386906 111.13465199 -42.40625 110.9609375 C-26.32476905 110.03315975 -13.43831082 102.33544834 -2.75 90.75 C7.54035637 77.6043015 10.53922143 63.07779621 9.25 46.75 C6.44635908 31.62635985 -1.52480244 18.864767 -14 10 C-36.29787537 -5.10562721 -64.41849848 -2.46401337 -84.27929688 15.33789062 Z M-235.75390625 26.10546875 C-242.51361216 35.20778673 -245.38730698 44.88312024 -244.5703125 56.25 C-242.77019498 67.71197277 -236.84185108 77.61684352 -227.75 84.75 C-217.51975484 91.13217129 -207.01899088 93.23845109 -195.07421875 91.3203125 C-183.79901308 88.40710147 -174.9223553 81.53260086 -168.75 71.75 C-163.83752221 61.92504442 -161.99031913 51.44566277 -164.875 40.6875 C-168.88214597 28.98143931 -176.04854611 20.48979582 -187.0625 14.8125 C-203.87052126 6.82801325 -223.88340366 12.15242184 -235.75390625 26.10546875 Z M81 26 C73.78282094 34.88577477 71.26029006 45.53800022 72.25 56.75 C74.64073612 68.74688666 79.95561225 78.07581842 89.9140625 85.28125 C99.9385768 91.58428909 110.80913933 93.53399833 122.484375 91.06640625 C133.84553013 87.59173825 143.0373187 80.38287799 148.828125 69.890625 C153.48592608 59.55780191 154.43151482 49.67161804 151.25 38.75 C146.92086134 27.39653907 139.97014961 20.24707352 129.25 14.75 C128.64929688 14.40839844 128.04859375 14.06679687 127.4296875 13.71484375 C111.17872571 5.88085993 92.35834523 13.94801537 81 26 Z M-74.75 120.75 C-74.75 127.02 -74.75 133.29 -74.75 139.75 C-67.63032877 136.0150905 -61.03686738 131.7794939 -54.75 126.75 C-54.75 126.42 -54.75 126.09 -54.75 125.75 C-55.85859375 125.47285156 -56.9671875 125.19570313 -58.109375 124.91015625 C-66.4296875 122.83007812 -66.4296875 122.83007812 -74.75 120.75 Z M-27.35546875 123.77734375 C-30.4877145 124.6748457 -33.52850926 125.28559693 -36.75 125.75 C-33.02009599 129.75751137 -29.13544073 132.67256236 -24.5 135.5625 C-23.86320312 135.96919922 -23.22640625 136.37589844 -22.5703125 136.79492188 C-19.85586227 138.84530469 -19.85586227 138.84530469 -16.75 139.75 C-16.75 133.48 -16.75 127.21 -16.75 120.75 C-20.18528935 120.75 -24.10640328 122.74135602 -27.35546875 123.77734375 Z M-147.5625 150.9375 C-153.72711657 159.52898147 -155.35399301 168.93326911 -155.20410156 179.30175781 C-155.20468567 180.38615646 -155.20526978 181.47055511 -155.20587158 182.58781433 C-155.20311329 186.12659158 -155.17212799 189.66449725 -155.140625 193.203125 C-155.1331546 195.6746169 -155.12746545 198.14611477 -155.12347412 200.61761475 C-155.10828086 207.08836533 -155.06905345 213.55875059 -155.0246582 220.02935791 C-154.98356909 226.64582377 -154.96543405 233.26234928 -154.9453125 239.87890625 C-154.90255307 252.83609238 -154.83515927 265.79302666 -154.75 278.75 C-152.48329668 279.88335166 -151.26611125 279.87343812 -148.75106812 279.87025452 C-147.91531754 279.87162918 -147.07956696 279.87300385 -146.2184906 279.87442017 C-144.84069176 279.86902725 -144.84069176 279.86902725 -143.43505859 279.86352539 C-141.98621529 279.86374443 -141.98621529 279.86374443 -140.50810242 279.8639679 C-137.30485819 279.86326937 -134.10167161 279.85547978 -130.8984375 279.84765625 C-128.68169181 279.84579186 -126.46494571 279.84436805 -124.24819946 279.84336853 C-118.40546537 279.83954504 -112.56275603 279.82971617 -106.72003174 279.81866455 C-100.76127456 279.80844682 -94.8025134 279.80387013 -88.84375 279.79882812 C-77.14582244 279.78809377 -65.44791328 279.77101935 -53.75 279.75 C-53.74635437 278.89444519 -53.74270874 278.03889038 -53.73895264 277.15740967 C-53.70108358 269.09397627 -53.6442435 261.03094779 -53.56609726 252.96780014 C-53.52659032 248.82243009 -53.49441785 244.67727348 -53.47900391 240.53173828 C-53.46385815 236.53089877 -53.42945067 232.53064591 -53.38169098 228.53006744 C-53.3668555 227.0039098 -53.35895774 225.47766842 -53.35811615 223.9514389 C-53.35575105 221.81301864 -53.32871322 219.67622574 -53.29589844 217.53808594 C-53.28257477 215.71274323 -53.28257477 215.71274323 -53.26898193 213.8505249 C-52.65109788 210.15913456 -51.71839684 208.96521273 -48.75 206.75 C-45.75 206.25 -45.75 206.25 -42.75 206.75 C-39.78160316 208.96521273 -38.84890212 210.15913456 -38.23101807 213.8505249 C-38.2176944 215.67586761 -38.2176944 215.67586761 -38.20410156 217.53808594 C-38.19376389 218.21166641 -38.18342621 218.88524689 -38.17277527 219.57923889 C-38.14335994 221.79786197 -38.14184849 224.0155723 -38.140625 226.234375 C-38.12564234 227.7756728 -38.10891501 229.31695454 -38.09051514 230.85821533 C-38.0468383 234.90896341 -38.02684202 238.95949493 -38.01177979 243.01043701 C-37.99220973 247.14641121 -37.95023967 251.28215149 -37.91015625 255.41796875 C-37.83485064 263.52858463 -37.78456156 271.63910866 -37.75 279.75 C-24.87654819 279.77313161 -12.00310128 279.79091929 0.87036705 279.80181217 C6.84750475 279.8070392 12.82462827 279.8141336 18.80175781 279.82543945 C24.56591558 279.8362747 30.33005968 279.8422782 36.09422684 279.84487724 C38.29753459 279.84673034 40.50084156 279.85034875 42.70414352 279.85573006 C45.78113189 279.86294892 48.85806317 279.86399058 51.93505859 279.86352539 C52.85359116 279.86712067 53.77212372 279.87071594 54.7184906 279.87442017 C55.55424118 279.8730455 56.38999176 279.87167084 57.25106812 279.87025452 C58.3433928 279.87163721 58.3433928 279.87163721 59.45778465 279.87304783 C61.3540061 279.85837152 61.3540061 279.85837152 63.25 278.75 C63.34375813 264.48471164 63.4138659 250.21947159 63.45724869 235.95393753 C63.47807585 229.32904585 63.50630483 222.70436196 63.55175781 216.07958984 C63.59538872 209.67994916 63.6191737 203.28050768 63.62950897 196.88072968 C63.63686939 194.44562395 63.65124221 192.01052847 63.67292023 189.57550812 C63.70218272 186.15068959 63.70594638 182.72668229 63.70410156 179.30175781 C63.72567322 177.80957481 63.72567322 177.80957481 63.74768066 176.2872467 C63.68162052 164.86846084 60.25509749 154.99287266 52.25 146.75 C41.24381062 136.2639519 29.58314142 135.16723857 15.0625 135.5 C13.5228099 135.52011183 11.9830942 135.53835426 10.44335938 135.5546875 C6.71169792 135.59827539 2.98101842 135.66703884 -0.75 135.75 C-0.78738281 136.77480469 -0.82476562 137.79960937 -0.86328125 138.85546875 C-0.92897079 140.21618062 -0.99541709 141.57685611 -1.0625 142.9375 C-1.09633789 143.94780273 -1.09633789 143.94780273 -1.13085938 144.97851562 C-1.36632049 149.36665462 -2.11675695 152.22391287 -4.75 155.75 C-7.00632319 157.7408734 -8.62956208 158.68902282 -11.66552734 158.85424805 C-18.48804491 158.36692536 -22.79513765 155.63866272 -28.25 151.6875 C-29.84279922 150.57025787 -31.4364982 149.45429698 -33.03125 148.33984375 C-33.72283203 147.84347412 -34.41441406 147.34710449 -35.12695312 146.83569336 C-36.56308173 145.65733369 -36.56308173 145.65733369 -37.75 145.75 C-37.7593457 146.81959961 -37.76869141 147.88919922 -37.77832031 148.99121094 C-37.81823512 152.9649397 -37.88399721 156.93789544 -37.95751953 160.91113281 C-37.98572067 162.62978169 -38.00693954 164.34856005 -38.02099609 166.06738281 C-38.04243833 168.54038747 -38.08909156 171.01183675 -38.140625 173.484375 C-38.14185364 174.25118591 -38.14308228 175.01799683 -38.14434814 175.80804443 C-38.24062294 179.32556565 -38.47263732 181.37749973 -40.60058594 184.23535156 C-43.54355985 186.30920551 -45.22509055 186.33748491 -48.75 185.75 C-50.89941406 184.23535156 -50.89941406 184.23535156 -52.75 181.75 C-53.16782599 178.87305502 -53.35476278 176.36293004 -53.359375 173.484375 C-53.37591125 172.69097717 -53.39244751 171.89757935 -53.40948486 171.08013916 C-53.45795616 168.55334731 -53.47933287 166.02715719 -53.5 163.5 C-53.52816057 161.78382391 -53.55808812 160.06767584 -53.58984375 158.3515625 C-53.66371436 154.15109122 -53.71329387 149.9509538 -53.75 145.75 C-55.49811158 146.85563999 -57.2453347 147.96268478 -58.9921875 149.0703125 C-59.96526855 149.68664551 -60.93834961 150.30297852 -61.94091797 150.93798828 C-64.29077627 152.45377555 -66.58838622 154.01661652 -68.875 155.625 C-72.96825819 158.16332438 -76.94025411 159.06267947 -81.75 158.75 C-86.04964364 157.06753075 -87.74525527 154.83168248 -89.75 150.75 C-90.11225681 148.08146704 -90.34800431 145.60958571 -90.4375 142.9375 C-90.47166016 142.24462891 -90.50582031 141.55175781 -90.54101562 140.83789062 C-90.62286344 139.14247151 -90.68812365 137.44626542 -90.75 135.75 C-95.24823356 135.64997941 -99.74585192 135.57799828 -104.24487305 135.53027344 C-105.77037859 135.51034689 -107.29580968 135.48319515 -108.82104492 135.44824219 C-124.93112369 135.08871303 -136.78396921 138.30533653 -147.5625 150.9375 Z " fill="#000000" transform="translate(301.75,217.25)"/>
<path d="M0 0 C6.87230814 4.89800298 12.33850007 13.4798827 16.48828125 20.7734375 C16.48828125 21.4334375 16.48828125 22.0934375 16.48828125 22.7734375 C18.06416016 23.15435547 18.06416016 23.15435547 19.671875 23.54296875 C41.67588554 28.90833022 41.67588554 28.90833022 46.48828125 34.7734375 C48.38277782 38.56243065 48.09443154 42.65518113 47.48828125 46.7734375 C45.47938659 51.16693613 42.52332834 54.76026946 39.0859375 58.125 C32.26662232 65.42910062 31.83112438 70.86699938 32.11328125 80.6484375 C32.17273926 81.74285156 32.23219727 82.83726563 32.29345703 83.96484375 C32.83647529 94.02692576 32.83647529 94.02692576 29.48828125 98.7734375 C25.56679263 102.31234186 22.96192403 104.10803742 17.6015625 104.03173828 C12.47243434 103.4048185 7.64276177 101.0646906 2.87109375 99.17382812 C-6.5934145 95.61384972 -13.17419026 98.16330785 -22.1953125 101.68945312 C-27.6450085 103.72446619 -32.6236074 105.04957973 -38.19921875 102.5859375 C-41.76187685 99.79358385 -44.07540735 97.08237169 -45.51171875 92.7734375 C-45.43253295 91.07227742 -45.29266526 89.37362479 -45.1171875 87.6796875 C-44.08561702 73.71220112 -45.36316323 65.35550786 -54.4440918 54.4375 C-55.64649441 53.05611438 -56.86729464 51.69033251 -58.11303711 50.34790039 C-61.14890924 46.93049083 -60.78342658 43.63485224 -60.7265625 39.25 C-60.44487366 36.00289591 -59.66314857 34.22161627 -57.51171875 31.7734375 C-52.80638287 28.31529908 -47.37115634 27.10899494 -41.82421875 25.5859375 C-40.86193359 25.31330078 -39.89964844 25.04066406 -38.90820312 24.75976562 C-31.81417411 22.7734375 -31.81417411 22.7734375 -29.51171875 22.7734375 C-29.29386719 22.10570313 -29.07601562 21.43796875 -28.8515625 20.75 C-27.08002315 16.81439362 -24.65329533 13.59168967 -22.07421875 10.1484375 C-21.58373047 9.48070312 -21.09324219 8.81296875 -20.58789062 8.125 C-15.28900566 0.97400815 -9.38724512 -4.58412903 0 0 Z M-7.51171875 17.7734375 C-8.83126583 19.33860319 -8.83126583 19.33860319 -10.12109375 21.38671875 C-10.62898438 22.14017578 -11.136875 22.89363281 -11.66015625 23.66992188 C-12.71770399 25.26527133 -13.76990595 26.86417895 -14.81640625 28.46679688 C-20.00481519 36.12556635 -25.75786789 38.04047171 -34.38671875 40.4609375 C-35.17046875 40.68587891 -35.95421875 40.91082031 -36.76171875 41.14257812 C-38.67689128 41.69143855 -40.59410334 42.23317392 -42.51171875 42.7734375 C-41.08424552 47.0558572 -38.95233102 49.87454799 -36.01171875 53.2734375 C-31.48745264 58.50278405 -29.23820264 62.29374584 -29.31640625 69.29296875 C-29.32607422 70.8253418 -29.32607422 70.8253418 -29.3359375 72.38867188 C-29.35269531 73.44376953 -29.36945313 74.49886719 -29.38671875 75.5859375 C-29.39574219 76.66037109 -29.40476563 77.73480469 -29.4140625 78.84179688 C-29.43756569 81.48590604 -29.470423 84.12955622 -29.51171875 86.7734375 C-28.32835937 86.3403125 -27.145 85.9071875 -25.92578125 85.4609375 C-9.23055012 79.49734435 -0.01882737 80.73161997 16.48828125 86.7734375 C16.4725708 86.10812012 16.45686035 85.44280273 16.44067383 84.75732422 C16.37802528 81.7211163 16.33919616 78.68504478 16.30078125 75.6484375 C16.27564453 74.60171875 16.25050781 73.555 16.22460938 72.4765625 C16.13583652 63.12582132 18.95672943 58.12126215 24.67578125 51.0234375 C28.11010661 47.3189754 28.11010661 47.3189754 29.48828125 42.7734375 C28.86896729 42.62422852 28.24965332 42.47501953 27.61157227 42.32128906 C6.22284742 36.9546708 6.22284742 36.9546708 0.07421875 26.73828125 C-0.71082031 25.27068359 -0.71082031 25.27068359 -1.51171875 23.7734375 C-3.49394416 20.47559373 -3.49394416 20.47559373 -5.51171875 17.7734375 C-6.17171875 17.7734375 -6.83171875 17.7734375 -7.51171875 17.7734375 Z " fill="#000000" transform="translate(262.51171875,37.2265625)"/>
<path d="M0 0 C8.85729099 6.22674216 14.06980254 13.67504106 16.4765625 24.296875 C18.04407435 33.43576485 15.99681569 42.30326873 11.3828125 50.3359375 C6.43663516 57.14555839 0.52597089 62.01474273 -7.77197266 63.78540039 C-8.58381012 63.96027481 -9.39564758 64.13514923 -10.23208618 64.31532288 C-10.85159149 64.4458757 -11.4710968 64.57642853 -12.109375 64.7109375 C-12.09272041 65.69359589 -12.09272041 65.69359589 -12.07572937 66.69610596 C-11.96518769 73.50901671 -11.88972891 80.32167313 -11.8347168 87.13525391 C-11.80955873 89.67865342 -11.77542869 92.22198054 -11.73217773 94.76513672 C-11.67158679 98.41912688 -11.64317733 102.07216201 -11.62109375 105.7265625 C-11.59528732 106.86522766 -11.5694809 108.00389282 -11.54289246 109.17706299 C-11.54008979 117.04949475 -11.54008979 117.04949475 -14.44848633 120.42871094 C-17.69170485 121.99155007 -19.55438476 122.31604222 -23.109375 121.7109375 C-25.41213056 119.8438384 -26.78761371 118.35446009 -28.109375 115.7109375 C-28.19977406 114.0461311 -28.22692757 112.37770329 -28.22290039 110.71044922 C-28.22282486 109.66952118 -28.22274933 108.62859314 -28.22267151 107.55612183 C-28.21751022 106.42900787 -28.21234894 105.30189392 -28.20703125 104.140625 C-28.2056163 102.98926056 -28.20420135 101.83789612 -28.20274353 100.65164185 C-28.19713216 96.96304764 -28.1845777 93.27451345 -28.171875 89.5859375 C-28.16686147 87.08984462 -28.16229831 84.5937508 -28.15820312 82.09765625 C-28.14715903 75.96872941 -28.1304098 69.83983774 -28.109375 63.7109375 C-28.89401123 63.56398438 -29.67864746 63.41703125 -30.48706055 63.265625 C-38.53788964 61.5626659 -44.44285289 55.13256749 -49.109375 48.7109375 C-54.38490638 40.20488409 -54.65750232 29.3209193 -52.4140625 19.7421875 C-48.8780416 10.11470203 -43.02202728 3.64362954 -34.109375 -1.2890625 C-33.50609375 -1.63066406 -32.9028125 -1.97226563 -32.28125 -2.32421875 C-22.4869673 -6.90198131 -9.09463653 -5.55783344 0 0 Z M-34.609375 19.7734375 C-37.75625384 24.99244147 -38.15487823 29.76238466 -37.109375 35.7109375 C-35.28169722 41.11274072 -31.66462579 44.52226194 -27.109375 47.7109375 C-22.0494794 50.18466424 -17.47090868 50.09894876 -12.109375 48.7109375 C-6.97647142 46.52922716 -3.25199385 43.65743264 -0.796875 38.59375 C1.30169778 32.84652228 1.35279529 28.2414564 -1.09765625 22.59765625 C-3.91214426 17.34901645 -7.35334045 13.66581716 -13.109375 11.7109375 C-22.12562765 10.48351487 -28.99102856 12.44858396 -34.609375 19.7734375 Z " fill="#000000" transform="translate(434.109375,69.2890625)"/>
<path d="M0 0 C8.40539293 6.1294341 15.11364027 13.53927785 17 24 C17.98636333 35.42663981 16.04067075 45.19449666 8.69921875 54.21875 C3.90494695 59.2444694 -1.47063535 62.69551836 -8 65 C-8.99 65 -9.98 65 -11 65 C-10.99333817 65.62782883 -10.98667633 66.25565765 -10.97981262 66.9025116 C-10.91341618 73.43991981 -10.86818137 79.97723214 -10.83520508 86.51489258 C-10.82012346 88.95438528 -10.79965531 91.3938509 -10.77368164 93.83325195 C-10.73727188 97.34072559 -10.72026711 100.84784054 -10.70703125 104.35546875 C-10.69154739 105.44522507 -10.67606354 106.53498138 -10.66011047 107.65776062 C-10.6579957 117.18368602 -10.6579957 117.18368602 -14 121 C-16.85324437 122.42662219 -18.83454549 122.31033868 -22 122 C-24.6550293 120.72949219 -24.6550293 120.72949219 -27 118 C-27.78093758 114.01741474 -27.72101191 110.06360756 -27.70703125 106.015625 C-27.72215256 104.84489441 -27.73727386 103.67416382 -27.75285339 102.46795654 C-27.79584329 98.72844349 -27.80457988 94.9897359 -27.8125 91.25 C-27.83563532 88.71482217 -27.86099862 86.17966361 -27.88867188 83.64453125 C-27.95163604 77.42967996 -27.98648051 71.21514487 -28 65 C-28.81404297 64.61690674 -29.62808594 64.23381348 -30.46679688 63.83911133 C-32.07651367 63.06216919 -32.07651367 63.06216919 -33.71875 62.26953125 C-34.78029297 61.76268799 -35.84183594 61.25584473 -36.93554688 60.73364258 C-45.30405261 55.99935647 -49.84817383 48.06203355 -52.58203125 39.08984375 C-54.35640278 30.21798609 -53.31866083 20.6965175 -48.74609375 12.84765625 C-37.53972378 -3.06111419 -17.88014466 -10.01395489 0 0 Z M-32.25 18.375 C-35.94880081 23.0130251 -37.51092562 26.8026941 -37.3046875 32.88671875 C-36.48129654 38.59767401 -33.73088995 42.74292938 -29.375 46.4375 C-24.82052012 49.54167064 -20.46549734 50.3846422 -15 50 C-8.44478629 48.03343589 -3.52414117 44.6926494 -0.125 38.6875 C1.64991624 32.869719 1.88277652 28.40849213 -0.5625 22.875 C-3.37343298 17.78520349 -7.46112643 13.84629119 -13 12 C-21.0871612 11.27619211 -26.6281352 12.17202898 -32.25 18.375 Z " fill="#000000" transform="translate(117,69)"/>
<path d="M0 0 C2.4375 1.5 2.4375 1.5 4 4 C4.90137192 9.31809435 4.19024295 12.30285503 1.4375 16.9375 C-0.8953397 20.12314667 -1.71429374 20.89975219 -5.5625 22.25 C-9.30190314 21.97804341 -11.0839546 21.31568311 -14 19 C-15.50475088 15.99049825 -15.42392641 14.39141132 -15 11 C-11.19191118 3.25493319 -9.1804486 -0.79141798 0 0 Z " fill="#000000" transform="translate(302,11)"/>
<path d="M0 0 C3.93900152 3.0437739 6.20655896 6.37480994 8 11 C8.40010225 14.33418541 8.33861283 16.26301912 6.9375 19.3125 C4.04916906 21.82814308 1.77654862 21.93488709 -2 22 C-6.16072629 20.45182278 -8.22975411 17.8984431 -10.26953125 13.96875 C-11.59746049 10.38973216 -11.49892895 7.80433323 -11 4 C-8.16650967 -0.53358453 -5.10426635 -0.80593679 0 0 Z " fill="#000000" transform="translate(217,11)"/>
<path d="M0 0 C4.8713467 1.0148639 6.85705584 4.1667609 9.8125 7.9375 C11.55640945 11.88424245 11.54798955 14.30958226 11 18.625 C8.9375 21.1875 8.9375 21.1875 6 22.625 C2.5625 22.875 2.5625 22.875 -1 21.625 C-4.52510627 18.00526001 -7.69814257 13.8889307 -8.375 8.8125 C-8 5.625 -8 5.625 -5.875 2.75 C-3 0.625 -3 0.625 0 0 Z " fill="#000000" transform="translate(295,151.375)"/>
<path d="M0 0 C3.18282057 2.35251955 4.72096684 3.88386737 5.6875 7.75 C4.44180467 13.63874155 0.99240275 18.6717315 -4 22 C-7.33466685 21.82135713 -9.9860269 21.55604977 -12.9375 19.9375 C-14.74713371 16.6375797 -14.7823368 13.57903685 -14 10 C-10.59738629 3.37166687 -7.96639355 -0.93722277 0 0 Z " fill="#000000" transform="translate(220,152)"/>
<path d="M0 0 C3.55443382 1.92054086 7.12750869 4.12750869 10 7 C10.57971014 14.07246377 10.57971014 14.07246377 8.4375 17.5 C4.9587775 19.64075231 3.03894206 19.60584131 -1 19 C-5.05026437 17.18333731 -8.16787128 14.93002622 -11.125 11.625 C-12.3854134 7.8437598 -11.50122654 5.61659122 -10 2 C-6.15543246 -0.56304503 -4.5779655 -0.59070523 0 0 Z " fill="#000000" transform="translate(186,42)"/>
<path d="M0 0 C2.50031654 3.75047482 2.53603554 5.55856266 2 10 C-1.02779214 13.91831924 -4.34478252 16.32412171 -9 18 C-12.50120921 17.88131494 -14.93554624 17.70963584 -17.875 15.75 C-19.39898926 13.37935004 -19.86819981 11.83370413 -20 9 C-18.68277311 4.96599266 -17.15348636 2.81892416 -13.5625 0.6875 C-8.00639344 -1.94433995 -5.82104369 -2.53088856 0 0 Z " fill="#000000" transform="translate(194,125)"/>
<path d="M0 0 C2.4375 1.5 2.4375 1.5 4 4 C4.79572447 9.01306413 4.79572447 9.01306413 4 12 C1.25 14.875 1.25 14.875 -2 17 C-2.639375 17.433125 -3.27875 17.86625 -3.9375 18.3125 C-7.11639272 19.37213091 -9.68019784 19.35569309 -13 19 C-15.4375 17.5 -15.4375 17.5 -17 15 C-17.60926719 12.19507178 -17.66915985 9.79778041 -17 7 C-14.8125 4.6875 -14.8125 4.6875 -12 3 C-11.21625 2.4225 -10.4325 1.845 -9.625 1.25 C-6.1565872 -0.40162514 -3.79754186 -0.48332351 0 0 Z " fill="#000000" transform="translate(333,42)"/>
<path d="M0 0 C0.66 -0.0103125 1.32 -0.020625 2 -0.03125 C4.98497237 0.76163329 6.15658925 2.04616156 8 4.5 C8.53125 7.55859375 8.53125 7.55859375 8.5 10.9375 C8.5103125 12.04996094 8.520625 13.16242188 8.53125 14.30859375 C7.89222355 18.14745116 6.79225401 19.82081261 4 22.5 C2 23.1640625 2 23.1640625 0 23.125 C-0.66 23.13789063 -1.32 23.15078125 -2 23.1640625 C-5.17999708 22.1082041 -6.26202969 20.30133373 -8 17.5 C-8.53125 14.30859375 -8.53125 14.30859375 -8.5 10.9375 C-8.5103125 9.82246094 -8.520625 8.70742187 -8.53125 7.55859375 C-7.68220091 2.67031848 -5.07230389 -0.07925475 0 0 Z " fill="#000000" transform="translate(256,162.5)"/>
<path d="M0 0 C1.60933494 3.21866989 1.59733476 6.5189802 1 10 C-1.0625 12.5625 -1.0625 12.5625 -4 14 C-9.94498478 14.11216952 -14.42305988 11.58340922 -19 8 C-20.52846661 4.94306678 -20.23242445 2.37015453 -20 -1 C-18.68258126 -3.50309562 -17.76868459 -4.6156577 -15.25 -5.875 C-9.31703235 -6.20460931 -4.58499889 -3.49333249 0 0 Z " fill="#000000" transform="translate(336,129)"/>
<path d="M0 0 C2.56799169 1.5563586 3.27682608 2.3430065 4.0625 5.25 C3.75019326 11.18382808 3.75019326 11.18382808 1.9765625 13.93359375 C-0.95351586 15.94877009 -3.9434243 15.76316041 -7.375 15.75 C-9.35306641 15.79640625 -9.35306641 15.79640625 -11.37109375 15.84375 C-14.9375 15.25 -14.9375 15.25 -17.4140625 12.9453125 C-18.9375 10.25 -18.9375 10.25 -18.875 6.625 C-17.62003968 2.10714286 -17.62003968 2.10714286 -14.9375 0.25 C-10.01099033 -1.39216989 -5.01895946 -1.28143646 0 0 Z " fill="#000000" transform="translate(344.9375,84.75)"/>
<path d="M0 0 C2.56799169 1.5563586 3.27682608 2.3430065 4.0625 5.25 C3.75019326 11.18382808 3.75019326 11.18382808 1.9765625 13.93359375 C-0.95351586 15.94877009 -3.9434243 15.76316041 -7.375 15.75 C-9.35306641 15.79640625 -9.35306641 15.79640625 -11.37109375 15.84375 C-14.9375 15.25 -14.9375 15.25 -17.4140625 12.9453125 C-18.9375 10.25 -18.9375 10.25 -18.875 6.625 C-17.62003968 2.10714286 -17.62003968 2.10714286 -14.9375 0.25 C-10.01099033 -1.39216989 -5.01895946 -1.28143646 0 0 Z " fill="#000000" transform="translate(181.9375,84.75)"/>
<path d="M0 0 C0.66 -0.0103125 1.32 -0.020625 2 -0.03125 C4.98497237 0.76163329 6.15658925 2.04616156 8 4.5 C8.53125 7.55859375 8.53125 7.55859375 8.5 10.9375 C8.5103125 12.04996094 8.520625 13.16242187 8.53125 14.30859375 C7.89222355 18.14745116 6.79225401 19.82081261 4 22.5 C2 23.1640625 2 23.1640625 0 23.125 C-0.66 23.13789063 -1.32 23.15078125 -2 23.1640625 C-5.17999708 22.1082041 -6.26202969 20.30133373 -8 17.5 C-8.53125 14.30859375 -8.53125 14.30859375 -8.5 10.9375 C-8.5103125 9.82246094 -8.520625 8.70742187 -8.53125 7.55859375 C-7.68220091 2.67031848 -5.07230389 -0.07925475 0 0 Z " fill="#000000" transform="translate(256,-0.5)"/>
</svg>
