<?xml version="1.0" encoding="UTF-8"?>
<svg version="1.1" xmlns="http://www.w3.org/2000/svg" width="512" height="512">
<path d="M0 0 C1.0054184 0.00465271 2.01083679 0.00930542 3.04672241 0.01409912 C17.55398411 0.09270742 31.81520628 0.39095071 46.0625 3.375 C47.03735352 3.57367676 48.01220703 3.77235352 49.01660156 3.97705078 C92.66251751 13.10699403 135.70307686 31.7626135 168.34765625 62.80078125 C169.99002497 64.45351868 169.99002497 64.45351868 172.0625 65.375 C172.00191406 64.75044922 171.94132812 64.12589844 171.87890625 63.48242188 C171.6028579 60.61364248 171.33264156 57.7443414 171.0625 54.875 C170.91941406 53.40160156 170.91941406 53.40160156 170.7734375 51.8984375 C169.36676674 36.82696507 169.36676674 36.82696507 171.5 32.375 C174.7413065 29.84519981 176.83244485 29.77962423 180.84375 29.7109375 C184.16989861 30.70643972 185.16414301 32.51434002 187.0625 35.375 C187.77612305 38.68969727 187.77612305 38.68969727 188.07421875 42.44140625 C188.13277542 43.11614487 188.19133209 43.79088348 188.25166321 44.48606873 C188.43436404 46.63555683 188.59261045 48.78602589 188.75 50.9375 C188.86621645 52.35495164 188.98404161 53.77227234 189.10351562 55.18945312 C189.33407831 57.95648632 189.5542218 60.72400229 189.76416016 63.49267578 C190.03256495 66.98545239 190.32597926 70.47492901 190.62890625 73.96484375 C190.97368488 78.10324162 191.25018663 82.22077526 191.3125 86.375 C191.33828125 87.426875 191.3640625 88.47875 191.390625 89.5625 C191.01568346 92.77628465 190.32283463 94.09354075 188.0625 96.375 C184.29658927 97.63030358 180.96488001 97.34486357 177.0625 97.125 C176.22323975 97.07907715 175.38397949 97.0331543 174.51928711 96.98583984 C166.00779902 96.48346421 157.50309569 95.86136255 149.00366211 95.18664551 C147.42260487 95.06258534 145.84121541 94.94268641 144.25952148 94.82702637 C142.00642148 94.66051141 139.75531462 94.47692378 137.50390625 94.2890625 C136.19107666 94.1854541 134.87824707 94.0818457 133.52563477 93.97509766 C129.9897106 93.36238693 127.91899957 92.51030908 125.0625 90.375 C123.49314406 87.23628812 123.71048897 84.83644178 124.0625 81.375 C125.8125 78.4375 125.8125 78.4375 129.0625 76.375 C133.09212466 75.80588093 137.0129975 76.10445134 141.0625 76.375 C142.58323971 76.45747398 144.10408017 76.53810473 145.625 76.6171875 C149.77301831 76.84035674 153.91761185 77.09998372 158.0625 77.375 C121.00665046 46.07441864 78.19587173 26.27439548 30.0625 19.375 C29.38469482 19.27622559 28.70688965 19.17745117 28.00854492 19.07568359 C-24.86915047 11.88116692 -85.00291221 24.62807455 -128.9375 55.375 C-124.01667351 61.28916103 -118.71026345 66.63275202 -113.15234375 71.9453125 C-107.17048084 77.7953107 -105.77365101 82.15284839 -104.9375 90.375 C-103.84695312 89.7459375 -102.75640625 89.116875 -101.6328125 88.46875 C-76.59118 74.18129611 -51.52104594 65.56682716 -22.9375 61.375 C-22.7513916 60.69808105 -22.5652832 60.02116211 -22.37353516 59.32373047 C-22.11878418 58.43057129 -21.8640332 57.53741211 -21.6015625 56.6171875 C-21.2295874 55.29243408 -21.2295874 55.29243408 -20.85009766 53.94091797 C-18.8078907 48.1989182 -15.05557476 44.65947431 -9.6875 41.9375 C-3.05621952 39.3673225 3.18121952 39.3673225 9.8125 41.9375 C15.18057476 44.65947431 18.9328907 48.1989182 20.97509766 53.94091797 C21.34707275 55.26567139 21.34707275 55.26567139 21.7265625 56.6171875 C22.10868896 57.95692627 22.10868896 57.95692627 22.49853516 59.32373047 C22.68464355 60.00064941 22.87075195 60.67756836 23.0625 61.375 C23.6387915 61.45951416 24.21508301 61.54402832 24.80883789 61.63110352 C76.98773094 69.48648848 124.39742744 95.14332934 156.39916992 137.73681641 C176.74859856 165.73037004 190.06605624 197.92022271 194.0625 232.375 C194.70316406 232.52195313 195.34382813 232.66890625 196.00390625 232.8203125 C203.168169 234.6781094 208.28288322 237.06948083 212.37890625 243.4140625 C215.59160833 249.74991398 216.27416671 255.9298322 214.40234375 262.796875 C212.2304202 268.4006258 209.19804061 272.245539 204.0625 275.375 C202.33517451 275.98934279 200.58537417 276.54345405 198.8203125 277.0390625 C197.48057373 277.42118896 197.48057373 277.42118896 196.11376953 277.81103516 C195.43685059 277.99714355 194.75993164 278.18325195 194.0625 278.375 C193.97798584 278.9512915 193.89347168 279.52758301 193.80639648 280.12133789 C185.95101152 332.30023094 160.29417066 379.70992744 117.70068359 411.71166992 C89.3657263 432.30927604 57.71756786 444.63466535 23.0625 449.375 C22.91554688 450.01566406 22.76859375 450.65632813 22.6171875 451.31640625 C20.7593906 458.480669 18.36801917 463.59538322 12.0234375 467.69140625 C5.68758602 470.90410833 -0.4923322 471.58666671 -7.359375 469.71484375 C-12.9631258 467.5429202 -16.808039 464.51054061 -19.9375 459.375 C-20.55184279 457.64767451 -21.10595405 455.89787417 -21.6015625 454.1328125 C-21.85631348 453.23965332 -22.11106445 452.34649414 -22.37353516 451.42626953 C-22.55964355 450.74935059 -22.74575195 450.07243164 -22.9375 449.375 C-23.52950195 449.28524902 -24.12150391 449.19549805 -24.73144531 449.10302734 C-76.88255398 441.03417566 -124.22876984 415.66477779 -156.27416992 373.01318359 C-176.62359856 345.01962996 -189.94105624 312.82977729 -193.9375 278.375 C-194.57816406 278.22804688 -195.21882813 278.08109375 -195.87890625 277.9296875 C-203.043169 276.0718906 -208.15788322 273.68051917 -212.25390625 267.3359375 C-215.46660833 261.00008602 -216.14916671 254.8201678 -214.27734375 247.953125 C-212.1054202 242.3493742 -209.07304061 238.504461 -203.9375 235.375 C-202.21017451 234.76065721 -200.46037417 234.20654595 -198.6953125 233.7109375 C-197.80215332 233.45618652 -196.90899414 233.20143555 -195.98876953 232.93896484 C-195.31185059 232.75285645 -194.63493164 232.56674805 -193.9375 232.375 C-193.85298584 231.7987085 -193.76847168 231.22241699 -193.68139648 230.62866211 C-189.2577582 201.24492725 -179.72173858 176.00505295 -164.9375 150.375 C-165.63875 150.31183594 -166.34 150.24867188 -167.0625 150.18359375 C-174.89203047 149.17298859 -178.55571934 146.96783088 -183.9375 141.375 C-185.21110071 140.10691869 -186.48740684 138.84155182 -187.765625 137.578125 C-191.51242309 133.8661501 -195.231689 130.12785742 -198.9375 126.375 C-202.18281233 130.20505329 -204.75524576 134.25059666 -207.1875 138.625 C-207.77120361 139.67445801 -207.77120361 139.67445801 -208.36669922 140.74511719 C-235.27228422 189.75366755 -244.53015567 248.52263821 -232.9375 303.375 C-232.75026367 304.27750488 -232.56302734 305.18000977 -232.37011719 306.10986328 C-226.67843163 332.72512866 -216.14679084 358.94784245 -201.4375 381.875 C-199.02009086 385.85117569 -197.99187543 388.64687713 -198.9375 393.375 C-201.06586401 396.6101133 -202.61370847 397.27306563 -206.3125 398.4375 C-210.19335024 398.37058879 -211.46391185 397.72299173 -214.3046875 395.19702148 C-217.84475248 391.24673666 -220.22626691 386.50999333 -222.75 381.875 C-223.36311035 380.7600415 -223.9762207 379.64508301 -224.60791016 378.49633789 C-235.97193567 357.50591002 -244.57748299 335.07459266 -249.75 311.75 C-249.93272461 310.93031738 -250.11544922 310.11063477 -250.30371094 309.26611328 C-254.00203237 291.37949957 -255.46393929 273.67454771 -255.3125 255.4375 C-255.30784729 254.4320816 -255.30319458 253.42666321 -255.29840088 252.39077759 C-255.21979258 237.88351589 -254.92154929 223.62229372 -251.9375 209.375 C-251.73882324 208.40014648 -251.54014648 207.42529297 -251.33544922 206.42089844 C-244.98983962 176.08555729 -234.34481944 147.62040903 -218.0012207 121.23974609 C-217.47101318 120.38074707 -216.94080566 119.52174805 -216.39453125 118.63671875 C-215.91991455 117.88350342 -215.44529785 117.13028809 -214.95629883 116.35424805 C-213.70866617 114.30144948 -213.70866617 114.30144948 -213.9375 111.375 C-215.10819048 109.78166675 -215.10819048 109.78166675 -216.75146484 108.25219727 C-217.36565277 107.64469131 -217.9798407 107.03718536 -218.61264038 106.41127014 C-219.28445343 105.76121506 -219.95626648 105.11115997 -220.6484375 104.44140625 C-221.33177155 103.76706039 -222.01510559 103.09271454 -222.71914673 102.39793396 C-224.90995523 100.23722405 -227.11033335 98.08662842 -229.3125 95.9375 C-231.5066808 93.7911337 -233.69856446 91.64261315 -235.88442993 89.48777771 C-237.24604708 88.14592155 -238.61257476 86.80902613 -239.98446655 85.47767639 C-240.91520493 84.56168922 -240.91520493 84.56168922 -241.86474609 83.62719727 C-242.41101654 83.09441666 -242.95728699 82.56163605 -243.52011108 82.01271057 C-245.62040408 79.58594399 -246.8492028 77.40329447 -247.125 74.19140625 C-247.063125 73.44761719 -247.00125 72.70382813 -246.9375 71.9375 C-246.89625 71.19628906 -246.855 70.45507812 -246.8125 69.69140625 C-245.49398294 66.20086779 -243.06814132 64.23782546 -239.9375 62.375 C-236.97243056 61.55827388 -234.05991997 61.38173645 -230.99609375 61.23046875 C-230.15079605 61.17095535 -229.30549835 61.11144196 -228.43458557 61.05012512 C-225.74896458 60.86626172 -223.06261338 60.71412874 -220.375 60.5625 C-218.56561856 60.44280321 -216.75637008 60.32107831 -214.94726562 60.19726562 C-201.34639172 59.29168207 -201.34639172 59.29168207 -195.9375 59.375 C-195.88215088 58.36187744 -195.82680176 57.34875488 -195.76977539 56.30493164 C-195.56169221 52.50840257 -195.35029044 48.71206403 -195.13793945 44.91577148 C-195.04687942 43.27975311 -194.95669235 41.64368589 -194.86743164 40.00756836 C-193.53802372 15.66974856 -193.53802372 15.66974856 -190.9375 11.875 C-187.55224075 9.05395063 -185.57441626 8.49492213 -181.31640625 7.9921875 C-174.93225804 9.0195217 -170.12005687 14.92562754 -165.7890625 19.328125 C-165.13167084 19.98834656 -164.47427917 20.64856812 -163.79696655 21.32879639 C-161.71403738 23.42285262 -159.63820042 25.52378065 -157.5625 27.625 C-156.14499524 29.05254421 -154.72703114 30.47963247 -153.30859375 31.90625 C-149.84622506 35.39057984 -146.39019656 38.88108668 -142.9375 42.375 C-140.78505444 41.14601134 -138.63273205 39.91680776 -136.48046875 38.6875 C-135.83853073 38.32100342 -135.19659271 37.95450684 -134.53520203 37.5769043 C-131.1173509 35.62456851 -127.70520444 33.66318944 -124.30078125 31.6875 C-103.17045122 19.54099792 -80.11396017 10.8304743 -56.3125 5.5625 C-55.08321777 5.28853394 -55.08321777 5.28853394 -53.82910156 5.0090332 C-35.9426485 1.3097429 -18.23700511 -0.15143893 0 0 Z M-176.9375 34.375 C-177.2529779 37.5830475 -177.56436588 40.7914801 -177.875 44 C-178.0153064 45.43085937 -178.0153064 45.43085937 -178.15844727 46.890625 C-178.78968828 53.44713707 -179.24600323 59.979472 -179.49609375 66.5625 C-180.0072057 69.81914252 -180.95658306 71.75250949 -182.9375 74.375 C-186.19986856 75.46245619 -188.93185613 75.66165208 -192.36328125 75.875 C-194.27077148 75.99875 -194.27077148 75.99875 -196.21679688 76.125 C-197.56117471 76.20870685 -198.90557606 76.29203687 -200.25 76.375 C-202.87135567 76.53805845 -205.4923236 76.70547874 -208.11328125 76.875 C-209.85992065 76.98328125 -209.85992065 76.98328125 -211.6418457 77.09375 C-214.78443822 77.36193776 -217.83588082 77.81005276 -220.9375 78.375 C-213.38927423 87.39024234 -205.19418069 95.8127297 -196.99321365 104.23041248 C-194.32077104 106.97503709 -191.66585271 109.73276663 -189.04638672 112.52807617 C-175.95817469 127.75691613 -175.95817469 127.75691613 -158.1484375 134.78125 C-155.37028813 134.80107502 -152.71545521 134.61039332 -149.9375 134.375 C-147.83929776 134.46915405 -145.74204198 134.59397524 -143.6484375 134.76171875 C-140.95866075 134.91801137 -138.27516492 135.06364836 -135.58203125 135.14648438 C-130.89086742 135.45718009 -127.80525852 136.04642588 -124.29412842 139.27810669 C-123.60320854 139.91296619 -122.91228867 140.5478257 -122.20043182 141.20192337 C-117.82910934 145.39967189 -113.5371859 149.67237053 -109.27050781 153.97607422 C-108.22188662 155.02989939 -107.17301576 156.08347618 -106.12391663 157.13682556 C-103.88057419 159.39004287 -101.63871671 161.64472332 -99.39795685 163.90050888 C-95.85455256 167.46711597 -92.30614981 171.02872188 -88.7567749 174.58938599 C-78.66991914 184.70956774 -68.58738609 194.83402955 -58.51513672 204.96875 C-52.94064371 210.57773359 -47.36083386 216.18136993 -41.7750175 221.77907765 C-38.24430329 225.31789306 -34.72026314 228.86318258 -31.20095778 232.41334224 C-29.01493134 234.61534927 -26.82266316 236.81105677 -24.62853813 239.00499153 C-23.61165192 240.02430341 -22.59734996 241.04620085 -21.58582497 242.07083321 C-20.20643286 243.46735304 -18.81688172 244.85381679 -17.42681885 246.23971558 C-16.65184177 247.01875685 -15.8768647 247.79779812 -15.07840347 248.6004467 C-12.91767587 250.39143183 -11.73693326 251.24296745 -8.9375 251.375 C-6.16627725 249.02073501 -6.16627725 249.02073501 -3.9375 246.375 C-5.32991829 242.12307923 -7.26637058 239.67650146 -10.42323303 236.53523254 C-10.88159418 236.07501369 -11.33995533 235.61479483 -11.81220621 235.14062995 C-13.34442137 233.60582243 -14.88708141 232.08197197 -16.42993164 230.55786133 C-17.53268989 229.45758722 -18.63478013 228.35664324 -19.73625183 227.25508118 C-22.72539841 224.26934327 -25.72362265 221.29287192 -28.72341466 218.31783509 C-31.85962956 215.20410591 -34.98695051 212.0814716 -38.11509705 208.9596405 C-44.04023595 203.04898557 -49.97255571 197.14559648 -55.90784687 191.24513787 C-66.54527974 180.66966378 -77.17051311 170.081939 -87.7930612 159.49151629 C-91.52299848 155.77343244 -95.25608732 152.05854951 -98.99181187 148.34628069 C-101.31067019 146.04121847 -103.62756578 143.73419066 -105.94401741 141.42671013 C-107.02150966 140.35430016 -108.09987713 139.28276876 -109.17916489 138.21216583 C-110.64797591 136.75498818 -112.11372271 135.29479613 -113.57875061 133.83381653 C-114.81236124 132.60743328 -114.81236124 132.60743328 -116.07089329 131.3562746 C-119.34746099 127.87842342 -119.27304124 124.5579865 -119.62109375 119.98828125 C-119.74529141 118.4772011 -119.86964544 116.96613379 -119.99414062 115.45507812 C-120.18525687 113.07676985 -120.37415545 110.69832073 -120.55981445 108.31958008 C-120.74078719 106.02110653 -120.93049361 103.72347371 -121.12109375 101.42578125 C-121.17325546 100.72447586 -121.22541718 100.02317047 -121.27915955 99.3006134 C-121.93566969 91.4975497 -123.28645198 86.39281497 -128.92211914 80.80688477 C-129.42799057 80.29867691 -129.933862 79.79046906 -130.45506287 79.26686096 C-132.11587161 77.6044483 -133.79372446 75.96049678 -135.47265625 74.31640625 C-136.63427403 73.16158218 -137.79485822 72.0057176 -138.95445251 70.84886169 C-141.37896788 68.4349955 -143.81124183 66.02935339 -146.25024414 63.63012695 C-149.38360694 60.5478577 -152.50376949 57.45265437 -155.61911869 54.35218906 C-158.58723103 51.39882413 -161.56055758 48.45073645 -164.53515625 45.50390625 C-165.10524981 44.93872347 -165.67534336 44.37354069 -166.26271248 43.79123116 C-167.86641803 42.20371884 -169.47365317 40.61988172 -171.08227539 39.03735352 C-171.99779678 38.13469254 -172.91331818 37.23203156 -173.85658264 36.30201721 C-175.58709864 34.26175768 -175.58709864 34.26175768 -176.9375 34.375 Z M-3.6622467 58.41491699 C-5.58525635 61.37061101 -5.36336092 64.32334695 -5.34155273 67.73632812 C-5.34841599 68.48297226 -5.35527924 69.22961639 -5.36235046 69.99888611 C-5.38065987 72.46820054 -5.37677565 74.93688222 -5.37109375 77.40625 C-5.37565326 79.12113655 -5.38095813 80.83602127 -5.38697815 82.55090332 C-5.39591712 86.14550194 -5.39347688 89.73987847 -5.38354492 93.33447266 C-5.3720482 97.94506443 -5.39227305 102.55489115 -5.42146206 107.16538239 C-5.43979082 110.70669436 -5.43953839 114.24782182 -5.43382454 117.78916931 C-5.43367095 119.48926365 -5.43974647 121.18937021 -5.45211601 122.88941956 C-5.46696392 125.2646616 -5.45639676 127.63847512 -5.43920898 130.01367188 C-5.44887695 130.71817978 -5.45854492 131.42268768 -5.46850586 132.14854431 C-5.41965386 135.36594747 -5.30443755 136.97979072 -3.07411194 139.38195801 C-0.89402328 140.67655269 -0.89402328 140.67655269 1.75 139.625 C3.96005147 138.5727169 3.96005147 138.5727169 5.0625 137.375 C5.17339855 134.9876931 5.21988151 132.62903647 5.22363281 130.24072266 C5.22859772 129.49437057 5.23356262 128.74801849 5.23867798 127.97904968 C5.2533361 125.49904473 5.26010777 123.01910374 5.265625 120.5390625 C5.27137363 118.82131955 5.2771314 117.10357663 5.28289795 115.38583374 C5.29341846 111.77935486 5.29925418 108.17289833 5.30273438 104.56640625 C5.30822009 99.94022265 5.33224521 95.31433325 5.36070633 90.68824196 C5.37931094 87.13838838 5.38453715 83.58860595 5.38607025 80.03870773 C5.38910246 78.33302579 5.39715004 76.62734526 5.41025543 74.92171097 C5.42727024 72.53693392 5.42544715 70.15287917 5.41894531 67.76806641 C5.4281601 67.06041641 5.43737488 66.35276642 5.4468689 65.62367249 C5.42264912 62.79440428 5.35138377 60.82050741 3.79022217 58.41293335 C1.17069069 56.83924336 -1.04446794 56.83655618 -3.6622467 58.41491699 Z M-85.125 98.9375 C-85.97416992 99.37215576 -86.82333984 99.80681152 -87.69824219 100.25463867 C-90.15829955 101.56127056 -92.55128322 102.93820634 -94.9375 104.375 C-95.81100098 104.88530762 -96.68450195 105.39561523 -97.58447266 105.92138672 C-100.86743724 108.0874207 -103.41703429 109.78626457 -104.671875 113.61669922 C-104.75725702 119.52821834 -101.8437161 123.25857545 -97.94921875 127.41796875 C-96.40911368 128.97704867 -94.84436809 130.5020366 -93.25512695 132.01098633 C-91.61406081 133.57291165 -90.01427021 135.16979674 -88.41601562 136.77539062 C-84.36660947 140.79237485 -84.36660947 140.79237485 -79.9375 144.375 C-76.01842219 144.17201278 -72.80922754 141.66829211 -69.5 139.6875 C-56.49535738 132.14001201 -43.3547293 127.43447363 -28.9375 123.375 C-26.6275 122.715 -24.3175 122.055 -21.9375 121.375 C-21.9375 107.515 -21.9375 93.655 -21.9375 79.375 C-44.05187595 79.375 -65.76205417 88.98757226 -85.125 98.9375 Z M22.0625 79.375 C22.0625 93.235 22.0625 107.095 22.0625 121.375 C25.6925 122.385625 29.3225 123.39625 33.0625 124.4375 C43.16016047 127.33445381 52.64051204 130.74551111 62.0625 135.375 C63.47595703 136.04402344 63.47595703 136.04402344 64.91796875 136.7265625 C94.02323537 151.42966617 116.28160182 178.65919812 127.04003906 209.14501953 C128.65637769 214.08208838 130.11032904 219.05695976 131.44335938 224.07763672 C132.28118979 227.18646328 133.17796783 230.2791374 134.0625 233.375 C147.9225 233.375 161.7825 233.375 176.0625 233.375 C176.10608894 227.33945247 176.10608894 227.33945247 175.1796875 221.6953125 C174.98536133 220.85790527 174.79103516 220.02049805 174.59082031 219.15771484 C174.37522461 218.28066895 174.15962891 217.40362305 173.9375 216.5 C173.7115918 215.57525879 173.48568359 214.65051758 173.25292969 213.69775391 C161.74376625 167.93662732 133.07575383 128.16827043 92.76123047 103.3996582 C71.91164155 90.95900635 46.71313453 79.375 22.0625 79.375 Z M-35.25 141.875 C-36.42792114 142.27005737 -36.42792114 142.27005737 -37.62963867 142.6730957 C-47.57939667 146.13479274 -56.96905448 150.85727066 -65.9375 156.375 C-64.33376852 160.38017396 -61.51636014 163.0521098 -58.4921875 166.015625 C-57.69737473 166.80619293 -57.69737473 166.80619293 -56.88650513 167.61273193 C-55.19982175 169.28825675 -53.50630436 170.95667722 -51.8125 172.625 C-50.66490612 173.76255851 -49.51776539 174.90057436 -48.37109375 176.0390625 C-45.56511863 178.82303465 -42.75299536 181.6006576 -39.9375 184.375 C-37.29040841 183.39912745 -34.64482553 182.41947855 -32 181.4375 C-30.86788086 181.02081055 -30.86788086 181.02081055 -29.71289062 180.59570312 C-26.04970861 179.45746549 -26.04970861 179.45746549 -22.9375 177.375 C-22.72778092 175.77589201 -22.5692933 174.16990754 -22.4375 172.5625 C-21.88516709 165.88518961 -21.88516709 165.88518961 -20.9375 163.375 C-17.2134209 162.1336403 -13.75305854 162.23189313 -9.875 162.2421875 C-9.08730225 162.24123077 -8.29960449 162.24027405 -7.48803711 162.23928833 C-5.82372966 162.23860826 -4.15941953 162.24045047 -2.49511719 162.24462891 C0.05279496 162.24997962 2.60053083 162.24467808 5.1484375 162.23828125 C6.76562539 162.23894206 8.38281317 162.24022329 10 162.2421875 C10.76256104 162.24016327 11.52512207 162.23813904 12.31079102 162.23605347 C15.49396916 162.25016906 18.02022317 162.36090772 21.0625 163.375 C21.07023437 164.80392578 21.07023437 164.80392578 21.078125 166.26171875 C21.32540089 170.27170938 21.7161455 173.58111926 23.0625 177.375 C26.76275089 180.201046 30.56084006 181.3406006 35.0625 182.375 C35.94550781 182.63539063 36.82851563 182.89578125 37.73828125 183.1640625 C40.09841425 183.62720022 40.09841425 183.62720022 41.8359375 182.16015625 C42.36445313 181.59167969 42.89296875 181.02320313 43.4375 180.4375 C46.0134921 178.06736472 46.96069116 177.39906391 50.5 176.5625 C55.79154359 177.76934328 58.29430043 180.57767988 62.0625 184.375 C63.33117186 185.62066753 64.60078847 186.86537324 65.87109375 188.109375 C68.5787426 190.77809497 71.28187895 193.45097939 73.96484375 196.14453125 C74.53710693 196.71792236 75.10937012 197.29131348 75.69897461 197.88208008 C77.77517375 200.15530438 78.07249896 201.44784955 78.5 204.5625 C77.97188429 209.16465115 76.56603002 210.54405373 73.27734375 213.6015625 C71.81970998 215.33676773 71.81970998 215.33676773 72.21875 217.69140625 C73.18910436 220.77767219 74.35050051 223.71366787 75.625 226.6875 C76.08003906 227.75613281 76.53507813 228.82476562 77.00390625 229.92578125 C77.35324219 230.73402344 77.70257813 231.54226562 78.0625 232.375 C78.73796875 232.43558594 79.4134375 232.49617188 80.109375 232.55859375 C81.44742188 232.68427734 81.44742188 232.68427734 82.8125 232.8125 C84.13507813 232.93431641 84.13507813 232.93431641 85.484375 233.05859375 C90.05345023 233.61934389 90.05345023 233.61934389 92.0625 234.375 C93.3038597 238.0990791 93.20560687 241.55944146 93.1953125 245.4375 C93.19626923 246.22519775 93.19722595 247.01289551 93.19821167 247.82446289 C93.19889174 249.48877034 93.19704953 251.15308047 93.19287109 252.81738281 C93.18752038 255.36529496 93.19282192 257.91303083 93.19921875 260.4609375 C93.19855794 262.07812539 93.19727671 263.69531317 93.1953125 265.3125 C93.19733673 266.07506104 93.19936096 266.83762207 93.20144653 267.62329102 C93.18733094 270.80646916 93.07659228 273.33272317 92.0625 276.375 C90.63357422 276.38273437 90.63357422 276.38273437 89.17578125 276.390625 C85.16579062 276.63790089 81.85638074 277.0286455 78.0625 278.375 C75.236454 282.07525089 74.0968994 285.87334006 73.0625 290.375 C72.80210937 291.25800781 72.54171875 292.14101563 72.2734375 293.05078125 C71.81029978 295.41091425 71.81029978 295.41091425 73.27734375 297.1484375 C73.84582031 297.67695313 74.41429687 298.20546875 75 298.75 C77.37013528 301.3259921 78.03843609 302.27319116 78.875 305.8125 C77.66815672 311.10404359 74.85982012 313.60680043 71.0625 317.375 C69.81683247 318.64367186 68.57212676 319.91328847 67.328125 321.18359375 C64.65940503 323.8912426 61.98652061 326.59437895 59.29296875 329.27734375 C58.71957764 329.84960693 58.14618652 330.42187012 57.55541992 331.01147461 C55.28219562 333.08767375 53.98965045 333.38499896 50.875 333.8125 C46.27284885 333.28438429 44.89344627 331.87853002 41.8359375 328.58984375 C40.10073227 327.13220998 40.10073227 327.13220998 37.74609375 327.53125 C34.65982781 328.50160436 31.72383213 329.66300051 28.75 330.9375 C27.68136719 331.39253906 26.61273438 331.84757813 25.51171875 332.31640625 C24.70347656 332.66574219 23.89523437 333.01507813 23.0625 333.375 C23.00191406 334.05046875 22.94132813 334.7259375 22.87890625 335.421875 C22.79511719 336.31390625 22.71132813 337.2059375 22.625 338.125 C22.50318359 339.44757813 22.50318359 339.44757813 22.37890625 340.796875 C21.81815611 345.36595023 21.81815611 345.36595023 21.0625 347.375 C17.3384209 348.6163597 13.87805854 348.51810687 10 348.5078125 C9.21230225 348.50876923 8.42460449 348.50972595 7.61303711 348.51071167 C5.94872966 348.51139174 4.28441953 348.50954953 2.62011719 348.50537109 C0.07220504 348.50002038 -2.47553083 348.50532192 -5.0234375 348.51171875 C-6.64062539 348.51105794 -8.25781317 348.50977671 -9.875 348.5078125 C-10.63756104 348.50983673 -11.40012207 348.51186096 -12.18579102 348.51394653 C-15.36896916 348.49983094 -17.89522317 348.38909228 -20.9375 347.375 C-20.94523437 345.94607422 -20.94523437 345.94607422 -20.953125 344.48828125 C-21.20040089 340.47829062 -21.5911455 337.16888074 -22.9375 333.375 C-26.63775089 330.548954 -30.43584006 329.4093994 -34.9375 328.375 C-35.82050781 328.11460937 -36.70351562 327.85421875 -37.61328125 327.5859375 C-39.97341425 327.12279978 -39.97341425 327.12279978 -41.7109375 328.58984375 C-42.50371094 329.44255859 -42.50371094 329.44255859 -43.3125 330.3125 C-45.8884921 332.68263528 -46.83569116 333.35093609 -50.375 334.1875 C-55.66654359 332.98065672 -58.16930043 330.17232012 -61.9375 326.375 C-63.20617186 325.12933247 -64.47578847 323.88462676 -65.74609375 322.640625 C-68.4537426 319.97190503 -71.15687895 317.29902061 -73.83984375 314.60546875 C-74.69823853 313.74538208 -74.69823853 313.74538208 -75.57397461 312.86791992 C-77.65017375 310.59469562 -77.94749896 309.30215045 -78.375 306.1875 C-77.84688429 301.58534885 -76.44103002 300.20594627 -73.15234375 297.1484375 C-71.69470998 295.41323227 -71.69470998 295.41323227 -72.09375 293.05859375 C-73.06410436 289.97232781 -74.22550051 287.03633213 -75.5 284.0625 C-76.18255859 282.45955078 -76.18255859 282.45955078 -76.87890625 280.82421875 C-77.22824219 280.01597656 -77.57757813 279.20773437 -77.9375 278.375 C-78.61296875 278.31441406 -79.2884375 278.25382813 -79.984375 278.19140625 C-80.87640625 278.10761719 -81.7684375 278.02382813 -82.6875 277.9375 C-84.01007813 277.81568359 -84.01007813 277.81568359 -85.359375 277.69140625 C-89.92845023 277.13065611 -89.92845023 277.13065611 -91.9375 276.375 C-93.1788597 272.6509209 -93.08060687 269.19055854 -93.0703125 265.3125 C-93.07174759 264.13095337 -93.07174759 264.13095337 -93.07321167 262.92553711 C-93.07389174 261.26122966 -93.07204953 259.59691953 -93.06787109 257.93261719 C-93.06252038 255.38470504 -93.06782192 252.83696917 -93.07421875 250.2890625 C-93.07355794 248.67187461 -93.07227671 247.05468683 -93.0703125 245.4375 C-93.07233673 244.67493896 -93.07436096 243.91237793 -93.07644653 243.12670898 C-93.06233094 239.94353084 -92.95159228 237.41727683 -91.9375 234.375 C-90.98488281 234.36984375 -90.03226563 234.3646875 -89.05078125 234.359375 C-85.04094218 234.11210846 -81.73080027 233.72267648 -77.9375 232.375 C-75.15230359 228.6632432 -74.10188388 224.82134827 -72.9375 220.375 C-72.28493412 218.70276198 -71.62041079 217.03507683 -70.9375 215.375 C-74.59732205 211.6658542 -78.26357848 207.96323822 -81.93603516 204.26660156 C-83.18523702 203.00732287 -84.43264056 201.74625764 -85.67822266 200.48339844 C-87.46571075 198.67173588 -89.25950227 196.86653161 -91.0546875 195.0625 C-91.61308319 194.49378174 -92.17147888 193.92506348 -92.74679565 193.33911133 C-94.10625885 191.9792535 -95.51756607 190.67158827 -96.9375 189.375 C-97.5975 189.375 -98.2575 189.375 -98.9375 189.375 C-111.59273633 210.09069155 -111.59273633 210.09069155 -115.9375 233.375 C-115.18984375 233.73851562 -114.4421875 234.10203125 -113.671875 234.4765625 C-106.42601578 238.17536498 -102.72808365 240.94117381 -99.625 248.625 C-98.33872432 255.64104918 -98.98473691 262.30468525 -102.9375 268.375 C-106.65074239 272.83089086 -110.73608281 275.06469311 -115.9375 277.375 C-114.38481151 302.73557872 -96.84067595 328.29346958 -78.37890625 344.765625 C-63.56677496 357.32453931 -41.91520156 371.375 -21.9375 371.375 C-21.57398438 370.62734375 -21.21046875 369.8796875 -20.8359375 369.109375 C-17.13713502 361.86351578 -14.37132619 358.16558365 -6.6875 355.0625 C0.32854918 353.77622432 6.99218525 354.42223691 13.0625 358.375 C17.51839086 362.08824239 19.75219311 366.17358281 22.0625 371.375 C47.42307872 369.82231151 72.98096958 352.27817595 89.453125 333.81640625 C102.01203931 319.00427496 116.0625 297.35270156 116.0625 277.375 C115.31484375 277.01148438 114.5671875 276.64796875 113.796875 276.2734375 C106.55101578 272.57463502 102.85308365 269.80882619 99.75 262.125 C98.46372432 255.10895082 99.10973691 248.44531475 103.0625 242.375 C106.77574239 237.91910914 110.86108281 235.68530689 116.0625 233.375 C114.50981151 208.01442128 96.96567595 182.45653042 78.50390625 165.984375 C63.69177496 153.42546069 42.04020156 139.375 22.0625 139.375 C21.69898438 140.12265625 21.33546875 140.8703125 20.9609375 141.640625 C17.26213502 148.88648422 14.49632619 152.58441635 6.8125 155.6875 C-0.20354918 156.97377568 -6.86718525 156.32776309 -12.9375 152.375 C-17.39339086 148.66175761 -19.62719311 144.57641719 -21.9375 139.375 C-26.70130125 138.99915769 -30.79821049 140.36886277 -35.25 141.875 Z M-150.9375 160.375 C-151.4855127 161.30973145 -152.03352539 162.24446289 -152.59814453 163.20751953 C-154.30494486 166.25117084 -155.91576288 169.32837828 -157.5 172.4375 C-158.0679126 173.54802734 -158.6358252 174.65855469 -159.22094727 175.80273438 C-166.58362653 190.40281589 -171.11799914 204.88655556 -174.8359375 220.78515625 C-175.04911621 221.69402588 -175.26229492 222.60289551 -175.48193359 223.53930664 C-176.12255712 227.04822049 -176.12255712 227.04822049 -175.9375 233.375 C-162.0775 233.375 -148.2175 233.375 -133.9375 233.375 C-132.885625 229.6625 -131.83375 225.95 -130.75 222.125 C-126.64315859 207.95071947 -121.72042586 191.80884953 -112.1328125 180.1875 C-110.74443738 178.48589734 -110.74443738 178.48589734 -111.07788086 176.5847168 C-112.93325147 171.81534462 -117.30705582 168.32625729 -120.86303711 164.72875977 C-122.36062876 163.20214971 -123.82310808 161.64664609 -125.28710938 160.08789062 C-129.40186546 155.82782932 -133.24324404 151.85434863 -139.22265625 150.63671875 C-145.62771546 150.71568349 -147.98107609 155.27688658 -150.9375 160.375 Z M-5.9375 178.375 C-6.02 179.7775 -6.1025 181.18 -6.1875 182.625 C-6.36373016 185.62091268 -6.70718532 187.06177203 -8.5 189.5 C-11.64095375 191.91611827 -14.94476582 193.00005721 -18.6875 194.125 C-19.38488281 194.34542969 -20.08226562 194.56585938 -20.80078125 194.79296875 C-22.50958008 195.33135742 -24.22310368 195.85471057 -25.9375 196.375 C-24.02158569 200.30811044 -22.68145355 202.87903096 -18.9375 205.375 C-15.66991512 205.22439902 -12.61164066 204.63595385 -9.40234375 204.0078125 C5.47340813 201.29093335 19.60664877 205.0394049 32.0625 213.375 C42.29152138 221.22787477 50.09490108 234.0335331 51.88671875 246.96484375 C51.97373047 248.15787109 51.97373047 248.15787109 52.0625 249.375 C52.13082031 250.30441406 52.19914063 251.23382813 52.26953125 252.19140625 C52.80660204 267.44819494 47.9303589 281.34119575 37.625 292.6875 C29.3181771 300.46167166 17.51690011 306.53958994 6.0625 307.375 C5.13308594 307.44332031 4.20367187 307.51164063 3.24609375 307.58203125 C-12.01069494 308.11910204 -25.90369575 303.2428589 -37.25 292.9375 C-47.76984752 281.69687989 -52.26559248 267.6824531 -52.16796875 252.53125 C-51.91775572 249.10460369 -51.22725021 245.91785549 -50.5 242.5625 C-49.66437382 238.08317568 -49.66437382 238.08317568 -51.29296875 234 C-53.08699397 232.16528555 -54.73617865 230.69100733 -56.9375 229.375 C-57.5975 229.375 -58.2575 229.375 -58.9375 229.375 C-59.33582031 230.57898438 -59.73414063 231.78296875 -60.14453125 233.0234375 C-60.6791454 234.59914236 -61.21433146 236.17465327 -61.75 237.75 C-62.01103516 238.5440625 -62.27207031 239.338125 -62.54101562 240.15625 C-62.80205078 240.91679687 -63.06308594 241.67734375 -63.33203125 242.4609375 C-63.68551636 243.5135376 -63.68551636 243.5135376 -64.04614258 244.58740234 C-64.9375 246.375 -64.9375 246.375 -67.9375 248.375 C-70.93048757 248.922939 -73.90061149 249.11092274 -76.9375 249.375 C-76.9375 253.335 -76.9375 257.295 -76.9375 261.375 C-74.72395833 261.50520833 -72.51041667 261.63541667 -70.296875 261.765625 C-67.08871918 262.59422154 -65.96128702 263.75773957 -63.9375 266.375 C-62.6640625 269.66015625 -62.6640625 269.66015625 -61.5625 273.4375 C-59.74122042 279.43044998 -57.42150436 284.57304847 -54.07421875 289.91015625 C-52.67041084 292.95415211 -52.60113088 295.05615802 -52.9375 298.375 C-54.21504554 300.4110882 -55.54449818 302.41609119 -56.9375 304.375 C-57.28259128 307.38295167 -57.28259128 307.38295167 -55.40625 308.98046875 C-54.7565625 309.50253906 -54.106875 310.02460938 -53.4375 310.5625 C-52.7878125 311.09230469 -52.138125 311.62210938 -51.46875 312.16796875 C-50.9634375 312.56628906 -50.458125 312.96460938 -49.9375 313.375 C-49.15375 312.735625 -48.37 312.09625 -47.5625 311.4375 C-43.73759793 308.4322198 -41.80789633 307.9435896 -36.9375 308.375 C-34.27104017 309.39977988 -31.81309909 310.75054865 -29.3125 312.125 C-23.40065644 315.2522597 -17.66440182 317.68151925 -11.1953125 319.48828125 C-8.9375 320.375 -8.9375 320.375 -6.9375 323.375 C-6.389561 326.36798757 -6.20157726 329.33811149 -5.9375 332.375 C-1.9775 332.375 1.9825 332.375 6.0625 332.375 C6.145 330.9725 6.2275 329.57 6.3125 328.125 C6.49075394 325.09468303 6.83389343 323.6809212 8.66796875 321.2265625 C11.68869215 318.89079922 14.46331816 318.06783276 18.125 317 C24.11794998 315.17872042 29.26054847 312.85900436 34.59765625 309.51171875 C37.64165211 308.10791084 39.74365802 308.03863088 43.0625 308.375 C45.0985882 309.65254554 47.10359119 310.98199818 49.0625 312.375 C52.07045167 312.72009128 52.07045167 312.72009128 53.66796875 310.84375 C54.45107422 309.86921875 54.45107422 309.86921875 55.25 308.875 C55.77980469 308.2253125 56.30960938 307.575625 56.85546875 306.90625 C57.45294922 306.14828125 57.45294922 306.14828125 58.0625 305.375 C57.423125 304.59125 56.78375 303.8075 56.125 303 C53.1197198 299.17509793 52.6310896 297.24539633 53.0625 292.375 C54.08727988 289.70854017 55.43804865 287.25059909 56.8125 284.75 C59.9397597 278.83815644 62.36901925 273.10190182 64.17578125 266.6328125 C65.0625 264.375 65.0625 264.375 68.0625 262.375 C71.05548757 261.827061 74.02561149 261.63907726 77.0625 261.375 C77.0625 257.415 77.0625 253.455 77.0625 249.375 C74.84895833 249.24479167 72.63541667 249.11458333 70.421875 248.984375 C67.21371918 248.15577846 66.08628702 246.99226043 64.0625 244.375 C62.7890625 241.08984375 62.7890625 241.08984375 61.6875 237.3125 C59.86622042 231.31955002 57.54650436 226.17695153 54.19921875 220.83984375 C52.79541084 217.79584789 52.72613088 215.69384198 53.0625 212.375 C54.34004554 210.3389118 55.66949818 208.33390881 57.0625 206.375 C57.40759128 203.36704833 57.40759128 203.36704833 55.53125 201.76953125 C54.8815625 201.24746094 54.231875 200.72539062 53.5625 200.1875 C52.58796875 199.39279297 52.58796875 199.39279297 51.59375 198.58203125 C50.83578125 197.98455078 50.83578125 197.98455078 50.0625 197.375 C49.27875 198.014375 48.495 198.65375 47.6875 199.3125 C43.86259793 202.3177802 41.93289633 202.8064104 37.0625 202.375 C34.39604017 201.35022012 31.93809909 199.99945135 29.4375 198.625 C23.52565644 195.4977403 17.78940182 193.06848075 11.3203125 191.26171875 C9.0625 190.375 9.0625 190.375 7.0625 187.375 C6.514561 184.38201243 6.32657726 181.41188851 6.0625 178.375 C2.1025 178.375 -1.8575 178.375 -5.9375 178.375 Z M-3.9375 219.375 C-3.1125 220.344375 -2.2875 221.31375 -1.4375 222.3125 C-0.89609375 222.95058594 -0.3546875 223.58867187 0.203125 224.24609375 C1.4945503 225.72472146 2.82045187 227.1736567 4.171875 228.59765625 C8.96552234 233.6974672 12.02201942 237.45256187 12.08203125 244.75 C11.69670709 251.58169319 10.2528263 257.38651067 5.1484375 262.16796875 C-0.23261971 266.17048657 -5.23139021 267.80867587 -11.9375 267.375 C-19.27609007 266.19253615 -23.70800955 262.39277019 -28.9375 257.375 C-30.26336822 256.2205368 -31.59625243 255.07405918 -32.9375 253.9375 C-33.9275 253.091875 -34.9175 252.24625 -35.9375 251.375 C-36.64615035 262.00475529 -33.81258394 271.25809426 -26.83984375 279.41015625 C-19.52376204 286.96660204 -10.58808615 291.36130613 0.0625 291.875 C10.08358806 291.37635838 19.00438397 287.46021052 26.0625 280.375 C32.95587861 272.3797558 36.80794523 263.67337973 36.40625 253.01171875 C34.95734718 241.8979755 29.93277981 233.19694845 21.375 226.0625 C13.73818127 220.74928697 5.23802801 218.76329813 -3.9375 219.375 Z M-196.9112854 251.70196533 C-198.22990468 253.49323805 -198.22990468 253.49323805 -197.75 256.5 C-197.481875 257.44875 -197.21375 258.3975 -196.9375 259.375 C-193.97070195 260.85839903 -190.94379548 260.53964506 -187.68969727 260.55200195 C-186.5699501 260.56185875 -186.5699501 260.56185875 -185.42758179 260.57191467 C-182.95302231 260.59165415 -180.47852346 260.60330994 -178.00390625 260.61328125 C-177.15997755 260.61735678 -176.31604885 260.6214323 -175.44654655 260.62563133 C-170.98218912 260.64649206 -166.51786244 260.66079533 -162.0534668 260.67016602 C-157.4350713 260.6812474 -152.81715538 260.7156668 -148.19892979 260.75533772 C-144.65336692 260.78143555 -141.10791969 260.78985159 -137.56226921 260.79344749 C-135.85936165 260.79832902 -134.15645979 260.80998731 -132.45364571 260.82848549 C-130.07360476 260.85273909 -127.69482299 260.85193819 -125.31469727 260.8449707 C-124.60861832 260.85778076 -123.90253937 260.87059082 -123.17506409 260.88378906 C-119.95207069 260.84931199 -118.33820502 260.74646053 -115.92955017 258.51359558 C-114.63619592 256.33160087 -114.63619592 256.33160087 -115.6875 253.6875 C-116.7397831 251.47744853 -116.7397831 251.47744853 -117.9375 250.375 C-120.3248069 250.26410145 -122.68346353 250.21761849 -125.07177734 250.21386719 C-125.81812943 250.20890228 -126.56448151 250.20393738 -127.33345032 250.19882202 C-129.81345527 250.1841639 -132.29339626 250.17739223 -134.7734375 250.171875 C-136.49118045 250.16612637 -138.20892337 250.1603686 -139.92666626 250.15460205 C-143.53314514 250.14408154 -147.13960167 250.13824582 -150.74609375 250.13476562 C-155.37227735 250.12927991 -159.99816675 250.10525479 -164.62425804 250.07679367 C-168.17411162 250.05818906 -171.72389405 250.05296285 -175.27379227 250.05142975 C-176.97947421 250.04839754 -178.68515474 250.04034996 -180.39078903 250.02724457 C-182.77556608 250.01022976 -185.15962083 250.01205285 -187.54443359 250.01855469 C-188.60590858 250.00473251 -188.60590858 250.00473251 -189.68882751 249.9906311 C-192.55572515 250.015173 -194.49630786 250.07838889 -196.9112854 251.70196533 Z M116.05455017 252.23640442 C114.76119592 254.41839913 114.76119592 254.41839913 115.8125 257.0625 C116.8647831 259.27255147 116.8647831 259.27255147 118.0625 260.375 C120.4498069 260.48589855 122.80846353 260.53238151 125.19677734 260.53613281 C125.94312943 260.54109772 126.68948151 260.54606262 127.45845032 260.55117798 C129.93845527 260.5658361 132.41839626 260.57260777 134.8984375 260.578125 C136.61618045 260.58387363 138.33392337 260.5896314 140.05166626 260.59539795 C143.65814514 260.60591846 147.26460167 260.61175418 150.87109375 260.61523438 C155.49727735 260.62072009 160.12316675 260.64474521 164.74925804 260.67320633 C168.29911162 260.69181094 171.84889405 260.69703715 175.39879227 260.69857025 C177.10447421 260.70160246 178.81015474 260.70965004 180.51578903 260.72275543 C182.90056608 260.73977024 185.28462083 260.73794715 187.66943359 260.73144531 C188.37708359 260.7406601 189.08473358 260.74987488 189.81382751 260.7593689 C192.68072515 260.734827 194.62130786 260.67161111 197.0362854 259.04803467 C198.35490468 257.25676195 198.35490468 257.25676195 197.875 254.25 C197.4728125 252.826875 197.4728125 252.826875 197.0625 251.375 C194.09570195 249.89160097 191.06879548 250.21035494 187.81469727 250.19799805 C186.6949501 250.18814125 186.6949501 250.18814125 185.55258179 250.17808533 C183.07802231 250.15834585 180.60352346 250.14669006 178.12890625 250.13671875 C177.28497755 250.13264322 176.44104885 250.1285677 175.57154655 250.12436867 C171.10718912 250.10350794 166.64286244 250.08920467 162.1784668 250.07983398 C157.5600713 250.0687526 152.94215538 250.0343332 148.32392979 249.99466228 C144.77836692 249.96856445 141.23291969 249.96014841 137.68726921 249.95655251 C135.98436165 249.95167098 134.28145979 249.94001269 132.57864571 249.92151451 C130.19860476 249.89726091 127.81982299 249.89806181 125.43969727 249.9050293 C124.73361832 249.89221924 124.02753937 249.87940918 123.30006409 249.86621094 C120.07707069 249.90068801 118.46320502 250.00353947 116.05455017 252.23640442 Z M-175.9375 277.375 C-175.98108894 283.41054753 -175.98108894 283.41054753 -175.0546875 289.0546875 C-174.86036133 289.89209473 -174.66603516 290.72950195 -174.46582031 291.59228516 C-174.25022461 292.46933105 -174.03462891 293.34637695 -173.8125 294.25 C-173.5865918 295.17474121 -173.36068359 296.09948242 -173.12792969 297.05224609 C-161.61876625 342.81337268 -132.95075383 382.58172957 -92.63623047 407.3503418 C-71.78664155 419.79099365 -46.58813453 431.375 -21.9375 431.375 C-21.9375 417.515 -21.9375 403.655 -21.9375 389.375 C-25.5675 388.364375 -29.1975 387.35375 -32.9375 386.3125 C-43.03516047 383.41554619 -52.51551204 380.00448889 -61.9375 375.375 C-63.35095703 374.70597656 -63.35095703 374.70597656 -64.79296875 374.0234375 C-93.89823537 359.32033383 -116.15660182 332.09080188 -126.91503906 301.60498047 C-128.53137769 296.66791162 -129.98532904 291.69304024 -131.31835938 286.67236328 C-132.15618979 283.56353672 -133.05296783 280.4708626 -133.9375 277.375 C-147.7975 277.375 -161.6575 277.375 -175.9375 277.375 Z M134.0625 277.375 C133.051875 281.005 132.04125 284.635 131 288.375 C128.10304619 298.47266047 124.69198889 307.95301204 120.0625 317.375 C119.39347656 318.78845703 119.39347656 318.78845703 118.7109375 320.23046875 C104.00783383 349.33573537 76.77830188 371.59410182 46.29248047 382.35253906 C41.35541162 383.96887769 36.38054024 385.42282904 31.35986328 386.75585938 C28.25103672 387.59368979 25.1583626 388.49046783 22.0625 389.375 C22.0625 403.235 22.0625 417.095 22.0625 431.375 C28.09804753 431.41858894 28.09804753 431.41858894 33.7421875 430.4921875 C34.57959473 430.29786133 35.41700195 430.10353516 36.27978516 429.90332031 C37.15683105 429.68772461 38.03387695 429.47212891 38.9375 429.25 C39.86224121 429.0240918 40.78698242 428.79818359 41.73974609 428.56542969 C87.50087268 417.05626625 127.26922957 388.38825383 152.0378418 348.07373047 C164.47849365 327.22414155 176.0625 302.02563453 176.0625 277.375 C162.2025 277.375 148.3425 277.375 134.0625 277.375 Z M-3.03114319 371.41491699 C-5.78812438 374.24959723 -5.49061408 376.99042254 -5.43920898 380.73632812 C-5.44461197 381.48297226 -5.45001495 382.22961639 -5.45558167 382.99888611 C-5.46809521 385.46840992 -5.45156163 387.9367738 -5.43359375 390.40625 C-5.43374868 392.12113506 -5.43523663 393.83602048 -5.43800354 395.55090332 C-5.4393887 399.14558382 -5.42681018 402.73986588 -5.40405273 406.33447266 C-5.37566754 410.9449803 -5.37840375 415.55482575 -5.39114285 420.16538239 C-5.39809387 423.70670235 -5.39031739 427.24786893 -5.37788582 430.78916931 C-5.37336569 432.48924675 -5.37303941 434.18934061 -5.37695122 435.88941956 C-5.37985785 438.26451435 -5.36338385 440.6386928 -5.34155273 443.01367188 C-5.34605438 443.71817978 -5.35055603 444.42268768 -5.35519409 445.14854431 C-5.31150332 448.00554773 -5.22857897 449.94343941 -3.6075592 452.34680176 C-1.81946522 453.66812566 -1.81946522 453.66812566 1.1875 453.1875 C2.610625 452.7853125 2.610625 452.7853125 4.0625 452.375 C5.54589903 449.40820195 5.22714506 446.38129548 5.23950195 443.12719727 C5.24607315 442.38069916 5.25264435 441.63420105 5.25941467 440.86508179 C5.27915415 438.39052231 5.29080994 435.91602346 5.30078125 433.44140625 C5.30485678 432.59747755 5.3089323 431.75354885 5.31313133 430.88404655 C5.33399206 426.41968912 5.34829533 421.95536244 5.35766602 417.4909668 C5.3687474 412.8725713 5.4031668 408.25465538 5.44283772 403.63642979 C5.46893555 400.09086692 5.47735159 396.54541969 5.48094749 392.99976921 C5.48582902 391.29686165 5.49748731 389.59395979 5.51598549 387.89114571 C5.54023909 385.51110476 5.53943819 383.13232299 5.5324707 380.75219727 C5.54528076 380.04611832 5.55809082 379.34003937 5.57128906 378.61256409 C5.53661108 375.37078928 5.46380665 373.78825533 3.15812683 371.41392517 C0.4532607 370.07296434 -0.32724235 370.07188374 -3.03114319 371.41491699 Z " fill="#000000" transform="translate(255.9375,0.625)"/>
<path d="M0 0 C23.12005455 24.03268828 34.18506931 65.12493901 40 97 C40.16371094 97.83031738 40.32742188 98.66063477 40.49609375 99.51611328 C45.83925689 127.28621012 45.76290036 160.31426035 40 188 C39.80132324 188.97630371 39.60264648 189.95260742 39.39794922 190.95849609 C27.24805736 249.03224888 -3.50259009 304.39649145 -51 341 C-52.27535615 342.01485065 -53.55004693 343.0305378 -54.82421875 344.046875 C-64.74819032 351.88599815 -75.02823048 358.71957402 -86 365 C-86.67434082 365.3913916 -87.34868164 365.7827832 -88.04345703 366.18603516 C-114.02176526 381.13359323 -143.43239515 390.52394635 -173 395 C-174.11882568 395.17732666 -175.23765137 395.35465332 -176.39038086 395.53735352 C-188.11235947 397.21876341 -199.73498976 397.35734341 -211.5625 397.3125 C-212.58290375 397.31034485 -213.6033075 397.3081897 -214.65463257 397.30596924 C-229.28210524 397.25633352 -243.63263838 397.00919712 -258 394 C-259.46228027 393.70198486 -259.46228027 393.70198486 -260.95410156 393.39794922 C-304.60001751 384.26800597 -347.64057686 365.6123865 -380.28515625 334.57421875 C-381.92752497 332.92148132 -381.92752497 332.92148132 -384 332 C-383.93941406 332.62455078 -383.87882812 333.24910156 -383.81640625 333.89257812 C-383.5403579 336.76135752 -383.27014156 339.6306586 -383 342.5 C-382.90460938 343.48226563 -382.80921875 344.46453125 -382.7109375 345.4765625 C-381.30426674 360.54803493 -381.30426674 360.54803493 -383.4375 365 C-386.6788065 367.52980019 -388.76994485 367.59537577 -392.78125 367.6640625 C-396.10739861 366.66856028 -397.10164301 364.86065998 -399 362 C-399.71362305 358.68530273 -399.71362305 358.68530273 -400.01171875 354.93359375 C-400.07027542 354.25885513 -400.12883209 353.58411652 -400.18916321 352.88893127 C-400.37186404 350.73944317 -400.53011045 348.58897411 -400.6875 346.4375 C-400.80371645 345.02004836 -400.92154161 343.60272766 -401.04101562 342.18554688 C-401.27157831 339.41851368 -401.4917218 336.65099771 -401.70166016 333.88232422 C-401.97006495 330.38954761 -402.26347926 326.90007099 -402.56640625 323.41015625 C-402.91118488 319.27175838 -403.18768663 315.15422474 -403.25 311 C-403.27578125 309.948125 -403.3015625 308.89625 -403.328125 307.8125 C-402.95318346 304.59871535 -402.26033463 303.28145925 -400 301 C-396.23408927 299.74469642 -392.90238001 300.03013643 -389 300.25 C-388.16073975 300.29592285 -387.32147949 300.3418457 -386.45678711 300.38916016 C-377.94529902 300.89153579 -369.44059569 301.51363745 -360.94116211 302.18835449 C-359.36010487 302.31241466 -357.77871541 302.43231359 -356.19702148 302.54797363 C-353.94392148 302.71448859 -351.69281462 302.89807622 -349.44140625 303.0859375 C-348.12857666 303.1895459 -346.81574707 303.2931543 -345.46313477 303.39990234 C-341.9272106 304.01261307 -339.85649957 304.86469092 -337 307 C-335.43064406 310.13871188 -335.64798897 312.53855822 -336 316 C-337.75 318.9375 -337.75 318.9375 -341 321 C-345.02962466 321.56911907 -348.9504975 321.27054866 -353 321 C-354.52073971 320.91752602 -356.04158017 320.83689527 -357.5625 320.7578125 C-361.71051831 320.53464326 -365.85511185 320.27501628 -370 320 C-334.8603803 349.68196759 -294.42559078 369.18707495 -249 377 C-247.76378906 377.21527344 -246.52757812 377.43054688 -245.25390625 377.65234375 C-185.97641715 386.7058733 -122.07642478 370.84209281 -73.71850586 335.51660156 C-70.43561246 333.06518507 -67.20878491 330.54736647 -64 328 C-63.45069824 327.5678418 -62.90139648 327.13568359 -62.33544922 326.69042969 C-47.18916427 314.67577294 -33.26853842 300.7212184 -22 285 C-21.55108398 284.37947754 -21.10216797 283.75895508 -20.63964844 283.11962891 C0.74404358 253.37522711 14.75300547 220.96924953 22 185 C22.17789062 184.15630859 22.35578125 183.31261719 22.5390625 182.44335938 C28.25824937 154.2332432 26.92443187 122.03232405 21 94 C20.81276367 93.09749512 20.62552734 92.19499023 20.43261719 91.26513672 C14.56848873 63.84349978 3.58594562 36.22266842 -12.00292969 12.83935547 C-13.66977416 9.7644274 -13.58490651 7.37945986 -13 4 C-9.03307175 -1.02477578 -6.16934155 -1.56847667 0 0 Z " fill="#000000" transform="translate(468,114)"/>
</svg>
