<?xml version="1.0" encoding="UTF-8"?>
<svg version="1.1" xmlns="http://www.w3.org/2000/svg" width="512" height="512">
<path d="M0 0 C0.6581369 0.00021149 1.3162738 0.00042297 1.99435425 0.00064087 C32.17656822 0.09717784 58.35729404 12.09453488 80.125 32.625 C101.07775389 54.55139487 112.08671876 83.30641803 111.72070312 113.54541016 C111.00046399 140.0141985 101.32703183 161.34722208 86.14453125 182.58203125 C75.11191914 198.09368543 68.75399191 214.02075577 66.60083008 232.90454102 C65.95218263 237.98913504 64.83986199 241.34478562 61.4375 245.375 C60.14875977 245.97526001 60.14875977 245.97526001 58.83398438 246.58764648 C56.0870467 248.21348143 56.0870467 248.21348143 55.84155273 251.61791992 C55.85130127 252.93381104 55.8610498 254.24970215 55.87109375 255.60546875 C55.86545914 256.31472 55.85982452 257.02397125 55.85401917 257.75471497 C55.83755606 260.02464589 55.85308873 262.29263692 55.875 264.5625 C56.00969569 282.7503223 56.00969569 282.7503223 51.4375 289.375 C46.81533002 293.56720068 42.44038137 294.10820527 36.4375 294.375 C36.375625 295.32375 36.31375 296.2725 36.25 297.25 C34.79822981 306.85104017 28.94726387 314.51738418 21.4375 320.375 C12.11371425 325.72659758 2.79280373 327.91837908 -7.8203125 325.69140625 C-19.18966874 322.51273473 -26.08761814 317.21613344 -32.5625 307.375 C-34.66228713 303.5215445 -35.7578156 299.67640391 -36.5625 295.375 C-37.21476562 295.21644531 -37.86703125 295.05789063 -38.5390625 294.89453125 C-44.96925584 293.17791621 -49.78617529 291.39670126 -53.70654297 285.71777344 C-54.95926789 282.28903746 -54.80770159 278.92841406 -54.7578125 275.328125 C-54.7549826 274.55692322 -54.75215271 273.78572144 -54.74923706 272.9911499 C-54.73807013 270.53560668 -54.71297229 268.0804324 -54.6875 265.625 C-54.67746568 263.95703653 -54.66834061 262.28906732 -54.66015625 260.62109375 C-54.63814225 256.53892103 -54.60363667 252.457023 -54.5625 248.375 C-55.33207031 248.09398437 -56.10164063 247.81296875 -56.89453125 247.5234375 C-60.57960017 245.93718529 -62.71207075 243.87025526 -64.5625 240.375 C-65.27160929 237.58344318 -65.66615369 234.82270746 -66.0546875 231.96875 C-69.08992183 210.48863009 -76.76236053 194.28177659 -89.625 176.875 C-107.59787161 152.16230153 -114.17191804 123.10405034 -109.87109375 92.85546875 C-105.14798274 65.03519295 -89.76903793 38.43949199 -66.890625 21.58203125 C-46.61281376 7.35374942 -24.78496401 -0.03307812 0 0 Z M-68.5625 46.375 C-69.22894531 47.04144531 -69.89539063 47.70789063 -70.58203125 48.39453125 C-84.02020168 62.80340473 -92.37661006 82.80781604 -93.5625 102.375 C-87.2925 102.375 -81.0225 102.375 -74.5625 102.375 C-74.02625 100.704375 -73.49 99.03375 -72.9375 97.3125 C-70.61368638 91.0349757 -68.18724064 86.41847794 -62.234375 83.0625 C-54.35374643 79.58148615 -47.78185789 79.38972667 -39.66796875 82.40625 C-33.15582139 85.4025627 -30.10868622 89.97481372 -27.5625 96.375 C-26.9025 98.355 -26.2425 100.335 -25.5625 102.375 C-19.9525 102.375 -14.3425 102.375 -8.5625 102.375 C-8.48902344 99.19617188 -8.48902344 99.19617188 -8.4140625 95.953125 C-8.36000976 93.89446114 -8.3027193 91.835911 -8.24511719 89.77734375 C-8.20689976 88.34969602 -8.17203428 86.92195437 -8.140625 85.49414062 C-8.09481599 83.43846132 -8.0368502 81.38342446 -7.9765625 79.328125 C-7.92943115 77.47429199 -7.92943115 77.47429199 -7.88134766 75.58300781 C-7.58368723 72.58817018 -7.23053431 70.84555815 -5.5625 68.375 C-1.8079809 66.49774045 2.93823893 67.6046852 7.0546875 67.828125 C10.58171677 67.69195383 10.58171677 67.69195383 12.8828125 65.0546875 C14.69887047 62.44083515 14.69887047 62.44083515 14.4375 59.25 C13.26004353 55.86481266 12.52167257 55.11465807 9.4375 53.375 C6.25938626 53.08732019 6.25938626 53.08732019 2.875 53.3125 C-3.24956759 53.58362161 -3.24956759 53.58362161 -6.5625 51.375 C-7.72652727 47.88291819 -7.77368508 44.98352228 -7.87890625 41.30078125 C-7.89968735 40.6169487 -7.92046844 39.93311615 -7.94187927 39.2285614 C-8.00716154 37.0483079 -8.06616017 34.86793595 -8.125 32.6875 C-8.16820553 31.20767014 -8.21182047 29.72785217 -8.25585938 28.24804688 C-8.36282083 24.62382378 -8.46414823 20.99946811 -8.5625 17.375 C-31.77414387 17.0089309 -52.72492647 30.53742647 -68.5625 46.375 Z M8.4375 17.375 C8.4375 23.645 8.4375 29.915 8.4375 36.375 C9.96375 36.7875 11.49 37.2 13.0625 37.625 C20.29425051 39.82108243 24.68232785 42.66933544 28.4375 49.375 C31.34246185 55.76591607 31.488112 62.98696329 29.25 69.625 C26.51870902 75.89685337 22.66401773 79.66106837 16.59765625 82.61328125 C14.4375 83.375 14.4375 83.375 8.4375 84.375 C8.4375 90.315 8.4375 96.255 8.4375 102.375 C10.62890625 102.40078125 12.8203125 102.4265625 15.078125 102.453125 C17.20634672 102.49156579 19.3343278 102.53671895 21.46240234 102.58251953 C22.93852196 102.61070088 24.41479169 102.63192966 25.89111328 102.64599609 C28.01673057 102.66746698 30.14054879 102.71413043 32.265625 102.765625 C33.5434082 102.78657227 34.82119141 102.80751953 36.13769531 102.82910156 C39.95202642 103.46011994 41.1841014 104.28073918 43.4375 107.375 C43.72265625 110.46875 43.72265625 110.46875 43.5 113.875 C43.1299137 118.52131061 43.1299137 118.52131061 44.78515625 122.72265625 C46.99615395 124.93365395 48.32043213 125.3007841 51.4375 125.375 C55.15011227 123.62386475 55.15011227 123.62386475 57.4375 120.375 C57.38882091 117.09137379 57.24122075 113.8191066 57.08203125 110.5390625 C57.4375 107.375 57.4375 107.375 58.99780273 105.21533203 C62.34123463 102.69328764 64.66681014 102.83167762 68.828125 102.765625 C69.88504547 102.74082062 69.88504547 102.74082062 70.96331787 102.71551514 C73.20480102 102.66708861 75.44560613 102.64567813 77.6875 102.625 C79.21097151 102.59683552 80.73441152 102.56690741 82.2578125 102.53515625 C85.98422756 102.46133407 89.7105138 102.41172531 93.4375 102.375 C93.72528822 80.7844523 81.59115829 59.9015881 67.4375 44.375 C64.90251568 41.84497651 62.2647011 39.57155889 59.4375 37.375 C58.36822266 36.53388672 58.36822266 36.53388672 57.27734375 35.67578125 C43.35449959 25.33243292 25.99023589 17.375 8.4375 17.375 Z M-56.5625 99.375 C-57.54348187 103.08871709 -57.69085965 105.73320173 -56.9375 109.5 C-56.5625 112.375 -56.5625 112.375 -57.875 115.1875 C-59.5625 117.375 -59.5625 117.375 -61.5625 118.375 C-63.96810273 118.53108023 -66.34952772 118.63304458 -68.7578125 118.69140625 C-69.46525604 118.71218735 -70.17269958 118.73296844 -70.90158081 118.75437927 C-73.16345425 118.81981078 -75.42544462 118.87872974 -77.6875 118.9375 C-79.22006422 118.98069133 -80.75261657 119.02430582 -82.28515625 119.06835938 C-86.04415073 119.17548555 -89.80326292 119.2767709 -93.5625 119.375 C-92.0282499 139.05529028 -84.59644969 156.30007581 -72.23486328 171.6315918 C-58.03829123 189.38423607 -52.69163731 210.35293433 -48.5625 232.375 C-35.3625 232.375 -22.1625 232.375 -8.5625 232.375 C-8.5625 216.865 -8.5625 201.355 -8.5625 185.375 C-12.1925 184.055 -15.8225 182.735 -19.5625 181.375 C-25.41229459 177.56799082 -27.88293298 173.97237157 -29.9609375 167.3046875 C-31.41446276 160.22583073 -30.44072008 154.36954904 -27.0625 148 C-23.83990397 143.12737283 -20.04659435 140.34013381 -14.5625 138.375 C-12.5825 138.045 -10.6025 137.715 -8.5625 137.375 C-8.5625 131.435 -8.5625 125.495 -8.5625 119.375 C-10.68171875 119.31441406 -12.8009375 119.25382812 -14.984375 119.19140625 C-17.04300262 119.12954957 -19.10157888 119.06618983 -21.16015625 119.00268555 C-22.58784388 118.95944682 -24.01557954 118.91776415 -25.44335938 118.87768555 C-27.49884496 118.81971398 -29.55409128 118.75609825 -31.609375 118.69140625 C-32.84526367 118.65474854 -34.08115234 118.61809082 -35.35449219 118.58032227 C-37.93437658 118.41520181 -40.10605106 118.1285613 -42.5625 117.375 C-43.73162752 109.11916107 -43.73162752 109.11916107 -42.9375 105.625 C-42.32095705 103.23243585 -42.32095705 103.23243585 -43.8125 100.6875 C-45.52296254 98.16392598 -45.52296254 98.16392598 -48.5625 96.375 C-52.28777067 96.375 -53.68325508 97.02614231 -56.5625 99.375 Z M8.4375 119.375 C8.41171875 121.56640625 8.3859375 123.7578125 8.359375 126.015625 C8.32093421 128.14384672 8.27578105 130.2718278 8.22998047 132.39990234 C8.20179912 133.87602196 8.18057034 135.35229169 8.16650391 136.82861328 C8.14503302 138.95423057 8.09836957 141.07804879 8.046875 143.203125 C8.0154541 145.1197998 8.0154541 145.1197998 7.98339844 147.07519531 C7.35238006 150.88952642 6.53176082 152.1216014 3.4375 154.375 C0.34375 154.66015625 0.34375 154.66015625 -3.0625 154.4375 C-7.69791458 154.08462081 -7.69791458 154.08462081 -11.93359375 155.65625 C-13.89810629 157.40687953 -13.89810629 157.40687953 -14.125 160.8125 C-13.89763288 164.44592448 -13.89763288 164.44592448 -11.44140625 166.59765625 C-7.91307099 168.7759365 -6.02887683 168.67597485 -1.9375 168.375 C1.4765625 168.125 1.4765625 168.125 4.4375 168.375 C7.58501899 171.49398707 7.82442953 174.01069129 7.86987305 178.33691406 C7.89956429 180.13832855 7.89956429 180.13832855 7.92985535 181.97613525 C7.93624527 183.26791687 7.94263519 184.55969849 7.94921875 185.890625 C7.96607008 187.23013961 7.98422094 188.56963846 8.00361633 189.90911865 C8.05107396 193.42715527 8.08091028 196.94512795 8.10705566 200.46337891 C8.13688288 204.05644266 8.18324482 207.6492906 8.22851562 211.2421875 C8.31606025 218.28647568 8.37603852 225.33024244 8.4375 232.375 C21.9675 232.375 35.4975 232.375 49.4375 232.375 C49.994375 229.054375 50.55125 225.73375 51.125 222.3125 C54.80351837 201.74788824 62.26160885 184.72744212 75.04931641 168.25415039 C85.80073305 154.25314827 93.4375 137.22294135 93.4375 119.375 C87.1675 119.375 80.8975 119.375 74.4375 119.375 C74.086875 120.86 73.73625 122.345 73.375 123.875 C71.31046664 130.74054727 67.50144444 135.21631187 61.6875 139.3125 C54.60073591 141.62932672 47.60681785 142.29331226 40.57421875 139.515625 C33.93189685 135.96981514 29.69251422 131.53798634 27.4375 124.375 C26.9425 121.9 26.9425 121.9 26.4375 119.375 C20.4975 119.375 14.5575 119.375 8.4375 119.375 Z M-37.5625 249.375 C-37.5625 258.615 -37.5625 267.855 -37.5625 277.375 C-12.4825 277.375 12.5975 277.375 38.4375 277.375 C38.4375 268.135 38.4375 258.895 38.4375 249.375 C13.3575 249.375 -11.7225 249.375 -37.5625 249.375 Z M-18.5625 294.375 C-17.53526047 299.51119763 -17.17745628 300.84821339 -13.5625 304.375 C-8.10304202 307.84660655 -3.15920636 310.37072926 3.4375 309.375 C8.67823588 307.62808804 12.52871237 305.28378763 16.4375 301.375 C17.4275 299.065 18.4175 296.755 19.4375 294.375 C6.8975 294.375 -5.6425 294.375 -18.5625 294.375 Z " fill="#000000" transform="translate(369.5625,11.625)"/>
<path d="M0 0 C19.33102526 11.14148652 40.15383777 18.85064535 61.33203125 25.70703125 C62.00504776 25.92612656 62.67806427 26.14522186 63.37147522 26.37095642 C66.62980037 27.43026368 69.89090109 28.4725866 73.16333008 29.48803711 C85.12412078 33.32332156 93.3847702 38.18080323 99.50390625 49.3515625 C100.45918627 51.23549452 101.36049172 53.14663602 102.25 55.0625 C124.82648975 43.58864871 145.31413839 29.0714001 165.56835938 13.95751953 C176.73773932 5.65339175 186.63798826 -1.64418297 201.25 0.0625 C209.58455755 1.85144829 216.74910925 5.45526942 221.625 12.5625 C226.46166833 20.23632015 228.29258451 28.54808599 226.6875 37.5625 C222.67832637 52.38589196 210.9384239 63.72617017 200.34863281 74.22460938 C198.87587477 75.68663161 197.41414955 77.15907488 195.953125 78.6328125 C189.71745687 84.87767951 183.16506071 90.57465607 176.25 96.0625 C174.94510615 97.13591541 173.64271362 98.2123846 172.34375 99.29296875 C162.26225794 107.61113176 151.87894541 115.45796498 141.25 123.0625 C140.4353125 123.64628418 139.620625 124.23006836 138.78125 124.83154297 C112.45967177 143.57837905 82.71041369 154.73693304 50.25 157.0625 C49.44062988 157.12276367 48.63125977 157.18302734 47.79736328 157.24511719 C-2.64739407 160.77559641 -51.69829859 149.13390864 -97.37890625 128.14648438 C-100.87698317 126.54728117 -104.40356387 125.01791016 -107.9375 123.5 C-108.98292969 123.04496094 -110.02835938 122.58992187 -111.10546875 122.12109375 C-121.76226071 117.85522873 -132.26052936 120.26679913 -142.75 124.0625 C-145.26543389 125.25190644 -147.43029944 126.51603296 -149.75 128.0625 C-149.36585938 128.93132812 -148.98171875 129.80015625 -148.5859375 130.6953125 C-148.10382813 131.84773437 -147.62171875 133.00015625 -147.125 134.1875 C-146.63773437 135.32445312 -146.15046875 136.46140625 -145.6484375 137.6328125 C-144.57985431 141.71201269 -144.82288773 143.34224584 -146.75 147.0625 C-150.79322027 150.79153495 -155.34679732 153.06378564 -160.234375 155.46875 C-161.45691986 156.07861755 -161.45691986 156.07861755 -162.7041626 156.70080566 C-164.42409666 157.55742236 -166.14546316 158.41116829 -167.86816406 159.26220703 C-170.48031539 160.55277456 -173.08815592 161.8517203 -175.6953125 163.15234375 C-177.37475337 163.98747533 -179.05443336 164.82212623 -180.734375 165.65625 C-181.88797516 166.22986267 -181.88797516 166.22986267 -183.06488037 166.81506348 C-186.86918701 168.69265261 -190.69106762 170.5306971 -194.54394531 172.30664062 C-195.24787415 172.63233032 -195.95180298 172.95802002 -196.67706299 173.2935791 C-200.28997069 174.63372606 -202.92236614 174.5815012 -206.75 174.0625 C-209.95029864 171.41531613 -211.60680265 168.75272478 -213.28125 164.98828125 C-213.75175781 163.94929687 -214.22226563 162.9103125 -214.70703125 161.83984375 C-215.21621094 160.69644531 -215.72539062 159.55304688 -216.25 158.375 C-217.39914912 155.83658106 -218.55773636 153.30254299 -219.71875 150.76953125 C-220.03094482 150.08750641 -220.34313965 149.40548157 -220.66479492 148.70278931 C-224.86340833 139.57752668 -229.32236328 130.57810569 -233.75 121.5625 C-240.04408866 108.72995893 -246.2573461 95.87484604 -252.2019043 82.87597656 C-254.85734483 77.08149884 -257.58411512 71.33559427 -260.4296875 65.6328125 C-261.04322121 64.39445323 -261.6565857 63.15601012 -262.26977539 61.91748047 C-263.42681699 59.58150803 -264.60230535 57.25851081 -265.79077148 54.93798828 C-270.96301834 44.50355643 -270.96301834 44.50355643 -269.75 38.0625 C-265.53958237 32.69748786 -259.78805326 30.25653029 -253.75390625 27.32421875 C-252.68760483 26.79858841 -251.62130341 26.27295807 -250.52268982 25.73139954 C-248.27340976 24.62628488 -246.02155919 23.52638867 -243.76733398 22.43139648 C-240.32032414 20.75380785 -236.88553695 19.052907 -233.45117188 17.34960938 C-231.26111425 16.27722004 -229.07038097 15.2062092 -226.87890625 14.13671875 C-225.85374405 13.62743332 -224.82858185 13.11814789 -223.77235413 12.59342957 C-222.80792892 12.12906998 -221.84350372 11.66471039 -220.84985352 11.1862793 C-220.00777847 10.7750029 -219.16570343 10.3637265 -218.29811096 9.93998718 C-215.26478782 8.89540858 -212.93807587 8.76577739 -209.75 9.0625 C-205.58561286 12.28043552 -204.25322278 15.12919615 -202.75 20.0625 C-201.63625 19.4334375 -200.5225 18.804375 -199.375 18.15625 C-135.04929469 -18.00430559 -67.41390109 -39.33781003 0 0 Z M-106.75 -1.9375 C-107.53536133 -1.73882324 -108.32072266 -1.54014648 -109.12988281 -1.33544922 C-138.85312259 6.31012402 -167.98867191 18.24422363 -193.75 35.0625 C-193.18599503 40.41216048 -191.33500596 44.4645867 -188.953125 49.1953125 C-188.56758957 49.97749649 -188.18205414 50.75968048 -187.78483582 51.56556702 C-186.95815672 53.24125726 -186.12807045 54.91527018 -185.29489136 56.58773804 C-183.11417881 60.96596908 -180.95837806 65.3564375 -178.80078125 69.74609375 C-178.15382042 71.06015953 -178.15382042 71.06015953 -177.49378967 72.40077209 C-172.0918335 83.39644829 -166.96237408 94.51568291 -161.86889648 105.65698242 C-160.86614234 107.81280537 -159.82591798 109.9424266 -158.75 112.0625 C-156.09503296 111.00443195 -153.4456035 109.93654283 -150.8046875 108.84375 C-134.23748025 102.1680203 -117.6063621 100.54827826 -100.66845703 107.28881836 C-97.584838 108.70400705 -94.54066021 110.18232819 -91.5 111.6875 C-34.7555262 138.74829449 32.0695606 151.57345062 92.875 130.6875 C119.58605557 121.03665242 142.73993921 101.1762354 164.25 83.0625 C165.27841846 82.20805958 166.30707794 81.35390922 167.3359375 80.5 C174.71237894 74.34947126 181.86161487 67.98348811 188.84423828 61.38916016 C190.0659803 60.23616499 191.29595064 59.09190087 192.52734375 57.94921875 C198.8675957 51.88517579 208.3072447 42.70563618 209.5859375 33.6953125 C209.67485491 27.98681509 209.30561275 24.4382927 205.25 20.0625 C201.87107454 17.62653048 199.16355284 16.79835714 195.0625 16.9375 C185.95731042 18.41728205 178.81552047 25.37347957 171.75 30.875 C150.27017549 47.5972318 126.06590901 64.19937267 101 75.03515625 C98.75873696 76.35089772 97.87674314 77.77366384 96.5625 80 C96.14613281 80.68964844 95.72976563 81.37929688 95.30078125 82.08984375 C94.12001555 84.17427351 94.12001555 84.17427351 93.25 87.0625 C91.4921875 88.12109375 91.4921875 88.12109375 89.25 89.0625 C88.46882813 89.40410156 87.68765625 89.74570312 86.8828125 90.09765625 C86.05523437 90.43667969 85.22765625 90.77570313 84.375 91.125 C83.55257813 91.46660156 82.73015625 91.80820312 81.8828125 92.16015625 C49.28206705 103.33340877 -5.6345674 88.29317611 -35.97412109 75.0949707 C-37.75 74.0625 -37.75 74.0625 -38.75 72.0625 C-38.81996014 70.35547265 -38.83440154 68.64581997 -38.8125 66.9375 C-38.80347656 66.02742188 -38.79445312 65.11734375 -38.78515625 64.1796875 C-38.76775391 63.13167969 -38.76775391 63.13167969 -38.75 62.0625 C-30.13157133 59.18969044 -22.185403 62.11212715 -13.875 64.6875 C10.90419459 72.04845058 36.16715188 78.18917498 62.125 78.4375 C63.13006592 78.45151855 64.13513184 78.46553711 65.1706543 78.47998047 C72.10178857 78.43421492 77.28711647 77.71350105 82.625 72.9375 C84.84967831 69.00153068 85.44346361 65.56633275 85.25 61.0625 C83.65649329 55.75081097 81.41059311 52.66727917 77.25 49.0625 C74.70330641 47.9491563 72.36708215 47.06602619 69.73046875 46.265625 C69.0036087 46.0309552 68.27674866 45.7962854 67.52786255 45.55450439 C65.97395873 45.05411043 64.41792793 44.56028144 62.86001587 44.07250977 C58.75764897 42.78548459 54.67342474 41.44274015 50.5859375 40.109375 C49.77536392 39.84648682 48.96479034 39.58359863 48.12965393 39.31274414 C25.19834855 31.86495728 2.75794381 22.86112044 -17.77124023 10.08520508 C-35.31645765 -0.79860696 -53.90140384 -5.3407575 -74.375 -5.25 C-75.36861038 -5.24676727 -75.36861038 -5.24676727 -76.3822937 -5.24346924 C-86.81544346 -5.18908489 -96.62916294 -4.57802781 -106.75 -1.9375 Z M-224.84765625 32.5625 C-225.55651474 32.91763672 -226.26537323 33.27277344 -226.99571228 33.63867188 C-229.26891624 34.77808202 -231.54071688 35.92026 -233.8125 37.0625 C-235.34951803 37.83351546 -236.88662623 38.6043512 -238.42382812 39.375 C-242.20026984 41.26874619 -245.97545491 43.16497654 -249.75 45.0625 C-249.11947041 49.24873145 -247.69833788 52.56067032 -245.828125 56.34765625 C-245.38435768 57.25391502 -245.38435768 57.25391502 -244.93162537 58.17848206 C-244.29328056 59.48119338 -243.65244301 60.78268561 -243.0093689 62.08306885 C-241.27605999 65.58951478 -239.5622595 69.1054727 -237.84765625 72.62109375 C-237.49826492 73.336604 -237.1488736 74.05211426 -236.78889465 74.78930664 C-233.57859572 81.37949108 -230.49596203 88.02559579 -227.4375 94.6875 C-222.1677292 106.13527704 -216.70832281 117.48412333 -211.1875 128.8125 C-210.59985367 130.01848846 -210.59985367 130.01848846 -210.00033569 131.24884033 C-208.87491862 133.55700699 -207.74841029 135.86463551 -206.62109375 138.171875 C-206.28930115 138.85097931 -205.95750854 139.53008362 -205.61566162 140.22976685 C-203.35229258 144.85344104 -201.05709456 149.46048553 -198.75 154.0625 C-194.2751617 152.68152341 -190.21797526 150.91331321 -186.0390625 148.8046875 C-185.11956314 148.3428154 -185.11956314 148.3428154 -184.18148804 147.87161255 C-182.24406342 146.89734937 -180.3095124 145.91753083 -178.375 144.9375 C-177.05357212 144.2717647 -175.73195924 143.60639647 -174.41015625 142.94140625 C-171.18795475 141.31934177 -167.96830407 139.69228626 -164.75 138.0625 C-165.44609375 136.59683594 -165.44609375 136.59683594 -166.15625 135.1015625 C-166.85428868 133.63026621 -167.5521904 132.15890495 -168.25 130.6875 C-168.6430835 129.85879395 -169.03616699 129.03008789 -169.44116211 128.17626953 C-172.08920492 122.58689274 -174.7234192 116.99120397 -177.34765625 111.390625 C-185.13331347 94.78251374 -193.02293925 78.23079447 -201.0486908 61.73735046 C-201.36906815 61.07894669 -201.6894455 60.42054291 -202.01953125 59.7421875 C-202.33503433 59.09389481 -202.65053741 58.44560211 -202.9756012 57.77766418 C-207.61820352 48.23052591 -212.1866021 38.64769914 -216.75 29.0625 C-219.38433078 29.0625 -222.47646178 31.36809561 -224.84765625 32.5625 Z " fill="#000000" transform="translate(277.75,325.9375)"/>
</svg>
