<?xml version="1.0" encoding="UTF-8"?>
<svg version="1.1" xmlns="http://www.w3.org/2000/svg" width="512" height="512">
<path d="M0 0 C6.1972002 1.23886023 12.39939009 2.45214655 18.60294151 3.65873909 C20.7383931 4.0774111 22.87159073 4.50628077 25.00471497 4.93663025 C32.24638383 6.37351071 39.34334535 7.40812978 46.72648621 7.75184631 C54.61317176 8.53822329 61.89530743 12.56110674 67.53601074 18.03198242 C76.48017963 28.9637444 76.95010759 38.5354927 76.53601074 52.03198242 C77.14187012 52.21631836 77.74772949 52.4006543 78.37194824 52.59057617 C88.20107077 55.99296474 96.03548084 62.35775153 100.64147949 71.79760742 C103.83739096 79.78040812 103.77308826 87.51036261 103.53601074 96.03198242 C104.34425293 96.41870117 105.15249512 96.80541992 105.98522949 97.20385742 C107.0538623 97.72463867 108.12249512 98.24541992 109.22351074 98.78198242 C110.27925293 99.29245117 111.33499512 99.80291992 112.42272949 100.32885742 C120.76825073 104.89428686 126.3007049 112.18353933 129.07897949 121.28198242 C130.10603231 127.4618558 129.7427484 133.7915678 129.53601074 140.03198242 C130.15347168 140.22791992 130.77093262 140.42385742 131.40710449 140.62573242 C140.73870438 143.92090925 147.40323212 149.42739522 152.56335449 157.87963867 C156.56762228 166.74048827 157.12093605 177.17037848 154.59069824 186.52807617 C152.36315487 192.13896371 149.74348464 196.70429498 145.53601074 201.03198242 C151.34284293 208.15103469 157.89886518 214.50573054 164.41101074 220.96948242 C165.58832712 222.14177446 166.76541248 223.31429857 167.94226074 224.48706055 C170.80418564 227.33805225 173.66922531 230.18587857 176.53601074 233.03198242 C177.26046387 232.82049561 177.98491699 232.60900879 178.73132324 232.39111328 C189.88845937 229.22341638 199.99085871 228.29185191 210.53601074 234.03198242 C217.22966349 238.69639293 223.04262025 244.20175553 228.78601074 249.96948242 C229.95003418 251.10933594 229.95003418 251.10933594 231.13757324 252.2722168 C239.88068186 261.00786542 245.00138646 269.43361151 245.70397949 282.04760742 C245.21076962 296.00362009 237.02527222 305.43339959 227.53283691 314.77978516 C226.42215919 315.89533096 225.31277485 317.01216575 224.20457458 318.13017273 C221.21807312 321.13532812 218.21330394 324.12155299 215.20411468 327.10396838 C212.04364875 330.24163442 208.89879642 333.39488547 205.75166321 336.5459137 C200.46870586 341.83063112 195.17397898 347.10332099 189.8717041 352.36865234 C183.75594593 358.4420402 177.65807547 364.53293877 171.56970614 370.63377422 C165.69088628 376.5240106 159.80074797 382.40279684 153.90502357 388.2761097 C151.40535848 390.76652592 148.90945353 393.26062119 146.41652489 395.75778008 C143.47818044 398.69991138 140.52993792 401.63176468 137.57398415 404.55620003 C136.49552036 405.62623149 135.42035799 406.69960313 134.34890747 407.7766571 C125.07247629 417.09420179 116.43717304 423.90704073 102.80944824 424.06323242 C90.36594266 423.36218985 82.85584261 418.28875911 74.19372559 409.67504883 C72.42672845 407.92366581 70.63334862 406.20222129 68.83679199 404.48120117 C67.58939517 403.27030249 66.34327938 402.05808263 65.09851074 400.84448242 C64.51939941 400.28712402 63.94028809 399.72976563 63.34362793 399.15551758 C56.46860824 392.33049076 51.9899985 385.26763779 51.27038574 375.38354492 C51.27554199 374.1537793 51.28069824 372.92401367 51.28601074 371.65698242 C51.28085449 370.43237305 51.27569824 369.20776367 51.27038574 367.94604492 C51.53601074 364.03198242 51.53601074 364.03198242 52.25543213 362.0105896 C53.11785022 359.56030761 53.5441336 357.63763229 53.53601074 355.03198242 C51.72498719 351.35247588 49.07287864 348.60516474 46.25476074 345.65698242 C45.46731476 344.80503799 44.67986877 343.95309357 43.86856079 343.07533264 C41.30049078 340.34878059 38.68016142 337.68472286 36.03601074 335.03198242 C34.70748077 333.68304398 34.70748077 333.68304398 33.35211182 332.30685425 C19.79957067 318.49802993 19.79957067 318.49802993 1.91711426 312.95092773 C-2.93024714 313.13618926 -7.60503707 313.62485302 -12.37365723 314.51489258 C-16.76697657 315.25000479 -20.97434453 315.02395992 -25.40148926 314.78198242 C-33.07361602 314.6206338 -38.00625619 316.45617906 -43.57922363 321.59790039 C-45.08306211 323.06211018 -46.57537466 324.53822387 -48.05773926 326.02416992 C-49.24502625 327.19860153 -49.24502625 327.19860153 -50.45629883 328.39675903 C-52.1185621 330.04757642 -53.77566322 331.70360619 -55.42785645 333.36450195 C-57.96620643 335.90920514 -60.53014355 338.42602842 -63.09680176 340.94213867 C-64.71039987 342.55119387 -66.3224354 344.16181791 -67.93273926 345.77416992 C-69.0887262 346.90252762 -69.0887262 346.90252762 -70.26806641 348.05368042 C-71.31540955 349.11970993 -71.31540955 349.11970993 -72.38391113 350.20727539 C-73.00455444 350.82665985 -73.62519775 351.44604431 -74.26464844 352.084198 C-75.72468584 354.01743513 -75.72468584 354.01743513 -75.22143555 356.59231567 C-74.66841687 358.37353936 -74.06192621 360.13841157 -73.42492676 361.89135742 C-70.87137402 370.23711514 -71.56744137 379.61819822 -75.00305176 387.59057617 C-79.58095838 395.2408212 -85.54954331 401.45475914 -91.83898926 407.71948242 C-92.65109863 408.54770508 -93.46320801 409.37592773 -94.29992676 410.22924805 C-102.28803308 418.2237551 -109.79608625 424.16208088 -121.52819824 424.41308594 C-140.88870276 424.35902444 -149.81431266 413.85932121 -163.02648926 400.65698242 C-163.92689941 399.76881836 -164.82730957 398.8806543 -165.75500488 397.96557617 C-166.60900879 397.11350586 -167.4630127 396.26143555 -168.34289551 395.38354492 C-169.11190186 394.61864746 -169.8809082 393.85375 -170.67321777 393.06567383 C-173.0733878 390.33991837 -173.43279333 388.30754644 -173.83898926 384.71948242 C-173.34956723 379.90683248 -172.08637363 378.20156874 -168.46398926 375.03198242 C-165.74160813 374.0495102 -163.33652545 373.63483253 -160.46398926 374.03198242 C-156.41543944 376.14573987 -153.51446095 378.77119955 -150.33898926 382.03198242 C-149.86960937 382.50893555 -149.40022949 382.98588867 -148.91662598 383.47729492 C-146.92533376 385.50103587 -144.94622714 387.53654115 -142.96594238 389.57104492 C-141.51113157 391.06217821 -140.05023564 392.54715946 -138.58898926 394.03198242 C-137.72531738 394.91885742 -136.86164551 395.80573242 -135.97180176 396.71948242 C-132.3975074 400.01540495 -129.10513004 402.45775007 -124.15148926 402.65698242 C-120.30232211 402.45410788 -118.51207525 401.62000655 -115.69836426 399.00854492 C-115.00960205 398.37416504 -114.32083984 397.73978516 -113.61120605 397.08618164 C-112.90262451 396.4082959 -112.19404297 395.73041016 -111.46398926 395.03198242 C-110.76249756 394.36312012 -110.06100586 393.69425781 -109.33825684 393.00512695 C-107.21412049 390.95020541 -105.11726058 388.87080521 -103.02648926 386.78198242 C-101.94851074 385.72237305 -101.94851074 385.72237305 -100.84875488 384.64135742 C-100.16619629 383.96073242 -99.4836377 383.28010742 -98.78039551 382.57885742 C-98.16623779 381.96880859 -97.55208008 381.35875977 -96.91931152 380.73022461 C-93.89874545 377.20547077 -94.23087148 373.46122021 -94.46398926 369.03198242 C-95.50257649 365.8218037 -97.42806177 364.02243923 -99.7925415 361.68463326 C-101.83921722 359.66097423 -103.8713368 357.62311563 -105.90393066 355.58531189 C-106.7618219 354.72597549 -107.61971313 353.8666391 -108.50360107 352.98126221 C-109.4315448 352.05174744 -110.35948853 351.12223267 -111.31555176 350.16455078 C-121.37910038 340.0844673 -131.44536656 330.00710115 -141.51303101 319.9311285 C-147.60416179 313.83483492 -153.6943443 307.7375995 -159.78234863 301.63818359 C-165.1048673 296.3056936 -170.42914536 290.97496767 -175.75553703 285.64634615 C-178.57104417 282.82953745 -181.38566956 280.01186041 -184.19818115 277.19206047 C-186.84227725 274.54116613 -189.48872256 271.89263991 -192.13697052 269.24589348 C-193.56779027 267.81466866 -194.99612467 266.38096054 -196.42437744 264.94717407 C-197.28226868 264.0906575 -198.14015991 263.23414093 -199.02404785 262.35166931 C-199.76512787 261.6096675 -200.50620789 260.86766569 -201.26974487 260.10317898 C-206.37586645 255.13804517 -206.37586645 255.13804517 -212.96398926 253.09448242 C-213.69617676 253.00295898 -214.42836426 252.91143555 -215.18273926 252.81713867 C-220.30595911 253.29963369 -223.81840323 257.13820463 -227.29211426 260.62963867 C-228.61469238 261.95511719 -228.61469238 261.95511719 -229.96398926 263.30737305 C-230.87148926 264.22711914 -231.77898926 265.14686523 -232.71398926 266.09448242 C-233.63695801 267.0180957 -234.55992676 267.94170898 -235.51086426 268.89331055 C-241.72030564 274.58524953 -241.72030564 274.58524953 -243.77648926 282.28198242 C-243.81387207 283.02963867 -243.85125488 283.77729492 -243.88977051 284.54760742 C-242.91155376 290.25536754 -238.34598337 294.37351325 -234.33117676 298.25463867 C-233.35059779 299.21481259 -232.37013237 300.17510247 -231.38977051 301.13549805 C-229.86048807 302.6212203 -228.32877633 304.10433856 -226.79455566 305.58496094 C-225.30026074 307.03084509 -223.81540691 308.48593508 -222.33117676 309.94213867 C-221.44542969 310.7994458 -220.55968262 311.65675293 -219.64709473 312.54003906 C-216.65439332 315.95610965 -215.39944282 318.48286794 -215.58898926 323.03198242 C-216.59868092 326.49378242 -218.00346341 328.4223338 -220.46398926 331.03198242 C-223.52828702 332.5641313 -226.08055346 332.2613679 -229.46398926 332.03198242 C-233.67190395 329.93474007 -236.88684377 326.95913371 -240.21008301 323.69213867 C-240.74367935 323.16994247 -241.2772757 322.64774628 -241.82704163 322.10972595 C-242.951724 321.00386791 -244.07357826 319.89512708 -245.19274902 318.78369141 C-246.87925648 317.11646107 -248.5858881 315.47188169 -250.29406738 313.8269043 C-259.2009292 305.09525755 -266.18584465 296.05479498 -266.62805176 283.04370117 C-265.79807339 267.80766965 -257.685122 258.72335496 -247.27648926 248.34448242 C-246.39412598 247.43375977 -245.5117627 246.52303711 -244.60266113 245.5847168 C-235.85555186 236.81212432 -227.29759242 230.91317021 -214.71398926 230.84448242 C-213.54352051 230.83030273 -212.37305176 230.81612305 -211.16711426 230.80151367 C-207.99381778 230.99900786 -206.52590866 231.37503233 -203.7052002 232.45800781 C-201.07588688 233.12717785 -199.97546652 233.30746609 -197.55999756 232.00648499 C-195.53075121 230.25888871 -193.72009717 228.41205234 -191.90148926 226.44604492 C-191.22473145 225.75513763 -190.54797363 225.06423035 -189.85070801 224.35238647 C-187.69719762 222.14295087 -185.58103367 219.90132812 -183.46398926 217.65698242 C-182.00928969 216.1521208 -180.55228233 214.64948637 -179.09289551 213.14916992 C-175.52264616 209.46873729 -171.98550517 205.75904659 -168.46398926 202.03198242 C-170.3096226 198.24417643 -172.57119521 194.96269813 -175.02648926 191.54370117 C-179.74786633 183.29412113 -179.94396338 172.71402593 -177.58898926 163.67260742 C-173.31414558 152.59176264 -166.81239693 146.52892332 -156.46398926 141.03198242 C-156.7411377 140.36811523 -157.01828613 139.70424805 -157.30383301 139.02026367 C-157.66605957 138.13725586 -158.02828613 137.25424805 -158.40148926 136.34448242 C-158.94096191 135.03930664 -158.94096191 135.03930664 -159.49133301 133.70776367 C-162.80148489 124.60152255 -161.8390565 115.95999048 -158.46398926 107.03198242 C-153.95206225 98.19085442 -146.97938877 91.14278611 -137.46398926 88.03198242 C-136.14398926 88.03198242 -134.82398926 88.03198242 -133.46398926 88.03198242 C-133.79398926 87.37198242 -134.12398926 86.71198242 -134.46398926 86.03198242 C-135.4592725 74.11702015 -134.29077639 63.98335791 -126.77648926 54.15698242 C-121.74619217 48.85372348 -114.88141843 44.42237343 -107.46398926 44.03198242 C-107.70375488 43.21600586 -107.70375488 43.21600586 -107.94836426 42.38354492 C-109.90084523 33.47904839 -108.81182058 23.77857139 -104.21008301 15.87963867 C-98.26279044 7.43675194 -90.82940426 0.90595576 -80.46398926 -0.96801758 C-76.21544478 -1.11311195 -71.97260837 -0.9549644 -67.72521973 -0.82128906 C-62.89076285 -0.7382493 -59.55607228 -0.83509096 -55.33898926 -3.46801758 C-40.9133288 -12.28131323 -15.58004299 -3.12072219 0 0 Z M-44.46398926 15.03198242 C-43.12629619 26.32805724 -34.73195464 34.82651776 -26.46398926 42.03198242 C-23.21475006 44.50548238 -19.89908529 46.8247505 -16.46398926 49.03198242 C-12.60070299 47.44724662 -10.17522003 44.97241355 -7.26086426 42.02416992 C-6.53688446 41.29594528 -6.53688446 41.29594528 -5.79827881 40.55300903 C-4.26540364 39.00898376 -2.73964922 37.45813418 -1.21398926 35.90698242 C-0.17278565 34.85574233 0.86887615 33.80495585 1.91101074 32.75463867 C4.45800538 30.18565239 6.99866251 27.61050081 9.53601074 25.03198242 C7.30110782 22.7970795 6.51605879 22.6367467 3.5045166 22.07055664 C2.67282455 21.91054169 1.84113251 21.75052673 0.98423767 21.58566284 C0.08222122 21.42099518 -0.81979523 21.25632751 -1.74914551 21.08666992 C-2.67940048 20.91193146 -3.60965546 20.73719299 -4.56809998 20.55715942 C-6.54203425 20.18860249 -8.5167176 19.82403875 -10.49206543 19.46313477 C-13.49220641 18.91326582 -16.48882502 18.34663177 -19.48547363 17.77807617 C-21.40650795 17.421584 -23.32772675 17.06608423 -25.24914551 16.71166992 C-26.58091576 16.45859573 -26.58091576 16.45859573 -27.93959045 16.20040894 C-33.53714888 15.19262326 -38.77588667 14.87734601 -44.46398926 15.03198242 Z M-84.75695801 25.53979492 C-87.44444825 29.48389322 -88.12299934 32.96840248 -87.23779297 37.66389465 C-86.37569215 40.30219991 -85.36937055 41.64711961 -83.50500488 43.68701172 C-82.87271973 44.38015472 -82.24043457 45.07329773 -81.58898926 45.78744507 C-77.65031713 49.94767882 -73.65426139 54.04622431 -69.62023926 58.11401367 C-68.69231567 59.050009 -67.76439209 59.98600433 -66.80834961 60.95036316 C-64.85722805 62.91638028 -62.90361976 64.8798934 -60.94885254 66.84228516 C-58.45574931 69.34651512 -55.97456517 71.86222664 -53.49573517 74.38057423 C-51.10842004 76.80038608 -48.70710229 79.20614844 -46.30773926 81.61401367 C-45.42525513 82.51400589 -44.542771 83.41399811 -43.63354492 84.34126282 C-39.17277173 88.78645858 -35.57052808 92.24866966 -29.46398926 94.03198242 C-24.02610633 93.93658097 -20.61867771 92.52569771 -16.46398926 89.03198242 C-13.53451761 84.63777496 -12.98845705 81.26283671 -13.46398926 76.03198242 C-14.51804866 72.23395826 -14.51804866 72.23395826 -17.49523926 69.87963867 C-18.30992676 69.62053711 -19.12461426 69.36143555 -19.96398926 69.09448242 C-29.30357058 65.71290987 -36.28500401 60.64347777 -43.43273926 53.78979492 C-45.26833894 51.81385684 -45.26833894 51.81385684 -47.46398926 52.03198242 C-47.73855957 51.43385742 -48.01312988 50.83573242 -48.29602051 50.21948242 C-49.41452948 48.12461612 -50.52657366 46.74148267 -52.15148926 45.03198242 C-57.28654258 39.19211786 -61.35937342 32.16041378 -64.15148926 24.90698242 C-65.2164485 22.03745932 -65.2164485 22.03745932 -67.15148926 20.59448242 C-74.46644721 18.81516832 -79.69515398 19.63690563 -84.75695801 25.53979492 Z M17.19641113 45.89111328 C15.45945654 47.6083773 13.70230272 49.30319158 11.94421387 50.9987793 C10.83679037 52.09316475 9.73062274 53.18882284 8.62585449 54.28588867 C8.09894516 54.7881044 7.57203583 55.29032013 7.02915955 55.80775452 C5.39024781 57.39937184 5.39024781 57.39937184 3.53601074 60.03198242 C3.51596726 62.68572222 3.51596726 62.68572222 4.53601074 65.03198242 C7.57646831 74.85060291 8.30363237 85.34143071 3.78991699 94.82495117 C-1.35366524 103.87829685 -7.61214102 109.71771987 -17.71398926 112.84448242 C-20.93959436 113.71413086 -24.18437919 114.39815707 -27.46398926 115.03198242 C-27.61094238 115.8544043 -27.75789551 116.67682617 -27.90930176 117.52416992 C-29.93827557 127.6223959 -33.2048184 136.30529057 -41.55773926 142.78979492 C-48.06476591 147.0300295 -54.85617289 148.82489673 -62.46398926 150.03198242 C-62.61094238 150.8544043 -62.75789551 151.67682617 -62.90930176 152.52416992 C-64.93827557 162.6223959 -68.2048184 171.30529057 -76.55773926 177.78979492 C-83.06476591 182.0300295 -89.85617289 183.82489673 -97.46398926 185.03198242 C-97.68312988 186.01038086 -97.90227051 186.9887793 -98.12805176 187.99682617 C-100.65291826 198.67570269 -103.80447687 207.33503808 -113.28820801 213.74682617 C-122.64178598 219.2716505 -132.54672431 221.04967875 -143.28430176 218.31323242 C-145.65148926 217.46948242 -145.65148926 217.46948242 -147.63195801 216.59057617 C-149.99625697 215.86969184 -151.1365376 216.23519609 -153.46398926 217.03198242 C-155.14107127 218.27901094 -155.14107127 218.27901094 -156.67199707 219.89941406 C-157.2723175 220.49996109 -157.87263794 221.10050812 -158.4911499 221.71925354 C-159.12671814 222.37030563 -159.76228638 223.02135773 -160.41711426 223.69213867 C-161.07733582 224.35660507 -161.73755737 225.02107147 -162.41778564 225.70567322 C-164.52366566 227.82833806 -166.61887253 229.96119847 -168.71398926 232.09448242 C-170.14038158 233.53592176 -171.56745696 234.97668551 -172.99523926 236.41674805 C-176.49279519 239.94737075 -179.9808149 243.48717295 -183.46398926 247.03198242 C-178.89293507 252.51531011 -174.03804385 257.59497072 -168.98010254 262.62939453 C-168.15017288 263.45947021 -167.32024323 264.2895459 -166.46516418 265.14477539 C-163.74057546 267.86867136 -161.0124693 270.58901505 -158.28430176 273.30932617 C-156.38693727 275.20482421 -154.48977092 277.10051849 -152.59286499 278.99647522 C-148.12203492 283.46420829 -143.64866392 287.92938806 -139.17435443 292.39363629 C-134.07679699 297.47998172 -128.98210907 302.56919729 -123.88764977 307.65864551 C-113.41626668 318.11960119 -102.94131832 328.57698194 -92.46398926 339.03198242 C-89.30288756 337.5250238 -87.19332221 335.98974539 -84.74035645 333.47192383 C-84.02571228 332.74421783 -83.31106812 332.01651184 -82.57476807 331.26675415 C-81.81117981 330.4802951 -81.04759155 329.69383606 -80.26086426 328.88354492 C-78.62442835 327.221808 -76.98770034 325.5603587 -75.35070801 323.89916992 C-72.78174027 321.28065746 -70.21605248 318.6590996 -67.65588379 316.03198242 C-65.1789681 313.49439782 -62.68955165 310.96960941 -60.19836426 308.44604492 C-59.44287292 307.66363434 -58.68738159 306.88122375 -57.90899658 306.07510376 C-49.94071082 298.03277807 -41.59471169 293.98357147 -30.14050293 293.8684082 C-28.13750928 293.89552187 -26.1346297 293.9322973 -24.13195801 293.97729492 C-21.92949037 294.00259055 -19.72701607 294.02731225 -17.52453613 294.05151367 C-14.08836602 294.10103257 -10.65255176 294.15696173 -7.2166748 294.22387695 C-3.87591464 294.28475313 -0.53560008 294.31996952 2.80554199 294.35229492 C3.81736038 294.37921417 4.82917877 294.40613342 5.87165833 294.43386841 C14.2933521 294.49227411 22.70293029 293.00697907 29.05944824 287.08666992 C30.02928454 286.04441919 30.98039597 284.9843984 31.91101074 283.90698242 C37.87953684 277.23439427 37.87953684 277.23439427 42.53601074 276.03198242 C46.10103329 276.33931195 49.14434566 276.90142739 52.53601074 278.03198242 C53.91499076 282.16892248 54.37322176 285.71929035 53.53601074 290.03198242 C51.63884823 293.15427182 49.16562367 295.51670049 46.53601074 298.03198242 C45.31397949 299.26948242 45.31397949 299.26948242 44.06726074 300.53198242 C41.90842074 302.71814951 39.73078845 304.88199609 37.53601074 307.03198242 C43.34284293 314.15103469 49.89886518 320.50573054 56.41101074 326.96948242 C57.58832712 328.14177446 58.76541248 329.31429857 59.94226074 330.48706055 C62.80418564 333.33805225 65.66922531 336.18587857 68.53601074 339.03198242 C71.74423246 337.61805594 73.88851133 335.92704611 76.35784912 333.45065308 C77.10379333 332.70745819 77.84973755 331.96426331 78.61828613 331.19854736 C79.83101196 329.97503571 79.83101196 329.97503571 81.0682373 328.72680664 C82.35658478 327.43889725 82.35658478 327.43889725 83.67095947 326.12496948 C86.0214041 323.77337098 88.36732533 321.4174251 90.71134663 319.05943441 C93.16345874 316.59481251 95.62124281 314.13586017 98.07843018 311.67630005 C102.72889264 307.01962355 107.37423371 302.35787268 112.01775527 297.69427598 C117.30520994 292.38445994 122.59835058 287.08032763 127.89197588 281.7766645 C138.77965886 270.86808126 149.66018125 259.95238436 160.53601074 249.03198242 C159.19119532 246.24508198 157.94148044 244.19055599 155.73864746 242.00756836 C155.17821747 241.44728943 154.61778748 240.8870105 154.04037476 240.30975342 C153.43823151 239.71793274 152.83608826 239.12611206 152.21569824 238.51635742 C151.59703888 237.90052795 150.97837952 237.28469849 150.3409729 236.65020752 C148.36897261 234.68937906 146.39012338 232.73562942 144.41101074 230.78198242 C143.07070911 229.45171444 141.73085992 228.12099043 140.39147949 226.78979492 C137.11154486 223.53188092 133.82545132 220.28029709 130.53601074 217.03198242 C127.67307901 218.33553006 126.20793921 219.36005395 123.91101074 221.65698242 C120.45706614 224.62631745 117.2477381 224.69943827 112.81335449 224.44604492 C110.53601074 224.03198242 110.53601074 224.03198242 107.97351074 222.46948242 C106.04194454 219.194218 105.6015918 216.83568389 105.53601074 213.03198242 C107.4786127 208.19992957 110.29796347 204.88692966 114.00866699 201.33666992 C114.53238388 200.82194122 115.05610077 200.30721252 115.59568787 199.77688599 C117.25622711 198.14616252 118.92637228 196.52580353 120.59851074 194.90698242 C122.27328534 193.28014111 123.94565266 191.65108343 125.61204529 190.01565552 C126.6453281 189.00202973 127.68350735 187.99336428 128.72718811 186.990448 C132.68867559 183.11173256 134.36768525 180.74329154 134.91101074 175.21948242 C134.77932259 170.51382566 133.29049116 167.82869867 130.53601074 164.03198242 C126.83758273 160.65988629 122.92800133 160.39752576 118.09069824 160.55541992 C111.33847281 161.81500938 106.52557889 167.82669319 101.98132324 172.61401367 C98.92250227 175.61496506 95.8110099 175.35774608 91.73132324 175.32495117 C89.53601074 175.03198242 89.53601074 175.03198242 87.03601074 173.15698242 C84.49845988 169.56211871 84.10474383 167.05191574 84.6619873 162.60375977 C86.50770451 157.17281421 91.27771936 153.62046992 95.41101074 149.84448242 C97.24834282 148.12887039 99.07931838 146.40642005 100.90319824 144.67651367 C101.71901367 143.92732666 102.5348291 143.17813965 103.37536621 142.40625 C106.25041422 139.24694583 108.32699065 135.99154583 108.78601074 131.68823242 C108.11965554 125.94091881 106.74773419 123.04781176 102.53601074 119.03198242 C98.28208448 116.47962666 94.37995347 116.38498831 89.53601074 117.03198242 C83.96900381 119.63781545 80.10201324 124.3816932 75.90319824 128.78979492 C72.82229224 131.70801281 70.8039855 132.89709149 66.59851074 133.34448242 C63.05049675 132.98244018 61.30762837 132.2646744 58.53601074 130.03198242 C55.99915569 125.88076507 56.4854125 122.67238353 57.53601074 118.03198242 C59.52966309 115.38891602 59.52966309 115.38891602 62.12194824 112.93041992 C63.05265137 112.02807617 63.98335449 111.12573242 64.94226074 110.19604492 C65.9310227 109.2654839 66.92061405 108.3358034 67.91101074 107.40698242 C69.842875 105.56808196 71.7642883 103.71912384 73.68444824 101.86791992 C74.5421582 101.05887207 75.39986816 100.24982422 76.28356934 99.41625977 C79.89684222 95.59150115 81.96510959 92.41240912 81.97351074 87.09448242 C81.81836399 82.35545447 80.77718106 79.62354954 77.53601074 76.03198242 C73.81667632 72.84398149 70.52317511 72.68325528 65.81726074 72.63354492 C60.23199567 73.60905355 56.72022092 77.63991037 52.97351074 81.59448242 C46.09010929 88.85661298 46.09010929 88.85661298 41.31726074 89.18432617 C37.32315627 88.80816907 35.12854914 88.52335573 31.97351074 85.90698242 C30.13988137 82.23972368 29.96622366 80.09171539 30.53601074 76.03198242 C33.91683519 69.83380427 39.13616133 65.28183633 44.16101074 60.40698242 C45.8869999 58.73205803 47.60855665 57.05255076 49.32507324 55.36791992 C50.46516846 54.26262939 50.46516846 54.26262939 51.6282959 53.13500977 C55.09341195 49.31513395 55.99813284 46.28176158 55.85241699 41.05541992 C55.16202061 36.64029244 52.28430817 33.86831484 49.41101074 30.65698242 C36.19679614 23.18807852 25.76008734 37.38643757 17.19641113 45.89111328 Z M-111.83898926 70.78198242 C-113.77065514 74.64531419 -114.52273202 77.79701137 -113.46398926 82.03198242 C-110.08640367 87.86523748 -105.46347463 92.33857389 -100.71789551 97.07885742 C-99.86976791 97.93127014 -99.02164032 98.78368286 -98.14781189 99.66192627 C-96.35918633 101.45627857 -94.56795613 103.24803785 -92.77429199 105.03735352 C-90.03070463 107.77777192 -87.30073037 110.5312684 -84.57141113 113.28588867 C-82.82938352 115.0301885 -81.08657139 116.77370527 -79.34289551 118.51635742 C-78.52817276 119.34028992 -77.71345001 120.16422241 -76.8740387 121.01312256 C-75.72275734 122.15506073 -75.72275734 122.15506073 -74.54821777 123.32006836 C-73.87855484 123.99036072 -73.20889191 124.66065308 -72.51893616 125.35125732 C-68.87457226 128.33195423 -66.22314649 129.05608265 -61.52648926 128.90698242 C-57.40649213 128.23068101 -54.66128876 126.78314711 -51.46398926 124.03198242 C-48.54788385 119.65782431 -47.74530356 116.24245375 -48.46398926 111.03198242 C-51.53154648 104.60419396 -56.36284236 99.69239557 -61.36242676 94.73510742 C-62.11561188 93.97905212 -62.868797 93.22299683 -63.64480591 92.44403076 C-65.22961317 90.85719314 -66.81817068 89.27409296 -68.41027832 87.69458008 C-70.83537689 85.28557083 -73.24402099 82.8609403 -75.65148926 80.43432617 C-77.2000073 78.8877903 -78.74945557 77.34218517 -80.29992676 75.79760742 C-81.01369476 75.07776672 -81.72746277 74.35792603 -82.46286011 73.61627197 C-86.92492023 69.21589568 -91.41374219 65.00005553 -97.68664551 63.50073242 C-104.26361067 63.61244308 -107.63737625 65.91695684 -111.83898926 70.78198242 Z M-138.40148926 114.15698242 C-139.98913099 118.45295418 -140.57162063 122.5576523 -139.46398926 127.03198242 C-135.32399135 134.35104196 -128.62736343 140.20752292 -122.71472168 146.09692383 C-121.02477964 147.78368882 -119.3486627 149.48341483 -117.67297363 151.18432617 C-116.584592 152.27497991 -115.49542555 153.36485115 -114.40539551 154.45385742 C-113.91350235 154.95496033 -113.42160919 155.45606323 -112.91481018 155.97235107 C-108.5494747 160.28111268 -104.14317154 163.6492421 -97.96398926 164.53198242 C-92.89899176 163.80841135 -89.22876014 162.31758827 -86.10070801 158.26635742 C-83.8245538 154.29286485 -82.68929533 150.662423 -83.70300293 146.12133789 C-86.70583313 137.8768012 -96.73494581 130.57486801 -102.8807373 124.42993164 C-104.66334053 122.64511644 -106.43775621 120.85241127 -108.21203613 119.05932617 C-109.35152103 117.91691108 -110.49147811 116.77496671 -111.63195801 115.63354492 C-112.15807175 115.10024567 -112.68418549 114.56694641 -113.22624207 114.01748657 C-117.23812809 110.03040361 -119.64411307 108.21098664 -125.27648926 107.65698242 C-130.82996752 107.81239693 -134.63953511 110.0309682 -138.40148926 114.15698242 Z M-155.46398926 167.03198242 C-157.68499841 170.8203258 -157.84349555 173.62970948 -157.46398926 178.03198242 C-155.33234772 183.36479994 -152.11546049 186.83712885 -148.08898926 190.78198242 C-147.2420752 191.64629883 -147.2420752 191.64629883 -146.37805176 192.52807617 C-142.2282591 196.64905082 -139.03056039 198.74680785 -133.08898926 199.40698242 C-128.39393071 198.92128671 -126.31295247 197.77066778 -122.46398926 195.03198242 C-119.72451643 191.56198351 -118.63712139 188.44685172 -118.46398926 184.03198242 C-120.3492344 177.51133167 -123.0071698 173.7724077 -127.90148926 169.15698242 C-128.47447754 168.58979492 -129.04746582 168.02260742 -129.63781738 167.43823242 C-133.85768381 163.33976606 -137.20292686 160.76153439 -143.27648926 160.53198242 C-148.86191469 160.63098553 -152.00285499 162.74489565 -155.46398926 167.03198242 Z M179.6519165 258.54185486 C178.72100189 259.46575516 177.79008728 260.38965546 176.83096313 261.34155273 C175.81680776 262.36313454 174.80280527 263.38486813 173.78894043 264.40673828 C172.70819836 265.48505053 171.62681118 266.56271653 170.54483032 267.63978577 C167.6167123 270.55851904 164.69806074 273.48655066 161.78131008 276.41663814 C158.72543349 279.48385001 155.66182838 282.54332533 152.5993042 285.60389709 C147.45970177 290.74261741 142.32610543 295.88727776 137.19616699 301.03564453 C131.26532537 306.98766936 125.32568556 312.93079937 119.38112712 318.86912245 C113.66008742 324.58446842 107.94473397 330.30546662 102.23215485 336.02926826 C99.80173 338.46433724 97.36943177 340.897512 94.9356308 343.32920647 C92.07132363 346.19163052 89.21206026 349.05899994 86.3566246 351.93027306 C85.30781097 352.98332995 84.25729565 354.03469514 83.2049675 355.08423996 C81.76940714 356.51657863 80.34060797 357.95568419 78.91217041 359.39512634 C78.11062908 360.19872054 77.30908775 361.00231474 76.48325729 361.83026028 C73.66874078 365.01259142 72.63928222 367.11975102 72.16101074 371.34448242 C73.02373092 379.82789751 79.1650449 385.09752311 84.97351074 390.78198242 C85.72438965 391.53608398 86.47526855 392.29018555 87.24890137 393.06713867 C93.97101967 400.03091866 93.97101967 400.03091866 102.97351074 402.46948242 C103.69409668 402.48881836 104.41468262 402.5081543 105.15710449 402.52807617 C110.52136755 401.40942033 114.57401894 397.24433515 118.34417725 393.4777832 C119.25826355 392.56933655 120.17234985 391.66088989 121.11413574 390.72491455 C122.10935394 389.72580862 123.10446767 388.72659861 124.0994873 387.72729492 C125.16074013 386.66875486 126.22241737 385.61064016 127.28448486 384.55291748 C130.15662421 381.68986818 133.02243453 378.82056211 135.88685322 375.94979095 C138.88846889 372.94310041 141.89497407 369.94130544 144.9006958 366.9387207 C149.94452088 361.8985298 154.98412398 356.85414626 160.0213623 351.80737305 C165.84460126 345.9732388 171.67502608 340.14636031 177.50921273 334.32317543 C182.52192715 329.3195354 187.53073554 324.31201038 192.53629661 319.30121422 C195.52439358 316.30999991 198.51382383 313.32015174 201.50678253 310.33380127 C204.31845741 307.52790181 207.12519818 304.71715852 209.92819977 301.90259552 C210.95765729 300.87049298 211.98882152 299.84008956 213.02180481 298.81151581 C214.43108607 297.4076971 215.83361251 295.99710698 217.23577881 294.58618164 C218.02257145 293.79863495 218.80936409 293.01108826 219.61999893 292.19967651 C223.13547399 288.22241789 224.20939734 284.75962301 224.01379395 279.50708008 C223.44588002 276.56507119 222.5393064 275.43672375 220.51257324 273.25854492 C219.55991577 272.22600586 219.55991577 272.22600586 218.5880127 271.17260742 C217.91085205 270.46620117 217.23369141 269.75979492 216.53601074 269.03198242 C215.87238525 268.33588867 215.20875977 267.63979492 214.52502441 266.92260742 C212.48586301 264.81362012 210.4218867 262.73230521 208.34851074 260.65698242 C207.30146973 259.59157227 207.30146973 259.59157227 206.23327637 258.50463867 C205.21717285 257.48563477 205.21717285 257.48563477 204.18054199 256.44604492 C203.57572998 255.83712402 202.97091797 255.22820312 202.34777832 254.60083008 C199.54685796 252.17545422 197.34683842 251.12011587 193.66101074 250.71948242 C187.692079 251.3163756 183.7901124 254.40279457 179.6519165 258.54185486 Z " fill="#134A87" transform="translate(266.4639892578125,87.968017578125)"/>
<path d="M0 0 C9.50365834 3.28856429 18.72696146 16.03616827 25.76269531 23.07275391 C27.81947776 25.12731893 29.88417932 27.17370879 31.94921875 29.2199707 C33.26481054 30.53263322 34.57993227 31.84576704 35.89453125 33.15942383 C36.50905151 33.76675858 37.12357178 34.37409332 37.75671387 34.99983215 C38.32490845 35.57110336 38.89310303 36.14237457 39.47851562 36.73095703 C39.97685913 37.22787552 40.47520264 37.72479401 40.98864746 38.23677063 C43.46062794 41.1745328 44.26448111 43.39684106 44.61328125 47.23364258 C44.27827589 51.05270365 43.67736747 52.8254098 41.30078125 55.79614258 C37.87312873 58.36688197 34.46106829 58.2265171 30.30078125 57.79614258 C24.69833629 54.6491964 20.42573022 50.2273586 15.91015625 45.70629883 C15.12433167 44.92475937 14.33850708 44.14321991 13.52886963 43.33799744 C11.87575431 41.69060598 10.22522756 40.04061334 8.57714844 38.38818359 C6.05400705 35.86187243 3.51780648 33.34920114 0.98046875 30.8371582 C-0.62711228 29.23184935 -2.23391036 27.62575596 -3.83984375 26.01879883 C-4.59815491 25.26969742 -5.35646606 24.52059601 -6.13775635 23.74879456 C-6.83898621 23.04133591 -7.54021606 22.33387726 -8.26269531 21.60498047 C-9.18819183 20.68042809 -9.18819183 20.68042809 -10.13238525 19.73719788 C-12.86769863 16.34858349 -13.71416077 13.63289562 -13.63671875 9.29614258 C-12.52198837 5.13448251 -10.97948202 3.5163609 -7.69921875 0.79614258 C-5.05407981 -0.52642689 -2.88727617 -0.43174523 0 0 Z " fill="#134A87" transform="translate(94.69921875,2.203857421875)"/>
<path d="M0 0 C2.7568355 1.69651415 3.69705733 2.95851082 4.59765625 6.0546875 C5.42549142 10.82880488 5.20328082 13.14331595 2.38061523 17.23025513 C-0.48115156 20.89861759 -3.83107051 24.11437549 -7.125 27.390625 C-7.90891113 28.17644958 -8.69282227 28.96227417 -9.50048828 29.77191162 C-11.15216483 31.42494456 -12.80635136 33.07547293 -14.46289062 34.72363281 C-16.99842965 37.2484363 -19.52309224 39.78376352 -22.046875 42.3203125 C-23.65560887 43.92772524 -25.26496278 45.53451773 -26.875 47.140625 C-27.6292627 47.89893616 -28.38352539 48.65724731 -29.16064453 49.4385376 C-29.86817871 50.13976746 -30.57571289 50.84099731 -31.3046875 51.56347656 C-31.92327637 52.18047424 -32.54186523 52.79747192 -33.17919922 53.4331665 C-36.18121433 56.01645726 -38.43895259 56.92727163 -42.375 57.4375 C-47.11973172 56.86485997 -48.86582008 55.58191991 -52 52 C-53.65682753 47.78742788 -53.31448092 44.80866523 -51.6875 40.625 C-47.39927675 34.12589349 -41.18804699 28.86665556 -35.31640625 23.8359375 C-29.20408254 18.52275152 -23.63754665 12.64533657 -17.98242188 6.85546875 C-17.12583984 5.98792969 -16.26925781 5.12039062 -15.38671875 4.2265625 C-14.61545654 3.43846191 -13.84419434 2.65036133 -13.04956055 1.83837891 C-9.06363445 -1.73684724 -4.92529036 -1.24125261 0 0 Z " fill="#134A87" transform="translate(424,3)"/>
<path d="M0 0 C3.64531015 0.76018783 5.24717187 2.53917187 7.37890625 5.49609375 C8.34009671 8.37966512 8.51582778 10.24067796 8.54003906 13.23950195 C8.54964661 14.20092606 8.55925415 15.16235016 8.56915283 16.15290833 C8.57340271 17.19041733 8.57765259 18.22792633 8.58203125 19.296875 C8.58773132 20.36600632 8.5934314 21.43513763 8.5993042 22.53666687 C8.60875441 24.8003948 8.61528826 27.06413648 8.61914062 29.32788086 C8.6288389 32.78458783 8.65985968 36.2406984 8.69140625 39.69726562 C8.69793716 41.89713189 8.70318729 44.0970024 8.70703125 46.296875 C8.71937805 47.32831131 8.73172485 48.35974762 8.7444458 49.42243958 C8.72772735 54.83099741 8.57085557 58.8957408 5.37890625 63.49609375 C1.39623578 65.94696788 -0.66288527 66.64226115 -5.30859375 65.93359375 C-8.72577433 64.45066633 -10.29725985 63.35793396 -12.62109375 60.49609375 C-13.13575745 57.96070862 -13.13575745 57.96070862 -13.15454102 55.07250977 C-13.17037735 53.98780899 -13.18621368 52.90310822 -13.20252991 51.78553772 C-13.19757004 50.61881027 -13.19261017 49.45208282 -13.1875 48.25 C-13.19369858 47.04673569 -13.19989716 45.84347137 -13.20628357 44.60374451 C-13.21338694 42.05932423 -13.21019883 39.51485753 -13.19750977 36.97045898 C-13.18365724 33.07644068 -13.21769679 29.18483044 -13.25585938 25.29101562 C-13.25681067 22.81900983 -13.25495122 20.34700102 -13.25 17.875 C-13.26325821 16.71029678 -13.27651642 15.54559357 -13.29017639 14.34559631 C-13.18660337 5.35563249 -13.18660337 5.35563249 -10.23803711 2.26391602 C-6.59795694 -0.19506528 -4.27553243 -0.21027209 0 0 Z " fill="#134A87" transform="translate(257.62109375,-0.49609375)"/>
<path d="M0 0 C2.87029869 1.79393668 4.49131638 2.98263276 6 6 C6.4973766 10.973766 6.54511419 13.06308498 4 17.4375 C0.7593794 20.2055301 -0.92486891 20.95307689 -5.07421875 21.171875 C-8.95345583 20.82565506 -11.1116364 18.85773037 -13.8125 16.25 C-15.55246428 12.95322558 -15.44406988 10.67943611 -15 7 C-11.12075728 0.0173631 -7.68264172 -0.99516085 0 0 Z " fill="#134A87" transform="translate(347,332)"/>
<path d="M0 0 C3.59318158 1.81982257 5.64759062 4.04642168 7.0625 7.875 C6.98115298 11.94235089 6.00049282 14.46579601 4 18 C1.29013532 20.27042717 -0.45183064 20.91835776 -3.9375 21.4375 C-8.00161073 20.85691275 -9.95770539 19.76572238 -13 17 C-14.73993978 13.34460019 -15.24847036 10.21474399 -14.4375 6.25 C-10.8905729 0.69828802 -6.54849031 -1.47085232 0 0 Z " fill="#134A87" transform="translate(74,430)"/>
</svg>
