<?xml version="1.0" encoding="UTF-8"?>
<svg version="1.1" xmlns="http://www.w3.org/2000/svg" width="512" height="512">
<path d="M0 0 C25.90366848 25.08295819 45.25401081 63.22934315 46.82128906 99.58544922 C46.84116026 100.92017287 46.85489087 102.25499855 46.86328125 103.58984375 C46.86898132 104.31648224 46.8746814 105.04312073 46.8805542 105.79177856 C46.88995144 107.32634045 46.89651704 108.86092204 46.90039062 110.39550781 C46.90998575 112.68202684 46.9410119 114.96760169 46.97265625 117.25390625 C47.28552496 160.96558666 26.94619889 198.83875073 -2.77734375 229.59765625 C-11.80457787 238.40597029 -21.87760478 245.39127482 -32.51611328 252.09375 C-41.92031393 257.78931192 -41.92031393 257.78931192 -46.90910339 267.21160889 C-47.31935349 269.72225984 -47.47059291 272.04611002 -47.48168945 274.58691406 C-47.48872391 275.49846252 -47.49575836 276.41001099 -47.50300598 277.34918213 C-47.5092524 278.81022369 -47.5092524 278.81022369 -47.515625 280.30078125 C-47.53882657 282.38542673 -47.56294405 284.47006217 -47.58789062 286.5546875 C-47.62294306 289.8241241 -47.65232539 293.09319161 -47.66577148 296.36279297 C-47.68132786 299.53007148 -47.72158591 302.69628685 -47.765625 305.86328125 C-47.76371658 306.82921204 -47.76180817 307.79514282 -47.75984192 308.79034424 C-47.93153914 318.41230912 -51.50265394 326.96719308 -58.33984375 333.84765625 C-66.65540878 339.84765625 -66.65540878 339.84765625 -70.33984375 339.84765625 C-70.46939453 341.20697266 -70.46939453 341.20697266 -70.6015625 342.59375 C-71.50294365 350.4084765 -72.63806752 356.47825496 -77.33984375 362.84765625 C-77.94570313 363.68039062 -78.5515625 364.513125 -79.17578125 365.37109375 C-85.64796214 373.38312436 -93.63912804 377.61408435 -103.33984375 380.84765625 C-104.73339443 380.95761574 -106.1313823 381.01619783 -107.52905273 381.04052734 C-108.37100693 381.05659027 -109.21296112 381.0726532 -110.08042908 381.08920288 C-113.95554573 381.13405153 -117.83049393 381.17478079 -121.70581055 381.19775391 C-123.7375033 381.21422578 -125.76914025 381.2413981 -127.80053711 381.27978516 C-144.54122654 381.5941258 -156.61367897 380.03526882 -169.20703125 368.07421875 C-176.92693619 359.95672214 -180.10375645 350.94375941 -180.33984375 339.84765625 C-181.14421875 339.66203125 -181.94859375 339.47640625 -182.77734375 339.28515625 C-191.71023346 335.68065689 -197.28859064 329.48550663 -201.33984375 320.84765625 C-202.19527748 317.98124971 -202.47622423 315.39135006 -202.51342773 312.40551758 C-202.52691757 311.53393509 -202.54040741 310.6623526 -202.55430603 309.76435852 C-202.56996361 308.36119637 -202.56996361 308.36119637 -202.5859375 306.9296875 C-202.61888954 304.93293855 -202.65210095 302.93619386 -202.68554688 300.93945312 C-202.73282014 297.80398623 -202.77723844 294.66853491 -202.81665039 291.53295898 C-202.85664562 288.49835058 -202.90813374 285.46409642 -202.9609375 282.4296875 C-202.96935165 281.50436722 -202.97776581 280.57904694 -202.98643494 279.62568665 C-203.12066399 272.46865847 -203.47856534 265.66654892 -207.49609375 259.58203125 C-210.72339648 256.47885555 -213.98526864 254.32825312 -217.83984375 252.09765625 C-230.20281871 244.63884996 -240.89671042 235.78099165 -251.33984375 225.84765625 C-252.30664062 224.96013672 -252.30664062 224.96013672 -253.29296875 224.0546875 C-281.49602474 197.36721629 -296.88570772 155.96912734 -298.5078125 117.90625 C-298.76236062 70.71302786 -280.3937816 30.91518449 -247.96484375 -2.83984375 C-228.42827565 -21.81319547 -204.19651989 -35.12399599 -178.33984375 -43.15234375 C-177.54336426 -43.40000488 -176.74688477 -43.64766602 -175.92626953 -43.90283203 C-112.70129129 -63.21903588 -47.63981892 -43.82227082 0 0 Z M-242.33984375 19.84765625 C-252.4745003 31.87560029 -261.45463809 45.21993494 -267.33984375 59.84765625 C-267.7575 60.81445312 -268.17515625 61.78125 -268.60546875 62.77734375 C-282.07166757 95.3071373 -280.7352589 134.52475186 -267.33984375 166.84765625 C-253.6482157 198.11839489 -231.24228207 221.68254354 -202.14453125 239.09765625 C-191.43887192 245.77751054 -186.39394518 253.63125053 -183.33984375 265.84765625 C-183.00984375 272.11765625 -182.67984375 278.38765625 -182.33984375 284.84765625 C-144.71984375 284.84765625 -107.09984375 284.84765625 -68.33984375 284.84765625 C-68.00984375 278.24765625 -67.67984375 271.64765625 -67.33984375 264.84765625 C-63.84215708 251.52954162 -56.37315179 243.65098404 -44.80078125 236.71484375 C-34.71638 230.64571327 -25.95991036 223.85878238 -17.33984375 215.84765625 C-16.48648437 215.06519531 -15.633125 214.28273438 -14.75390625 213.4765625 C10.66496202 189.17255688 25.59131287 154.13954299 27.0078125 119.19921875 C27.91286076 78.00010772 12.38360281 41.81569947 -15.90722656 12.20727539 C-19.91946589 8.09321115 -24.10430762 4.46107304 -28.71484375 1.03515625 C-29.40255859 0.52380127 -30.09027344 0.01244629 -30.79882812 -0.5144043 C-95.6085181 -47.8240117 -188.02826282 -40.04570216 -242.33984375 19.84765625 Z M-182.33984375 304.84765625 C-182.44506589 313.46364638 -182.44506589 313.46364638 -178.33984375 319.84765625 C-175.56879121 321.58278476 -173.46215077 322.09888665 -170.21670532 322.10835266 C-169.40370468 322.11543747 -168.59070404 322.12252228 -167.75306702 322.12982178 C-166.86985275 322.12734436 -165.98663849 322.12486694 -165.07666016 322.12231445 C-164.13961746 322.12742538 -163.20257477 322.13253632 -162.23713684 322.13780212 C-159.13849506 322.15170583 -156.04007553 322.15074062 -152.94140625 322.1484375 C-150.78673215 322.15232426 -148.63205881 322.15665889 -146.47738647 322.16142273 C-141.95983396 322.16888681 -137.44235959 322.16859247 -132.92480469 322.16333008 C-127.13876932 322.15753805 -121.35305432 322.17445927 -115.56707191 322.19767475 C-111.11636488 322.21241555 -106.66573491 322.21328326 -102.21500778 322.21016502 C-100.08198792 322.21067815 -97.94896374 322.2159143 -95.81596756 322.22597694 C-92.83103963 322.23832924 -89.84673456 322.23155644 -86.86181641 322.2199707 C-85.9826506 322.22761444 -85.1034848 322.23525818 -84.19767761 322.24313354 C-79.17655971 322.20011136 -75.67173014 321.67258418 -71.33984375 318.84765625 C-67.79916036 313.77267672 -68.33984375 311.56638291 -68.33984375 304.84765625 C-105.95984375 304.84765625 -143.57984375 304.84765625 -182.33984375 304.84765625 Z M-159.33984375 341.84765625 C-158.31143233 349.04653618 -157.2167857 351.86233781 -152.33984375 356.84765625 C-150.05836266 358.49486667 -147.8959339 359.61876675 -145.33984375 360.84765625 C-144.67984375 361.17765625 -144.01984375 361.50765625 -143.33984375 361.84765625 C-140.79557388 361.97081123 -138.27976345 362.03602933 -135.734375 362.05078125 C-134.59823006 362.05933136 -134.59823006 362.05933136 -133.43913269 362.0680542 C-131.83272703 362.07750929 -130.22630192 362.0840402 -128.61987305 362.08789062 C-126.17917198 362.09755007 -123.73932981 362.12854801 -121.29882812 362.16015625 C-119.73568207 362.1666912 -118.17253 362.17193974 -116.609375 362.17578125 C-115.52460625 362.19430145 -115.52460625 362.19430145 -114.41792297 362.2131958 C-106.50826869 362.17897898 -100.9970384 359.37913547 -95.33984375 353.84765625 C-92.32299694 349.77538005 -91.33984375 347.07621777 -91.33984375 341.84765625 C-113.77984375 341.84765625 -136.21984375 341.84765625 -159.33984375 341.84765625 Z " fill="#0E4B89" transform="translate(381.33984375,131.15234375)"/>
<path d="M0 0 C4.77107088 1.54229098 7.86154812 0.44497196 12.37109375 -1.51953125 C24.82023138 -6.77193314 38.76623565 -5.5716505 51.16015625 -0.9140625 C61.52775567 3.75615071 69.81652032 11.11885865 74.6015625 21.4921875 C77.16031208 26.00060345 80.78429657 26.91474289 85.53515625 28.3984375 C93.52740607 31.18124535 99.44829265 34.49579701 105.97265625 39.9609375 C106.8234375 40.60804688 107.67421875 41.25515625 108.55078125 41.921875 C118.17210921 50.02241241 124.96070093 64.76241344 126.19165039 77.16796875 C126.95930561 92.09157094 124.69367365 103.7404908 116.16796875 116.3046875 C114.67011261 118.88189455 114.67011261 118.88189455 115.64453125 121.43359375 C116.0828125 122.26761719 116.52109375 123.10164062 116.97265625 123.9609375 C122.13649701 137.66207705 122.91816996 150.33360961 116.97265625 163.9609375 C113.15670958 170.77167775 108.01245599 176.99025173 101.97265625 181.9609375 C101.31265625 181.9609375 100.65265625 181.9609375 99.97265625 181.9609375 C100.30265625 182.9509375 100.63265625 183.9409375 100.97265625 184.9609375 C101.77090416 194.8592116 99.27571231 205.12986786 92.97265625 212.9609375 C92.25078125 213.9509375 91.52890625 214.9409375 90.78515625 215.9609375 C84.17179296 223.63967543 74.9177874 226.93975382 65.44921875 229.6953125 C60.28554286 231.23926875 57.67264376 232.88146409 53.97265625 236.9609375 C44.80912678 245.00494074 35.14658402 248.12524818 22.97265625 247.9609375 C18.35169084 247.43337199 14.13949771 246.39564314 9.78515625 244.7734375 C5.2838912 243.47307204 1.51355513 244.41368233 -2.83203125 245.95703125 C-13.52296509 249.31591878 -24.7087922 248.53096264 -34.75 243.6328125 C-47.28309164 236.44944173 -47.28309164 236.44944173 -50.02734375 230.9609375 C-52.36131851 230.27920252 -54.6616484 229.69388693 -57.02734375 229.1484375 C-69.14085267 226.12292263 -78.89977844 220.33414438 -85.671875 209.5859375 C-89.90328067 201.39139971 -92.357529 192.61186376 -90.52734375 183.4609375 C-90.36234375 182.9659375 -90.19734375 182.4709375 -90.02734375 181.9609375 C-90.60742188 181.703125 -91.1875 181.4453125 -91.78515625 181.1796875 C-100.81129941 176.27349122 -106.88927265 166.25466503 -109.90234375 156.7109375 C-112.70772553 144.78386526 -111.66199739 132.32721772 -105.6640625 121.5 C-104.70419443 118.79937108 -104.70419443 118.79937108 -106.4765625 115.83203125 C-107.21078972 114.67985155 -107.95764747 113.53565404 -108.71484375 112.3984375 C-116.48595576 99.66410886 -117.83480057 85.60397185 -115.55859375 70.94140625 C-114.89345161 68.49067421 -114.0561573 66.28165813 -113.02734375 63.9609375 C-112.64835938 63.02378906 -112.269375 62.08664063 -111.87890625 61.12109375 C-105.12764677 45.96002838 -92.33691749 34.58179116 -77.02734375 28.5234375 C-73.71880063 27.25947192 -70.38764785 26.08103887 -67.02734375 24.9609375 C-65.58822637 22.90996855 -65.58822637 22.90996855 -64.27734375 20.3984375 C-57.08074787 8.04633407 -47.56667084 0.79023328 -33.79296875 -3.32421875 C-21.97800167 -6.37808736 -11.10348967 -5.0814959 0 0 Z M-42.02734375 22.9609375 C-42.73148831 24.6121197 -43.40344387 26.27779426 -44.02734375 27.9609375 C-43.39828125 28.24066406 -42.76921875 28.52039063 -42.12109375 28.80859375 C-33.19602782 32.98885806 -24.93042786 38.51799208 -21.02734375 47.9609375 C-20.40075097 51.0051803 -20.55080391 52.78400521 -21.02734375 55.9609375 C-22.89749469 58.39213373 -24.3087272 59.60162923 -27.02734375 60.9609375 C-30.55699566 61.35312105 -32.45213204 61.30606452 -35.52734375 59.4609375 C-37.64572792 57.34255333 -39.15052046 55.40157708 -40.83984375 52.9609375 C-43.98123565 48.70895251 -46.86994278 46.31992532 -52.02734375 44.9609375 C-62.46374515 43.52473547 -71.29346246 45.76798612 -79.7890625 51.98046875 C-89.09473505 59.9229785 -95.10089947 68.77655776 -96.34375 81.09765625 C-96.66782357 89.93127453 -94.96184897 97.55917967 -90.02734375 104.9609375 C-89.31320313 104.67347656 -88.5990625 104.38601562 -87.86328125 104.08984375 C-72.68363114 98.04725576 -58.2714438 95.31007779 -42.5 101.30078125 C-28.73351497 107.65339378 -20.56603108 116.93710998 -15.02734375 130.9609375 C-13.20324714 136.73986424 -12.36330739 142.01795051 -14.02734375 147.9609375 C-16.25017444 151.20969004 -17.64715557 151.85724981 -21.46484375 152.8984375 C-25.47137526 152.96872753 -26.97088893 152.49342864 -30.02734375 149.9609375 C-31.87668791 146.92082858 -32.38449509 144.21361948 -32.83984375 140.7109375 C-34.45758573 131.42435758 -39.40358264 125.35753244 -47.02734375 119.9609375 C-54.07552853 115.73202663 -62.98202413 115.76879447 -70.8046875 117.6171875 C-78.21045752 120.26455059 -84.51855713 124.80847202 -88.46484375 131.7109375 C-91.71266169 139.2215165 -91.75553925 146.97273479 -89.12890625 154.65625 C-87.37785029 158.3198068 -84.91472538 161.13896581 -82.02734375 163.9609375 C-79.05673668 162.60050462 -76.77145749 160.99576041 -74.27734375 158.8984375 C-70.07770517 155.70765065 -67.3094328 154.87434588 -62.02734375 154.9609375 C-59.0293854 156.30045081 -57.499545 157.016535 -56.02734375 159.9609375 C-54.9998371 164.75596856 -54.9998371 164.75596856 -56.02734375 167.9609375 C-58.61136599 170.75563709 -61.35344568 173.09678348 -64.328125 175.46875 C-67.92117688 178.78621325 -69.68692008 181.83252285 -70.4609375 186.671875 C-70.47001208 192.86074123 -70.0793474 198.05136694 -66.02734375 202.9609375 C-59.57371773 208.29624566 -54.21655511 210.33719297 -45.875 210.23828125 C-39.82559585 209.64910746 -35.83483957 206.80499884 -31.52734375 202.7109375 C-29.00225374 200.44527455 -27.31532414 199.48435202 -23.90234375 199.2734375 C-20.02734375 199.9609375 -20.02734375 199.9609375 -17.02734375 202.0234375 C-14.48377921 205.75929792 -14.24839472 207.52092801 -15.02734375 211.9609375 C-18.41094373 217.14207497 -22.9969423 220.44090472 -28.02734375 223.9609375 C-24.12313251 227.0573809 -21.18630538 228.11929765 -16.21484375 228.2109375 C-15.38339844 228.23671875 -14.55195313 228.2625 -13.6953125 228.2890625 C-10.31838449 228.02481927 -10.31838449 228.02481927 -5.02734375 224.9609375 C-5.02734375 156.9809375 -5.02734375 89.0009375 -5.02734375 18.9609375 C-17.51252611 13.96686455 -31.66757791 11.93279968 -42.02734375 22.9609375 Z M14.97265625 19.9609375 C14.77933619 22.66923886 14.71221505 25.27488645 14.73214722 27.98403931 C14.73043837 28.82287639 14.72872952 29.66171347 14.72696888 30.52596986 C14.72365963 33.35284781 14.73470118 36.17949137 14.74560547 39.00634766 C14.74616927 41.02632135 14.74585363 43.04629546 14.74472046 45.06626892 C14.74414474 50.56394466 14.75593437 56.06153378 14.76986837 61.55918932 C14.78233937 67.29941403 14.78354336 73.03964054 14.78591919 78.77987671 C14.79214466 89.65607289 14.80856988 100.53222904 14.82861817 111.40840757 C14.85094402 123.78789844 14.86196225 136.16739119 14.87200904 148.54689717 C14.89293521 174.01826617 14.92813187 199.4895996 14.97265625 224.9609375 C20.666825 227.9186548 24.61113213 228.76384831 30.97265625 227.9609375 C34.47743275 226.63108181 34.47743275 226.63108181 36.97265625 224.9609375 C33.57537164 220.80480925 30.24266484 217.25494413 25.97265625 213.9609375 C24.40330031 210.82222562 24.62064522 208.42237928 24.97265625 204.9609375 C27.56236395 201.15730432 29.16192763 200.13957262 33.66015625 199.1484375 C38.74826727 199.42736986 41.86650284 202.70973487 45.48046875 206.015625 C50.275224 209.7582396 55.38588433 210.47896292 61.3125 210.3359375 C66.83141198 209.5579411 71.77401861 207.2200881 75.67578125 203.2109375 C79.95061989 197.51115264 80.74210123 191.89742655 79.97265625 184.9609375 C78.17250426 178.17475303 73.43961086 174.39933307 68.1171875 170.13671875 C65.67821353 167.66220418 65.14933747 166.39517863 64.97265625 162.9609375 C66.15044052 159.79951657 67.07126797 157.6447493 69.78515625 155.5859375 C73.81589864 154.43429682 76.89824599 154.36475139 80.60546875 156.421875 C81.42789063 157.05351562 82.2503125 157.68515625 83.09765625 158.3359375 C85.98254843 160.51982784 88.67466806 162.45632538 91.97265625 163.9609375 C92.93937381 162.90606017 93.8956437 161.84160469 94.84765625 160.7734375 C95.38132812 160.18175781 95.915 159.59007812 96.46484375 158.98046875 C101.47132586 152.27489556 100.59474386 143.9045177 99.97265625 135.9609375 C98.16163826 128.39592566 92.21829074 123.7340976 85.9453125 119.63671875 C78.44454278 115.65586331 68.8084021 115.50387585 60.72265625 117.8984375 C53.74100169 121.11842473 47.4744247 126.79723899 44.47265625 133.8984375 C43.05191567 138.12761876 42.19290928 142.41916631 41.5625 146.83203125 C40.85437518 149.38784599 40.08062281 150.37140355 37.97265625 151.9609375 C31.23500532 153.48234255 31.23500532 153.48234255 27.09765625 151.7734375 C24.82723876 149.83690493 24.0386413 148.71513418 22.97265625 145.9609375 C22.29337472 134.39573401 26.98276772 123.50978702 33.76953125 114.34765625 C43.00761892 104.33972794 55.73624229 98.55333347 69.26953125 97.83984375 C80.43365601 97.54513859 89.72183757 100.75135365 99.97265625 104.9609375 C100.79017928 103.38019186 101.60147622 101.79622527 102.41015625 100.2109375 C102.86261719 99.32921875 103.31507813 98.4475 103.78125 97.5390625 C107.50426397 89.4827044 107.17257627 79.44737266 104.34765625 71.1484375 C102.23821954 66.07072199 99.58217794 61.13766974 95.97265625 56.9609375 C95.31265625 56.9609375 94.65265625 56.9609375 93.97265625 56.9609375 C93.64265625 55.9709375 93.31265625 54.9809375 92.97265625 53.9609375 C89.842489 51.61788833 86.41493982 49.80555798 82.97265625 47.9609375 C82.32941406 47.61289063 81.68617188 47.26484375 81.0234375 46.90625 C74.73163945 44.04013809 67.72150806 44.03219642 60.97265625 44.9609375 C54.38682287 47.51779046 50.38020296 52.46376165 46.3828125 58.10546875 C44.97265625 59.9609375 44.97265625 59.9609375 42.97265625 60.9609375 C39.06397675 61.21585138 36.26323127 61.19382769 32.97265625 58.9609375 C30.93296782 55.90140485 30.30214333 54.00553229 30.41015625 50.33984375 C32.39747626 41.93513622 39.64000662 35.88187426 46.578125 31.3984375 C47.36832031 30.9240625 48.15851563 30.4496875 48.97265625 29.9609375 C49.89691406 29.4040625 50.82117188 28.8471875 51.7734375 28.2734375 C52.49917969 27.8403125 53.22492188 27.4071875 53.97265625 26.9609375 C51.17209571 20.83471132 46.0495927 18.42947535 40.22265625 15.6484375 C31.84970481 13.87723623 21.44518301 13.48841074 14.97265625 19.9609375 Z " fill="#0E4B89" transform="translate(251.02734375,122.0390625)"/>
<path d="M0 0 C0.74588379 0.00725098 1.49176758 0.01450195 2.26025391 0.02197266 C4.42518802 0.04996545 6.58621575 0.11310489 8.75 0.1875 C10.00296875 0.22230469 11.2559375 0.25710937 12.546875 0.29296875 C17.13067991 1.23150799 18.78679028 2.61741928 22 6 C22.796875 8.28125 22.796875 8.28125 22.75 10.5 C22.76546875 11.2321875 22.7809375 11.964375 22.796875 12.71875 C21.55070504 16.28621696 19.24403348 18.25495768 16 20 C12.28499372 20.70961696 8.64359335 20.65408301 4.87109375 20.59375 C3.27020653 20.59381042 3.27020653 20.59381042 1.63697815 20.59387207 C-0.61308704 20.58852381 -2.86315218 20.57097103 -5.11303711 20.54199219 C-8.55445482 20.50009794 -11.99391683 20.50092973 -15.43554688 20.5078125 C-17.62501358 20.49732082 -19.81447022 20.48438285 -22.00390625 20.46875 C-23.03109268 20.46854858 -24.05827911 20.46834717 -25.11659241 20.46813965 C-33.99934514 20.32110425 -33.99934514 20.32110425 -38 17 C-40.15879198 14.35057347 -40.09478727 12.21683717 -39.8125 8.9375 C-39.4137512 6.41365467 -39.12098346 5.17047669 -37.625 3.0625 C-28.60471066 -2.83538149 -10.49772854 -0.19309823 0 0 Z " fill="#0E4B89" transform="translate(490,233)"/>
<path d="M0 0 C4.31162314 2.1693109 8.53272769 4.47744754 12.73950195 6.8425293 C14.68983466 7.93881232 16.64601358 9.02400142 18.60351562 10.10742188 C36.99322241 20.33923066 36.99322241 20.33923066 38.875 25.3125 C39.0473821 29.01871518 38.01328893 30.91295698 36 34 C33.69910576 36.09787416 32.15034247 36.98901754 29.00537109 37.01904297 C23.55141543 36.49524368 19.42900689 35.07833552 14.75 32.1875 C13.37669759 31.37433169 12.00297585 30.56187126 10.62890625 29.75 C9.89559082 29.31042969 9.16227539 28.87085938 8.40673828 28.41796875 C5.76174159 26.85962621 3.08701935 25.36389521 0.40234375 23.875 C-0.54543945 23.34624268 -1.49322266 22.81748535 -2.46972656 22.27270508 C-4.33745891 21.2312085 -6.20783408 20.19443463 -8.08105469 19.1628418 C-8.93731445 18.67984619 -9.79357422 18.19685059 -10.67578125 17.69921875 C-11.43802002 17.27471436 -12.20025879 16.85020996 -12.9855957 16.4128418 C-15.25768899 14.81926479 -16.5582585 13.36783988 -18 11 C-18.72727273 5.90909091 -18.72727273 5.90909091 -18 3 C-12.66447628 -3.84557761 -7.26582515 -3.09090292 0 0 Z " fill="#0E4B89" transform="translate(51,119)"/>
<path d="M0 0 C5.25112015 -0.094033 10.49301072 -0.06839596 15.74365234 0.04150391 C16.45569824 0.05407227 17.16774414 0.06664062 17.90136719 0.07958984 C19.93283175 0.12579164 21.96337953 0.20798632 23.99365234 0.29150391 C25.15380859 0.33791016 26.31396484 0.38431641 27.50927734 0.43212891 C31.43400698 1.17157072 33.68388987 2.4969747 36.74365234 5.04150391 C37.97058932 7.69021334 37.99672467 10.1484271 37.74365234 13.04150391 C36.52897344 15.98230546 35.64384682 17.4875445 32.93392944 19.15516663 C30.43790996 20.16522838 28.57492126 20.31399175 25.88671875 20.34790039 C24.92537018 20.36388779 23.96402161 20.37987518 22.97354126 20.39634705 C21.94119354 20.40170975 20.90884583 20.40707245 19.84521484 20.41259766 C18.24364029 20.42614037 18.24364029 20.42614037 16.60971069 20.43995667 C14.35197757 20.45445772 12.09420244 20.46334554 9.83642578 20.46704102 C6.38811218 20.47893678 2.94158834 20.52812565 -0.50634766 20.57861328 C-2.70165144 20.58807778 -4.89696619 20.59531269 -7.09228516 20.60009766 C-8.63473404 20.62939613 -8.63473404 20.62939613 -10.20834351 20.6592865 C-18.20637537 20.60905168 -18.20637537 20.60905168 -21.90429688 17.64916992 C-24.29902316 14.99419054 -25.08042846 14.04799521 -25.00634766 10.54150391 C-25.02181641 9.80931641 -25.03728516 9.07712891 -25.05322266 8.32275391 C-23.82170329 4.79722787 -21.40524159 2.84874848 -18.25634766 1.04150391 C-14.80322266 0.33447266 -14.80322266 0.33447266 -11.00634766 0.22900391 C-9.97296265 0.19347412 -9.97296265 0.19347412 -8.91870117 0.15722656 C-5.94616718 0.06843442 -2.97325975 0.05469099 0 0 Z " fill="#0E4B89" transform="translate(24.25634765625,232.95849609375)"/>
<path d="M0 0 C2.8100346 1.79363911 4.50940468 3.01880935 6 6 C6.36740207 9.89446192 6.5336095 12.18328809 4.36132812 15.50805664 C1.72600136 18.28915468 -0.70508219 19.78177654 -4.09375 21.55859375 C-4.68111938 21.87022964 -5.26848877 22.18186554 -5.87365723 22.50294495 C-7.74374552 23.4917317 -9.62158382 24.46464502 -11.5 25.4375 C-12.72969507 26.08558692 -13.9588666 26.73466825 -15.1875 27.38476562 C-17.60924837 28.66281645 -20.03744633 29.92699479 -22.47265625 31.17919922 C-24.78157271 32.37105269 -27.08155652 33.58041236 -29.37109375 34.80908203 C-30.93537109 35.63255127 -30.93537109 35.63255127 -32.53125 36.47265625 C-33.44455078 36.9612915 -34.35785156 37.44992676 -35.29882812 37.95336914 C-38.41973868 39.16263736 -40.67876189 39.29997725 -44 39 C-47.64166108 36.93087439 -48.81770207 35.41776609 -50.5 31.5625 C-51 28 -51 28 -49.9375 25.3125 C-46.2062943 20.85912546 -41.72923114 18.15962328 -36.6328125 15.46875 C-36.03499969 15.15095581 -35.43718689 14.83316162 -34.82125854 14.5057373 C-32.92506848 13.4988954 -31.02523539 12.49918254 -29.125 11.5 C-27.23646239 10.50137957 -25.34872074 9.50127544 -23.46139526 8.50036621 C-21.67732964 7.55484329 -19.89166289 6.61234341 -18.10595703 5.66992188 C-15.65587859 4.35263398 -13.25971759 2.99218375 -10.875 1.5625 C-6.69890111 -0.70711896 -4.68267418 -0.60421602 0 0 Z " fill="#0E4B89" transform="translate(473,117)"/>
<path d="M0 0 C3.08469767 0.06091863 4.34281594 0.35989537 7.1875 1.8125 C9.41113897 4.50781996 10.28641006 6.56214905 10.51220703 10.06762695 C9.53432633 18.43970617 2.56603365 26.97722303 -1.75 34 C-2.35328125 34.99322266 -2.9565625 35.98644531 -3.578125 37.00976562 C-13.39449756 53.06807073 -13.39449756 53.06807073 -17.75 54.3125 C-20.9028484 54.57893789 -23.72992755 54.26008237 -26.75 53.3125 C-29.58462329 50.33960241 -30.64541177 48.50641491 -31.00390625 44.4140625 C-30.71920337 40.93630734 -29.96480496 39.31596901 -28.125 36.375 C-27.4959375 35.3540625 -26.866875 34.333125 -26.21875 33.28125 C-25.84234375 32.68054687 -25.4659375 32.07984375 -25.078125 31.4609375 C-23.46836201 28.85690914 -21.90672189 26.2261237 -20.34375 23.59375 C-19.10468808 21.52052162 -17.86509938 19.44760799 -16.625 17.375 C-16.0273584 16.36767822 -15.4297168 15.36035645 -14.81396484 14.32250977 C-11.84292495 9.40417298 -9.08060692 5.11169544 -4.75 1.3125 C-3.75 0.3125 -3.75 0.3125 0 0 Z " fill="#0E4B89" transform="translate(378.75,30.6875)"/>
<path d="M0 0 C2.94944414 2.30826063 4.60804878 4.02012195 6 7.5 C6 11.0442512 5.28359238 12.24625624 3 15 C-3.5537181 19.98020403 -10.87884551 23.77238618 -18.125 27.625 C-20.21131833 28.74147615 -22.29726557 29.85864607 -24.3828125 30.9765625 C-25.84436768 31.75543823 -25.84436768 31.75543823 -27.33544922 32.55004883 C-29.57850967 33.77064036 -31.76700608 35.04508505 -33.953125 36.36328125 C-38.14238077 38.61366352 -41.37031024 38.97785971 -46 38 C-49.0432531 36.0125694 -50.62073803 34.67958873 -51.4375 31.0625 C-51.65748855 27.43268892 -51.46051393 25.66980756 -49.34545898 22.59350586 C-46.726969 19.69809427 -44.35633847 18.25042882 -40.90625 16.44140625 C-40.31888062 16.12977036 -39.73151123 15.81813446 -39.12634277 15.49705505 C-37.25625448 14.5082683 -35.37841618 13.53535498 -33.5 12.5625 C-32.27030493 11.91441308 -31.0411334 11.26533175 -29.8125 10.61523438 C-26.22021034 8.7200541 -22.61112119 6.85905038 -19 5 C-17.86361084 4.40517822 -16.72722168 3.81035645 -15.55639648 3.19750977 C-14.49493408 2.65022217 -13.43347168 2.10293457 -12.33984375 1.5390625 C-11.40261475 1.05260254 -10.46538574 0.56614258 -9.49975586 0.06494141 C-5.87799511 -1.47799447 -3.65309687 -1.41650695 0 0 Z " fill="#0E4B89" transform="translate(84,332)"/>
<path d="M0 0 C2.40208489 1.00701413 4.53887416 2.02995038 6.796875 3.2890625 C7.74738739 3.80042252 7.74738739 3.80042252 8.71710205 4.32211304 C10.73458866 5.41152108 12.74205742 6.51811924 14.75 7.625 C16.08274214 8.34614573 17.41607121 9.06620787 18.75 9.78515625 C22.518499 11.82418297 26.26413906 13.90186029 30 16 C31.52270508 16.85223145 31.52270508 16.85223145 33.07617188 17.72167969 C33.96369141 18.23375977 34.85121094 18.74583984 35.765625 19.2734375 C36.89919434 19.92578369 36.89919434 19.92578369 38.05566406 20.59130859 C40.25894631 22.18760927 41.57993333 23.68203126 43 26 C43.37369873 30.18542579 43.46981808 33.49025852 41 37 C36.94869811 39.70086792 33.67144548 39.81978956 29 39 C24.53632382 37.20274424 20.42317285 34.88531779 16.25 32.5 C15.10072021 31.8608667 13.95144043 31.2217334 12.76733398 30.56323242 C-9.95269041 17.85078028 -9.95269041 17.85078028 -13 14 C-13.39916548 10.90646756 -13.63472337 8.96011901 -13 6 C-8.99131479 1.04188934 -6.32324732 -0.51368197 0 0 Z " fill="#0E4B89" transform="translate(436,331)"/>
<path d="M0 0 C4.27662826 2.75208948 6.30882945 5.81256686 8.6875 10.25 C9.37062284 11.49778219 10.05696375 12.74380664 10.74609375 13.98828125 C11.10687012 14.64006348 11.46764648 15.2918457 11.83935547 15.96337891 C14.25167135 20.19634884 16.88873851 24.29248189 19.4987793 28.40527344 C27.82680694 41.56669722 27.82680694 41.56669722 27 47 C25.72311154 49.80915461 24.68900183 51.50106764 22.1875 53.3125 C18.33985165 54.52176091 15.28802151 54.58451544 11.58984375 52.90625 C8.31573877 50.49635071 6.52745197 47.63110548 4.5 44.1875 C4.08637207 43.50115479 3.67274414 42.81480957 3.24658203 42.10766602 C2.33182557 40.58569764 1.42209127 39.06070288 0.51660156 37.53320312 C-1.1386087 34.76847974 -2.83701748 32.03299265 -4.5390625 29.296875 C-5.73541068 27.34438422 -6.93073305 25.39126449 -8.125 23.4375 C-8.99608398 22.04664185 -8.99608398 22.04664185 -9.88476562 20.62768555 C-12.96595001 15.51323463 -14.96191037 12.01193982 -14 6 C-10.39432339 0.47129586 -6.60551903 -1.29730013 0 0 Z " fill="#0E4B89" transform="translate(137,31)"/>
<path d="M0 0 C1.2375 -0.02320312 1.2375 -0.02320312 2.5 -0.046875 C6.21015192 1.13573592 8.18713357 3.41520505 10 6.75 C10.72408888 10.31800067 10.70151273 13.80998249 10.6640625 17.44140625 C10.66884613 18.46427231 10.67362976 19.48713837 10.67855835 20.54100037 C10.68195155 22.69686426 10.67278992 24.85278001 10.65185547 27.00854492 C10.62505534 30.30569153 10.65163852 33.59944242 10.68359375 36.89648438 C10.68029009 38.99479917 10.67388477 41.09311185 10.6640625 43.19140625 C10.67418365 44.17484512 10.68430481 45.158284 10.69473267 46.17152405 C10.61421334 50.87794292 10.55434965 53.03944898 7.58349609 56.84741211 C3.76807401 59.65723863 1.75342304 60.12281749 -3 59.75 C-6.80141594 58.02208366 -8.45162891 56.5868407 -10 52.75 C-10.27415466 50.5630188 -10.27415466 50.5630188 -10.30639648 48.16845703 C-10.33037758 46.81652756 -10.33037758 46.81652756 -10.35484314 45.43728638 C-10.36020584 44.47056 -10.36556854 43.50383362 -10.37109375 42.5078125 C-10.38012222 41.50668427 -10.3891507 40.50555603 -10.39845276 39.47409058 C-10.41295044 37.35759469 -10.42184079 35.24105403 -10.42553711 33.12451172 C-10.43743213 29.89343446 -10.48662239 26.66426801 -10.53710938 23.43359375 C-10.54657411 21.3750093 -10.5538089 19.31641315 -10.55859375 17.2578125 C-10.57812607 16.29513458 -10.59765839 15.33245667 -10.61778259 14.34060669 C-10.58784085 9.86938868 -10.47388435 6.72150267 -7.62133789 3.14306641 C-4.80081027 0.56815612 -3.75465391 -0.07039976 0 0 Z " fill="#0E4B89" transform="translate(256,-0.75)"/>
</svg>
