<?xml version="1.0" encoding="UTF-8"?>
<svg version="1.1" xmlns="http://www.w3.org/2000/svg" width="512" height="512">
<path d="M0 0 C0.97743164 0.20367188 1.95486328 0.40734375 2.96191406 0.6171875 C56.2932565 12.17142016 102.74572996 44.79584008 132.78515625 90.1484375 C156.49230125 127.03046721 168.46805981 168.74518152 168.375 212.4375 C168.37478851 213.35798126 168.37457703 214.27846252 168.37435913 215.22683716 C168.34019156 230.17102128 167.35956068 244.38853352 164 259 C163.81808105 259.83354004 163.63616211 260.66708008 163.44873047 261.52587891 C155.68026686 296.53603261 138.25407057 327.07974713 115 354 C114.34773438 354.77730469 113.69546875 355.55460937 113.0234375 356.35546875 C109.6573195 360.32871762 106.11191422 363.81308952 102.1328125 367.171875 C100.67960844 368.41747848 99.25825415 369.70099058 97.8671875 371.015625 C82.9808516 385.04410425 64.95588073 395.42954284 47 405 C47.06525879 406.23000732 47.06525879 406.23000732 47.13183594 407.48486328 C47.49139648 420.49581823 45.64687118 433.15393982 43.80175781 446.01074219 C43.24855497 449.88512035 42.72095478 453.76242255 42.1953125 457.640625 C41.84527899 460.13302771 41.49376789 462.62522345 41.140625 465.1171875 C40.90910736 466.83468704 40.90910736 466.83468704 40.6729126 468.58688354 C38.75684499 481.63663895 34.28036699 492.26496699 23.84375 500.6875 C14.25956724 507.51013858 4.17065189 508.30785043 -7.3046875 508.265625 C-9.04433273 508.26849518 -9.04433273 508.26849518 -10.81912231 508.27142334 C-13.26141579 508.27277845 -15.70371664 508.26912936 -18.14599609 508.26074219 C-21.85661243 508.25005297 -25.56674251 508.2606508 -29.27734375 508.2734375 C-31.66145939 508.27211541 -34.04557473 508.26955198 -36.4296875 508.265625 C-37.52586395 508.26967346 -38.62204041 508.27372192 -39.75143433 508.27789307 C-54.30562789 508.19061113 -67.17353661 505.38304936 -78.90625 496.48828125 C-81.8799174 494.37453633 -84.45715899 493.87067584 -88.01171875 493.68359375 C-88.76904297 493.64169922 -89.52636719 493.59980469 -90.30664062 493.55664062 C-91.48516602 493.49766602 -91.48516602 493.49766602 -92.6875 493.4375 C-93.48478516 493.39431641 -94.28207031 493.35113281 -95.10351562 493.30664062 C-97.06881447 493.20072632 -99.03438496 493.09987449 -101 493 C-100.95359375 493.59167969 -100.9071875 494.18335938 -100.859375 494.79296875 C-100.66630347 499.01985618 -100.5780245 501.3248392 -102.875 505 C-106.20594338 508.13500553 -108.16779162 508.14064786 -112.65551758 508.20874023 C-113.84047318 508.22803085 -115.02542877 508.24732147 -116.24629211 508.26719666 C-121.6678418 508.32477045 -127.08922822 508.37451681 -132.51098633 508.4050293 C-135.37374727 508.42283871 -138.23552237 508.45764934 -141.09790039 508.50756836 C-145.21777114 508.57933173 -149.33657432 508.60199522 -153.45703125 508.62109375 C-154.73737747 508.64892441 -156.01772369 508.67675507 -157.33686829 508.70542908 C-158.53128036 508.70265457 -159.72569244 508.69988007 -160.95629883 508.69702148 C-162.00505692 508.70732895 -163.053815 508.71763641 -164.13435364 508.72825623 C-167.38599538 507.90190571 -169.06463595 506.69217181 -171.05923176 503.98032093 C-173.00068768 499.89354842 -172.6639606 495.54013098 -172.59936523 491.10107422 C-172.60330795 490.01422333 -172.60725067 488.92737244 -172.61131287 487.80758667 C-172.61801408 484.22281491 -172.58888003 480.63932253 -172.55859375 477.0546875 C-172.55434298 474.56178026 -172.552015 472.06886907 -172.55152893 469.57595825 C-172.54457717 463.68750106 -172.5139604 457.79951389 -172.47317892 451.91120255 C-172.43333333 445.88296877 -172.42666194 439.85496402 -172.42332363 433.82661247 C-172.4188985 428.68112344 -172.40360145 423.53571618 -172.3844471 418.3902626 C-172.37555972 415.92067259 -172.36883223 413.45107384 -172.36428642 410.98147202 C-172.35525887 407.53421048 -172.33288159 404.0873027 -172.30639648 400.64013672 C-172.30573181 399.61666138 -172.30506714 398.59318604 -172.30438232 397.53869629 C-172.2944072 396.59948334 -172.28443207 395.66027039 -172.27415466 394.69259644 C-172.26950416 393.87815001 -172.26485365 393.06370358 -172.26006222 392.22457695 C-171.9732269 389.77098243 -171.22543966 388.12793492 -170 386 C-170.67804688 385.52691406 -171.35609375 385.05382812 -172.0546875 384.56640625 C-177.92562971 380.39494731 -183.39261322 376.02211317 -188.6796875 371.1328125 C-190.68036832 369.29380286 -192.72504881 367.55058697 -194.8125 365.8125 C-227.44856405 337.18206957 -247.77029366 295.83684408 -257 254 C-257.17934082 253.21415527 -257.35868164 252.42831055 -257.54345703 251.61865234 C-263.40081516 224.65851834 -262.13618695 192.72745008 -256 166 C-255.79632813 165.05817871 -255.59265625 164.11635742 -255.3828125 163.14599609 C-243.61561375 109.51262956 -210.68471927 60.04117604 -164.5 30.04296875 C-142.03036725 15.8023304 -118.02050996 5.64187777 -92 0 C-90.55222168 -0.31759277 -90.55222168 -0.31759277 -89.07519531 -0.64160156 C-60.19881634 -6.68906095 -28.8152271 -6.07623403 0 0 Z M-170 61 C-170.80308594 61.69351563 -171.60617188 62.38703125 -172.43359375 63.1015625 C-174.99417878 65.3625471 -177.50392924 67.66804399 -180 70 C-180.86367187 70.79792969 -181.72734375 71.59585938 -182.6171875 72.41796875 C-216.73686132 105.1036273 -237.89978658 154.94419551 -239.26506042 202.04237366 C-239.32545027 205.42459213 -239.33063676 208.8048694 -239.3125 212.1875 C-239.31067719 212.90167084 -239.30885437 213.61584167 -239.30697632 214.35165405 C-239.25538673 226.4328593 -238.46507532 238.15259568 -236 250 C-235.83371094 250.81645996 -235.66742188 251.63291992 -235.49609375 252.47412109 C-225.96077287 297.7933823 -199.9326887 337.33543869 -163 365 C-162.42733398 365.43344727 -161.85466797 365.86689453 -161.26464844 366.31347656 C-157.83573457 368.89642196 -154.35373746 371.37306028 -150.79199219 373.76953125 C-149.59379164 374.59227386 -148.41179413 375.43910633 -147.24707031 376.30859375 C-135.61660315 384.9560674 -123.82926716 385.6474881 -109.5793457 384.45263672 C-106.0463481 383.83264831 -104.30121019 382.74196617 -102 380 C-100.15251934 377.23173207 -100.15251934 377.23173207 -98.6875 374.25 C-98.17574219 373.26515625 -97.66398438 372.2803125 -97.13671875 371.265625 C-96.76160156 370.51796875 -96.38648438 369.7703125 -96 369 C-96.969375 368.6596875 -97.93875 368.319375 -98.9375 367.96875 C-109.02600437 364.35254804 -118.57706011 360.1037979 -128 355 C-128.6276123 354.66129883 -129.25522461 354.32259766 -129.90185547 353.97363281 C-157.39466938 338.89946825 -178.7821593 315.77292631 -193 288 C-193.31807617 287.38302246 -193.63615234 286.76604492 -193.96386719 286.13037109 C-205.90684819 262.64999621 -211.22670131 237.43209567 -211.25 211.1875 C-211.25101212 210.15913025 -211.25101212 210.15913025 -211.25204468 209.10998535 C-211.2339991 197.51966672 -210.47367668 186.34580051 -208 175 C-207.83371094 174.22333984 -207.66742188 173.44667969 -207.49609375 172.64648438 C-200.89163185 142.82856196 -186.91115756 117.11294822 -166 95 C-165.14277344 94.06671875 -164.28554687 93.1334375 -163.40234375 92.171875 C-146.77122 74.4645681 -125.12773184 62.30930325 -102.5625 53.75 C-101.81234619 53.46205566 -101.06219238 53.17411133 -100.28930664 52.87744141 C-94.75466274 50.90976261 -89.3812717 49.93222999 -83.625 51.75 C-81.5832488 53.32057785 -80.9585932 54.61407418 -80 57 C-79.91796875 59.25390625 -79.91796875 59.25390625 -80.1875 61.5625 C-80.30158203 62.70912109 -80.30158203 62.70912109 -80.41796875 63.87890625 C-81.12318102 66.44890801 -81.99182173 67.277391 -84 69 C-85.83081055 69.85620117 -85.83081055 69.85620117 -87.88671875 70.54296875 C-88.65218018 70.80770996 -89.4176416 71.07245117 -90.20629883 71.34521484 C-91.02509521 71.62316895 -91.8438916 71.90112305 -92.6875 72.1875 C-130.20942492 85.51610927 -160.00803504 111.2619975 -177.7421875 147.03125 C-183.82740129 159.97587781 -187.84238137 173.8758965 -190 188 C-190.18304688 189.17175781 -190.36609375 190.34351563 -190.5546875 191.55078125 C-192.58012539 208.4476229 -191.96394605 226.43804038 -188 243 C-187.83371094 243.72654785 -187.66742188 244.4530957 -187.49609375 245.20166016 C-182.43905452 266.82986775 -172.59936541 287.19375377 -158 304 C-156.97132813 305.21042969 -156.97132813 305.21042969 -155.921875 306.4453125 C-139.05527434 325.7994334 -117.6881225 340.01421853 -93.5 348.6875 C-92.7879541 348.94370117 -92.0759082 349.19990234 -91.34228516 349.46386719 C-87.21465685 350.86931831 -87.21465685 350.86931831 -83 350 C-81.59007221 348.23923721 -81.59007221 348.23923721 -80.3203125 346.01171875 C-79.55460937 344.74775269 -79.55460937 344.74775269 -78.7734375 343.45825195 C-78.22945312 342.54390381 -77.68546875 341.62955566 -77.125 340.6875 C-75.9624544 338.77772162 -74.7983482 336.86889249 -73.6328125 334.9609375 C-73.03500977 333.97834961 -72.43720703 332.99576172 -71.82128906 331.98339844 C-68.92152637 327.23338502 -65.98262451 322.51088897 -63 317.8125 C-62.47293457 316.95809326 -61.94586914 316.10368652 -61.40283203 315.22338867 C-57.73937899 309.48936462 -57.73937899 309.48936462 -54.5625 307.38671875 C-47.1998 306.27557957 -41.69634183 309.34770735 -35.4375 312.75 C-34.61314453 313.18054688 -33.78878906 313.61109375 -32.93945312 314.0546875 C-22.96783622 319.37925991 -15.76119872 325.9041389 -12.1875 336.9375 C-10.86237839 341.9028086 -10.31591128 346.88005849 -10 352 C14.2008311 345.3784651 34.59671499 335.22784939 53 318 C53.90234375 317.16726563 54.8046875 316.33453125 55.734375 315.4765625 C79.71609947 292.4630443 94.10221647 260.5666054 99 228 C99.19722656 226.75669922 99.19722656 226.75669922 99.3984375 225.48828125 C104.26053727 187.83986009 92.70630273 150.69523513 69.8125 120.9375 C51.04768172 97.36386099 26.28419286 79.75725375 -2.625 70.9375 C-6.09076247 69.80997194 -7.92371148 69.06415171 -10.75 66.6875 C-12.38547292 63.17123322 -12.48005368 60.84042943 -12 57 C-9.8 52.4 -9.8 52.4 -7 51 C-0.41092071 50.27475672 4.97392563 51.59878218 11.0625 54 C11.88322998 54.31469238 12.70395996 54.62938477 13.54956055 54.95361328 C54.62500269 71.06334061 88.30990917 101.97885671 106.64257812 142.3269043 C124.43715617 183.31180076 124.38032466 229.57500088 108.43334961 271.15380859 C91.47617268 313.52819822 60.4913637 345.88030736 18.78808594 364.25195312 C6.29678603 369.54478583 -6.68098076 372.6153721 -20 375 C-20 375.66 -20 376.32 -20 377 C-18.45058716 377.01401855 -18.45058716 377.01401855 -16.86987305 377.02832031 C-12.98729468 377.06860543 -9.1054771 377.13446442 -5.22338867 377.20751953 C-3.55259068 377.23550825 -1.88166572 377.25683112 -0.21069336 377.27099609 C11.41781711 377.37541253 21.44071128 377.746857 31.06640625 385.02734375 C33.50315837 386.63595913 34.41025608 387.11246859 37.31201172 386.55908203 C39.99861886 385.40919928 42.43063996 384.064476 44.9375 382.5625 C45.854104 382.04550537 46.77070801 381.52851074 47.71508789 380.99584961 C72.12583528 366.94617887 93.18111635 348.55415417 110 326 C110.63784424 325.16130371 110.63784424 325.16130371 111.28857422 324.30566406 C130.49819521 299.00302604 142.32135493 269.3704835 147 238 C147.0942627 237.36803711 147.18852539 236.73607422 147.28564453 236.08496094 C148.2563401 228.67016649 148.24358418 221.21714041 148.25 213.75 C148.25067474 213.04202271 148.25134949 212.33404541 148.25204468 211.60461426 C148.23383914 199.52770502 147.45271213 187.84592364 145 176 C144.83371094 175.18740723 144.66742188 174.37481445 144.49609375 173.53759766 C136.5152757 135.90212884 118.25463377 102.75342916 92.3125 74.5625 C91.80211182 74.00723633 91.29172363 73.45197266 90.76586914 72.87988281 C77.99319826 59.2845515 62.3363072 47.91574732 46 39 C45.37303223 38.65630371 44.74606445 38.31260742 44.10009766 37.95849609 C-22.95709539 1.69894817 -112.2191395 11.06592302 -170 61 Z M-47 331 C-48.22558253 332.49626009 -48.22558253 332.49626009 -49.3984375 334.48828125 C-49.87152344 335.24753906 -50.34460938 336.00679688 -50.83203125 336.7890625 C-51.59580078 338.03816406 -51.59580078 338.03816406 -52.375 339.3125 C-53.46595791 341.06912714 -54.557109 342.82563432 -55.6484375 344.58203125 C-56.2062793 345.48518066 -56.76412109 346.38833008 -57.33886719 347.31884766 C-59.86525183 351.39656021 -62.43275831 355.44793498 -65 359.5 C-68.08213173 364.37159308 -71.15705042 369.2473587 -74.2109375 374.13671875 C-75.00564453 375.40515625 -75.00564453 375.40515625 -75.81640625 376.69921875 C-76.81927504 378.30028997 -77.81949343 379.903026 -78.81640625 381.5078125 C-87.59757032 395.5035614 -87.59757032 395.5035614 -93.125 399.375 C-94.08792969 400.06722656 -94.08792969 400.06722656 -95.0703125 400.7734375 C-97 402 -97 402 -101 404 C-101 426.44 -101 448.88 -101 472 C-91.1 472.495 -91.1 472.495 -81 473 C-73.59617263 474.98453105 -68.26018445 477.82171621 -62.09375 482.31640625 C-53.89809154 486.77641736 -45.21875459 487.45229714 -36.05078125 487.3984375 C-34.40459053 487.40274277 -34.40459053 487.40274277 -32.72514343 487.40713501 C-30.42344644 487.40916228 -28.12173168 487.40372691 -25.82006836 487.39111328 C-22.31129349 487.37499446 -18.80366223 487.39103238 -15.29492188 487.41015625 C-13.04687248 487.40817449 -10.79882379 487.4043322 -8.55078125 487.3984375 C-7.51101639 487.40451019 -6.47125153 487.41058289 -5.39997864 487.4168396 C1.40612806 487.35149429 7.50101146 486.78973411 13.0234375 482.38671875 C13.46945312 481.82597656 13.91546875 481.26523437 14.375 480.6875 C14.83648437 480.13449219 15.29796875 479.58148438 15.7734375 479.01171875 C19.38260608 473.09222251 19.84827417 466.12012795 20.76171875 459.390625 C20.91663284 458.26863708 21.07154694 457.14664917 21.2311554 455.99066162 C21.55602817 453.62082223 21.87775162 451.25054925 22.1965332 448.87988281 C22.68414193 445.27482736 23.19020602 441.67267673 23.69726562 438.0703125 C24.01155371 435.7605711 24.3247405 433.45067953 24.63671875 431.140625 C24.78872238 430.07362366 24.94072601 429.00662231 25.09733582 427.9072876 C26.03585145 420.74411519 26.88680194 413.12392217 23.80078125 406.37890625 C19.29789634 400.88325932 15.12475901 398.08926086 8 397 C4.84546527 396.84950782 1.69285855 396.83926279 -1.46484375 396.82421875 C-3.3352978 396.80102742 -5.20574056 396.77691036 -7.07617188 396.75195312 C-10.01008765 396.71682376 -12.94358481 396.68747221 -15.87768555 396.67407227 C-18.71974552 396.65857055 -21.56060293 396.61836032 -24.40234375 396.57421875 C-25.2743895 396.57612717 -26.14643524 396.57803558 -27.04490662 396.58000183 C-32.50849735 396.47069464 -35.65277319 395.61900035 -40 392 C-43.15261229 388.23003543 -44.32132513 384.22951343 -43.94140625 379.35546875 C-43.22092099 373.38275033 -40.61692955 368.98975231 -37.5 363.9375 C-33.72019143 357.7822198 -30.62359431 352.42797742 -31 345 C-32.49236931 339.28508869 -35.11772895 336.59421815 -40.125 333.5 C-43.38125877 331.56738864 -43.38125877 331.56738864 -47 331 Z M-151 405 C-151 432.39 -151 459.78 -151 488 C-141.43 488 -131.86 488 -122 488 C-122 460.61 -122 433.22 -122 405 C-131.57 405 -141.14 405 -151 405 Z " fill="#134A87" transform="translate(302,4)"/>
<path d="M0 0 C1.08087891 0.05800781 1.08087891 0.05800781 2.18359375 0.1171875 C8.99869232 3.00437212 13.01741649 11.7939161 16.7109375 17.8203125 C17.89206109 19.69036452 19.07573665 21.55880671 20.26171875 23.42578125 C22.10572455 26.33316535 23.93472771 29.24543614 25.72216797 32.18798828 C33.40587542 45.79785017 33.40587542 45.79785017 46.21484375 53.5859375 C48.25577288 54.03753576 50.28963426 54.40857058 52.35437012 54.73431396 C56.47192277 55.46283557 60.46144194 56.70381186 64.48046875 57.84375 C66.18225467 58.30851627 67.8847346 58.77074865 69.58789062 59.23046875 C70.85983276 59.57537354 70.85983276 59.57537354 72.1574707 59.92724609 C73.90419436 60.39735968 75.65228235 60.86242961 77.40161133 61.32275391 C79.97400345 62.00184068 82.53984007 62.70210362 85.10546875 63.40625 C86.27108589 63.70492981 86.27108589 63.70492981 87.46025085 64.00964355 C92.38515212 65.38625985 95.21296214 67.06370554 98.5625 71.125 C99.41015625 73.1171875 99.41015625 73.1171875 99.625 75 C99.71910156 75.61617188 99.81320312 76.23234375 99.91015625 76.8671875 C98.97853421 82.91749695 94.36436911 87.81339307 90.4375 92.25 C86.23203084 97.11010738 82.13198295 102.01833173 78.35766602 107.22436523 C76.24951197 110.1014201 74.17713165 112.54246976 71.45703125 114.859375 C66.70549729 119.2074558 63.89201799 123.07441082 63.18359375 129.6328125 C62.98706831 138.36537777 63.62014061 147.05245025 64.26513672 155.75683594 C64.73568972 162.31338902 64.86995481 168.86476354 64.9375 175.4375 C64.97464111 176.55084717 65.01178223 177.66419434 65.05004883 178.8112793 C65.10484539 183.56665211 65.13552699 186.25472867 62.4765625 190.29296875 C58.88869131 192.54861431 56.81167438 192.93170031 52.5625 193.125 C49.10049459 192.33367982 45.84700367 191.09863151 42.53515625 189.828125 C41.11353432 189.30397003 41.11353432 189.30397003 39.66319275 188.76922607 C36.64477988 187.65245602 33.63502811 186.51415096 30.625 185.375 C28.6053517 184.62356322 26.58517376 183.87354834 24.56445312 183.125 C20.83919419 181.74211681 17.11691523 180.35185916 13.39868164 178.95019531 C12.57747833 178.64488892 11.75627502 178.33958252 10.91018677 178.02502441 C9.39382901 177.44370368 7.88856547 176.8321495 6.3991394 176.18493652 C-2.08276912 172.5918802 -8.66035574 175.74324351 -16.71875 178.90625 C-17.69106567 179.27979614 -18.66338135 179.65334229 -19.66516113 180.03820801 C-22.75866868 181.22687267 -25.84846892 182.42475411 -28.9375 183.625 C-33.00724327 185.20630253 -37.08052807 186.77793116 -41.15625 188.34375 C-42.54559753 188.88908386 -42.54559753 188.88908386 -43.9630127 189.44543457 C-55.93113807 194.04078609 -55.93113807 194.04078609 -61.6875 191.9375 C-64.51933562 190.07106288 -65.782726 189.04971683 -67.4375 186.125 C-67.68857328 183.4319402 -67.76507222 180.99755673 -67.6875 178.3125 C-67.67106445 177.13856689 -67.67106445 177.13856689 -67.65429688 175.94091797 C-67.55666524 170.50856656 -67.32125676 165.08216016 -67.0703125 159.6550293 C-66.9813952 157.71012681 -66.89810821 155.76495916 -66.8203125 153.81958008 C-66.63112257 149.09101431 -66.38504783 144.38748595 -65.984375 139.671875 C-65.23848728 129.03869369 -65.23848728 129.03869369 -69.86572266 119.78051758 C-71.81028041 117.63940395 -73.84827053 115.6192881 -75.94140625 113.62402344 C-78.33625321 111.22448683 -80.29305589 108.52944948 -82.3125 105.8125 C-86.80590884 99.86298754 -91.49764885 94.0846599 -96.23583984 88.32885742 C-96.76773926 87.68021729 -97.29963867 87.03157715 -97.84765625 86.36328125 C-98.32340088 85.78618408 -98.79914551 85.20908691 -99.28930664 84.61450195 C-101.28822462 82.02139148 -101.6700106 80.09745262 -101.8125 76.875 C-101.88597656 75.75351563 -101.88597656 75.75351563 -101.9609375 74.609375 C-101.1678404 70.84512308 -99.37904685 68.48699933 -96.4375 66.125 C-92.50015942 64.43105346 -88.42988322 63.43251513 -84.27734375 62.3984375 C-83.09531876 62.08347321 -81.91329376 61.76850891 -80.69544983 61.44400024 C-76.92703672 60.44205737 -73.15204388 59.46885517 -69.375 58.5 C-65.59526388 57.52123463 -61.81759579 56.53615725 -58.0438385 55.53457642 C-55.69808628 54.91281751 -53.34871009 54.30453913 -50.99559021 53.71127319 C-49.93091019 53.43063019 -48.86623016 53.14998718 -47.76928711 52.86083984 C-46.83394638 52.62134613 -45.89860565 52.38185242 -44.93492126 52.13510132 C-39.45253079 49.91770615 -36.83275566 44.88126994 -33.8125 40.0625 C-32.85042108 38.55765758 -31.88675853 37.05382693 -30.921875 35.55078125 C-30.38111328 34.70725098 -29.84035156 33.8637207 -29.28320312 32.99462891 C-25.96902364 27.84186889 -22.63448888 22.70319383 -19.26641846 17.58547974 C-18.46716209 16.366943 -17.67183206 15.14582139 -16.8805542 13.92208862 C-15.75573752 12.18356613 -14.61775987 10.45436242 -13.4765625 8.7265625 C-12.81865723 7.71932129 -12.16075195 6.71208008 -11.48291016 5.67431641 C-8.32600236 1.73967434 -5.12239972 -0.45654186 0 0 Z M-1.4375 30.125 C-5.97157858 35.74911831 -9.89202763 41.75868133 -13.62890625 47.9296875 C-14.71910477 49.69339491 -15.81265055 51.45497849 -16.9074707 53.21582031 C-17.63723953 54.4075858 -18.35310071 55.60797716 -19.05493164 56.81640625 C-23.52425984 64.46807791 -27.53693289 69.23237282 -36.49453735 71.71022034 C-37.80849112 72.03888754 -39.12573924 72.35464127 -40.4458313 72.65771484 C-43.09539468 73.2793552 -45.69545219 74.04378399 -48.30796814 74.80395508 C-51.48623672 75.72117571 -54.68155265 76.57489274 -57.875 77.4375 C-59.20388115 77.79974484 -60.53265762 78.16237391 -61.86132812 78.52539062 C-65.0523857 79.39567905 -68.24441922 80.26217034 -71.4375 81.125 C-71.4375 85.40380383 -71.31650099 85.76319808 -68.7265625 88.77734375 C-68.14551758 89.46554199 -67.56447266 90.15374023 -66.96582031 90.86279297 C-66.33772461 91.58869629 -65.70962891 92.31459961 -65.0625 93.0625 C-63.77696975 94.58322013 -62.49313023 96.10537103 -61.2109375 97.62890625 C-60.5725293 98.38445801 -59.93412109 99.14000977 -59.27636719 99.91845703 C-56.66557007 103.05127492 -54.16186513 106.25891035 -51.6875 109.5 C-50.90890625 110.51835937 -50.1303125 111.53671875 -49.328125 112.5859375 C-46.56008564 116.30334573 -45.18617638 118.24784944 -45.21044922 122.87182617 C-45.21060028 123.83259567 -45.21075134 124.79336517 -45.21090698 125.7832489 C-45.22122955 126.81770645 -45.23155212 127.852164 -45.2421875 128.91796875 C-45.2450174 129.97913406 -45.24784729 131.04029938 -45.25076294 132.13362122 C-45.26196816 135.52669497 -45.28707353 138.91950587 -45.3125 142.3125 C-45.32252935 144.61132432 -45.33165528 146.91015276 -45.33984375 149.20898438 C-45.36190859 154.84774611 -45.39538956 160.48635428 -45.4375 166.125 C-40.93155573 165.29524039 -36.83032524 163.84629137 -32.57421875 162.18359375 C-31.03211312 161.59384619 -29.48978837 161.00467133 -27.94726562 160.41601562 C-25.53577602 159.49138652 -23.12604421 158.56290736 -20.7199707 157.62426758 C-18.38417051 156.71527574 -16.04241519 155.82331551 -13.69921875 154.93359375 C-12.63630867 154.51176064 -12.63630867 154.51176064 -11.55192566 154.08140564 C-2.78733157 150.78765782 3.59694857 152.06339303 12.05859375 155.40625 C12.93274429 155.73919067 13.80689484 156.07213135 14.70753479 156.41516113 C17.47663289 157.47272264 20.23830804 158.54826533 23 159.625 C25.78812621 160.69763311 28.57763263 161.76660507 31.3674469 162.83483887 C33.09821004 163.49912977 34.82769195 164.16677006 36.55577087 164.8380127 C39.96870081 166.41642886 39.96870081 166.41642886 43.5625 167.125 C43.53220703 166.31047363 43.50191406 165.49594727 43.47070312 164.65673828 C43.20462405 157.40199003 42.96601319 150.14742991 42.7568512 142.89085388 C42.64187421 139.09161294 42.4645527 135.30430681 42.21484375 131.51171875 C41.75300661 123.20377225 42.2612212 117.52264887 47.9453125 110.96875 C48.80898438 110.0303125 49.67265625 109.091875 50.5625 108.125 C52.20233382 106.13933676 53.81220214 104.13135887 55.42236328 102.12158203 C57.09624075 100.03583566 58.78751217 97.9655068 60.484375 95.8984375 C63.92111414 91.70007669 67.26895331 87.43655203 70.5625 83.125 C68.40012152 80.96262152 67.40120686 80.61915705 64.52758789 79.81225586 C63.28103172 79.45695045 63.28103172 79.45695045 62.0092926 79.09446716 C61.11032761 78.84544144 60.21136261 78.59641571 59.28515625 78.33984375 C58.36286728 78.07869278 57.44057831 77.81754181 56.49034119 77.54847717 C53.53693913 76.71360186 50.58107426 75.8878584 47.625 75.0625 C44.67309479 74.23154889 41.72170625 73.3987822 38.77037048 72.56581116 C36.93225406 72.04778295 35.09369399 71.5313259 33.25465393 71.0165863 C32.42046432 70.78286819 31.58627472 70.54915009 30.72680664 70.30834961 C29.9933754 70.10342392 29.25994415 69.89849823 28.50428772 69.68736267 C26.84485213 69.20677222 25.2014705 68.6713235 23.5625 68.125 C22.86552592 66.47077832 22.20715005 64.80030551 21.5625 63.125 C20.01034044 60.48647353 18.29699767 57.95819981 16.58984375 55.41796875 C16.10673233 54.69257401 15.62362091 53.96717926 15.12586975 53.21980286 C14.10852107 51.69460706 13.08889743 50.17092656 12.06713867 48.64868164 C10.49627796 46.30695145 8.93419203 43.95954347 7.37304688 41.61132812 C6.383327 40.12986448 5.39311016 38.6487327 4.40234375 37.16796875 C3.932556 36.46181931 3.46276825 35.75566986 2.97874451 35.02812195 C1.86630817 33.37572638 0.71819686 31.7474335 -0.4375 30.125 C-0.7675 30.125 -1.0975 30.125 -1.4375 30.125 Z " fill="#134A87" transform="translate(257.4375,105.875)"/>
<path d="M0 0 C2.80703896 1.34040619 3.86054551 2.54745461 6 5 C7.28998174 9.17347032 7.29348391 11.22226764 5.75 15.3125 C4 18 4 18 1 20 C-2.99460923 20.70413451 -7.19004979 21.08917358 -10.765625 18.9375 C-13.32071187 16.23556906 -14.3361639 13.552019 -14.5625 9.9375 C-13.94840565 5.63883954 -13.0775461 3.98703004 -10 1 C-6.76022402 -0.61988799 -3.5016641 -0.56520367 0 0 Z " fill="#134A87" transform="translate(260,48)"/>
</svg>
