<?xml version="1.0" encoding="UTF-8"?>
<svg version="1.1" xmlns="http://www.w3.org/2000/svg" width="512" height="512">
<path d="M0 0 C0.99 0.7734375 0.99 0.7734375 2 1.5625 C2.82371094 2.17996094 3.64742187 2.79742187 4.49609375 3.43359375 C7.09226701 5.64094855 9.00603264 7.91438795 11.0625 10.625 C14.28788807 14.8722932 16.86589368 17.85113123 22 19.5625 C23.87568634 19.61063566 25.75314667 19.59987931 27.62890625 19.5546875 C28.74716797 19.53792969 29.86542969 19.52117187 31.01757812 19.50390625 C33.35368634 19.46014444 35.68965855 19.40825618 38.02539062 19.34765625 C51.71108736 19.17550912 63.57181476 23.20715458 73.75 32.625 C85.7697798 45.4000622 87.32702113 58.5319752 86.83398438 75.18359375 C86.71285946 82.42602845 86.83577526 87.28569048 92.0859375 92.72265625 C92.84132813 93.35042969 93.59671875 93.97820312 94.375 94.625 C95.17292969 95.30691406 95.97085937 95.98882812 96.79296875 96.69140625 C97.88544922 97.61759766 97.88544922 97.61759766 99 98.5625 C108.30995714 107.22292524 114.36924576 117.21492901 115.23828125 130.09375 C115.48349156 143.20604877 113.25554246 153.99540565 105 164.5625 C104.38253906 165.38621094 103.76507813 166.20992187 103.12890625 167.05859375 C100.92155145 169.65476701 98.64811205 171.56853264 95.9375 173.625 C91.6902068 176.85038807 88.71136877 179.42839368 87 184.5625 C86.95186434 186.43818634 86.96262069 188.31564667 87.0078125 190.19140625 C87.02457031 191.30966797 87.04132813 192.42792969 87.05859375 193.58007812 C87.10235556 195.91618634 87.15424382 198.25215855 87.21484375 200.58789062 C87.38295665 213.95286634 83.58425412 225.97503351 74.25 235.875 C65.52817457 243.99761605 54.19238808 249.83952966 42.1328125 249.5546875 C40.99972656 249.53792969 39.86664063 249.52117187 38.69921875 249.50390625 C36.32405763 249.45977757 33.94902969 249.40774498 31.57421875 249.34765625 C24.27657272 249.25653922 19.31445227 249.36192584 13.83984375 254.6484375 C13.21207031 255.40382813 12.58429688 256.15921875 11.9375 256.9375 C11.25558594 257.73542969 10.57367188 258.53335937 9.87109375 259.35546875 C8.94490234 260.44794922 8.94490234 260.44794922 8 261.5625 C-0.66042524 270.87245714 -10.65242901 276.93174576 -23.53125 277.80078125 C-36.64354877 278.04599156 -47.43290565 275.81804246 -58 267.5625 C-58.82371094 266.94503906 -59.64742188 266.32757813 -60.49609375 265.69140625 C-63.09226701 263.48405145 -65.00603264 261.21061205 -67.0625 258.5 C-70.28788807 254.2527068 -72.86589368 251.27386877 -78 249.5625 C-79.85255945 249.52595157 -81.70655109 249.5484575 -83.55859375 249.60546875 C-84.66783203 249.62673828 -85.77707031 249.64800781 -86.91992188 249.66992188 C-89.23013645 249.72251421 -91.54011293 249.78723764 -93.84960938 249.86523438 C-107.73680972 250.08084933 -119.89647369 245.38241362 -130.1875 236 C-140.87530344 224.70518135 -143.33123715 212.33249247 -142.9375 197.4375 C-142.90333984 196.28378906 -142.86917969 195.13007813 -142.83398438 193.94140625 C-142.71285946 186.69897155 -142.83577526 181.83930952 -148.0859375 176.40234375 C-148.84132812 175.77457031 -149.59671875 175.14679688 -150.375 174.5 C-151.17292969 173.81808594 -151.97085938 173.13617188 -152.79296875 172.43359375 C-153.52128906 171.81613281 -154.24960938 171.19867188 -155 170.5625 C-164.30995714 161.90207476 -170.36924576 151.91007099 -171.23828125 139.03125 C-171.48349156 125.91895123 -169.25554246 115.12959435 -161 104.5625 C-160.38253906 103.73878906 -159.76507813 102.91507812 -159.12890625 102.06640625 C-156.92155145 99.47023299 -154.64811205 97.55646736 -151.9375 95.5 C-147.6902068 92.27461193 -144.71136877 89.69660632 -143 84.5625 C-142.95186434 82.68681366 -142.96262069 80.80935333 -143.0078125 78.93359375 C-143.03294922 77.25620117 -143.03294922 77.25620117 -143.05859375 75.54492188 C-143.10235556 73.20881366 -143.15424382 70.87284145 -143.21484375 68.53710938 C-143.38699088 54.85141264 -139.35534542 42.99068524 -129.9375 32.8125 C-117.1624378 20.7927202 -104.0305248 19.23547887 -87.37890625 19.72851562 C-80.13647155 19.84964054 -75.27680952 19.72672474 -69.83984375 14.4765625 C-69.21207031 13.72117188 -68.58429688 12.96578125 -67.9375 12.1875 C-67.25558594 11.38957031 -66.57367188 10.59164062 -65.87109375 9.76953125 C-65.25363281 9.04121094 -64.63617188 8.31289062 -64 7.5625 C-47.24787588 -10.44603343 -20.5511726 -14.77115531 0 0 Z M-81 83.5625 C-81.70125 84.23925781 -82.4025 84.91601562 -83.125 85.61328125 C-96.52719297 99.51282123 -102.18086064 118.55203701 -102 137.5625 C-100.63561348 157.08372245 -92.88678456 173.84360402 -79 187.5625 C-77.98873047 188.60664063 -77.98873047 188.60664063 -76.95703125 189.671875 C-63.49492552 202.70460775 -44.59249612 208.75102726 -26.08105469 208.64892578 C-6.17294131 207.82214585 10.89824281 199.40912671 25 185.5625 C26.051875 184.54736328 26.051875 184.54736328 27.125 183.51171875 C40.52719297 169.61217877 46.18086064 150.57296299 46 131.5625 C44.5763578 111.19346545 36.33319315 94.74922257 22 80.5625 C21.35417969 79.89476562 20.70835937 79.22703125 20.04296875 78.5390625 C7.00647996 65.98540663 -12.18083261 60.37823811 -29.91894531 60.47607422 C-49.82705869 61.30285415 -66.89824281 69.71587329 -81 83.5625 Z " fill="#4A95E8" transform="translate(284,121.4375)"/>
<path d="M0 0 C7.45820328 6.29138078 12.95884347 12.8160572 15.6875 22.3125 C15.6875 22.9725 15.6875 23.6325 15.6875 24.3125 C17.61916016 24.47685547 17.61916016 24.47685547 19.58984375 24.64453125 C24.67709829 25.21397779 29.37391034 26.47790571 34.25 28 C35.12205078 28.2690918 35.99410156 28.53818359 36.89257812 28.81542969 C70.66775802 39.38713501 110.11544828 58.98909471 131.1796875 88.78125 C133.51469752 91.69242717 133.51469752 91.69242717 137.25390625 91.57421875 C138.58921983 91.40724194 139.92150265 91.21456557 141.25 91 C152.20209928 89.81017933 160.95219685 91.83923174 170.14453125 98.1796875 C179.07997153 105.67392773 183.41302905 115.51068498 185.0625 126.90234375 C185.56305875 136.55374213 182.33516473 146.32337704 176.0546875 153.62890625 C174.53718138 155.49760664 173.56829813 157.06617429 172.6875 159.3125 C172.90608621 161.49804401 172.90608621 161.49804401 173.69921875 163.734375 C173.9612207 164.58652588 174.22322266 165.43867676 174.49316406 166.31665039 C174.92967285 167.67584595 174.92967285 167.67584595 175.375 169.0625 C186.76921433 206.76470352 187.81469467 250.34867948 174.453125 287.76953125 C173.12951363 291.46101418 173.12951363 291.46101418 172.6875 295.3125 C174.11125448 297.70189237 175.74334886 299.36871048 177.76171875 301.27734375 C182.17120633 305.93726876 184.15169267 313.01676393 184.6875 319.3125 C184.78224609 320.25609375 184.78224609 320.25609375 184.87890625 321.21875 C185.44595916 331.31595015 181.79558151 341.11288517 175.73828125 349.08984375 C167.38228927 358.14614743 158.07379838 361.39988686 146.12890625 362.296875 C142.6875 362.3125 142.6875 362.3125 140.50366211 361.875 C136.02376396 360.92598598 136.02376396 360.92598598 131.88061523 362.42871094 C130.14322788 364.13210311 128.63538148 365.90522304 127.125 367.8125 C125.99874823 369.12467886 124.86986373 370.43460289 123.73828125 371.7421875 C122.94284912 372.68336426 122.94284912 372.68336426 122.13134766 373.64355469 C119.29489887 376.92220939 116.04823987 379.59468428 112.6875 382.3125 C111.63633453 383.19876324 110.58559415 384.08553078 109.53515625 384.97265625 C86.68000144 404.03325325 60.34959407 417.41450074 31.6875 425.3125 C31.01251465 425.50166992 30.3375293 425.69083984 29.64208984 425.88574219 C24.87277499 427.20810305 20.65160172 428.3125 15.6875 428.3125 C15.54054688 428.9415625 15.39359375 429.570625 15.2421875 430.21875 C12.49359683 440.70762476 6.44728173 447.97114918 -2.3125 454.3125 C-7.36570289 456.95723816 -12.60751612 458.82696946 -18.3125 459.3125 C-19.25609375 459.40724609 -19.25609375 459.40724609 -20.21875 459.50390625 C-29.53459642 460.02707878 -39.31621239 457.10323733 -46.47265625 451.06640625 C-53.02180564 444.82316193 -57.77280846 439.15129489 -60.3125 430.3125 C-60.3125 429.6525 -60.3125 428.9925 -60.3125 428.3125 C-61.43140625 428.20035156 -62.5503125 428.08820313 -63.703125 427.97265625 C-102.02381602 423.13630916 -137.82754917 400.22529179 -165.625 374.6875 C-166.48774536 373.8977478 -166.48774536 373.8977478 -167.36791992 373.09204102 C-170.31671031 370.34345865 -172.83739869 367.62907989 -175.25390625 364.3984375 C-177.67861281 361.51463614 -177.96419691 361.34666192 -181.9765625 360.953125 C-183.3011695 361.12604455 -184.62193906 361.33058563 -185.9375 361.5625 C-196.24582755 362.76903345 -204.76804849 361.25261974 -213.28515625 354.96875 C-222.67079527 347.30109885 -228.19998567 338.22243531 -229.56640625 326.05078125 C-230.0590125 316.18276575 -227.13661168 306.50686825 -220.6796875 298.99609375 C-219.16218138 297.12739336 -218.19329813 295.55882571 -217.3125 293.3125 C-217.53108621 291.12695599 -217.53108621 291.12695599 -218.32421875 288.890625 C-218.5862207 288.03847412 -218.84822266 287.18632324 -219.11816406 286.30834961 C-219.55467285 284.94915405 -219.55467285 284.94915405 -220 283.5625 C-231.42195378 245.76850968 -232.53177329 201.71420738 -218.71166992 164.28417969 C-217.45190962 160.73252168 -217.45190962 160.73252168 -218 157.09375 C-219.33155533 155.2866392 -220.72421615 153.57710997 -222.1875 151.875 C-227.48340644 144.90465256 -230.13145334 135.65041156 -229.69140625 126.90625 C-228.12036928 116.15193507 -224.26776986 106.45171331 -215.91796875 99.24609375 C-206.79458816 92.53319159 -198.64052572 90.36393258 -187.3125 90.3125 C-186.59763428 90.46267578 -185.88276855 90.61285156 -185.14624023 90.76757812 C-180.59338217 91.73381294 -180.59338217 91.73381294 -176.41186523 90.10253906 C-174.54119579 88.26587236 -172.89197174 86.35592717 -171.25 84.3125 C-170.11759241 82.97550324 -168.98085497 81.64216187 -167.83984375 80.3125 C-167.26878906 79.64444336 -166.69773438 78.97638672 -166.109375 78.28808594 C-141.3482865 51.0643457 -100.30714584 30.15543563 -64.3125 24.3125 C-62.9925 24.3125 -61.6725 24.3125 -60.3125 24.3125 C-60.16554687 23.6834375 -60.01859375 23.054375 -59.8671875 22.40625 C-57.12002572 11.92282802 -51.07427989 4.64513258 -42.3125 -1.6875 C-28.83738033 -8.64563471 -12.77314046 -9.00895368 0 0 Z M-39.3125 15.3125 C-44.86355175 22.74398933 -46.12280299 29.08209198 -45.3125 38.3125 C-43.55673579 44.95532765 -38.85687307 49.49235468 -33.3125 53.3125 C-27.31362996 56.25312257 -20.4296647 56.41133788 -14 54.6953125 C-7.87117139 51.99000925 -3.07297208 46.90386305 -0.140625 40.921875 C1.80109614 34.80362159 1.7473191 27.72556618 -1 21.875 C-4.76200842 15.52167809 -10.24247188 10.67750757 -17.4453125 8.73828125 C-25.55954975 7.42360518 -33.05796695 10.0530063 -39.3125 15.3125 Z M-151.3125 86.3125 C-152.7646406 87.56968885 -154.22247253 88.82035241 -155.6875 90.0625 C-158.95934448 92.89675211 -161.65081732 95.90221907 -164.3125 99.3125 C-163.23576362 101.73515685 -162.09945109 103.57182593 -160.40625 105.6328125 C-153.25744912 114.78221064 -152.05877213 124.98448315 -153.03027344 136.21044922 C-154.26975822 145.44225196 -159.24635808 153.38492248 -166.3125 159.3125 C-177.81718887 166.97679846 -189.88392142 168.10297714 -203.3125 166.3125 C-215.62846279 205.72836152 -216.83212963 246.90421788 -203.3125 286.3125 C-201.86230469 286.16941406 -201.86230469 286.16941406 -200.3828125 286.0234375 C-186.71311781 284.8594833 -174.93760737 286.11303021 -163.94921875 295.28515625 C-157.04739184 302.44693898 -152.76101657 311.77311389 -152.25 321.75390625 C-152.50602891 332.23508975 -155.13334601 341.85687871 -162.5078125 349.625 C-163.40113281 350.4603125 -163.40113281 350.4603125 -164.3125 351.3125 C-151.81198571 378.46672722 -111.75373061 396.37913298 -85.53125 406.48046875 C-77.32560335 409.48264883 -68.83167574 411.42740579 -60.3125 413.3125 C-59.87550781 412.15234375 -59.87550781 412.15234375 -59.4296875 410.96875 C-54.67402729 398.88518571 -48.76092221 390.74763531 -36.9375 384.9375 C-27.61567209 381.52812776 -15.97923417 381.82642563 -6.75 385.3125 C4.33897815 390.80330799 10.81156418 399.04297409 14.84765625 410.6484375 C15.12480469 411.52757812 15.40195312 412.40671875 15.6875 413.3125 C48.60702285 405.85359005 79.44118456 391.91253024 104.21875 368.62890625 C106.44924844 366.53604933 108.731313 364.54139941 111.0625 362.5625 C114.33434448 359.72824789 117.02581732 356.72278093 119.6875 353.3125 C118.61076362 350.88984315 117.47445109 349.05317407 115.78125 346.9921875 C108.63244912 337.84278936 107.43377213 327.64051685 108.40527344 316.41455078 C109.65574578 307.10091162 114.67979377 299.38264004 121.6875 293.3125 C132.60335656 285.16503082 145.58129641 284.45679497 158.6875 286.3125 C171.00346279 246.89663848 172.20712963 205.72078212 158.6875 166.3125 C157.81609375 166.40789062 156.9446875 166.50328125 156.046875 166.6015625 C143.1676258 167.8002805 132.46493016 167.02250773 121.6875 159.3125 C113.93921859 152.63522677 109.03493248 144.171408 108.24609375 133.89453125 C107.7541609 122.05477043 109.64373461 113.25945478 117.515625 104.1015625 C119.05279208 102.11127068 119.05279208 102.11127068 118.6875 98.3125 C96.01604444 66.6053194 52.49645245 47.45745969 15.6875 39.3125 C15.25050781 40.47265625 15.25050781 40.47265625 14.8046875 41.65625 C10.04902729 53.73981429 4.13592221 61.87736469 -7.6875 67.6875 C-17.00932791 71.09687224 -28.64576583 70.79857437 -37.875 67.3125 C-49.22742113 61.69124583 -55.3231198 53.32947416 -59.6875 41.625 C-59.89375 40.861875 -60.1 40.09875 -60.3125 39.3125 C-91.82782042 39.3125 -129.43023912 65.51530991 -151.3125 86.3125 Z M-208.1953125 113.296875 C-212.38297881 119.00181171 -214.75109472 125.37392345 -214.1171875 132.51171875 C-212.48560552 140.29881457 -207.71289264 145.89476537 -201.3125 150.3125 C-195.29927194 153.23946862 -188.4401946 153.41414822 -182 151.6953125 C-175.87117139 148.99000925 -171.07297208 143.90386305 -168.140625 137.921875 C-166.23444143 131.91559848 -166.24811313 124.80958442 -168.8125 119 C-172.30201717 113.05167714 -177.74591748 108.41262324 -184.3125 106.3125 C-193.41374817 105.08956001 -201.6876792 106.43820754 -208.1953125 113.296875 Z M126.1328125 116.21484375 C122.00772105 122.20180081 121.97141858 128.26185212 122.6875 135.3125 C124.46092433 141.95722914 129.1341647 146.48617959 134.6875 150.3125 C140.68637004 153.25312257 147.5703353 153.41133788 154 151.6953125 C160.60327315 148.78058646 165.85603436 142.91059424 168.6875 136.3125 C170.20251403 128.73742986 169.34568916 123.01093084 165.6875 116.1875 C162.37360023 111.31298464 158.19360205 108.35677095 152.6875 106.3125 C140.97934486 104.48748781 133.65292723 107.41805838 126.1328125 116.21484375 Z M-209.8671875 310.3125 C-213.39944904 315.20038624 -214.73128518 320.31077497 -214.1015625 326.328125 C-212.54766207 333.77511949 -209.09762681 339.4659675 -202.8125 343.8125 C-196.17710676 347.43720735 -189.200717 347.62357807 -181.953125 345.6796875 C-175.84462228 343.05161075 -171.04336627 337.84346718 -168.140625 331.921875 C-166.23444143 325.91559848 -166.24811313 318.80958442 -168.8125 313 C-172.29712138 307.06002263 -177.7470583 302.39614317 -184.3125 300.3125 C-195.78611527 298.95149184 -202.53649177 301.58385764 -209.8671875 310.3125 Z M126.1328125 310.21484375 C122.00772105 316.20180081 121.97141858 322.26185212 122.6875 329.3125 C124.46092433 335.95722914 129.1341647 340.48617959 134.6875 344.3125 C140.95084039 347.36256315 147.82826599 347.4243912 154.48046875 345.5078125 C160.95791303 342.66596857 164.75416103 338.72917899 167.6875 332.3125 C169.94895118 325.79063633 170.05813499 320.77786817 167.6875 314.3125 C164.13903902 307.74127596 158.85063701 302.62250572 151.6875 300.3125 C140.25304903 298.95613754 133.50932511 301.58603946 126.1328125 310.21484375 Z M-41.8671875 407.21484375 C-45.98309022 413.18846472 -46.13634161 419.27478925 -45.3125 426.3125 C-43.34162666 433.15315261 -39.90931234 437.59974594 -33.7734375 441.1875 C-27.63439401 443.99391988 -21.702274 445.1702789 -15.18359375 443.05859375 C-7.63951945 440.05041381 -4.21075476 436.41569575 -0.3125 429.3125 C1.7032881 423.26513571 1.80827772 415.88809092 -0.8125 410 C-4.29712138 404.06002263 -9.7470583 399.39614317 -16.3125 397.3125 C-27.74695097 395.95613754 -34.49067489 398.58603946 -41.8671875 407.21484375 Z " fill="#134A87" transform="translate(278.3125,29.6875)"/>
<path d="M0 0 C0.99 0.7734375 0.99 0.7734375 2 1.5625 C2.82371094 2.17996094 3.64742187 2.79742187 4.49609375 3.43359375 C7.09226701 5.64094855 9.00603264 7.91438795 11.0625 10.625 C14.28788807 14.8722932 16.86589368 17.85113123 22 19.5625 C23.87568634 19.61063566 25.75314667 19.59987931 27.62890625 19.5546875 C28.74716797 19.53792969 29.86542969 19.52117187 31.01757812 19.50390625 C33.35368634 19.46014444 35.68965855 19.40825618 38.02539062 19.34765625 C51.71108736 19.17550912 63.57181476 23.20715458 73.75 32.625 C85.7697798 45.4000622 87.32702113 58.5319752 86.83398438 75.18359375 C86.71285946 82.42602845 86.83577526 87.28569048 92.0859375 92.72265625 C92.84132813 93.35042969 93.59671875 93.97820312 94.375 94.625 C95.17292969 95.30691406 95.97085937 95.98882812 96.79296875 96.69140625 C97.88544922 97.61759766 97.88544922 97.61759766 99 98.5625 C108.30995714 107.22292524 114.36924576 117.21492901 115.23828125 130.09375 C115.48349156 143.20604877 113.25554246 153.99540565 105 164.5625 C104.38253906 165.38621094 103.76507813 166.20992187 103.12890625 167.05859375 C100.92155145 169.65476701 98.64811205 171.56853264 95.9375 173.625 C91.6902068 176.85038807 88.71136877 179.42839368 87 184.5625 C86.95186434 186.43818634 86.96262069 188.31564667 87.0078125 190.19140625 C87.02457031 191.30966797 87.04132813 192.42792969 87.05859375 193.58007812 C87.10235556 195.91618634 87.15424382 198.25215855 87.21484375 200.58789062 C87.38295665 213.95286634 83.58425412 225.97503351 74.25 235.875 C65.52817457 243.99761605 54.19238808 249.83952966 42.1328125 249.5546875 C40.99972656 249.53792969 39.86664063 249.52117187 38.69921875 249.50390625 C36.32405763 249.45977757 33.94902969 249.40774498 31.57421875 249.34765625 C24.27657272 249.25653922 19.31445227 249.36192584 13.83984375 254.6484375 C13.21207031 255.40382813 12.58429688 256.15921875 11.9375 256.9375 C11.25558594 257.73542969 10.57367188 258.53335937 9.87109375 259.35546875 C8.94490234 260.44794922 8.94490234 260.44794922 8 261.5625 C-0.66042524 270.87245714 -10.65242901 276.93174576 -23.53125 277.80078125 C-36.64354877 278.04599156 -47.43290565 275.81804246 -58 267.5625 C-58.82371094 266.94503906 -59.64742188 266.32757813 -60.49609375 265.69140625 C-63.09226701 263.48405145 -65.00603264 261.21061205 -67.0625 258.5 C-70.28788807 254.2527068 -72.86589368 251.27386877 -78 249.5625 C-79.85255945 249.52595157 -81.70655109 249.5484575 -83.55859375 249.60546875 C-84.66783203 249.62673828 -85.77707031 249.64800781 -86.91992188 249.66992188 C-89.23013645 249.72251421 -91.54011293 249.78723764 -93.84960938 249.86523438 C-107.73680972 250.08084933 -119.89647369 245.38241362 -130.1875 236 C-140.87530344 224.70518135 -143.33123715 212.33249247 -142.9375 197.4375 C-142.90333984 196.28378906 -142.86917969 195.13007813 -142.83398438 193.94140625 C-142.71285946 186.69897155 -142.83577526 181.83930952 -148.0859375 176.40234375 C-148.84132812 175.77457031 -149.59671875 175.14679688 -150.375 174.5 C-151.17292969 173.81808594 -151.97085938 173.13617188 -152.79296875 172.43359375 C-153.52128906 171.81613281 -154.24960938 171.19867188 -155 170.5625 C-164.30995714 161.90207476 -170.36924576 151.91007099 -171.23828125 139.03125 C-171.48349156 125.91895123 -169.25554246 115.12959435 -161 104.5625 C-160.38253906 103.73878906 -159.76507813 102.91507812 -159.12890625 102.06640625 C-156.92155145 99.47023299 -154.64811205 97.55646736 -151.9375 95.5 C-147.6902068 92.27461193 -144.71136877 89.69660632 -143 84.5625 C-142.95186434 82.68681366 -142.96262069 80.80935333 -143.0078125 78.93359375 C-143.03294922 77.25620117 -143.03294922 77.25620117 -143.05859375 75.54492188 C-143.10235556 73.20881366 -143.15424382 70.87284145 -143.21484375 68.53710938 C-143.38699088 54.85141264 -139.35534542 42.99068524 -129.9375 32.8125 C-117.1624378 20.7927202 -104.0305248 19.23547887 -87.37890625 19.72851562 C-80.13647155 19.84964054 -75.27680952 19.72672474 -69.83984375 14.4765625 C-69.21207031 13.72117188 -68.58429688 12.96578125 -67.9375 12.1875 C-67.25558594 11.38957031 -66.57367188 10.59164062 -65.87109375 9.76953125 C-65.25363281 9.04121094 -64.63617188 8.31289062 -64 7.5625 C-47.24787588 -10.44603343 -20.5511726 -14.77115531 0 0 Z M-57 17.5625 C-57.92855552 18.78838825 -58.829941 20.03593824 -59.6875 21.3125 C-64.25906823 27.7374067 -70.36946048 30.88872214 -78 32.5625 C-83.47304103 32.90755108 -88.93052267 32.63369761 -94.40625 32.4453125 C-104.69503319 32.22895958 -111.924341 33.91173537 -119.921875 40.5390625 C-125.8349872 46.29656649 -129.8236734 53.04076846 -130.09057617 61.39892578 C-130.0402412 65.86332929 -129.91483588 70.32176341 -129.74609375 74.78320312 C-129.54627243 84.89768843 -131.91244758 94.02750109 -139 101.5625 C-141.21502727 103.38784655 -143.49397259 105.10490134 -145.7890625 106.828125 C-152.50039473 112.09284498 -156.19437555 118.193735 -158 126.5625 C-159.03820905 137.08231214 -158.60909474 147.10144394 -152.26953125 155.98828125 C-148.96608741 159.91153292 -145.45471245 163.05249229 -141.3125 166.0625 C-134.95343898 170.78794017 -132.1860868 177.09365256 -130 184.5625 C-129.82055664 187.48754883 -129.82055664 187.48754883 -129.91015625 190.51953125 C-129.93013672 191.63263672 -129.95011719 192.74574219 -129.97070312 193.89257812 C-130.03159516 196.20258883 -130.09665703 198.51249362 -130.16601562 200.82226562 C-130.33897898 211.15831743 -128.68099937 218.45035519 -122.0234375 226.484375 C-116.26593351 232.3974872 -109.52173154 236.3861734 -101.16357422 236.65307617 C-96.69917071 236.6027412 -92.24073659 236.47733588 -87.77929688 236.30859375 C-77.68211924 236.10911435 -68.50843569 238.46642691 -61 245.5625 C-59.65958533 247.18567963 -58.34901491 248.83377583 -57.0625 250.5 C-51.47750245 257.7175353 -45.18254755 262.9797532 -36 264.5625 C-25.27684375 265.46915517 -15.27881212 265.21448744 -6.31640625 258.57421875 C-2.32498815 255.14029441 1.09783777 251.62069853 4.125 247.3125 C8.01570855 241.81070932 13.29581078 238.68885799 19.78051758 236.92871094 C25.84540553 235.92801443 32.18898059 236.54402217 38.30859375 236.72851562 C48.6224674 236.90180782 55.9056837 235.22872539 63.921875 228.5859375 C69.8349872 222.82843351 73.8236734 216.08423154 74.09057617 207.72607422 C74.0402412 203.26167071 73.91483588 198.80323659 73.74609375 194.34179688 C73.54661435 184.24461924 75.90392691 175.07093569 83 167.5625 C84.62317963 166.22208533 86.27127583 164.91151491 87.9375 163.625 C95.1550353 158.04000245 100.4172532 151.74504755 102 142.5625 C102.90844636 131.81815906 102.65011674 121.81053331 95.9765625 112.84375 C92.70795415 109.05082564 89.41372434 105.67207522 85.25 102.875 C78.8250933 98.30343177 75.67377786 92.19303952 74 84.5625 C73.65494892 79.08945897 73.92880239 73.63197733 74.1171875 68.15625 C74.33354042 57.86746681 72.65076463 50.638159 66.0234375 42.640625 C60.26593351 36.7275128 53.52173154 32.7388266 45.16357422 32.47192383 C40.69917071 32.5222588 36.24073659 32.64766412 31.77929688 32.81640625 C21.66481157 33.01622757 12.53499891 30.65005242 5 23.5625 C3.17465345 21.34747273 1.45759866 19.06852741 -0.265625 16.7734375 C-5.53034498 10.06210527 -11.631235 6.36812445 -20 4.5625 C-35.30431865 3.052104 -46.31288262 6.05778894 -57 17.5625 Z " fill="#134A87" transform="translate(284,121.4375)"/>
<path d="M0 0 C14.54660786 13.90472073 26.02963824 35.01582221 26.49609375 55.40234375 C26.71105108 67.35825092 26.42458028 77.86215529 22.2578125 89.19140625 C21.88398438 90.24328125 21.51015625 91.29515625 21.125 92.37890625 C12.52599841 114.70214216 -4.3346735 131.61672377 -25.83203125 141.53515625 C-47.81759758 151.13992059 -70.92971653 150.43427275 -93.0546875 141.87890625 C-115.31651042 131.9647341 -131.59152158 114.56095286 -140.7421875 92.19140625 C-147.35661251 73.84791365 -148.54330142 53.68332384 -141.7421875 35.19140625 C-141.36835938 34.13953125 -140.99453125 33.08765625 -140.609375 32.00390625 C-131.9934072 9.63662561 -115.17053139 -7.16896377 -93.6484375 -17.12109375 C-61.12758589 -31.4760009 -25.9064436 -23.6747749 0 0 Z M-112.7421875 11.19140625 C-113.4434375 11.86816406 -114.1446875 12.54492188 -114.8671875 13.2421875 C-128.26938047 27.14172748 -133.92304814 46.18094326 -133.7421875 65.19140625 C-132.37780098 84.7126287 -124.62897206 101.47251027 -110.7421875 115.19140625 C-109.73091797 116.23554688 -109.73091797 116.23554688 -108.69921875 117.30078125 C-95.23711302 130.333514 -76.33468362 136.37993351 -57.82324219 136.27783203 C-37.91512881 135.4510521 -20.84394469 127.03803296 -6.7421875 113.19140625 C-5.6903125 112.17626953 -5.6903125 112.17626953 -4.6171875 111.140625 C8.78500547 97.24108502 14.43867314 78.20186924 14.2578125 59.19140625 C12.8341703 38.8223717 4.59100565 22.37812882 -9.7421875 8.19140625 C-10.38800781 7.52367187 -11.03382813 6.8559375 -11.69921875 6.16796875 C-24.73570754 -6.38568712 -43.92302011 -11.99285564 -61.66113281 -11.89501953 C-81.56924619 -11.0682396 -98.64043031 -2.65522046 -112.7421875 11.19140625 Z " fill="#134A87" transform="translate(315.7421875,193.80859375)"/>
<path d="M0 0 C2 1 2 1 3 3 C3.6174558 6.31180837 3.87168974 7.86191694 3 11 C0.71187888 14.10995274 -2.06661133 16.50814215 -5 19 C-5.60070312 19.54011719 -6.20140625 20.08023438 -6.8203125 20.63671875 C-9.35189713 22.89980198 -11.93816828 25.09666078 -14.52441406 27.296875 C-16.26732225 28.78002773 -18.00903443 30.26456743 -19.75 31.75 C-20.35320068 32.2644165 -20.95640137 32.77883301 -21.57788086 33.30883789 C-25.52391173 36.69017361 -29.38068109 40.1506328 -33.1875 43.6875 C-37.70048595 47.87961532 -42.3825405 51.79863516 -47.18359375 55.65625 C-50.95233042 58.79250798 -54.54262704 62.10446595 -58.1171875 65.45898438 C-62.05638432 69.13804556 -64.31302083 70.51788488 -69.87841797 70.4375 C-73.92178138 69.6037017 -76.03099674 66.56581963 -78.5625 63.5 C-79.40699707 62.53259888 -79.40699707 62.53259888 -80.26855469 61.5456543 C-81.37561353 60.27356109 -82.47349805 58.99341235 -83.56103516 57.70458984 C-85.2503377 55.70345134 -86.99886998 53.75956065 -88.75 51.8125 C-89.26175781 51.21050781 -89.77351562 50.60851562 -90.30078125 49.98828125 C-91.64301 48.41771934 -93.02387903 46.880184 -94.41796875 45.35546875 C-101.58637276 37.23127753 -101.58637276 37.23127753 -101.8125 32.5 C-101 29 -101 29 -99.4375 27 C-95.75239337 25.48816138 -93.98463152 25.21613806 -90 26 C-83.77698921 30.74405027 -79.00545751 37.28110558 -74.23828125 43.421875 C-71.70037822 46.34511409 -69.02605142 48.59301203 -66 51 C-65.0821875 50.14277344 -64.164375 49.28554688 -63.21875 48.40234375 C-55.87373424 41.55347739 -48.4771852 34.80962273 -40.828125 28.30078125 C-39.63514894 27.28416825 -38.44244955 26.26723052 -37.25 25.25 C-36.64704102 24.73590576 -36.04408203 24.22181152 -35.42285156 23.69213867 C-31.45370364 20.29144987 -27.58003528 16.80601548 -23.75 13.25 C-21.83636627 11.49668399 -19.9198385 9.74651975 -18 8 C-16.6696875 6.77990234 -16.6696875 6.77990234 -15.3125 5.53515625 C-10.10315977 1.01668888 -6.97729407 -1.34649535 0 0 Z " fill="#134A87" transform="translate(305,221)"/>
</svg>
