<?xml version="1.0" encoding="UTF-8"?>
<svg version="1.1" xmlns="http://www.w3.org/2000/svg" width="512" height="512">
<path d="M0 0 C0.87180908 0.00572021 1.74361816 0.01144043 2.6418457 0.01733398 C14.51033658 0.34290356 23.50310891 4.63540401 32.25 12.5 C33.14589844 13.30050781 34.04179687 14.10101563 34.96484375 14.92578125 C36.86288608 16.64156986 38.75354922 18.36555702 40.63671875 20.09765625 C43.37154416 22.61173342 46.10787766 25.10555191 48.98364258 27.45776367 C51.25 29.5 51.25 29.5 53.57373047 32.30029297 C57.37664475 36.58999255 61.16335072 40.02754807 66.99285889 40.91983032 C74.87791646 41.17921037 82.6870267 40.13879837 90.5 39.1875 C94.00766057 38.81639968 97.51678781 38.46240987 101.02624512 38.10876465 C103.29549143 37.87895425 105.56415171 37.64327506 107.83215332 37.40148926 C124.09911672 35.70251546 140.31597599 34.60146034 154.1953125 44.8203125 C169.2212251 57.10385322 172.22925424 72.79211731 176.5625 90.9375 C177.10352307 93.1533113 177.64583084 95.36880933 178.18945312 97.58398438 C182.12488296 113.68648634 182.12488296 113.68648634 182.66139221 117.17488098 C183.06694718 119.77425167 183.06694718 119.77425167 185.78759766 121.48535156 C186.90183105 122.1140918 188.01606445 122.74283203 189.1640625 123.390625 C189.76613525 123.73672821 190.36820801 124.08283142 190.98852539 124.43942261 C192.9423788 125.558308 194.90829767 126.65388646 196.875 127.75 C198.21633019 128.51371181 199.55666344 129.27917721 200.89599609 130.04638672 C203.51267814 131.54350052 206.1332556 133.03333859 208.7578125 134.51660156 C214.99854905 138.05042699 221.12944109 141.76273764 227.25 145.5 C228.25675781 146.1084375 229.26351563 146.716875 230.30078125 147.34375 C243.07919819 155.22867304 252.55923225 164.45642455 256.25 179.5 C256.68196249 182.74322647 256.76033668 185.91852419 256.75 189.1875 C256.77835938 189.98349609 256.80671875 190.77949219 256.8359375 191.59960938 C256.88494691 207.12333952 247.22130843 223.30584762 241.16308594 237.29931641 C239.99357921 240.00647271 238.84305228 242.72105756 237.6953125 245.4375 C237.15331711 246.67040771 237.15331711 246.67040771 236.60037231 247.92822266 C233.97935471 254.19372532 234.22100378 257.95596842 236.66113281 264.27954102 C237.25201546 265.69038068 237.84971737 267.09837785 238.453125 268.50390625 C238.77279236 269.26364243 239.09245972 270.0233786 239.42181396 270.80613708 C240.44182305 273.22753472 241.47044513 275.64514767 242.5 278.0625 C243.84150889 281.22921947 245.17955595 284.39738807 246.515625 287.56640625 C246.83889771 288.33288483 247.16217041 289.0993634 247.49523926 289.8890686 C254.05925703 305.51392038 260.46729637 321.58294876 254.625 338.625 C249.98143146 349.15042203 243.33085967 357.15698532 233.51171875 363.1171875 C232.94893219 363.45962997 232.38614563 363.80207245 231.80630493 364.15489197 C223.92420445 368.93570059 215.97782167 373.61036203 208.03759766 378.29370117 C207.35101074 378.69886963 206.66442383 379.10403809 205.95703125 379.52148438 C205.27758957 379.92150162 204.59814789 380.32151886 203.89811707 380.73365784 C202.54901183 381.53594056 201.20588337 382.3483638 199.86909485 383.17100525 C196.94693763 384.96392065 194.22905288 386.50842817 191.03588867 387.79321289 C186.82406628 389.66366394 184.14927075 391.43749523 182.2565918 395.77841187 C179.82123117 402.96831095 178.34241292 410.38903616 176.8125 417.8125 C176.08208063 421.16015476 175.33909045 424.50470552 174.58982849 427.84819031 C174.12968906 429.92104482 173.68241727 431.99681542 173.25062561 434.07575989 C170.31906908 447.80803107 165.05586429 460.20613231 153.25 468.5 C132.44846715 481.12638497 107.80478358 475.38375502 84.71972656 473.5168457 C83.46900108 473.41706924 83.46900108 473.41706924 82.19300842 473.3152771 C80.62123952 473.18974235 79.04963986 473.06206194 77.47825623 472.93179321 C69.11214365 471.81772201 69.11214365 471.81772201 61.546875 474.37109375 C60.28617187 475.64146484 60.28617187 475.64146484 59 476.9375 C58.05382812 477.85660156 57.10765625 478.77570313 56.1328125 479.72265625 C55.41399902 480.42672607 55.41399902 480.42672607 54.68066406 481.14501953 C52.51968809 483.19167766 50.20437059 485.02440675 47.875 486.875 C44.21600711 489.8136776 40.75456115 492.86863946 37.3581543 496.1003418 C25.28538109 507.56974098 14.23719606 513.05718205 -2.56567383 512.98999023 C-14.23139518 512.6140475 -23.15039876 508.20573588 -31.75 500.5 C-32.57242188 499.77296875 -33.39484375 499.0459375 -34.2421875 498.296875 C-36.75969115 496.04719089 -39.25495883 493.77453017 -41.75 491.5 C-43.63665972 489.82083442 -45.53029886 488.16219084 -47.46875 486.54296875 C-49.32866658 484.87732428 -50.97025458 483.19501342 -52.65625 481.36328125 C-59.11941106 474.64866012 -59.11941106 474.64866012 -67.73046875 471.84765625 C-71.93186779 471.90557384 -76.06937139 472.48912734 -80.22705078 473.06201172 C-87.13352379 473.92065431 -94.0783049 474.38892175 -101.01638794 474.91915894 C-103.56772363 475.12048042 -106.11654976 475.34223365 -108.66577148 475.56860352 C-126.06123477 477.05695314 -142.55324838 477.1960394 -156.75 465.5 C-165.48168625 457.27358312 -169.84582731 447.7626602 -172.57421875 436.21484375 C-172.80655716 435.27371231 -173.03889557 434.33258087 -173.27827454 433.3629303 C-174.00921416 430.39039317 -174.72352 427.41415063 -175.4375 424.4375 C-175.92666037 422.43918992 -176.41688656 420.44114042 -176.90820312 418.44335938 C-177.80936722 414.76445984 -178.70682799 411.08475471 -179.5925293 407.40209961 C-179.79316483 406.58575043 -179.99380035 405.76940125 -180.20051575 404.92831421 C-180.56917186 403.29912673 -180.88443997 401.65700858 -181.14750671 400.00747681 C-181.82620137 395.97366974 -182.14912151 394.0573022 -185.22436523 391.20507812 C-186.26278564 390.65271484 -187.30120605 390.10035156 -188.37109375 389.53125 C-189.55463147 388.87389003 -190.73805746 388.21632889 -191.92138672 387.55859375 C-192.85902863 387.05851807 -192.85902863 387.05851807 -193.81561279 386.54833984 C-197.136143 384.74878074 -200.35744695 382.7829643 -203.59765625 380.84375 C-204.95831248 380.03922714 -206.31964722 379.23585079 -207.68164062 378.43359375 C-208.36202393 378.03253418 -209.04240723 377.63147461 -209.7434082 377.21826172 C-211.12413243 376.40530433 -212.50531865 375.5931311 -213.88696289 374.78173828 C-249.7723985 353.69359066 -249.7723985 353.69359066 -255.31494141 334.54858398 C-256.06841712 331.00065205 -256.10269238 327.42413472 -256.1875 323.8125 C-256.23326172 323.06677734 -256.27902344 322.32105469 -256.32617188 321.55273438 C-256.62055426 305.97606667 -246.91587256 289.44125349 -240.90454102 275.3996582 C-239.90357845 273.05646882 -238.91047068 270.71006406 -237.91796875 268.36328125 C-237.61384567 267.66012283 -237.3097226 266.95696442 -236.99638367 266.23249817 C-234.55764916 260.45476234 -232.90053799 256.29080496 -235.11767578 250.27734375 C-235.79521273 248.65770199 -236.48877437 247.04470243 -237.1953125 245.4375 C-237.56220184 244.56915527 -237.92909119 243.70081055 -238.30709839 242.80615234 C-239.48244774 240.0312473 -240.67772361 237.26550585 -241.875 234.5 C-256.68303218 199.90093473 -256.68303218 199.90093473 -256.375 189.4375 C-256.36025635 188.58824951 -256.3455127 187.73899902 -256.33032227 186.86401367 C-255.88233821 175.31172062 -251.68510929 165.86988333 -243.75 157.5 C-236.36490341 150.86411611 -227.65561044 146.10003136 -219.125 141.125 C-217.75095261 140.3183033 -216.37725278 139.51101429 -215.00390625 138.703125 C-214.32549683 138.30473419 -213.6470874 137.90634338 -212.94812012 137.49588013 C-211.58381528 136.69260107 -210.2212544 135.88635252 -208.86047363 135.07711792 C-205.45517093 133.05748632 -202.03541358 131.10551686 -198.53320312 129.25830078 C-190.25120561 124.9789444 -190.25120561 124.9789444 -184.921875 117.6015625 C-184.39190021 115.79151014 -183.92019706 113.96364005 -183.5 112.125 C-182.90439554 110.020621 -182.30798857 107.91646903 -181.7109375 105.8125 C-181.40639648 104.66136719 -181.10185547 103.51023437 -180.78808594 102.32421875 C-178.97608617 95.64896844 -176.90749209 89.05364789 -174.84484863 82.45233154 C-174.14058104 80.17537483 -173.4586552 77.89269344 -172.78027344 75.60791016 C-168.7315199 62.20888699 -163.13851765 50.27659782 -150.78515625 42.67578125 C-135.42750063 34.67740575 -120.58892293 36.00661737 -103.8828125 37.7265625 C-101.57293581 37.95462109 -99.26303971 38.18248308 -96.953125 38.41015625 C-93.3946652 38.76156648 -89.84151609 39.12892668 -86.29003906 39.54541016 C-72.66999235 41.85420902 -72.66999235 41.85420902 -59.85986328 38.50830078 C-57.10501143 35.99778989 -54.99084156 33.4649563 -52.75 30.5 C-50.99692568 28.99549477 -49.20843237 27.5304648 -47.375 26.125 C-43.71596439 23.18628809 -40.25458777 20.1311433 -36.85791016 16.8996582 C-26.05200571 6.63231169 -15.29853435 -0.11769249 0 0 Z M-12.75 37.5 C-13.59304687 38.26183594 -14.43609375 39.02367187 -15.3046875 39.80859375 C-17.17767422 41.50913835 -19.0433337 43.21778117 -20.90234375 44.93359375 C-23.57808836 47.34506729 -26.31563425 49.62178235 -29.125 51.875 C-34.03980055 55.82376371 -38.64098196 60.03565244 -43.15966797 64.42724609 C-49.60265485 70.5530648 -54.39007939 71.6753368 -63.2183075 71.59408569 C-68.48809833 71.45369637 -73.72092814 71.06995276 -78.97265625 70.625 C-80.07999619 70.53621582 -81.18733612 70.44743164 -82.32823181 70.35595703 C-85.82340499 70.07552628 -89.31798976 69.78856642 -92.8125 69.5 C-97.4279557 69.11944918 -102.04387963 68.74544338 -106.66015625 68.375 C-108.21223534 68.24375732 -108.21223534 68.24375732 -109.79566956 68.10986328 C-122.31093705 66.60214459 -122.31093705 66.60214459 -134.25 69.125 C-140.03405364 74.61985096 -141.99843139 80.5715449 -144.24609375 88.05859375 C-144.56151627 89.07993912 -144.87693878 90.10128448 -145.20191956 91.15357971 C-146.20631983 94.41214231 -147.19735451 97.67458087 -148.1875 100.9375 C-148.84867235 103.09599037 -149.51077316 105.25419657 -150.17382812 107.41210938 C-150.49703033 108.46427643 -150.82023254 109.51644348 -151.15322876 110.60049438 C-152.40260326 114.66101075 -153.65660597 118.72008599 -154.91278076 122.77850342 C-155.67320051 125.25035268 -156.41803042 127.7263751 -157.16064453 130.20361328 C-157.57615436 131.54360292 -157.9925731 132.88331127 -158.41015625 134.22265625 C-158.74797119 135.33519775 -159.08578613 136.44773926 -159.43383789 137.59399414 C-161.94738767 143.14375912 -166.31224941 146.08774339 -171.4140625 149.14453125 C-172.52394531 149.81379639 -173.63382813 150.48306152 -174.77734375 151.17260742 C-175.36370605 151.52132904 -175.95006836 151.87005066 -176.55419922 152.2293396 C-178.40385189 153.32966345 -180.24730925 154.43980549 -182.08984375 155.55200195 C-187.88418627 159.041199 -193.7025008 162.48600091 -199.56161499 165.8653717 C-202.03579565 167.29252675 -204.5050983 168.7280326 -206.97479248 170.16293335 C-208.71613167 171.16795279 -210.4666436 172.1570253 -212.21728516 173.14575195 C-219.95788821 177.39539002 -219.95788821 177.39539002 -224.75 184.5 C-225.70774786 192.21722046 -223.79147991 198.18507831 -220.734375 205.1875 C-220.32213684 206.17065186 -219.90989868 207.15380371 -219.48516846 208.16674805 C-218.17333543 211.28514416 -216.83738008 214.39248701 -215.5 217.5 C-214.6168365 219.58523814 -213.73531093 221.6711708 -212.85546875 223.7578125 C-211.22993385 227.60992426 -209.59360251 231.45710236 -207.94824219 235.30078125 C-202.48439479 248.14597493 -199.24080252 256.02813561 -204.53433228 269.49542236 C-206.82800653 275.13054657 -209.22813152 280.72070378 -211.625 286.3125 C-222.0317404 306.2802952 -222.0317404 306.2802952 -224.75 327.5 C-220.54212061 336.83051516 -208.46710963 341.50634813 -199.98800659 346.41931152 C-196.78756506 348.27581611 -193.59520696 350.14612665 -190.40234375 352.015625 C-189.75985184 352.39172913 -189.11735992 352.76783325 -188.45539856 353.15533447 C-182.18414124 356.82821297 -175.92193507 360.51479624 -169.6875 364.25 C-168.7372998 364.80945313 -167.78709961 365.36890625 -166.80810547 365.9453125 C-165.9317041 366.47382813 -165.05530273 367.00234375 -164.15234375 367.546875 C-163.39429443 367.99901367 -162.63624512 368.45115234 -161.85522461 368.91699219 C-156.68672207 372.80340881 -154.88264838 377.28363368 -153.34375 383.38671875 C-153.13713745 384.16617355 -152.9305249 384.94562836 -152.71765137 385.748703 C-151.06864892 392.04632372 -149.55139142 398.37731181 -148.03125 404.70703125 C-147.8029248 405.65649628 -147.57459961 406.6059613 -147.33935547 407.584198 C-145.43619301 415.51189611 -145.43619301 415.51189611 -144.55224609 419.31274414 C-143.87405514 422.21917496 -143.17346168 425.11943346 -142.46875 428.01953125 C-142.26963013 428.89970413 -142.07051025 429.77987701 -141.86535645 430.6867218 C-140.56444212 435.93883862 -139.22099901 439.11559258 -134.75 442.5 C-128.97412291 445.79774032 -124.50744839 445.74876372 -118.1171875 445.171875 C-116.74664719 445.06918304 -116.74664719 445.06918304 -115.34841919 444.9644165 C-112.43906171 444.74263957 -109.53233191 444.49678515 -106.625 444.25 C-104.69543772 444.09865543 -102.76574998 443.94890139 -100.8359375 443.80078125 C-96.26581656 443.44655482 -91.697274 443.07572288 -87.12911987 442.697052 C-53.6530796 439.92437929 -53.6530796 439.92437929 -48.3125 443.8125 C-47.08998488 445.00684657 -45.90662987 446.24174156 -44.75 447.5 C-43.33654931 448.80472372 -41.92227229 450.10864089 -40.49584961 451.39916992 C-38.92651075 452.82246659 -37.37557076 454.26417901 -35.82421875 455.70703125 C-32.20706435 459.03381515 -28.38563353 462.08820148 -24.5546875 465.1640625 C-20.37101395 468.64851485 -16.43077635 472.37613881 -12.4765625 476.1171875 C-7.4522949 480.50802309 -3.93592564 482.20993457 2.7109375 481.96484375 C7.24621653 481.13453882 9.94112157 478.5707857 13.25 475.5 C14.51457031 474.35724609 14.51457031 474.35724609 15.8046875 473.19140625 C17.67767422 471.49086165 19.5433337 469.78221883 21.40234375 468.06640625 C24.07808836 465.65493271 26.81563425 463.37821765 29.625 461.125 C34.5522861 457.16051693 39.18036205 452.94203402 43.74755859 448.57275391 C49.54105525 443.09899868 53.38197173 441.00141427 61.39453125 441.18359375 C62.21395706 441.1932164 63.03338287 441.20283905 63.87763977 441.2127533 C76.77259583 441.46819842 89.63032676 442.76242883 102.47338867 443.86645508 C105.90231058 444.15852639 109.33193985 444.44085682 112.76171875 444.72265625 C113.79826096 444.81531265 114.83480316 444.90796906 115.90275574 445.00343323 C122.83726929 445.57113093 129.20282146 446.05233624 135.5625 442.8125 C141.78283486 437.46011884 142.68632045 429.30870629 144.46484375 421.65625 C145.07463044 419.10541152 145.68466403 416.55463205 146.29492188 414.00390625 C147.24629301 409.99599125 148.19095973 405.98652195 149.1315918 401.97607422 C150.04261872 398.09560629 150.97277183 394.21981749 151.90234375 390.34375 C152.17852036 389.14673462 152.45469696 387.94971924 152.73924255 386.71643066 C155.7582727 374.19196322 155.7582727 374.19196322 161.76660156 369.55981445 C162.7150293 368.9999585 163.66345703 368.44010254 164.640625 367.86328125 C165.72786865 367.21270752 166.8151123 366.56213379 167.93530273 365.8918457 C169.12352406 365.19871144 170.31175678 364.50559673 171.5 363.8125 C172.73133888 363.07969287 173.96187384 362.34553341 175.19165039 361.61010742 C181.37990772 357.91935305 187.60443849 354.29077646 193.83084106 350.66487122 C196.74424984 348.96608948 199.65323391 347.25980222 202.56213379 345.55331421 C204.65276917 344.33277627 206.75122413 343.12659122 208.85058594 341.92114258 C210.14941532 341.16283157 211.44793347 340.40398713 212.74609375 339.64453125 C213.88232178 338.98815674 215.0185498 338.33178223 216.18920898 337.65551758 C220.1031853 334.89915665 223.08031015 331.83937971 225.25 327.5 C226.28838795 318.59818327 222.8023351 311.44249984 219.375 303.4375 C218.7819713 302.01830926 218.19051546 300.59846032 217.60058594 299.17797852 C215.83688465 294.94349108 214.04672823 290.72056088 212.25 286.5 C210.76615262 283.01054726 209.28324852 279.52073288 207.80810547 276.02758789 C206.95947136 274.02289175 206.10222209 272.02181249 205.23486328 270.02514648 C200.4525243 258.7940182 201.63387002 251.86997862 206.08764648 240.75976562 C206.7604703 239.13984468 207.43846404 237.52206324 208.12109375 235.90625 C208.48469498 235.03407837 208.8482962 234.16190674 209.22291565 233.26330566 C210.37312062 230.50689612 211.53005584 227.75337646 212.6875 225 C213.83987445 222.24601628 214.99084154 219.49144859 216.14137268 216.73669434 C216.85346961 215.03306742 217.5668621 213.32998118 218.28184509 211.62756348 C218.94265958 210.05173712 219.60047435 208.47464906 220.25509644 206.89624023 C220.95291811 205.21552621 221.65898271 203.53822212 222.37112427 201.86352539 C222.73342133 200.99397217 223.09571838 200.12441895 223.46899414 199.22851562 C223.79831436 198.44786743 224.12763458 197.66721924 224.4669342 196.86291504 C225.80508164 192.82503123 226.16235716 188.65927528 225.25 184.5 C222.47042568 179.57631325 219.71838603 177.15852209 214.84375 174.35546875 C214.21447098 173.9880809 213.58519196 173.62069305 212.93684387 173.24217224 C211.5842049 172.45449547 210.22798189 171.67294681 208.86856079 170.89703369 C206.72418845 169.67276361 204.58991824 168.43242418 202.45776367 167.18701172 C199.51795632 165.47047453 196.57527986 163.75903872 193.63037109 162.05126953 C187.5138284 158.49674464 181.43773424 154.87607148 175.38134766 151.22012329 C173.59914448 150.14706354 171.81151433 149.08349773 170.0234375 148.02026367 C168.39728516 147.03956909 168.39728516 147.03956909 166.73828125 146.0390625 C165.79509033 145.47396973 164.85189941 144.90887695 163.88012695 144.32666016 C157.94585351 140.2052238 155.43440012 136.48352733 153.7578125 129.515625 C153.45389084 128.34196381 153.45389084 128.34196381 153.14382935 127.14459229 C152.49213917 124.6010307 151.86841469 122.05184225 151.25 119.5 C151.03903687 118.64269287 150.82807373 117.78538574 150.61071777 116.90209961 C148.85752525 109.77149582 147.15432872 102.62908716 145.47412109 95.48095703 C144.84079472 92.79300759 144.19836418 90.10736174 143.5546875 87.421875 C143.36711884 86.61248474 143.17955017 85.80309448 142.98629761 84.96917725 C141.30540683 77.99939655 139.42212576 72.66618489 133.25 68.5 C125.25352548 65.83450849 115.53135316 67.67886781 107.2578125 68.375 C104.98307425 68.55730827 102.70833462 68.73959941 100.43359375 68.921875 C96.90336216 69.21013721 93.37327904 69.50014181 89.84326172 69.79101562 C86.39844628 70.07332245 82.95316599 70.34934921 79.5078125 70.625 C77.95406418 70.75624268 77.95406418 70.75624268 76.368927 70.89013672 C53.4425865 72.71775353 53.4425865 72.71775353 44.22265625 64.94921875 C43.24664317 64.03496823 42.27669057 63.11421036 41.3125 62.1875 C40.25969296 61.1999039 39.20630818 60.21292334 38.15234375 59.2265625 C37.19457031 58.32679687 36.23679687 57.42703125 35.25 56.5 C32.61467736 54.12970981 29.93518686 51.8135347 27.25 49.5 C26.73147461 49.04979492 26.21294922 48.59958984 25.67871094 48.13574219 C22.08376186 45.01449941 18.46857851 41.91948692 14.83007812 38.84912109 C13.50778462 37.72010473 12.21145241 36.56077659 10.921875 35.39453125 C6.69894162 31.78100492 3.29353163 30.53690646 -2.31640625 30.9296875 C-6.73401838 31.96495455 -9.47979557 34.46510548 -12.75 37.5 Z " fill="#134A87" transform="translate(255.75,-0.5)"/>
<path d="M0 0 C0.72539474 -0.00988449 1.45078949 -0.01976898 2.19816589 -0.029953 C46.84944593 -0.51241696 87.79598295 11.28629057 121.08203125 42.3203125 C122.78816029 43.9008962 124.51517365 45.36301763 126.33984375 46.80078125 C130.00926574 49.98094697 133.05053452 53.51216719 136.15234375 57.23828125 C136.78140625 57.97949219 137.41046875 58.72070312 138.05859375 59.484375 C159.90309703 85.87981646 175.13463054 120.68537859 175.35546875 155.26171875 C175.36252838 156.00092056 175.36958801 156.74012238 175.37686157 157.50172424 C175.60137154 187.89770206 175.60137154 187.89770206 172.15234375 201.23828125 C171.95366699 202.05184082 171.75499023 202.86540039 171.55029297 203.70361328 C168.38318209 216.49304757 164.05213181 228.46049566 158.15234375 240.23828125 C157.81364258 240.91697266 157.47494141 241.59566406 157.12597656 242.29492188 C137.61544015 280.64896781 102.37345037 309.30565601 61.85498047 323.015625 C56.67458275 324.66550419 51.44434338 326.00072321 46.15234375 327.23828125 C44.87746094 327.55796875 43.60257813 327.87765625 42.2890625 328.20703125 C21.27772971 332.89559653 -5.01959746 332.62309645 -25.84765625 327.23828125 C-26.66121582 327.03960449 -27.47477539 326.84092773 -28.31298828 326.63623047 C-55.52916668 319.89655357 -79.97208378 307.34424114 -100.60546875 288.29296875 C-102.53871938 286.52138368 -104.51054959 284.84045784 -106.53515625 283.17578125 C-134.00447182 259.66715769 -151.92024172 218.65999703 -154.84765625 183.23828125 C-155.83165125 165.38852717 -156.36359615 146.63793205 -151.84765625 129.23828125 C-151.64366211 128.41408691 -151.43966797 127.58989258 -151.22949219 126.74072266 C-148.20891385 114.71776565 -144.31966094 103.36132191 -138.84765625 92.23828125 C-138.54102051 91.60728516 -138.23438477 90.97628906 -137.91845703 90.32617188 C-131.38869053 77.0432254 -123.22358022 65.41371906 -113.08984375 54.6328125 C-111.21872725 52.63456439 -109.45772519 50.60318961 -107.72265625 48.48828125 C-82.83750533 19.32922629 -37.8731005 0.42694107 0 0 Z M-92.01074219 77.1484375 C-113.24127356 101.30225841 -124.32055926 132.78359114 -124.22265625 164.73828125 C-124.22178009 165.44004486 -124.22090393 166.14180847 -124.22000122 166.86483765 C-124.07126455 203.11592618 -109.36090308 235.74910727 -84.09765625 261.55078125 C-76.69181513 268.87184288 -68.7624954 274.88035117 -59.84765625 280.23828125 C-59.18185547 280.64127441 -58.51605469 281.04426758 -57.83007812 281.45947266 C-46.46047783 288.20846301 -34.53737535 292.62774176 -21.84765625 296.23828125 C-20.605 296.60050781 -19.36234375 296.96273438 -18.08203125 297.3359375 C15.78550565 305.35523313 52.90221635 297.17896498 82.15234375 279.23828125 C90.12381449 274.03891185 97.24495088 267.75684737 104.15234375 261.23828125 C104.8896875 260.56539062 105.62703125 259.8925 106.38671875 259.19921875 C124.00585839 242.51726739 134.7887947 220.3712706 141.15234375 197.23828125 C141.34441406 196.54653809 141.53648437 195.85479492 141.734375 195.14208984 C146.75968792 175.94712074 146.45651567 152.34130982 141.15234375 133.23828125 C140.93191406 132.43696777 140.71148437 131.6356543 140.484375 130.81005859 C133.88597958 107.65021435 122.65047644 88.72051308 106.15234375 71.23828125 C105.47945312 70.5009375 104.8065625 69.76359375 104.11328125 69.00390625 C87.3713042 51.32136869 65.30248526 40.7573001 42.15234375 34.23828125 C40.29222656 33.696875 40.29222656 33.696875 38.39453125 33.14453125 C-9.60904744 21.75027521 -59.5517298 41.70260191 -92.01074219 77.1484375 Z " fill="#134A87" transform="translate(245.84765625,90.76171875)"/>
<path d="M0 0 C4.62215198 2.18944041 6.71179348 4.50115328 9 9 C9.50390625 11.83203125 9.50390625 11.83203125 9.5625 14.8125 C9.62630859 16.27623047 9.62630859 16.27623047 9.69140625 17.76953125 C7.9442196 25.93294004 0.03263886 32.25529819 -5.67993164 37.9387207 C-6.53109055 38.79338425 -7.38224945 39.64804779 -8.25920105 40.52861023 C-10.57355907 42.85021537 -12.89229834 45.16732331 -15.21346593 47.48211694 C-17.65113683 49.91468902 -20.08388445 52.35217717 -22.5174408 54.78886414 C-26.59991907 58.87496874 -30.68656876 62.95686561 -34.77563477 67.03637695 C-39.49644497 71.74628329 -44.20997792 76.46338052 -48.91983896 81.18423396 C-52.97576756 85.24924743 -57.03559159 89.31033953 -61.09867948 93.36819714 C-63.52036086 95.78676823 -65.94068892 98.20665205 -68.35750008 100.63009071 C-71.05001284 103.32767893 -73.74884726 106.01877902 -76.44946289 108.70825195 C-77.24492523 109.50776276 -78.04038757 110.30727356 -78.85995483 111.13101196 C-79.59860275 111.86402023 -80.33725067 112.5970285 -81.09828186 113.35224915 C-81.73482224 113.98803548 -82.37136263 114.62382181 -83.02719212 115.2788744 C-87.10289177 118.83461395 -90.38794449 120.45585736 -95.8125 120.5625 C-97.27623047 120.62630859 -97.27623047 120.62630859 -98.76953125 120.69140625 C-108.54024485 118.60021362 -116.55075287 107.74027864 -123.36328125 100.90234375 C-124.6447433 99.62223112 -125.92650193 98.34241533 -127.20854187 97.06288147 C-129.88195284 94.39240551 -132.55174714 91.71838012 -135.21899414 89.04174805 C-138.6328916 85.6164223 -142.05573747 82.20020138 -145.48132038 78.78656673 C-148.12465196 76.15046804 -150.76319449 73.50961731 -153.40032005 70.86731148 C-154.66071104 69.60558975 -155.92257996 68.34534255 -157.1859684 67.08662224 C-158.9495901 65.32809304 -160.70665194 63.56325672 -162.4621582 61.79663086 C-162.98114685 61.28169067 -163.5001355 60.76675049 -164.03485107 60.23620605 C-168.74428979 55.47150208 -171.42874828 51.86258417 -171.4375 45.0625 C-171.29853409 39.9207615 -170.6480445 36.84523609 -167 33 C-163.33368821 30.4009365 -160.67493905 29.52571964 -156.1875 29.4375 C-155.21167969 29.39496094 -154.23585937 29.35242188 -153.23046875 29.30859375 C-144.33620187 31.21220347 -137.521056 40.21496673 -131.375 46.4296875 C-130.37796363 47.43046258 -129.38047843 48.43079069 -128.38256836 49.43069458 C-125.78069984 52.04013209 -123.1848988 54.65552231 -120.59039307 57.27227783 C-117.93244988 59.95082602 -115.26870467 62.62359106 -112.60546875 65.296875 C-107.39800928 70.52566528 -102.19695773 75.76076954 -97 81 C-94.02978443 79.66401364 -91.95663974 78.2021672 -89.66737366 75.89442444 C-89.02962509 75.25653488 -88.39187653 74.61864532 -87.73480225 73.96142578 C-87.04638245 73.26267334 -86.35796265 72.5639209 -85.64868164 71.84399414 C-84.91485764 71.1072496 -84.18103363 70.37050507 -83.42497253 69.61143494 C-81.83276243 68.01161605 -80.24286705 66.40949089 -78.65501595 64.80534554 C-76.141855 62.2666692 -73.62250898 59.7342829 -71.10142517 57.20347595 C-64.84079203 50.91609066 -58.59102973 44.61793427 -52.34088135 38.32012939 C-47.05994844 32.99974841 -41.77495434 27.68346571 -36.48446465 22.3725872 C-34.00261798 19.87777451 -31.52687342 17.37701221 -29.05128479 14.87599182 C-27.52805788 13.34549897 -26.00454898 11.81528671 -24.48071289 10.28540039 C-23.79431732 9.58867218 -23.10792175 8.89194397 -22.40072632 8.17410278 C-15.28099795 1.05280734 -10.22259645 -1.2466581 0 0 Z " fill="#134A87" transform="translate(337,196)"/>
</svg>
