<?xml version="1.0" encoding="UTF-8"?>
<svg version="1.1" xmlns="http://www.w3.org/2000/svg" width="512" height="512">
<path d="M0 0 C1.68845306 -0.0344312 3.37783702 -0.03597666 5.06640625 -0.0078125 C6.33581055 -0.06775391 6.33581055 -0.06775391 7.63085938 -0.12890625 C10.21595743 -0.12485755 12.18713568 0.00670598 14.62890625 0.8671875 C16.90682695 3.27582489 18.28387055 5.85611984 19.62890625 8.8671875 C21.25240555 12.1141861 24.70578735 12.68568435 27.94140625 13.9296875 C28.61880859 14.19845703 29.29621094 14.46722656 29.99414062 14.74414062 C36.17210132 17.50380466 36.17210132 17.50380466 42.50390625 16.8671875 C46.21369095 15.6800564 47.88727111 15.83167962 51.62890625 16.8671875 C53.86495792 18.50888221 55.64873454 19.98158684 57.56640625 21.9296875 C58.05786133 22.42484863 58.54931641 22.92000977 59.05566406 23.43017578 C61.05199864 25.58903515 62.50163586 27.29590612 63.1484375 30.19921875 C62.87890625 32.2421875 62.87890625 32.2421875 61.62890625 35.8671875 C60.31698659 40.20006812 60.92187398 42.29406708 62.94140625 46.3046875 C64.4688787 49.38860885 65.6293119 51.86901293 66.37890625 55.2421875 C68.42671825 59.5425927 72.49508884 60.83668228 76.62890625 62.8671875 C78.89968585 65.1379671 78.09502304 70.07327122 78.19140625 73.1171875 C78.25392578 73.97699219 78.31644531 74.83679688 78.38085938 75.72265625 C78.44716046 78.33049878 78.39694066 80.36953286 77.62890625 82.8671875 C75.23456007 85.17804881 72.65622992 86.53296954 69.62890625 87.8671875 C66.52970921 89.41678602 66.30056491 91.93084748 65.12890625 95.1171875 C64.70609375 96.25671875 64.28328125 97.39625 63.84765625 98.5703125 C63.44546875 99.65828125 63.04328125 100.74625 62.62890625 101.8671875 C62.22929687 102.75921875 61.8296875 103.65125 61.41796875 104.5703125 C60.23195932 108.02265678 61.53569053 110.46607192 62.62890625 113.8671875 C63.01953125 116.2265625 63.01953125 116.2265625 62.62890625 118.8671875 C60.97224121 121.02497897 59.44148053 122.75490755 57.50390625 124.6171875 C57.02953125 125.11089844 56.55515625 125.60460937 56.06640625 126.11328125 C52.74477632 129.39002429 50.29503188 130.7162616 45.62890625 130.8671875 C43.42578125 130.3515625 43.42578125 130.3515625 41.37890625 129.6171875 C36.25907221 128.3048523 33.34442466 130.0095483 28.91796875 132.5859375 C26.62890625 133.8671875 26.62890625 133.8671875 23.31640625 134.6171875 C19.31293442 136.15902121 19.31293442 136.15902121 15.62890625 144.8671875 C8.69890625 144.8671875 1.76890625 144.8671875 -5.37109375 144.8671875 C-7.02109375 141.8971875 -8.67109375 138.9271875 -10.37109375 135.8671875 C-13.44026183 133.84533399 -13.44026183 133.84533399 -16.87109375 132.9296875 C-17.97453125 132.57003906 -19.07796875 132.21039063 -20.21484375 131.83984375 C-21.7771875 131.35837891 -21.7771875 131.35837891 -23.37109375 130.8671875 C-24.25796875 130.4753125 -25.14484375 130.0834375 -26.05859375 129.6796875 C-29.49931506 128.47078542 -31.95361402 129.82973829 -35.37109375 130.8671875 C-41.25769902 130.31677591 -44.30273031 126.8253661 -48.37109375 122.8671875 C-49.21671875 122.0628125 -50.06234375 121.2584375 -50.93359375 120.4296875 C-53.02583392 116.70004197 -52.26729222 113.91157035 -51.37109375 109.8671875 C-51.14292969 109.06023437 -50.91476563 108.25328125 -50.6796875 107.421875 C-50.28940222 104.19090573 -51.05315417 102.81267652 -52.62109375 99.9921875 C-54.25029403 97.00901969 -55.63314561 94.22005463 -56.68359375 90.9921875 C-58.54997486 86.82021651 -58.54997486 86.82021651 -66.37109375 83.8671875 C-66.37109375 76.9371875 -66.37109375 70.0071875 -66.37109375 62.8671875 C-63.40109375 61.2171875 -60.43109375 59.5671875 -57.37109375 57.8671875 C-55.34924024 54.79801942 -55.34924024 54.79801942 -54.43359375 51.3671875 C-54.07394531 50.26375 -53.71429688 49.1603125 -53.34375 48.0234375 C-53.02277344 46.981875 -52.70179687 45.9403125 -52.37109375 44.8671875 C-51.97921875 43.9803125 -51.58734375 43.0934375 -51.18359375 42.1796875 C-49.97469167 38.73896619 -51.33364454 36.28466723 -52.37109375 32.8671875 C-52.06180114 28.2428858 -50.10356215 26.00337134 -46.99609375 22.6796875 C-45.80886719 21.38998047 -45.80886719 21.38998047 -44.59765625 20.07421875 C-42.37109375 17.8671875 -42.37109375 17.8671875 -39.37109375 15.8671875 C-35.94105671 16.1907759 -32.75387679 16.76131134 -29.43359375 17.6796875 C-25.6057892 17.91404288 -23.81451092 16.75673791 -20.5390625 14.92578125 C-16.99174487 13.1936676 -13.23726265 12.54734684 -9.37109375 11.8671875 C-9.28859375 11.1659375 -9.20609375 10.4646875 -9.12109375 9.7421875 C-7.69592095 4.27902508 -5.87600531 0.63792431 0 0 Z M-14.80859375 56.1796875 C-20.05202182 63.08675281 -21.47141879 70.28465222 -20.37109375 78.8671875 C-18.26113768 86.1045637 -14.3559633 92.26245786 -7.80859375 96.1796875 C-0.87229586 99.58477919 6.97297733 100.31728827 14.42578125 97.99609375 C21.46052304 94.74519035 26.30961312 90.27484551 29.50390625 83.1796875 C31.83464504 75.92069983 31.73816971 68.44285066 28.56640625 61.4921875 C25.17016662 55.53202612 20.29934712 50.78104859 13.765625 48.34375 C2.92197103 45.92523851 -7.11320505 47.95618389 -14.80859375 56.1796875 Z " fill="#134A87" transform="translate(75.37109375,350.1328125)"/>
<path d="M0 0 C1.49575562 -0.01029488 1.49575562 -0.01029488 3.02172852 -0.02079773 C6.32005019 -0.03910845 9.61789814 -0.03522201 12.91625977 -0.02954102 C15.20785172 -0.03410079 17.4994423 -0.03940575 19.79103088 -0.04542542 C24.5952815 -0.05436496 29.39936597 -0.05192375 34.20361328 -0.04199219 C40.36201197 -0.03050226 46.51983731 -0.0507106 52.67816067 -0.07990932 C57.41107327 -0.09825041 62.14384796 -0.09798299 66.87678719 -0.0922718 C69.14739855 -0.09211833 71.4180191 -0.0981841 73.68859673 -0.11056328 C76.86307677 -0.12543129 80.03649094 -0.11482623 83.2109375 -0.09765625 C84.14980301 -0.10732422 85.08866852 -0.11699219 86.0559845 -0.12695312 C90.21332748 -0.07983834 92.549145 0.02545325 96.161026 2.22740173 C98.79881476 5.08511474 100.57120521 8.23289759 102.35766602 11.65405273 C105.61539653 17.67203817 109.02713585 23.54800847 112.67016602 29.34155273 C113.10353271 30.03345703 113.53689941 30.72536133 113.98339844 31.43823242 C115.8603985 34.58628316 115.8603985 34.58628316 118.17016602 37.40405273 C118.43263741 41.9535569 118.16560939 45.28845078 116.17016602 49.40405273 C115.51016602 49.40405273 114.85016602 49.40405273 114.17016602 49.40405273 C113.90333008 50.00088867 113.63649414 50.59772461 113.36157227 51.21264648 C110.65276873 56.19506873 106.04171477 59.34031055 100.79516602 61.27905273 C92.14675705 63.72285019 85.08280381 62.65464329 77.17016602 58.40405273 C72.65406152 55.31141082 69.87490925 52.17570424 67.17016602 47.40405273 C66.61329102 48.07952148 66.05641602 48.75499023 65.48266602 49.45092773 C59.36825699 56.59817612 53.82867225 61.47896584 44.19750977 62.64233398 C36.70145776 62.90854892 29.71589266 61.21300501 23.76391602 56.49780273 C20.54045091 53.3677714 18.01974039 50.52648716 16.17016602 46.40405273 C15.91364258 46.91194336 15.65711914 47.41983398 15.39282227 47.94311523 C11.5089811 54.92618319 6.37889145 58.43401104 -0.76733398 61.77905273 C-10.06517685 63.67657169 -17.87262086 62.25402986 -25.87280273 57.08374023 C-30.18740893 53.71669148 -33.2638375 49.69537005 -34.82983398 44.40405273 C-35.45957572 39.09199597 -33.74134037 35.65875099 -31.07983398 31.21655273 C-30.68513916 30.53890869 -30.29044434 29.86126465 -29.88378906 29.16308594 C-28.55169275 26.89798393 -27.19428788 24.64980355 -25.82983398 22.40405273 C-25.06775635 21.14286621 -25.06775635 21.14286621 -24.2902832 19.85620117 C-22.71273764 17.25943032 -21.11916459 14.67340523 -19.51733398 12.09155273 C-19.01427734 11.27340088 -18.5112207 10.45524902 -17.99291992 9.61230469 C-17.50984375 8.84619873 -17.02676758 8.08009277 -16.52905273 7.29077148 C-16.10454834 6.61232178 -15.68004395 5.93387207 -15.24267578 5.23486328 C-10.92686348 -0.35771949 -6.64562088 -0.0317957 0 0 Z " fill="#134A87" transform="translate(381.829833984375,350.595947265625)"/>
<path d="M0 0 C2.1875 0.5625 2.1875 0.5625 5 2 C6.51697963 2.69596198 8.03816602 3.38279698 9.5625 4.0625 C10.67818359 4.57490234 10.67818359 4.57490234 11.81640625 5.09765625 C20.48467714 8.67971452 32.42597727 8.34937184 41.1875 5.1875 C43.94603899 4.02436805 46.36637924 2.77291353 48.91796875 1.19140625 C52 0 52 0 55.0703125 0.984375 C56.07835937 1.56703125 57.08640625 2.1496875 58.125 2.75 C68.85115275 8.80904812 73.06172006 7 88 7 C88 30.1 88 53.2 88 77 C47.41 77 6.82 77 -35 77 C-35 53.9 -35 30.8 -35 7 C-28.4 7 -21.8 7 -15 7 C-7.90266161 5.06864432 -7.90266161 5.06864432 -1.85546875 1.328125 C-1.24316406 0.88984375 -0.63085938 0.4515625 0 0 Z M4 33 C4 39.93 4 46.86 4 54 C18.52 54 33.04 54 48 54 C48 47.07 48 40.14 48 33 C33.48 33 18.96 33 4 33 Z " fill="#134A87" transform="translate(397,418)"/>
<path d="M0 0 C0.99022659 -0.00902847 1.98045319 -0.01805695 3.00068665 -0.02735901 C5.09442125 -0.04184599 7.18820097 -0.05074438 9.28198242 -0.05444336 C12.46026534 -0.06630172 15.63658177 -0.11547147 18.81445312 -0.16601562 C20.85545935 -0.17548528 22.89647741 -0.18271772 24.9375 -0.1875 C26.34584358 -0.21679848 26.34584358 -0.21679848 27.78263855 -0.24668884 C35.42758852 -0.19529415 42.06018685 1.89051046 47.75053406 7.18531799 C52.5992073 12.45788087 54.05025968 17.156595 54.05957031 24.33276367 C54.06307495 25.01303116 54.06657959 25.69329865 54.07019043 26.3941803 C54.07895335 28.63007984 54.07318002 30.86566006 54.06640625 33.1015625 C54.067754 34.65904297 54.06969545 36.21652304 54.07220459 37.77400208 C54.07514807 41.0312604 54.07088148 44.28840878 54.06152344 47.5456543 C54.05010081 51.72562193 54.0567109 55.90533351 54.06866837 60.08529186 C54.07588371 63.29797813 54.07360105 66.51060332 54.06841278 69.7232914 C54.06707685 71.26510969 54.06872203 72.80693349 54.07337189 74.34874535 C54.07843497 76.49851645 54.07073171 78.64786771 54.05957031 80.79760742 C54.05797913 82.02162766 54.05638794 83.24564789 54.05474854 84.50675964 C53.80078125 87.37109375 53.80078125 87.37109375 51.80078125 89.37109375 C49.34235203 89.56928657 46.99658526 89.64391333 44.53710938 89.62988281 C43.41495277 89.63513977 43.41495277 89.63513977 42.27012634 89.64050293 C39.79066766 89.64932465 37.31149297 89.64346964 34.83203125 89.63671875 C33.11332138 89.63806528 31.39461188 89.6400057 29.67590332 89.64251709 C26.07117085 89.64546895 22.46653739 89.64116876 18.86181641 89.63183594 C14.23449065 89.62044134 9.60739689 89.62700049 4.98007965 89.63898087 C1.43025963 89.64619782 -2.11950512 89.6439123 -5.66932678 89.63872528 C-7.37581917 89.63738833 -9.08231652 89.6390381 -10.7888031 89.64368439 C-13.1711868 89.64874697 -15.5531915 89.64104341 -17.93554688 89.62988281 C-18.6452211 89.63393127 -19.35489532 89.63797974 -20.08607483 89.64215088 C-24.97068969 89.59962281 -24.97068969 89.59962281 -27.19921875 87.37109375 C-27.46664429 84.52694702 -27.46664429 84.52694702 -27.48974609 80.84521484 C-27.49646332 80.17502319 -27.50318054 79.50483154 -27.51010132 78.81433105 C-27.52914955 76.5909896 -27.53300989 74.36794932 -27.53515625 72.14453125 C-27.54158312 70.59713619 -27.5483114 69.04974235 -27.55532837 67.50234985 C-27.56732075 64.25235176 -27.57100756 61.00246007 -27.56982422 57.75244141 C-27.56962175 53.60304989 -27.59683935 49.45434887 -27.63136864 45.30512047 C-27.653702 42.1050407 -27.65765969 38.90512483 -27.65660477 35.70497513 C-27.65895431 34.17646548 -27.66774122 32.64795086 -27.6832695 31.11951828 C-27.7695217 21.74633392 -27.69089926 14.49678881 -21.234375 7.12890625 C-20.58339844 6.59007813 -19.93242187 6.05125 -19.26171875 5.49609375 C-18.61332031 4.94179687 -17.96492188 4.3875 -17.296875 3.81640625 C-11.74306081 -0.01024412 -6.53607782 0.03693405 0 0 Z " fill="#134A87" transform="translate(410.19921875,119.62890625)"/>
<path d="M0 0 C1.48821007 -0.00786278 1.48821007 -0.00786278 3.00648499 -0.0158844 C5.09668038 -0.02228404 7.18691188 -0.02099439 9.27709961 -0.01245117 C12.45947953 -0.00394148 15.64006266 -0.03273191 18.82226562 -0.06445312 C20.86067655 -0.06606547 22.89909063 -0.06548698 24.9375 -0.0625 C25.88044418 -0.07373398 26.82338837 -0.08496796 27.79490662 -0.09654236 C34.99039057 -0.0213544 40.31874995 1.61503562 45.77734375 6.3984375 C46.31617187 7.04941406 46.855 7.70039062 47.41015625 8.37109375 C47.96445313 9.01949219 48.51875 9.66789063 49.08984375 10.3359375 C52.25762951 14.93350765 52.78676855 18.86377696 52.79394531 24.39526367 C52.79744995 25.07553116 52.80095459 25.75579865 52.80456543 26.4566803 C52.81332835 28.69257984 52.80755502 30.92816006 52.80078125 33.1640625 C52.802129 34.72154297 52.80407045 36.27902304 52.80657959 37.83650208 C52.80952307 41.0937604 52.80525648 44.35090878 52.79589844 47.6081543 C52.78447581 51.78812193 52.7910859 55.96783351 52.80304337 60.14779186 C52.81025871 63.36047813 52.80797605 66.57310332 52.80278778 69.7857914 C52.80145185 71.32760969 52.80309703 72.86943349 52.80774689 74.41124535 C52.81280997 76.56101645 52.80510671 78.71036771 52.79394531 80.86010742 C52.79235413 82.08412766 52.79076294 83.30814789 52.78912354 84.56925964 C52.53515625 87.43359375 52.53515625 87.43359375 50.53515625 89.43359375 C48.07672703 89.63178657 45.73096026 89.70641333 43.27148438 89.69238281 C42.14932777 89.69763977 42.14932777 89.69763977 41.00450134 89.70300293 C38.52504266 89.71182465 36.04586797 89.70596964 33.56640625 89.69921875 C31.84769638 89.70056528 30.12898688 89.7025057 28.41027832 89.70501709 C24.80554585 89.70796895 21.20091239 89.70366876 17.59619141 89.69433594 C12.96886565 89.68294134 8.34177189 89.68950049 3.71445465 89.70148087 C0.16463463 89.70869782 -3.38513012 89.7064123 -6.93495178 89.70122528 C-8.64144417 89.69988833 -10.34794152 89.7015381 -12.0544281 89.70618439 C-14.4368118 89.71124697 -16.8188165 89.70354341 -19.20117188 89.69238281 C-19.9108461 89.69643127 -20.62052032 89.70047974 -21.35169983 89.70465088 C-26.23631469 89.66212281 -26.23631469 89.66212281 -28.46484375 87.43359375 C-28.73226929 84.58944702 -28.73226929 84.58944702 -28.75537109 80.90771484 C-28.76208832 80.23752319 -28.76880554 79.56733154 -28.77572632 78.87683105 C-28.79477455 76.6534896 -28.79863489 74.43044932 -28.80078125 72.20703125 C-28.80720812 70.65963619 -28.8139364 69.11224235 -28.82095337 67.56484985 C-28.83294575 64.31485176 -28.83663256 61.06496007 -28.83544922 57.81494141 C-28.83524675 53.66554989 -28.86246435 49.51684887 -28.89699364 45.36762047 C-28.919327 42.1675407 -28.92328469 38.96762483 -28.92222977 35.76747513 C-28.92457931 34.23896548 -28.93336622 32.71045086 -28.9488945 31.18201828 C-29.03349294 21.98855115 -28.97150359 14.78065636 -22.7890625 7.4453125 C-21.97888672 6.78982422 -21.97888672 6.78982422 -21.15234375 6.12109375 C-20.61996094 5.67121094 -20.08757813 5.22132812 -19.5390625 4.7578125 C-13.00292367 0.5850233 -7.61426601 -0.02365448 0 0 Z " fill="#134A87" transform="translate(68.46484375,119.56640625)"/>
<path d="M0 0 C1.32064453 0.77923828 1.32064453 0.77923828 2.66796875 1.57421875 C15.38652984 9.82877655 24.63525123 21.4006679 29 36 C29.25 39.625 29.25 39.625 29 42 C30.299375 42.04125 31.59875 42.0825 32.9375 42.125 C38.76661221 42.79406477 42.57449472 45.27064162 47 49 C47.62648438 49.49757812 48.25296875 49.99515625 48.8984375 50.5078125 C53.42896773 55.08088292 53.68461034 60.2911348 53.8125 66.4375 C53.72927725 73.27683709 53.05200272 78.2609647 48.078125 83.3359375 C41.06838108 88.94900312 35.6911129 91.20654182 26.625 91.375 C25.86960937 91.41238281 25.11421875 91.44976562 24.3359375 91.48828125 C23.59859375 91.49988281 22.86125 91.51148437 22.1015625 91.5234375 C21.10116943 91.5531665 21.10116943 91.5531665 20.08056641 91.58349609 C16.61605789 90.61187261 15.16307124 88.81889111 13 86 C12.52684632 83.10613471 12.34641814 80.79342275 12.3984375 77.91015625 C12.39043121 77.12918076 12.38242493 76.34820526 12.37417603 75.54356384 C12.35117097 73.04934674 12.36050832 70.55675925 12.375 68.0625 C12.50687088 42.97287496 12.50687088 42.97287496 -0.0703125 21.90625 C-8.67573468 14.62711153 -19.52200567 11.31786252 -30.71875 12.21875 C-41.33944157 13.77008697 -51.09897661 18.53850926 -57.65625 27.18359375 C-66.18069563 40.24187443 -65.442132 54.64674987 -65.36035156 69.61938477 C-65.35178994 72.21427061 -65.37341157 74.80759593 -65.3984375 77.40234375 C-65.38509369 78.19197006 -65.37174988 78.98159637 -65.35800171 79.79515076 C-65.41403136 83.96754683 -65.67059997 85.56958582 -68.29443359 88.99804688 C-71.88794902 91.65702779 -74.94577254 91.72091751 -79.25 91.5625 C-80.00780762 91.54517822 -80.76561523 91.52785645 -81.54638672 91.51000977 C-89.53318637 91.17301038 -94.95605215 89.11727861 -100.875 83.6875 C-106.7148291 77.25149346 -107.59016339 71.69433858 -107.3359375 63.1484375 C-106.47824208 55.11003622 -102.31057433 50.70133864 -96.23828125 45.6328125 C-91.61516014 42.26027389 -87.61596199 41.73257324 -82 42 C-82 40.845 -82 39.69 -82 38.5 C-80.66631897 26.47781818 -72.58366173 14.47093017 -63.50390625 6.92578125 C-46.39458076 -6.20350256 -19.46150893 -11.6650926 0 0 Z M30 59 C30 63.95 30 68.9 30 74 C35.07088737 72.5946347 35.07088737 72.5946347 36.5 69.1875 C37.28034884 66.00848899 37.28034884 66.00848899 35.875 63.25 C33.95944095 60.64570478 33.95944095 60.64570478 30 59 Z M-88 61 C-89.75261147 63.42027298 -90.04180863 64.57146151 -89.75 67.5625 C-89.05904947 70.22069209 -89.05904947 70.22069209 -87 73 C-85.68 73.33 -84.36 73.66 -83 74 C-83 69.05 -83 64.1 -83 59 C-84.97064739 59 -86.3546959 60.002846 -88 61 Z " fill="#134A87" transform="translate(450,22)"/>
<path d="M0 0 C3.76146619 1.33986595 6.61101993 3.01177248 9.765625 5.44921875 C10.65636719 6.13306641 11.54710937 6.81691406 12.46484375 7.52148438 C13.38394531 8.23626953 14.30304688 8.95105469 15.25 9.6875 C16.15363281 10.38294922 17.05726563 11.07839844 17.98828125 11.79492188 C19.78618859 13.18021595 21.58115901 14.56933078 23.37304688 15.96240234 C25.12320604 17.31991428 26.87974706 18.66923848 28.64257812 20.01025391 C29.45662109 20.63206543 30.27066406 21.25387695 31.109375 21.89453125 C31.83608398 22.4460083 32.56279297 22.99748535 33.31152344 23.56567383 C35.88839629 25.75467441 35.98925563 26.88610967 36.3125 30.3125 C35.92945157 34.83247149 35.09330304 35.72641242 32 39 C29.06929554 41.39838754 26.01534244 43.60763036 22.9375 45.8125 C22.08929688 46.42689941 21.24109375 47.04129883 20.3671875 47.67431641 C18.68251203 48.89442011 16.99619066 50.11225494 15.30810547 51.32763672 C13.32670998 52.76327868 11.36309663 54.21745678 9.41015625 55.69140625 C8.44980469 56.41199219 7.48945313 57.13257813 6.5 57.875 C5.6853125 58.49117187 4.870625 59.10734375 4.03125 59.7421875 C2 61 2 61 -1 61 C-3.0078125 58.69921875 -3.0078125 58.69921875 -5.125 55.6875 C-6.18074219 54.20830078 -6.18074219 54.20830078 -7.2578125 52.69921875 C-9 50 -9 50 -10 47 C-6.7 44.69 -3.4 42.38 0 40 C-35.64 39.67 -71.28 39.34 -108 39 C-108 33.39 -108 27.78 -108 22 C-54.54 21.505 -54.54 21.505 0 21 C-3.3 18.69 -6.6 16.38 -10 14 C-8.2062572 10.4125144 -6.3896203 7.83243778 -3.875 4.75 C-3.15054688 3.85796875 -2.42609375 2.9659375 -1.6796875 2.046875 C-1.12539063 1.37140625 -0.57109375 0.6959375 0 0 Z " fill="#134A87" transform="translate(284,122)"/>
<path d="M0 0 C2.0078125 2.30078125 2.0078125 2.30078125 4.125 5.3125 C4.82882813 6.29863281 5.53265625 7.28476562 6.2578125 8.30078125 C8 11 8 11 9 14 C5.7 16.31 2.4 18.62 -1 21 C29.36 21.33 59.72 21.66 91 22 C91 27.61 91 33.22 91 39 C45.46 39.495 45.46 39.495 -1 40 C2.3 42.31 5.6 44.62 9 47 C7.31184863 50.37630274 5.54968586 53.18933101 3.375 56.25 C2.74335938 57.14203125 2.11171875 58.0340625 1.4609375 58.953125 C0.97882813 59.62859375 0.49671875 60.3040625 0 61 C-3.76368786 60.45772537 -6.00969117 59.56552625 -8.96875 57.19140625 C-9.69908447 56.61358398 -10.42941895 56.03576172 -11.18188477 55.44042969 C-11.94686279 54.82071289 -12.71184082 54.20099609 -13.5 53.5625 C-15.10249779 52.28729935 -16.70536538 51.01256328 -18.30859375 49.73828125 C-19.49364502 48.79009521 -19.49364502 48.79009521 -20.70263672 47.82275391 C-24.97291319 44.43466845 -29.33926263 41.17239123 -33.69140625 37.890625 C-36 36 -36 36 -37 34 C-37.34918968 30.29858939 -37.56347193 27.8936786 -35.546875 24.6953125 C-32.04203418 20.98620182 -28.07660433 18.15262431 -23.9375 15.1875 C-23.08929688 14.57310059 -22.24109375 13.95870117 -21.3671875 13.32568359 C-19.68251203 12.10557989 -17.99619066 10.88774506 -16.30810547 9.67236328 C-14.32670998 8.23672132 -12.36309663 6.78254322 -10.41015625 5.30859375 C-9.44980469 4.58800781 -8.48945313 3.86742187 -7.5 3.125 C-6.6853125 2.50882812 -5.870625 1.89265625 -5.03125 1.2578125 C-3 0 -3 0 0 0 Z " fill="#134A87" transform="translate(221,385)"/>
<path d="M0 0 C5.61 0 11.22 0 17 0 C17.33 19.47 17.66 38.94 18 59 C20.31 56.03 22.62 53.06 25 50 C28.37630274 51.68815137 31.18933101 53.45031414 34.25 55.625 C35.14203125 56.25664062 36.0340625 56.88828125 36.953125 57.5390625 C37.96632813 58.26222656 37.96632813 58.26222656 39 59 C38.45772537 62.76368786 37.56552625 65.00969117 35.19140625 67.96875 C34.32467285 69.06425171 34.32467285 69.06425171 33.44042969 70.18188477 C32.82071289 70.94686279 32.20099609 71.71184082 31.5625 72.5 C30.28729935 74.10249779 29.01256328 75.70536538 27.73828125 77.30859375 C27.10615723 78.09862793 26.4740332 78.88866211 25.82275391 79.70263672 C22.43466845 83.97291319 19.17239123 88.33926263 15.890625 92.69140625 C14 95 14 95 12 96 C8.29858939 96.34918968 5.8936786 96.56347193 2.6953125 94.546875 C-1.0137029 91.04212421 -3.84788248 87.07686079 -6.8125 82.9375 C-8.04936457 81.22647965 -9.28634321 79.51554176 -10.5234375 77.8046875 C-11.11737305 76.97936523 -11.71130859 76.15404297 -12.32324219 75.30371094 C-13.76257181 73.32620448 -15.22857324 71.3784591 -16.7265625 69.4453125 C-17.82097656 68.01832031 -17.82097656 68.01832031 -18.9375 66.5625 C-19.87916016 65.35787109 -19.87916016 65.35787109 -20.83984375 64.12890625 C-22 62 -22 62 -22.03125 59.98046875 C-20.49025857 57.02106475 -18.27332363 55.65356926 -15.5625 53.75 C-14.57378906 53.04359375 -13.58507812 52.3371875 -12.56640625 51.609375 C-10 50 -10 50 -8 50 C-5.69 53.3 -3.38 56.6 -1 60 C-0.67 40.2 -0.34 20.4 0 0 Z " fill="#134A87" transform="translate(415,232)"/>
<path d="M0 0 C3.98360334 2.71522404 6.68415198 5.91220264 9.5625 9.75 C10.18680908 10.58132446 10.18680908 10.58132446 10.82373047 11.42944336 C11.72815669 12.63418163 12.63041867 13.84054702 13.53076172 15.04833984 C15.10474586 17.13913899 16.70810121 19.20503549 18.31640625 21.26953125 C19.41953345 22.7003184 20.52240224 24.13130481 21.625 25.5625 C22.15810791 26.24086914 22.69121582 26.91923828 23.24047852 27.61816406 C23.73088623 28.26108398 24.22129395 28.90400391 24.7265625 29.56640625 C25.38519287 30.41634155 25.38519287 30.41634155 26.05712891 31.28344727 C27 33 27 33 27 37 C25.1015625 38.6328125 25.1015625 38.6328125 22.625 40.125 C20.12378373 41.65749124 18.07896656 42.92103344 16 45 C12 44 12 44 6 36 C5.67 55.8 5.34 75.6 5 96 C-0.61 96 -6.22 96 -12 96 C-12.33 76.2 -12.66 56.4 -13 36 C-15.31 38.97 -17.62 41.94 -20 45 C-24.24817476 43.93795631 -25.93395323 42.68632824 -29.25 39.9375 C-30.58804688 38.83728516 -30.58804688 38.83728516 -31.953125 37.71484375 C-32.62859375 37.14894531 -33.3040625 36.58304687 -34 36 C-33.39573397 32.83382054 -32.38858119 30.87823095 -30.41015625 28.34765625 C-29.8776123 27.65937744 -29.34506836 26.97109863 -28.79638672 26.26196289 C-28.2242041 25.53614014 -27.65202148 24.81031738 -27.0625 24.0625 C-25.87882428 22.54173046 -24.69523148 21.02089638 -23.51171875 19.5 C-22.92052246 18.74460938 -22.32932617 17.98921875 -21.72021484 17.2109375 C-20.1355364 15.17420064 -18.57225619 13.12364865 -17.01953125 11.0625 C-16.5702124 10.46816162 -16.12089355 9.87382324 -15.65795898 9.26147461 C-14.44532821 7.65563302 -13.23433227 6.04855729 -12.0234375 4.44140625 C-8.32152777 -0.02518367 -5.65202035 -0.58469176 0 0 Z " fill="#134A87" transform="translate(84,232)"/>
<path d="M0 0 C5.55639086 3.28753126 11.00778651 8.08484015 13.25 14.29296875 C14.72018483 21.49949974 14.88265098 29.21965171 11.015625 35.66015625 C6.82764269 41.26466199 2.58252529 45.51593558 -4.3125 47.4375 C-13.11931059 48.42287741 -20.26972018 47.40881198 -27.31640625 41.859375 C-32.20798602 37.32521755 -34.9426582 33.04808053 -35.625 26.38671875 C-35.87674107 19.56610913 -35.62063004 13.92825398 -31.3125 8.4375 C-23.11419147 -0.36545601 -11.7119519 -5.28632849 0 0 Z " fill="#134A87" transform="translate(91.3125,61.5625)"/>
<path d="M0 0 C4.96088616 3.23743051 9.53978126 7.48585236 11.59765625 13.18359375 C13.0416868 20.26192209 13.2911639 28.12588442 9.5 34.48046875 C5.25846661 39.83045621 -0.0257971 45.23964709 -6.96484375 46.328125 C-15.79970228 47.10509128 -21.96969277 46.39675604 -28.90234375 40.75 C-33.82614381 36.19548494 -36.59024539 31.98514152 -37.27734375 25.27734375 C-37.52898961 18.4593136 -37.30902634 12.79301427 -32.96484375 7.328125 C-23.71936677 -2.34857758 -12.69521867 -6.54345209 0 0 Z " fill="#134A87" transform="translate(435.96484375,62.671875)"/>
</svg>
