<?xml version="1.0" encoding="UTF-8"?>
<svg version="1.1" xmlns="http://www.w3.org/2000/svg" width="512" height="512">
<path d="M0 0 C1.64510941 0.00015915 3.29022379 0.00585551 4.93530273 0.01586914 C6.23164894 0.01799156 6.23164894 0.01799156 7.55418396 0.02015686 C10.32578941 0.025773 13.09731528 0.0383282 15.86889648 0.05102539 C17.74324428 0.05603831 19.61759334 0.06060158 21.49194336 0.06469727 C26.09679192 0.07574767 30.70158069 0.09302309 35.30639648 0.11352539 C35.30639648 0.77352539 35.30639648 1.43352539 35.30639648 2.11352539 C36.44077148 2.15477539 37.57514648 2.19602539 38.74389648 2.23852539 C63.00621612 5.05265024 86.95566298 21.96479223 101.93920898 40.51953125 C114.29537032 56.20750929 121.96749608 73.40404616 125.30639648 93.11352539 C125.43788086 93.87536133 125.56936523 94.63719727 125.70483398 95.42211914 C129.93118184 125.63479505 120.6084239 155.03998963 102.74389648 179.17602539 C91.15774672 194.83030393 84.6737739 211.32462648 82.46948242 230.64355469 C81.81892264 235.74631498 80.66816995 239.03685809 77.30639648 243.11352539 C76.0187439 243.97264526 76.0187439 243.97264526 74.70507812 244.84912109 C72.01648753 246.94507256 72.01648753 246.94507256 71.69458008 250.30224609 C71.69965576 252.15209106 71.69965576 252.15209106 71.70483398 254.03930664 C71.6968277 254.70512253 71.68882141 255.37093842 71.68057251 256.05693054 C71.6575496 258.18058426 71.66693148 260.30232138 71.68139648 262.42602539 C71.68526268 264.53866074 71.6816295 266.65044331 71.66079712 268.76298523 C71.64326206 270.68745069 71.65064692 272.61209576 71.65942383 274.53662109 C71.13639977 279.83594715 69.46802499 283.65319241 66.11889648 287.86352539 C61.96840743 291.18391663 57.65921914 293.11352539 52.30639648 293.11352539 C52.10014648 294.41290039 51.89389648 295.71227539 51.68139648 297.05102539 C49.78527295 305.49739384 44.02812935 312.78661851 37.30639648 318.11352539 C27.37934452 324.33030046 17.84232897 326.22639003 6.30639648 324.11352539 C-2.85685074 321.33285446 -11.39763082 315.12015867 -16.69360352 307.11352539 C-19.0527167 302.3733197 -20.69360352 298.44638733 -20.69360352 293.11352539 C-21.65459961 293.00137695 -21.65459961 293.00137695 -22.63500977 292.88696289 C-29.094711 291.90501129 -33.42483697 290.18268566 -37.69360352 285.11352539 C-40.17827331 281.38143611 -39.95061211 277.6070165 -39.88891602 273.28540039 C-39.88608612 272.53639465 -39.88325623 271.78738892 -39.88034058 271.01568604 C-39.86917612 268.63146764 -39.84407882 266.2476296 -39.81860352 263.86352539 C-39.80856887 262.24373916 -39.79944386 260.62394703 -39.79125977 259.00415039 C-39.76924906 255.04046293 -39.73474527 251.07705858 -39.69360352 247.11352539 C-40.4625293 246.83653809 -41.23145508 246.55955078 -42.02368164 246.27416992 C-45.63395944 244.70474228 -47.77892154 242.48416345 -49.69360352 239.11352539 C-50.5582379 236.18542969 -50.87954711 233.26927732 -51.19360352 230.23852539 C-53.88903104 209.99256614 -61.7878223 192.70388691 -73.78344727 176.24633789 C-91.32728073 151.71496049 -99.36520447 123.5406969 -94.87133789 93.34667969 C-91.44261457 73.55588702 -83.48417801 55.57068608 -70.69360352 40.11352539 C-70.04649414 39.31430664 -69.39938477 38.51508789 -68.73266602 37.69165039 C-53.14501075 19.2409564 -31.24952666 7.91474271 -8.20141602 2.05883789 C-0.63389297 0.01948313 -0.63389297 0.01948313 0 0 Z M-52.69360352 46.11352539 C-66.44593882 60.85266948 -77.69360352 80.36985891 -77.69360352 101.11352539 C-71.42360352 101.11352539 -65.15360352 101.11352539 -58.69360352 101.11352539 C-58.03360352 98.47352539 -57.37360352 95.83352539 -56.69360352 93.11352539 C-53.61072673 87.18491618 -48.85016238 82.90896206 -42.71313477 80.25805664 C-36.16816439 78.31154849 -29.71792124 78.99349356 -23.50610352 81.73852539 C-17.23641739 85.23556148 -13.89595639 89.71991617 -11.81860352 96.55102539 C-11.44735352 98.05665039 -11.07610352 99.56227539 -10.69360352 101.11352539 C-5.08360352 101.11352539 0.52639648 101.11352539 6.30639648 101.11352539 C6.3437793 99.16188477 6.38116211 97.21024414 6.41967773 95.19946289 C6.48534314 92.62913136 6.55179028 90.05881971 6.61889648 87.48852539 C6.64145508 86.20333008 6.66401367 84.91813477 6.68725586 83.59399414 C6.74042969 81.72807617 6.74042969 81.72807617 6.79467773 79.82446289 C6.82086182 78.68283691 6.8470459 77.54121094 6.87402344 76.36499023 C7.36465707 72.67540317 8.28397453 70.23449345 10.30639648 67.11352539 C14.35192438 66.13476864 16.975382 65.80398714 20.99389648 66.73852539 C23.42720161 67.33289525 23.42720161 67.33289525 26.05639648 66.05102539 C28.53881536 64.24452929 28.53881536 64.24452929 29.30639648 61.17602539 C29.53006221 58.16672793 29.53006221 58.16672793 28.23999023 55.92602539 C26.35393026 53.78467892 26.35393026 53.78467892 23.09155273 53.82836914 C21.86307617 53.9018457 20.63459961 53.97532227 19.36889648 54.05102539 C12.90117954 54.42507842 12.90117954 54.42507842 9.92749023 52.86743164 C6.69195692 49.36681849 7.13045812 44.95439007 6.98999023 40.37915039 C6.9480957 39.08364258 6.90620117 37.78813477 6.86303711 36.45336914 C6.82322977 35.09009063 6.78351743 33.72680933 6.74389648 32.36352539 C6.70067374 30.98460664 6.65705828 29.60570014 6.61303711 28.22680664 C6.50695691 24.85581349 6.40489798 21.48474713 6.30639648 18.11352539 C-16.13296662 17.82984191 -37.32494565 30.56993971 -52.69360352 46.11352539 Z M24.30639648 18.11352539 C24.30639648 24.05352539 24.30639648 29.99352539 24.30639648 36.11352539 C25.99764648 36.67040039 27.68889648 37.22727539 29.43139648 37.80102539 C36.28916448 40.3187682 41.05399802 43.28115862 44.54858398 50.03540039 C46.96738102 56.66839021 46.98387138 63.50188427 44.37280273 70.04711914 C40.69347148 77.17666578 35.82620012 80.57046452 28.30639648 83.11352539 C26.32639648 83.60852539 26.32639648 83.60852539 24.30639648 84.11352539 C24.30639648 89.72352539 24.30639648 95.33352539 24.30639648 101.11352539 C26.34182617 101.1509082 28.37725586 101.18829102 30.47436523 101.22680664 C32.45689405 101.27550033 34.43942177 101.32429733 36.421875 101.37597656 C37.79415606 101.40912345 39.1665701 101.4371871 40.5390625 101.45996094 C42.51777415 101.49369305 44.49611025 101.54754029 46.47436523 101.60180664 C48.25750122 101.64108276 48.25750122 101.64108276 50.07666016 101.68115234 C53.57022149 102.14884432 55.49855683 103.01896112 58.30639648 105.11352539 C60.19840676 108.89754594 59.13552554 113.67706499 58.95092773 117.82836914 C58.97833201 121.15294814 58.97833201 121.15294814 61.12670898 123.06274414 C64.22644348 124.55706059 66.05671147 124.08151667 69.30639648 123.11352539 C71.12260297 122.05912365 71.12260297 122.05912365 72.30639648 120.11352539 C72.43718375 116.52559473 72.17205651 113.04144489 71.92358398 109.46118164 C72.30639648 106.11352539 72.30639648 106.11352539 74.37597656 103.94238281 C78.0052724 101.67736114 80.31675198 101.57426028 84.57592773 101.50415039 C85.25693039 101.48761414 85.93793304 101.47107788 86.63957214 101.45404053 C88.79944019 101.40573236 90.95860524 101.38423029 93.11889648 101.36352539 C94.58963465 101.33535095 96.06034031 101.30542145 97.53100586 101.27368164 C101.12265062 101.19998143 104.7141622 101.15030054 108.30639648 101.11352539 C104.04690839 74.18368708 93.01959937 52.22399671 71.22827148 35.20336914 C57.53429577 25.40888117 41.33913156 18.11352539 24.30639648 18.11352539 Z M-39.42797852 97.67211914 C-42.00213248 99.97612887 -42.00213248 99.97612887 -42.14672852 103.46118164 C-42.04618164 105.3000293 -42.04618164 105.3000293 -41.94360352 107.17602539 C-41.63185236 113.92827193 -41.63185236 113.92827193 -42.69360352 117.11352539 C-46.19952152 118.56371985 -50.1256228 118.3226407 -53.86547852 118.42993164 C-54.88910492 118.46110329 -54.88910492 118.46110329 -55.93341064 118.49290466 C-58.10337708 118.55804591 -60.27345976 118.61711943 -62.44360352 118.67602539 C-63.91887573 118.71924436 -65.39413639 118.76285971 -66.86938477 118.80688477 C-70.47733518 118.91369057 -74.08541484 119.01505692 -77.69360352 119.11352539 C-76.18662252 138.68918335 -68.823152 154.37492972 -57.25610352 169.98852539 C-44.58245294 187.13887463 -36.56526296 205.46673989 -34.01782227 226.77758789 C-33.81814802 229.13110561 -33.81814802 229.13110561 -32.69360352 231.11352539 C-19.82360352 231.11352539 -6.95360352 231.11352539 6.30639648 231.11352539 C6.30639648 215.93352539 6.30639648 200.75352539 6.30639648 185.11352539 C2.34639648 183.46352539 -1.61360352 181.81352539 -5.69360352 180.11352539 C-11.81902959 174.17371829 -14.95107297 169.62044175 -15.13110352 160.92602539 C-14.99708387 154.34417153 -13.77652551 149.35217009 -9.69360352 144.11352539 C-4.65454742 139.58308431 -0.29963721 138.00096359 6.30639648 136.11352539 C6.30639648 130.50352539 6.30639648 124.89352539 6.30639648 119.11352539 C4.2709668 119.07614258 2.23553711 119.03875977 0.13842773 119.00024414 C-1.84410108 118.95155045 -3.8266288 118.90275345 -5.80908203 118.85107422 C-7.18136309 118.81792733 -8.55377713 118.78986368 -9.92626953 118.76708984 C-11.90498118 118.73335773 -13.88331728 118.67951049 -15.86157227 118.62524414 C-17.05032959 118.59906006 -18.23908691 118.57287598 -19.46386719 118.54589844 C-22.97971443 118.07522299 -24.9139999 117.2967023 -27.69360352 115.11352539 C-28.75599476 111.16750079 -28.77233596 108.49406556 -27.94360352 104.48852539 C-27.31162809 100.95715826 -27.31162809 100.95715826 -29.88110352 98.17602539 C-33.57171842 95.46957446 -35.45199401 95.40580797 -39.42797852 97.67211914 Z M24.30639648 119.11352539 C24.28061523 121.23274414 24.25483398 123.35196289 24.22827148 125.53540039 C24.18982762 127.59412765 24.14467553 129.65260641 24.09887695 131.71118164 C24.07070038 133.13879476 24.04946921 134.56656292 24.03540039 135.99438477 C24.01392256 138.05052871 23.96725674 140.10481541 23.91577148 142.16040039 C23.88435059 144.0142334 23.88435059 144.0142334 23.85229492 145.90551758 C23.21305522 149.66205141 22.31210548 150.84519507 19.30639648 153.11352539 C15.90996312 154.07338699 13.70858516 154.19560471 10.24389648 153.48852539 C7.27105483 152.87564902 7.27105483 152.87564902 4.49389648 154.17602539 C2.09281475 155.99540192 2.09281475 155.99540192 1.24389648 158.98852539 C1.32564378 163.07589006 2.38764542 164.30886232 5.30639648 167.11352539 C8.68388122 167.45860684 11.74007329 167.1138798 15.11499023 166.80102539 C18.45270832 167.12785213 19.96992991 167.73314402 22.2587738 170.18588257 C24.73590835 174.74385054 24.02911991 180.46142378 24.01342773 185.50805664 C24.02854904 186.81054855 24.04367035 188.11304047 24.05924988 189.45500183 C24.09903469 192.90577868 24.10928591 196.35602771 24.11328125 199.80700684 C24.1226253 203.33316746 24.15977671 206.85902909 24.19506836 210.38500977 C24.26219429 217.2949123 24.28307087 224.20278063 24.30639648 231.11352539 C37.50639648 231.11352539 50.70639648 231.11352539 64.30639648 231.11352539 C65.11077148 226.19446289 65.11077148 226.19446289 65.93139648 221.17602539 C69.48519019 201.10325918 76.76080765 184.27870622 89.36889648 168.23852539 C100.55710354 153.90462805 106.06898531 137.01281475 108.30639648 119.11352539 C102.03639648 119.11352539 95.76639648 119.11352539 89.30639648 119.11352539 C88.64639648 122.08352539 87.98639648 125.05352539 87.30639648 128.11352539 C83.98324453 133.83473564 78.7414594 138.39821888 72.30639648 140.11352539 C64.74401623 141.13153812 58.15144078 140.63413618 51.46655273 136.79711914 C45.37600013 132.05023275 43.38976056 126.40529964 41.30639648 119.11352539 C35.69639648 119.11352539 30.08639648 119.11352539 24.30639648 119.11352539 Z M-22.69360352 249.11352539 C-22.69360352 257.69352539 -22.69360352 266.27352539 -22.69360352 275.11352539 C2.38639648 275.11352539 27.46639648 275.11352539 53.30639648 275.11352539 C53.30639648 266.53352539 53.30639648 257.95352539 53.30639648 249.11352539 C28.22639648 249.11352539 3.14639648 249.11352539 -22.69360352 249.11352539 Z M-3.69360352 293.11352539 C-0.79765234 299.93227454 -0.79765234 299.93227454 3.86889648 304.05102539 C4.44768555 304.43129883 5.02647461 304.81157227 5.62280273 305.20336914 C10.30763844 307.73600654 15.12732281 307.66595992 20.30639648 307.11352539 C25.62860968 305.44523369 29.28791719 302.87343505 32.30639648 298.11352539 C32.96639648 296.46352539 33.62639648 294.81352539 34.30639648 293.11352539 C21.76639648 293.11352539 9.22639648 293.11352539 -3.69360352 293.11352539 Z " fill="#134A87" transform="translate(353.693603515625,12.886474609375)"/>
<path d="M0 0 C20.35675761 12.2743883 43.10766934 20.2663115 65.67578125 27.45703125 C66.88975586 27.84681152 68.10373047 28.2365918 69.35449219 28.63818359 C71.63453955 29.36262283 73.92010683 30.07001844 76.21191406 30.75634766 C84.89985844 33.4985562 92.56953658 37.66822017 97.578125 45.57421875 C98.0421875 46.27675781 98.50625 46.97929687 98.984375 47.703125 C100.28650776 50.45155522 100.69876437 53.00701015 101.078125 56.01171875 C123.94844139 44.54622857 144.9529131 30.23066544 165.140625 14.57421875 C175.85503665 6.27223438 184.99933563 -0.25833475 199.078125 0.01171875 C207.14102491 1.22232909 214.6164054 4.95365249 219.9375 11.19140625 C222.86553778 15.33248825 224.81217225 18.82564013 225.078125 24.01171875 C225.738125 24.01171875 226.398125 24.01171875 227.078125 24.01171875 C228.67266948 38.38476553 223.53566722 47.68125957 214.765625 58.69921875 C213.21982934 60.48465224 211.65682799 62.25531509 210.078125 64.01171875 C209.25699219 64.95273437 208.43585938 65.89375 207.58984375 66.86328125 C197.08564836 78.65910363 185.41636659 89.17089603 173.078125 99.01171875 C171.87592638 100.00317743 170.67552433 100.99681704 169.4765625 101.9921875 C132.04280294 132.97265977 90.88625702 156.93916169 40.8203125 157.21484375 C39.53437447 157.2254332 39.53437447 157.2254332 38.22245789 157.23623657 C2.4851489 157.46358881 2.4851489 157.46358881 -14.921875 154.01171875 C-15.97793945 153.80772461 -17.03400391 153.60373047 -18.12207031 153.39355469 C-46.33159957 147.8294012 -73.87267577 138.80458116 -99.95214844 126.66235352 C-113.33597489 120.46947049 -124.67902154 119.08138106 -138.984375 123.84375 C-142.06335098 125.0679705 -144.982435 126.48513458 -147.921875 128.01171875 C-147.48875 128.84703125 -147.48875 128.84703125 -147.046875 129.69921875 C-144.42308546 135.09256391 -143.02181621 139.01132683 -143.921875 145.01171875 C-147.96308691 150.10293197 -153.20916273 152.49507755 -158.96484375 155.3125 C-159.92965164 155.79373825 -160.89445953 156.2749765 -161.88850403 156.77079773 C-163.91934035 157.78136082 -165.95257506 158.78711674 -167.98803711 159.78833008 C-171.1140771 161.32653247 -174.23231042 162.87971815 -177.34960938 164.43554688 C-179.32508379 165.41624543 -181.3009808 166.39609331 -183.27734375 167.375 C-184.2137822 167.84053787 -185.15022064 168.30607574 -186.11503601 168.78572083 C-186.97965958 169.21003891 -187.84428314 169.63435699 -188.73510742 170.0715332 C-189.49724045 170.44727982 -190.25937347 170.82302643 -191.04460144 171.2101593 C-192.921875 172.01171875 -192.921875 172.01171875 -194.921875 172.01171875 C-194.921875 172.67171875 -194.921875 173.33171875 -194.921875 174.01171875 C-196.66877864 174.1743615 -198.42006149 174.29041487 -200.171875 174.38671875 C-201.63367188 174.49113281 -201.63367188 174.49113281 -203.125 174.59765625 C-205.921875 174.01171875 -205.921875 174.01171875 -208.0234375 171.5546875 C-210.34870521 167.51043354 -212.190904 163.22327159 -214.046875 158.94921875 C-217.26498815 151.67325026 -220.56070899 144.4434088 -223.984375 137.26171875 C-224.35900879 136.47273193 -224.73364258 135.68374512 -225.11962891 134.87084961 C-227.60541589 129.66969658 -230.16621247 124.50837329 -232.75 119.35546875 C-236.76255729 111.35276212 -240.70340437 103.31692257 -244.609375 95.26171875 C-244.94793518 94.56447693 -245.28649536 93.86723511 -245.63531494 93.14886475 C-251.20141309 81.6781961 -256.62914494 70.14837392 -261.9362793 58.55566406 C-262.43426025 57.47124023 -262.93224121 56.38681641 -263.4453125 55.26953125 C-263.87763184 54.32223145 -264.30995117 53.37493164 -264.75537109 52.39892578 C-265.94006551 49.84026105 -265.94006551 49.84026105 -267.921875 47.01171875 C-268.29296875 44.890625 -268.29296875 44.890625 -268.359375 42.57421875 C-268.41931641 41.43146484 -268.41931641 41.43146484 -268.48046875 40.265625 C-267.62744504 36.82370417 -265.83923 36.06430566 -262.921875 34.01171875 C-259.24210752 31.93038821 -255.48089375 30.02140878 -251.70703125 28.1171875 C-250.61853378 27.56557449 -249.53003632 27.01396149 -248.40855408 26.44563293 C-246.11135419 25.28508164 -243.81244845 24.12790157 -241.51196289 22.97387695 C-237.99261361 21.20336343 -234.48567879 19.40973983 -230.97851562 17.61523438 C-228.74291463 16.48944033 -226.50660941 15.36504339 -224.26953125 14.2421875 C-223.22249527 13.70272995 -222.17545929 13.1632724 -221.09669495 12.60746765 C-220.11224899 12.11978409 -219.12780304 11.63210052 -218.11352539 11.12963867 C-216.82376549 10.47822151 -216.82376549 10.47822151 -215.50794983 9.81364441 C-212.23493347 8.79870247 -210.20015116 9.08127487 -206.921875 10.01171875 C-203.89026046 13.11223362 -201.77633456 16.12578304 -199.921875 20.01171875 C-199.14831665 19.55285278 -199.14831665 19.55285278 -198.35913086 19.0847168 C-169.6036145 2.1182356 -139.54513326 -11.38465785 -106.921875 -18.98828125 C-106.19371582 -19.16472168 -105.46555664 -19.34116211 -104.71533203 -19.52294922 C-67.50920673 -28.24326988 -31.88585767 -19.43765375 0 0 Z M-192.921875 36.01171875 C-187.03977983 49.76885581 -180.52300527 63.20238049 -173.96551514 76.64575195 C-173.62240295 77.34917725 -173.27929077 78.05260254 -172.92578125 78.77734375 C-172.58476379 79.47625732 -172.24374634 80.1751709 -171.89239502 80.89526367 C-169.74001212 85.31293881 -167.61520309 89.74241752 -165.51171875 94.18359375 C-164.75242065 95.78618042 -164.75242065 95.78618042 -163.9777832 97.42114258 C-163.0470742 99.39070132 -162.11964774 101.36181571 -161.19604492 103.3347168 C-160.78845947 104.19621338 -160.38087402 105.05770996 -159.9609375 105.9453125 C-159.61240723 106.68837646 -159.26387695 107.43144043 -158.90478516 108.19702148 C-157.9405822 110.18300557 -157.9405822 110.18300557 -155.921875 112.01171875 C-155.24382812 111.68558594 -154.56578125 111.35945313 -153.8671875 111.0234375 C-136.74573253 102.9844164 -120.59621492 100.60521504 -102.24975586 106.16259766 C-98.16611416 107.65215254 -94.27936001 109.57077201 -90.35083008 111.42431641 C-60.33421358 125.32022531 -27.8512263 135.376386 5.078125 139.01171875 C6.03074219 139.12257813 6.98335937 139.2334375 7.96484375 139.34765625 C61.63692213 144.53946514 105.08349343 129.31773307 147.078125 97.01171875 C147.98908936 96.31344971 147.98908936 96.31344971 148.91845703 95.60107422 C162.1989024 85.39510815 174.90862867 74.52016556 187.078125 63.01171875 C187.62919922 62.49464355 188.18027344 61.97756836 188.74804688 61.44482422 C202.71821025 48.72238762 202.71821025 48.72238762 209.1953125 31.73046875 C208.6481741 26.717975 207.89520266 23.61067769 204.078125 20.01171875 C201.05713703 17.74597777 197.93247356 17.58741644 194.19897461 17.70214844 C186.66985626 18.80113797 180.51001413 24.57099482 174.765625 29.13671875 C156.39039895 43.43206675 136.57341937 57.35091531 115.6875 67.70703125 C114.73987793 68.18277588 113.79225586 68.65852051 112.81591797 69.14868164 C110.96066602 70.07251041 109.09545507 70.97670629 107.21923828 71.85717773 C101.84163806 74.52567352 98.94306727 76.88287201 96.07666016 82.1809082 C93.19602565 87.462541 88.0247084 90.94510635 82.453125 92.88671875 C49.9040538 102.44573966 9.76776401 89.22010411 -21.484375 80.26171875 C-22.47139404 79.98030029 -23.45841309 79.69888184 -24.4753418 79.40893555 C-28.96852007 78.07690293 -33.11203169 76.84767574 -36.921875 74.01171875 C-38.46774376 70.91998123 -38.21547021 68.41742323 -37.921875 65.01171875 C-36.359375 62.57421875 -36.359375 62.57421875 -33.921875 61.01171875 C-26.97157329 60.22256001 -20.75867848 62.62453724 -14.171875 64.63671875 C-0.21672548 68.75425664 13.80561797 72.17333146 28.078125 75.01171875 C28.96371094 75.19105957 29.84929687 75.37040039 30.76171875 75.55517578 C41.31975702 77.6284879 51.69562084 78.29640388 62.453125 78.38671875 C64.19335938 78.40774658 64.19335938 78.40774658 65.96875 78.42919922 C73.94548004 78.38509437 73.94548004 78.38509437 81.078125 75.01171875 C84.45357733 71.4034766 84.97048843 68.46481249 85.328125 63.63671875 C84.95313547 58.19937059 83.37886372 55.25085051 79.4440918 51.50244141 C76.07911506 48.78314403 72.46330853 47.48384693 68.34765625 46.28515625 C66.82022945 45.81169158 65.29280439 45.3382213 63.76538086 44.86474609 C62.97001923 44.6240741 62.17465759 44.3834021 61.35519409 44.13543701 C57.16452276 42.86234138 52.99176462 41.53374684 48.8203125 40.19921875 C47.98582077 39.93225189 47.15132904 39.66528503 46.29154968 39.39022827 C23.94174733 32.16478417 2.36806325 22.47173348 -17.62182617 10.13549805 C-70.84512922 -22.2635065 -145.68775619 2.90263547 -192.921875 36.01171875 Z M-223.64453125 33.22265625 C-224.63555092 33.71495224 -224.63555092 33.71495224 -225.64659119 34.2171936 C-227.04381621 34.91293257 -228.43999535 35.61077529 -229.83520508 36.31054688 C-231.97573627 37.38239301 -234.1213713 38.44347971 -236.26757812 39.50390625 C-237.62271989 40.18034077 -238.97754848 40.85740312 -240.33203125 41.53515625 C-240.97680923 41.85294037 -241.62158722 42.17072449 -242.28590393 42.49813843 C-245.71949551 44.08777033 -245.71949551 44.08777033 -247.921875 47.01171875 C-246.87272712 49.51483412 -245.75779809 51.89640467 -244.5390625 54.31640625 C-244.17343704 55.05872498 -243.80781158 55.8010437 -243.43110657 56.56585693 C-242.64014635 58.17017216 -241.84569531 59.77276997 -241.04818726 61.37384033 C-238.9415189 65.60444018 -236.86060603 69.84768262 -234.77734375 74.08984375 C-234.14965843 75.36566818 -234.14965843 75.36566818 -233.5092926 76.66726685 C-229.93663946 83.94329115 -226.49394582 91.27139485 -223.109375 98.63671875 C-218.3151943 109.05356411 -213.39513482 119.40153251 -208.40234375 129.72436523 C-204.50363561 137.78776702 -200.66912237 145.87678537 -196.921875 154.01171875 C-185.85287257 148.81102768 -174.82887542 143.54528666 -163.921875 138.01171875 C-166.87877456 130.10365391 -170.52276207 122.65010779 -174.359375 115.13671875 C-180.93294552 102.1520914 -187.10354083 89.00364326 -193.18310547 75.78027344 C-196.07282461 69.50714974 -199.00265542 63.2526867 -201.93289185 56.99841309 C-202.89328326 54.94776834 -203.85185099 52.89627843 -204.81030273 50.84472656 C-208.08363437 43.85018735 -211.41726934 36.8937468 -214.921875 30.01171875 C-218.15602577 30.01171875 -220.80309806 31.79992512 -223.64453125 33.22265625 Z " fill="#134A87" transform="translate(276.921875,324.98828125)"/>
</svg>
